<svg width="43" height="44" viewBox="0 0 43 44" fill="none" xmlns="http://www.w3.org/2000/svg">
<g clip-path="url(#clip0_370_7883)">
<path d="M28.6427 3.5096L30.052 3.51044C30.0822 3.51044 30.0979 3.49504 30.099 3.46425C30.1091 3.18374 30.1052 2.94663 30.0873 2.7529C30.01 1.92734 29.103 2.07263 28.5193 2.07683" stroke="#686C6E" stroke-width="2"/>
<path d="M28.5196 2.07713C23.3612 2.07489 18.194 2.07657 13.0177 2.08217C12.1048 2.08301 12.1544 2.84055 12.1863 3.49143C12.1865 3.4964 12.1886 3.5011 12.1922 3.50455C12.1958 3.50799 12.2006 3.50991 12.2056 3.50991H28.643" stroke="#7A7A7A" stroke-width="2"/>
<path d="M28.5195 2.07715C28.669 2.55418 28.7102 3.03177 28.643 3.50992" stroke="#E2E6E8" stroke-width="2"/>
<path d="M30.8364 7.09238L32.2045 7.08986C32.2375 7.0893 32.2538 7.07278 32.2532 7.04031C32.2465 6.64446 32.2465 6.23686 32.2532 5.8175C32.2582 5.50339 32.1743 5.21197 31.887 5.0482C31.6116 4.89115 31.0438 4.9407 30.6802 4.94658" stroke="#686C6E" stroke-width="2"/>
<path d="M30.6802 4.94681C24.1384 4.94457 17.5859 4.94485 11.0228 4.94765C10.6373 4.94765 10.3022 4.97032 10.1217 5.33901C10.0522 5.48011 10.0214 5.69371 10.0293 5.97981C10.0388 6.34599 10.0396 6.69928 10.0318 7.0397C10.0307 7.07385 10.0472 7.09093 10.0813 7.09093L30.8364 7.09261" stroke="#7A7A7A" stroke-width="2"/>
<path d="M30.6802 4.94629C30.7754 5.29007 30.8213 5.57085 30.8179 5.78865C30.8118 6.21977 30.8179 6.65425 30.8364 7.09209" stroke="#E2E6E8" stroke-width="2"/>
<path d="M28.3657 16.4153L29.7741 16.4077C29.801 16.4077 29.8161 16.3943 29.8195 16.3674L30.7223 8.57871C30.7229 8.57262 30.7222 8.56648 30.7204 8.56068C30.7185 8.55488 30.7154 8.54956 30.7114 8.54504C30.7073 8.54053 30.7024 8.53693 30.6969 8.53449C30.6914 8.53204 30.6855 8.5308 30.6795 8.53084L29.2266 8.52832" stroke="#0B3360" stroke-width="2"/>
<path d="M29.2265 8.52832L11.5864 8.52916C11.5826 8.52913 11.5788 8.52992 11.5753 8.53147C11.5718 8.53303 11.5687 8.53532 11.5661 8.53818C11.5636 8.54104 11.5617 8.54442 11.5605 8.54808C11.5594 8.55173 11.5591 8.55559 11.5595 8.55939L12.3028 14.9464C12.3036 14.9549 12.3076 14.9629 12.314 14.9686C12.3204 14.9744 12.3287 14.9775 12.3372 14.9775C15.4508 14.9825 18.5588 14.9811 21.6612 14.9733C22.3303 14.9716 22.87 14.9993 23.2804 15.0564C24.8274 15.2703 26.2033 15.9002 27.4082 16.9461C27.4289 16.964 27.4483 16.9623 27.4662 16.941C27.726 16.6398 28.0258 16.4646 28.3657 16.4153" stroke="#114B7A" stroke-width="2"/>
<path d="M29.2266 8.52832L28.3657 16.4153" stroke="#1C7EDA" stroke-width="2"/>
<path d="M9.53164 16.4159C5.83549 16.4167 2.90443 19.142 2.86748 22.8961C2.8658 23.0949 2.8644 23.3113 2.86328 23.5453C2.86328 23.5649 2.87336 23.5747 2.89352 23.5747H20.033C20.0415 23.5747 20.0496 23.5715 20.0556 23.5656C20.0616 23.5598 20.065 23.5519 20.065 23.5437C20.0739 23.126 20.0734 22.6848 20.0633 22.2201C20.0498 21.5877 20.2615 21.0611 20.8477 20.8175C21.0358 20.7391 21.2931 20.7025 21.6195 20.7075C22.2046 20.7165 22.8709 20.7179 23.6183 20.7117C23.6256 20.7115 23.6325 20.7086 23.6377 20.7036C23.6428 20.6986 23.6458 20.6919 23.6461 20.6848C23.6539 20.3539 23.6536 20.0233 23.6452 19.693C23.634 19.263 23.6545 18.9576 23.7065 18.7767C23.8375 18.3254 24.1276 18.034 24.5766 17.9024C24.7535 17.8504 25.0024 17.8285 25.3232 17.8369C25.62 17.8448 25.9016 17.8467 26.1681 17.8428C26.2118 17.8422 26.2163 17.8285 26.1815 17.8016C25.2885 17.1057 24.2796 16.6701 23.1547 16.4949C22.783 16.4372 22.2542 16.4086 21.5683 16.4092C17.546 16.4137 13.5338 16.4159 9.53164 16.4159Z" stroke="#804C01" stroke-width="2"/>
<path d="M28.6996 29.6562C29.4348 29.786 30.1279 29.8154 30.7791 29.7443C30.8054 29.7415 30.8185 29.727 30.8185 29.7007V17.8933C30.8185 17.8608 30.8023 17.8446 30.7698 17.8446L28.6963 17.8438C28.6882 17.8438 28.6805 17.8469 28.6749 17.8526C28.6692 17.8583 28.666 17.866 28.666 17.874V29.6158C28.666 29.6388 28.6772 29.6522 28.6996 29.6562Z" stroke="#805A01" stroke-width="2"/>
<path d="M25.1113 27.7962C25.6992 28.4252 26.3871 28.8938 27.1782 29.234C27.2146 29.2496 27.2328 29.2376 27.2328 29.1979V19.3272C27.2328 19.2953 27.2171 19.2793 27.1858 19.2793H25.1349C25.1013 19.2793 25.0845 19.2958 25.0845 19.3288V27.729C25.0845 27.7538 25.0941 27.7778 25.1113 27.7962Z" stroke="#7F6C1A" stroke-width="2"/>
<path d="M32.2794 29.496C33.0319 29.2894 33.7508 28.9241 34.3656 28.4462C34.3868 28.4294 34.3975 28.4076 34.3975 28.3807V19.3087C34.3975 19.2891 34.3877 19.2793 34.3681 19.2793H32.287C32.2772 19.2793 32.2678 19.2831 32.2608 19.2899C32.2539 19.2966 32.25 19.3058 32.25 19.3154V29.4733C32.25 29.4769 32.2508 29.4804 32.2524 29.4836C32.254 29.4869 32.2563 29.4897 32.2592 29.4918C32.262 29.494 32.2653 29.4955 32.2688 29.4963C32.2723 29.497 32.2759 29.4969 32.2794 29.496Z" stroke="#7F6C1A" stroke-width="2"/>
<path d="M36.3888 25.7314C36.7107 24.9889 37.2264 24.4232 37.9358 24.034C37.95 24.0262 37.9619 24.0146 37.9702 24.0004C37.9785 23.9862 37.9828 23.97 37.9828 23.9534V21.4734C37.9828 21.4448 37.9685 21.4305 37.94 21.4305L35.8597 21.4297C35.8434 21.4297 35.8353 21.4378 35.8353 21.454L35.8345 26.7602C35.8347 26.7636 35.8359 26.7669 35.838 26.7696C35.8401 26.7723 35.843 26.7742 35.8462 26.7752C35.8494 26.7761 35.8528 26.776 35.8558 26.7748C35.8588 26.7736 35.8614 26.7714 35.863 26.7686C36.0651 26.4198 36.2404 26.074 36.3888 25.7314Z" stroke="#805A01" stroke-width="2"/>
<path d="M22.2727 24.0367C22.8376 24.3581 23.276 24.7881 23.5879 25.3267C23.6276 25.395 23.6475 25.3897 23.6475 25.3107V22.1949C23.6475 22.1613 23.6307 22.1445 23.5971 22.1445H21.542C21.514 22.1445 21.5 22.1585 21.5 22.1865V23.6604C21.5 23.6765 21.5048 23.6923 21.514 23.7056C21.5231 23.719 21.5361 23.7293 21.5512 23.7352C21.7956 23.8309 22.0425 23.9057 22.2727 24.0367Z" stroke="#805A01" stroke-width="2"/>
<path d="M36.043 42.2124L37.4287 42.2132C37.4567 42.2132 37.4727 42.1995 37.4766 42.1721L40.0994 25.067C40.1039 25.0407 40.0927 25.0261 40.0658 25.0233C39.502 24.969 39.0255 25.0575 38.6364 25.2887" stroke="#631414" stroke-width="2"/>
<path d="M38.6362 25.2882C38.2476 25.4993 37.9772 25.7574 37.8249 26.0625C37.6928 26.3279 37.555 26.611 37.4117 26.9116C36.8249 28.1434 35.9775 29.1288 34.8695 29.8679C33.493 30.7858 31.9384 31.1806 30.2369 31.2242C27.9369 31.2825 25.9741 30.5599 24.3488 29.0566C23.6979 28.4544 23.1713 27.7154 22.7799 26.9284C22.6027 26.5723 22.4793 26.181 22.2374 25.8635C21.7049 25.1631 20.9776 24.9674 20.1235 25.0144C20.1022 25.0155 20.0933 25.0265 20.0966 25.0472L22.7195 42.1699C22.7234 42.1957 22.7385 42.2085 22.7648 42.2085L36.0427 42.2119" stroke="#7A221B" stroke-width="2"/>
<path d="M38.6364 25.2881L36.043 42.2118" stroke="#DD362F" stroke-width="2"/>
<path d="M11.7864 30.7667L12.1458 31.1195C12.1665 31.1402 12.1873 31.1402 12.208 31.1195L15.0483 28.29" stroke="#7F6C1A" stroke-width="2"/>
<path d="M15.0482 28.2896C15.2626 28.0819 15.4835 27.8621 15.7108 27.6303C16.0098 27.3252 16.3662 27.1704 16.7799 27.1659C17.4658 27.1586 18.176 27.1581 18.9106 27.1642C18.9526 27.1648 18.9703 27.1441 18.9635 27.1021L18.6486 25.0596C18.6441 25.0316 18.6276 25.0176 18.599 25.0176H5.06076C5.04918 25.0176 5.03807 25.0223 5.02988 25.0306C5.02169 25.039 5.01709 25.0503 5.01709 25.0621V27.1382C5.01709 27.1522 5.02409 27.1592 5.03809 27.1592C5.78275 27.1642 6.57584 27.1637 7.41736 27.1575C7.93807 27.1541 8.29836 27.2793 8.66789 27.6488C9.68298 28.6645 10.7224 29.7036 11.7862 30.7663" stroke="#80761D" stroke-width="2"/>
<path d="M15.0483 28.29C14.6558 28.1635 14.3378 28.2234 14.0943 28.4697C13.3317 29.2413 12.5624 30.0069 11.7864 30.7667" stroke="#FEE237" stroke-width="2"/>
<path d="M3.79677 28.6933C3.11397 28.9494 2.68313 29.7464 2.94685 30.4334C3.21168 31.1221 3.7377 31.4659 4.52491 31.4648C6.48063 31.462 8.42935 31.4614 10.3711 31.4631C10.4276 31.4631 10.436 31.4435 10.3963 31.4043C9.44332 30.4558 8.54496 29.558 7.7012 28.7109C7.6189 28.6286 7.52007 28.588 7.40474 28.5891C6.51786 28.5992 5.64778 28.5984 4.7945 28.5866C4.33539 28.5805 4.00281 28.616 3.79677 28.6933Z" stroke="#3D2B24" stroke-width="2"/>
<path d="M16.7943 28.5936C16.7868 28.5936 16.7795 28.5967 16.7742 28.602L13.959 31.4146C13.955 31.4186 13.9523 31.4237 13.9512 31.4293C13.9501 31.4348 13.9507 31.4405 13.9529 31.4457C13.955 31.4509 13.9587 31.4554 13.9633 31.4585C13.968 31.4617 13.9735 31.4633 13.9792 31.4634L19.596 31.4625C19.6002 31.4626 19.6043 31.4617 19.608 31.46C19.6118 31.4583 19.6152 31.4558 19.6179 31.4527C19.6206 31.4496 19.6226 31.446 19.6238 31.442C19.6249 31.438 19.6252 31.4339 19.6246 31.4298L19.1954 28.6171C19.1944 28.6104 19.1911 28.6043 19.186 28.5999C19.181 28.5954 19.1745 28.5929 19.1677 28.5928L16.7943 28.5936Z" stroke="#3D2B24" stroke-width="2"/>
<path d="M16.0829 35.0395C16.4835 35.0387 16.9009 35.1671 17.1831 35.4485C18.1282 36.3925 19.0744 37.3381 20.0217 38.2855C20.0509 38.3146 20.0797 38.3149 20.1082 38.2863L20.5634 37.8353C20.5892 37.8101 20.5993 37.7796 20.5937 37.7438L19.8588 32.9416C19.8538 32.9102 19.8356 32.8945 19.8042 32.8945H5.05908C5.03109 32.8945 5.01709 32.9088 5.01709 32.9374V34.9941C5.01709 35.0255 5.03249 35.0412 5.06328 35.0412C8.73732 35.0429 12.4105 35.0423 16.0829 35.0395Z" stroke="#265828" stroke-width="2"/>
<path d="M20.5358 39.882C20.2301 40.1574 19.7942 40.0869 19.5162 39.8089C18.4042 38.6975 17.301 37.5942 16.2064 36.4991C16.1951 36.4878 16.18 36.4815 16.1644 36.4814L3.00654 36.4882C2.908 36.4882 2.85957 36.5372 2.86125 36.6351C2.87637 37.5405 2.78902 38.5752 2.96875 39.415C3.20726 40.5312 4.02695 41.4995 5.10363 41.9329C5.56275 42.1171 6.04202 42.2095 6.54144 42.21C11.3202 42.2128 16.2187 42.2131 21.237 42.2109C21.2417 42.2109 21.2463 42.21 21.2505 42.208C21.2548 42.2061 21.2585 42.2033 21.2616 42.1998C21.2646 42.1963 21.2669 42.1921 21.2681 42.1877C21.2694 42.1832 21.2697 42.1785 21.2689 42.1739L20.8759 39.6166C20.8697 39.5746 20.8521 39.569 20.823 39.5998C20.7334 39.6961 20.6377 39.7901 20.5358 39.882Z" stroke="#804C01" stroke-width="2"/>
<path d="M10.7293 19.2265C10.7281 19.051 10.6572 18.8832 10.5322 18.7599C10.4072 18.6367 10.2384 18.5681 10.0629 18.5694L9.27851 18.5748C9.103 18.5761 8.93516 18.647 8.81192 18.7719C8.68868 18.8969 8.62013 19.0657 8.62135 19.2412L8.62199 19.3319C8.62322 19.5074 8.69412 19.6753 8.81909 19.7985C8.94406 19.9218 9.11288 19.9903 9.28839 19.9891L10.0728 19.9836C10.2483 19.9824 10.4161 19.9115 10.5394 19.7865C10.6626 19.6615 10.7312 19.4927 10.7299 19.3172L10.7293 19.2265Z" stroke="#804C01" stroke-width="2"/>
<path d="M19.329 19.2331C19.329 19.0576 19.2592 18.8892 19.1351 18.7651C19.011 18.641 18.8427 18.5713 18.6672 18.5713H17.8827C17.7958 18.5713 17.7098 18.5884 17.6295 18.6217C17.5492 18.6549 17.4762 18.7037 17.4148 18.7651C17.3533 18.8266 17.3046 18.8995 17.2713 18.9798C17.2381 19.0601 17.2209 19.1462 17.2209 19.2331V19.3238C17.2209 19.4993 17.2907 19.6676 17.4148 19.7917C17.5389 19.9159 17.7072 19.9856 17.8827 19.9856H18.6672C18.8427 19.9856 19.011 19.9159 19.1351 19.7917C19.2592 19.6676 19.329 19.4993 19.329 19.3238V19.2331Z" stroke="#804C01" stroke-width="2"/>
<path d="M15.0289 20.667C15.0289 20.4919 14.9594 20.324 14.8356 20.2002C14.7118 20.0764 14.5439 20.0068 14.3688 20.0068H13.581C13.4059 20.0068 13.238 20.0764 13.1142 20.2002C12.9904 20.324 12.9209 20.4919 12.9209 20.667V20.7577C12.9209 20.9327 12.9904 21.1006 13.1142 21.2244C13.238 21.3482 13.4059 21.4178 13.581 21.4178H14.3688C14.5439 21.4178 14.7118 21.3482 14.8356 21.2244C14.9594 21.1006 15.0289 20.9327 15.0289 20.7577V20.667Z" stroke="#804C01" stroke-width="2"/>
<path d="M33.6726 36.8392C33.6726 35.7961 33.2583 34.7958 32.5207 34.0582C31.7831 33.3206 30.7827 32.9062 29.7396 32.9062C28.6965 32.9062 27.6962 33.3206 26.9586 34.0582C26.221 34.7958 25.8066 35.7961 25.8066 36.8392C25.8066 37.8823 26.221 38.8827 26.9586 39.6203C27.6962 40.3579 28.6965 40.7722 29.7396 40.7722C30.7827 40.7722 31.7831 40.3579 32.5207 39.6203C33.2583 38.8827 33.6726 37.8823 33.6726 36.8392Z" stroke="#7A221B" stroke-width="2"/>
<path d="M29.9209 39.3309C30.2967 39.3039 30.6615 39.1923 30.9881 39.0044C31.3148 38.8165 31.5948 38.5572 31.8072 38.2458C31.9961 37.9692 32.1274 37.6574 32.1934 37.3289C32.2593 37.0004 32.2585 36.6619 32.191 36.3335C32.0824 35.804 31.805 35.324 31.4004 34.9654C30.9958 34.6068 30.4858 34.3891 29.9469 34.3447" stroke="#686C6E" stroke-width="2"/>
<path d="M29.947 34.3445C29.5708 34.3133 29.1924 34.3678 28.8403 34.504C28.4881 34.6402 28.1713 34.8544 27.9137 35.1305C27.4755 35.6001 27.2349 36.2206 27.2418 36.8631C27.2488 37.5158 27.5104 38.1396 27.9708 38.6016C28.2244 38.856 28.5298 39.0527 28.8663 39.1785C29.2028 39.3043 29.5625 39.3562 29.9209 39.3306" stroke="#7A7A7A" stroke-width="2"/>
<path d="M29.9469 34.3447C30.2274 34.7484 30.4046 35.0376 30.4786 35.2123C30.7887 35.9502 30.8822 36.7178 30.7591 37.5151C30.6566 38.1775 30.3772 38.7827 29.9209 39.3309" stroke="#E2E6E8" stroke-width="2"/>
<path d="M12.7959 0.644531H29.5004C30.5541 0.771628 31.2184 1.34552 31.4933 2.36621C31.5303 2.50395 31.5431 2.869 31.5319 3.46137C31.5314 3.49496 31.5479 3.51344 31.5815 3.5168C31.6352 3.52128 31.6893 3.52604 31.7436 3.53107C32.8345 3.63102 33.6651 4.55148 33.6769 5.6416C33.6842 6.2894 33.6842 6.99963 33.6769 7.77229C33.6727 8.22496 33.3745 8.51219 32.9084 8.52562C32.6783 8.53234 32.4521 8.53206 32.2298 8.52479C32.1912 8.52367 32.1697 8.54242 32.1652 8.58105L31.2581 16.3966C31.2563 16.4135 31.2604 16.4304 31.2698 16.4444C31.2792 16.4584 31.2932 16.4686 31.3094 16.4731C31.6851 16.58 31.9572 16.8115 32.1257 17.1676C32.2147 17.3549 32.2408 17.5859 32.25 17.7916C32.2517 17.828 32.2704 17.8462 32.3063 17.8462C33.2363 17.8429 34.1304 17.8423 34.9887 17.8445C35.5576 17.8457 35.8401 18.141 35.8361 18.7306C35.8339 19.1292 35.8333 19.5326 35.8345 19.9408C35.8345 19.9766 35.8521 19.9945 35.8874 19.9945C36.459 19.9979 37.0525 19.9962 37.6678 19.9895C38.1068 19.985 38.4114 20.0147 38.5816 20.0785C38.9097 20.2017 39.153 20.4326 39.3114 20.7714C39.3937 20.9478 39.4295 21.3055 39.4189 21.8447C39.4077 22.4343 39.4071 23.0023 39.4172 23.5487C39.4178 23.5751 39.4309 23.5879 39.4567 23.5874C39.6902 23.5823 39.9304 23.577 40.1773 23.5714C41.0188 23.5529 41.6772 24.2324 41.5471 25.0798C40.6602 30.8641 39.7859 36.5627 38.9242 42.1756C38.9235 42.18 38.9237 42.1845 38.9249 42.1888C38.9261 42.193 38.9282 42.197 38.9311 42.2004C38.934 42.2037 38.9376 42.2064 38.9416 42.2082C38.9456 42.2101 38.95 42.211 38.9545 42.2109C39.9567 42.2182 40.9735 42.2171 42.0048 42.2076C42.5322 42.2025 42.9017 42.3243 43 42.8786V42.9811C42.9356 43.3534 42.7153 43.5745 42.339 43.6445H0.650879C0.280228 43.5689 0.0632682 43.3483 0 42.9827V42.866C0.0867838 42.4304 0.331458 42.2129 0.734023 42.2134C1.45573 42.214 2.17408 42.2137 2.88906 42.2126C2.89406 42.2125 2.89892 42.2109 2.90305 42.2081C2.90719 42.2053 2.91042 42.2013 2.91237 42.1967C2.91432 42.1921 2.9149 42.187 2.91405 42.1821C2.91319 42.1772 2.91093 42.1726 2.90754 42.1689C1.94116 41.1824 1.45013 39.9963 1.43445 38.6105C1.42717 37.9286 1.42717 37.2315 1.43445 36.5193C1.43837 36.0988 1.58199 35.7438 1.86529 35.4544C2.31209 34.9992 2.8941 35.0395 3.51811 35.0445C3.56178 35.0451 3.58361 35.0233 3.58361 34.979V32.8072C3.58361 32.7962 3.58011 32.7854 3.57362 32.7765C3.56713 32.7676 3.55799 32.761 3.5475 32.7576C2.55424 32.4419 1.89721 31.8106 1.57639 30.8638C1.29672 30.0365 1.45881 29.0816 1.96691 28.3728C2.3538 27.8325 2.87786 27.4689 3.5391 27.2819C3.55215 27.2781 3.56361 27.2702 3.57179 27.2594C3.57996 27.2487 3.5844 27.2356 3.58445 27.2222L3.58361 25.0806C3.58361 25.0459 3.56654 25.0286 3.53238 25.0286C3.32018 25.0258 3.10098 25.0199 2.87479 25.0109C2.08785 24.979 1.49324 24.439 1.44285 23.6521C1.41542 23.2271 1.4241 22.7428 1.46889 22.1991C1.80314 18.1494 5.17344 15.0579 9.20721 14.984C9.74695 14.9745 10.2853 14.9737 10.8222 14.9815C10.8273 14.9817 10.8324 14.9807 10.837 14.9787C10.8417 14.9767 10.8459 14.9737 10.8493 14.9699C10.8528 14.966 10.8553 14.9615 10.8569 14.9565C10.8585 14.9516 10.8589 14.9464 10.8583 14.9412L10.1184 8.58273C10.1145 8.5469 10.0944 8.5287 10.058 8.52814C9.73967 8.52395 9.34914 8.5735 9.05687 8.46684C8.71842 8.34254 8.59748 8.02508 8.59916 7.6799C8.60252 6.98171 8.60364 6.32299 8.60252 5.70375C8.60084 4.49018 9.49023 3.59238 10.6954 3.51512C10.7346 3.51288 10.7539 3.49188 10.7534 3.45213C10.7506 3.25673 10.7494 3.06468 10.75 2.876C10.7517 1.67838 11.5714 0.752031 12.7959 0.644531ZM28.6429 3.50924L30.0521 3.51008C30.0824 3.51008 30.098 3.49468 30.0992 3.46389C30.1092 3.18338 30.1053 2.94626 30.0874 2.75254C30.0101 1.92697 29.1031 2.07227 28.5194 2.07646C23.3611 2.07423 18.1938 2.0759 13.0176 2.0815C12.1047 2.08234 12.1542 2.83988 12.1861 3.49076C12.1863 3.49574 12.1885 3.50044 12.1921 3.50388C12.1957 3.50732 12.2005 3.50924 12.2054 3.50924H28.6429ZM30.8365 7.09201L32.2046 7.08949C32.2377 7.08893 32.2539 7.07242 32.2534 7.03994C32.2466 6.6441 32.2466 6.23649 32.2534 5.81713C32.2584 5.50303 32.1744 5.2116 31.8872 5.04783C31.6117 4.89078 31.044 4.94033 30.6803 4.94621C24.1385 4.94397 17.586 4.94425 11.0229 4.94705C10.6375 4.94705 10.3024 4.96973 10.1218 5.33842C10.0524 5.47951 10.0216 5.69311 10.0294 5.97922C10.0389 6.34539 10.0398 6.69868 10.0319 7.0391C10.0308 7.07326 10.0473 7.09033 10.0815 7.09033L30.8365 7.09201ZM28.3657 16.4151L29.7741 16.4076C29.801 16.4076 29.8161 16.3941 29.8195 16.3672L30.7223 8.57854C30.7229 8.57245 30.7222 8.56631 30.7204 8.56051C30.7185 8.55471 30.7154 8.54938 30.7114 8.54487C30.7073 8.54035 30.7024 8.53676 30.6969 8.53431C30.6914 8.53187 30.6855 8.53062 30.6795 8.53066L29.2266 8.52814L11.5865 8.52898C11.5827 8.52895 11.5789 8.52974 11.5754 8.5313C11.5719 8.53285 11.5687 8.53514 11.5662 8.538C11.5636 8.54087 11.5617 8.54424 11.5606 8.5479C11.5595 8.55156 11.5591 8.55542 11.5596 8.55922L12.3029 14.9462C12.3037 14.9548 12.3077 14.9627 12.3141 14.9684C12.3204 14.9742 12.3287 14.9773 12.3373 14.9773C15.4509 14.9823 18.5589 14.9809 21.6613 14.9731C22.3303 14.9714 22.8701 14.9991 23.2805 15.0563C24.8275 15.2701 26.2034 15.9 27.4083 16.9459C27.429 16.9638 27.4483 16.9621 27.4663 16.9409C27.726 16.6396 28.0259 16.4644 28.3657 16.4151ZM9.53139 16.416C5.83523 16.4168 2.90418 19.1421 2.86723 22.8962C2.86555 23.095 2.86415 23.3114 2.86303 23.5454C2.86303 23.565 2.87311 23.5748 2.89326 23.5748H20.0328C20.0413 23.5748 20.0494 23.5715 20.0554 23.5657C20.0613 23.5599 20.0647 23.552 20.0647 23.5437C20.0737 23.126 20.0731 22.6848 20.063 22.2201C20.0496 21.5877 20.2612 21.0611 20.8474 20.8176C21.0356 20.7392 21.2928 20.7025 21.6193 20.7076C22.2043 20.7165 22.8706 20.7179 23.6181 20.7118C23.6254 20.7116 23.6323 20.7087 23.6374 20.7037C23.6426 20.6987 23.6456 20.6919 23.6458 20.6849C23.6536 20.354 23.6534 20.0234 23.645 19.693C23.6338 19.263 23.6542 18.9576 23.7063 18.7768C23.8373 18.3255 24.1273 18.0341 24.5763 17.9025C24.7533 17.8504 25.0021 17.8286 25.323 17.837C25.6197 17.8448 25.9013 17.8468 26.1679 17.8429C26.2115 17.8423 26.216 17.8286 26.1813 17.8017C25.2883 17.1057 24.2793 16.6701 23.1545 16.4949C22.7827 16.4372 22.2539 16.4087 21.568 16.4092C17.5457 16.4137 13.5335 16.416 9.53139 16.416ZM28.7 29.6561C29.4351 29.786 30.1283 29.8154 30.7794 29.7443C30.8057 29.7415 30.8189 29.7269 30.8189 29.7006V17.8932C30.8189 17.8608 30.8027 17.8445 30.7702 17.8445L28.6966 17.8437C28.6886 17.8437 28.6809 17.8469 28.6752 17.8525C28.6696 17.8582 28.6664 17.8659 28.6664 17.8739V29.6158C28.6664 29.6387 28.6776 29.6522 28.7 29.6561ZM25.1113 27.7958C25.6992 28.4249 26.387 28.8935 27.1782 29.2337C27.2146 29.2493 27.2328 29.2373 27.2328 29.1975V19.3269C27.2328 19.2949 27.2171 19.279 27.1857 19.279H25.1348C25.1012 19.279 25.0845 19.2955 25.0845 19.3285V27.7287C25.0845 27.7535 25.0941 27.7775 25.1113 27.7958ZM32.2794 29.4957C33.0319 29.2891 33.7508 28.9237 34.3656 28.4459C34.3868 28.4291 34.3975 28.4072 34.3975 28.3804V19.3084C34.3975 19.2888 34.3877 19.279 34.3681 19.279H32.287C32.2772 19.279 32.2678 19.2828 32.2608 19.2896C32.2539 19.2963 32.25 19.3055 32.25 19.3151V29.473C32.25 29.4766 32.2508 29.4801 32.2524 29.4833C32.254 29.4865 32.2563 29.4893 32.2592 29.4915C32.262 29.4937 32.2653 29.4952 32.2688 29.496C32.2723 29.4967 32.2759 29.4966 32.2794 29.4957ZM36.3887 25.7307C36.7107 24.9882 37.2264 24.4225 37.9357 24.0333C37.95 24.0255 37.9619 24.0139 37.9702 23.9997C37.9785 23.9855 37.9828 23.9693 37.9828 23.9527V21.4727C37.9828 21.4441 37.9685 21.4298 37.9399 21.4298L35.8596 21.429C35.8434 21.429 35.8353 21.4371 35.8353 21.4533L35.8345 26.7595C35.8346 26.7629 35.8359 26.7662 35.838 26.7689C35.8401 26.7716 35.843 26.7735 35.8462 26.7745C35.8494 26.7754 35.8528 26.7753 35.8558 26.7741C35.8588 26.7729 35.8614 26.7707 35.863 26.7679C36.0651 26.4191 36.2404 26.0733 36.3887 25.7307ZM22.2727 24.0367C22.8376 24.3581 23.276 24.7881 23.5879 25.3267C23.6276 25.395 23.6475 25.3897 23.6475 25.3107V22.1949C23.6475 22.1613 23.6307 22.1445 23.5971 22.1445H21.542C21.514 22.1445 21.5 22.1585 21.5 22.1865V23.6604C21.5 23.6765 21.5048 23.6923 21.514 23.7056C21.5231 23.719 21.5361 23.7293 21.5512 23.7352C21.7956 23.8309 22.0425 23.9057 22.2727 24.0367ZM36.0427 42.2118L37.4285 42.2126C37.4565 42.2126 37.4724 42.1989 37.4763 42.1714L40.0992 25.0663C40.1037 25.04 40.0925 25.0255 40.0656 25.0227C39.5018 24.9684 39.0253 25.0568 38.6362 25.2881C38.2476 25.4991 37.9772 25.7573 37.8249 26.0624C37.6927 26.3278 37.555 26.6108 37.4117 26.9115C36.8249 28.1433 35.9775 29.1287 34.8695 29.8677C33.493 30.7857 31.9384 31.1804 30.2369 31.2241C27.9368 31.2823 25.9741 30.5598 24.3488 29.0564C23.6979 28.4543 23.1713 27.7152 22.7799 26.9283C22.6027 26.5722 22.4793 26.1808 22.2374 25.8634C21.7049 25.1629 20.9776 24.9672 20.1235 25.0143C20.1022 25.0154 20.0933 25.0263 20.0966 25.047L22.7195 42.1698C22.7234 42.1955 22.7385 42.2084 22.7648 42.2084L36.0427 42.2118ZM11.7864 30.7664L12.1458 31.1191C12.1665 31.1398 12.1873 31.1398 12.208 31.1191L15.0483 28.2897C15.2628 28.0819 15.4836 27.8622 15.711 27.6304C16.0099 27.3252 16.3663 27.1704 16.7801 27.166C17.466 27.1587 18.1762 27.1581 18.9108 27.1643C18.9528 27.1648 18.9704 27.1441 18.9637 27.1021L18.6487 25.0596C18.6443 25.0316 18.6277 25.0176 18.5992 25.0176H5.0609C5.04932 25.0176 5.03821 25.0223 5.03002 25.0307C5.02183 25.039 5.01723 25.0503 5.01723 25.0621V27.1382C5.01723 27.1522 5.02423 27.1592 5.03822 27.1592C5.78288 27.1643 6.57598 27.1637 7.4175 27.1576C7.9382 27.1542 8.2985 27.2793 8.66803 27.6489C9.68312 28.6645 10.7226 29.7037 11.7864 30.7664ZM3.79693 28.6928C3.11414 28.9489 2.6833 29.746 2.94701 30.4329C3.21184 31.1216 3.73786 31.4654 4.52508 31.4643C6.48079 31.4615 8.42951 31.4609 10.3712 31.4626C10.4278 31.4626 10.4362 31.443 10.3964 31.4038C9.44348 30.4553 8.54513 29.5576 7.70137 28.7104C7.61906 28.6281 7.52024 28.5875 7.4049 28.5887C6.51803 28.5987 5.64795 28.5979 4.79467 28.5861C4.33555 28.58 4.00297 28.6155 3.79693 28.6928ZM16.7944 28.5937C16.7868 28.5937 16.7795 28.5967 16.7742 28.6021L13.959 31.4147C13.9551 31.4187 13.9524 31.4238 13.9513 31.4293C13.9502 31.4349 13.9507 31.4406 13.9529 31.4458C13.955 31.451 13.9587 31.4555 13.9634 31.4586C13.9681 31.4617 13.9736 31.4634 13.9792 31.4634L19.5961 31.4626C19.6002 31.4626 19.6043 31.4618 19.6081 31.4601C19.6118 31.4584 19.6152 31.4559 19.6179 31.4528C19.6206 31.4497 19.6226 31.446 19.6238 31.4421C19.625 31.4381 19.6252 31.4339 19.6246 31.4298L19.1955 28.6172C19.1945 28.6105 19.1911 28.6044 19.1861 28.6C19.181 28.5955 19.1745 28.593 19.1678 28.5929L16.7944 28.5937ZM16.083 35.0395C16.4836 35.0387 16.901 35.1671 17.1832 35.4485C18.1283 36.3925 19.0745 37.3381 20.0219 38.2855C20.051 38.3146 20.0798 38.3149 20.1084 38.2863L20.5636 37.8353C20.5893 37.8101 20.5994 37.7796 20.5938 37.7438L19.8589 32.9416C19.8539 32.9102 19.8357 32.8945 19.8044 32.8945H5.05922C5.03122 32.8945 5.01723 32.9088 5.01723 32.9374V34.9941C5.01723 35.0255 5.03262 35.0412 5.06342 35.0412C8.73745 35.0429 12.4107 35.0423 16.083 35.0395ZM20.5359 39.8812C20.2302 40.1567 19.7943 40.0861 19.5163 39.8081C18.4043 38.6967 17.3011 37.5935 16.2065 36.4983C16.1952 36.487 16.1801 36.4807 16.1645 36.4807L3.00664 36.4874C2.9081 36.4874 2.85967 36.5364 2.86135 36.6344C2.87646 37.5397 2.78912 38.5744 2.96885 39.4142C3.20736 40.5304 4.02705 41.4987 5.10373 41.9321C5.56285 42.1163 6.04212 42.2087 6.54154 42.2092C11.3203 42.212 16.2188 42.2123 21.2371 42.2101C21.2418 42.2101 21.2464 42.2092 21.2506 42.2073C21.2549 42.2054 21.2586 42.2025 21.2617 42.199C21.2647 42.1955 21.267 42.1914 21.2682 42.1869C21.2695 42.1824 21.2698 42.1777 21.269 42.1731L20.876 39.6158C20.8698 39.5738 20.8522 39.5682 20.8231 39.599C20.7335 39.6953 20.6378 39.7894 20.5359 39.8812Z" fill="black"/>
<path d="M28.5196 2.07616C28.669 2.55319 28.7102 3.03078 28.643 3.50893H12.2056C12.2006 3.50893 12.1958 3.50701 12.1922 3.50357C12.1886 3.50013 12.1865 3.49543 12.1863 3.49045C12.1544 2.83957 12.1048 2.08203 13.0177 2.08119C18.194 2.0756 23.3612 2.07392 28.5196 2.07616Z" fill="#F4F4F4"/>
<path d="M28.5195 2.07683C29.1032 2.07263 30.0103 1.92734 30.0875 2.7529C30.1054 2.94663 30.1094 3.18374 30.0993 3.46425C30.0982 3.49504 30.0825 3.51044 30.0522 3.51044L28.643 3.5096C28.7102 3.03145 28.669 2.55386 28.5195 2.07683Z" fill="#CFD8DC"/>
<path d="M30.6804 4.94583C30.7756 5.28961 30.8215 5.57039 30.8182 5.78819C30.812 6.21931 30.8182 6.65379 30.8366 7.09163L10.0816 7.08995C10.0474 7.08995 10.0309 7.07287 10.032 7.03872C10.0399 6.6983 10.039 6.34501 10.0295 5.97884C10.0217 5.69273 10.0525 5.47913 10.1219 5.33804C10.3025 4.96934 10.6376 4.94667 11.023 4.94667C17.5861 4.94387 24.1386 4.94359 30.6804 4.94583Z" fill="#F4F4F4"/>
<path d="M30.6807 4.94658C31.0443 4.9407 31.6121 4.89115 31.8875 5.0482C32.1747 5.21197 32.2587 5.50339 32.2537 5.8175C32.247 6.23686 32.247 6.64446 32.2537 7.04031C32.2543 7.07278 32.238 7.0893 32.205 7.08986L30.8369 7.09238C30.8184 6.65454 30.8122 6.22006 30.8184 5.78894C30.8218 5.57114 30.7758 5.29035 30.6807 4.94658Z" fill="#CFD8DC"/>
<path d="M29.2265 8.52832L28.3657 16.4153C28.0258 16.4646 27.726 16.6398 27.4662 16.941C27.4483 16.9623 27.4289 16.964 27.4082 16.9461C26.2033 15.9002 24.8274 15.2703 23.2804 15.0564C22.87 14.9993 22.3303 14.9716 21.6612 14.9733C18.5588 14.9811 15.4508 14.9825 12.3372 14.9775C12.3287 14.9775 12.3204 14.9744 12.314 14.9686C12.3076 14.9629 12.3036 14.9549 12.3028 14.9464L11.5595 8.55939C11.5591 8.55559 11.5594 8.55173 11.5605 8.54808C11.5617 8.54442 11.5636 8.54104 11.5661 8.53818C11.5687 8.53532 11.5718 8.53303 11.5753 8.53147C11.5788 8.52992 11.5826 8.52913 11.5864 8.52916L29.2265 8.52832Z" fill="#61CCBA"/>
<path d="M28.3657 16.4153L29.2266 8.52832L30.6795 8.53084C30.6855 8.5308 30.6914 8.53204 30.6969 8.53449C30.7024 8.53693 30.7073 8.54053 30.7114 8.54504C30.7154 8.54956 30.7185 8.55488 30.7204 8.56068C30.7222 8.56648 30.7229 8.57262 30.7223 8.57871L29.8195 16.3674C29.8161 16.3943 29.801 16.4077 29.7741 16.4077L28.3657 16.4153Z" fill="#2F9A88"/>
<path d="M2.86724 22.8961C2.90419 19.142 5.83524 16.4167 9.5314 16.4159C13.5335 16.4159 17.5457 16.4137 21.568 16.4092C22.2539 16.4086 22.7827 16.4372 23.1545 16.4949C24.2793 16.6701 25.2883 17.1057 26.1813 17.8016C26.216 17.8285 26.2115 17.8422 26.1679 17.8428C25.9014 17.8467 25.6197 17.8448 25.323 17.8369C25.0022 17.8285 24.7533 17.8504 24.5764 17.9024C24.1273 18.034 23.8373 18.3254 23.7063 18.7767C23.6542 18.9576 23.6338 19.263 23.645 19.693C23.6534 20.0233 23.6536 20.3539 23.6458 20.6848C23.6456 20.6919 23.6426 20.6986 23.6375 20.7036C23.6323 20.7086 23.6254 20.7115 23.6181 20.7117C22.8706 20.7179 22.2044 20.7165 21.6193 20.7075C21.2928 20.7025 21.0356 20.7391 20.8475 20.8175C20.2612 21.0611 20.0496 21.5877 20.063 22.2201C20.0731 22.6848 20.0737 23.126 20.0647 23.5437C20.0647 23.5519 20.0614 23.5598 20.0554 23.5656C20.0494 23.5715 20.0413 23.5747 20.0328 23.5747H2.89327C2.87312 23.5747 2.86304 23.5649 2.86304 23.5453C2.86416 23.3113 2.86556 23.0949 2.86724 22.8961ZM10.7295 19.2262C10.7283 19.0507 10.6574 18.8829 10.5324 18.7596C10.4074 18.6364 10.2386 18.5678 10.0631 18.5691L9.27871 18.5745C9.1032 18.5758 8.93536 18.6467 8.81212 18.7716C8.68888 18.8966 8.62033 19.0654 8.62155 19.2409L8.62219 19.3316C8.62341 19.5072 8.69431 19.675 8.81929 19.7982C8.94426 19.9215 9.11307 19.99 9.28859 19.9888L10.073 19.9833C10.2485 19.9821 10.4163 19.9112 10.5396 19.7862C10.6628 19.6613 10.7314 19.4924 10.7301 19.3169L10.7295 19.2262ZM19.329 19.2327C19.329 19.0572 19.2593 18.8889 19.1352 18.7648C19.0111 18.6407 18.8427 18.5709 18.6672 18.5709H17.8828C17.7959 18.5709 17.7098 18.5881 17.6295 18.6213C17.5493 18.6546 17.4763 18.7033 17.4148 18.7648C17.3534 18.8262 17.3046 18.8992 17.2714 18.9795C17.2381 19.0598 17.221 19.1458 17.221 19.2327V19.3234C17.221 19.499 17.2907 19.6673 17.4148 19.7914C17.539 19.9155 17.7073 19.9852 17.8828 19.9852H18.6672C18.8427 19.9852 19.0111 19.9155 19.1352 19.7914C19.2593 19.6673 19.329 19.499 19.329 19.3234V19.2327ZM15.029 20.6664C15.029 20.4913 14.9595 20.3234 14.8357 20.1996C14.7119 20.0758 14.544 20.0062 14.3689 20.0062H13.5811C13.4061 20.0062 13.2381 20.0758 13.1144 20.1996C12.9906 20.3234 12.921 20.4913 12.921 20.6664V20.7571C12.921 20.9321 12.9906 21.1 13.1144 21.2238C13.2381 21.3476 13.4061 21.4172 13.5811 21.4172H14.3689C14.544 21.4172 14.7119 21.3476 14.8357 21.2238C14.9595 21.1 15.029 20.9321 15.029 20.7571V20.6664Z" fill="#FF9801"/>
<path d="M28.7001 29.6562C28.6777 29.6522 28.6665 29.6388 28.6665 29.6158V17.874C28.6665 17.866 28.6697 17.8583 28.6754 17.8526C28.681 17.8469 28.6887 17.8437 28.6967 17.8438L30.7703 17.8446C30.8028 17.8446 30.819 17.8608 30.819 17.8933V29.7007C30.819 29.727 30.8059 29.7415 30.7796 29.7443C30.1284 29.8154 29.4352 29.786 28.7001 29.6562Z" fill="#FFB301"/>
<path d="M10.0631 18.569L9.27872 18.5745C8.91323 18.577 8.61901 18.8754 8.62156 19.2409L8.6222 19.3316C8.62475 19.6971 8.92311 19.9913 9.2886 19.9887L10.073 19.9833C10.4385 19.9807 10.7327 19.6824 10.7302 19.3169L10.7295 19.2262C10.727 18.8607 10.4286 18.5665 10.0631 18.569Z" fill="black"/>
<path d="M18.6669 18.5713H17.8825C17.517 18.5713 17.2207 18.8676 17.2207 19.2331V19.3238C17.2207 19.6893 17.517 19.9856 17.8825 19.9856H18.6669C19.0324 19.9856 19.3287 19.6893 19.3287 19.3238V19.2331C19.3287 18.8676 19.0324 18.5713 18.6669 18.5713Z" fill="black"/>
<path d="M27.1782 29.234C26.3871 28.8938 25.6992 28.4252 25.1113 27.7962C25.0941 27.7778 25.0845 27.7538 25.0845 27.729V19.3288C25.0845 19.2958 25.1013 19.2793 25.1349 19.2793H27.1858C27.2171 19.2793 27.2328 19.2953 27.2328 19.3272V29.1979C27.2328 29.2376 27.2146 29.2496 27.1782 29.234Z" fill="#FDD834"/>
<path d="M34.3656 28.4462C33.7508 28.9241 33.0319 29.2894 32.2794 29.496C32.2759 29.4969 32.2723 29.497 32.2688 29.4963C32.2653 29.4955 32.262 29.494 32.2592 29.4918C32.2563 29.4897 32.254 29.4869 32.2524 29.4836C32.2508 29.4804 32.25 29.4769 32.25 29.4733V19.3154C32.25 19.3058 32.2539 19.2966 32.2608 19.2899C32.2678 19.2831 32.2772 19.2793 32.287 19.2793H34.3681C34.3877 19.2793 34.3975 19.2891 34.3975 19.3087V28.3807C34.3975 28.4076 34.3868 28.4294 34.3656 28.4462Z" fill="#FDD834"/>
<path d="M14.3688 20.0059H13.581C13.2164 20.0059 12.9209 20.3014 12.9209 20.666V20.7567C12.9209 21.1213 13.2164 21.4168 13.581 21.4168H14.3688C14.7334 21.4168 15.0289 21.1213 15.0289 20.7567V20.666C15.0289 20.3014 14.7334 20.0059 14.3688 20.0059Z" fill="black"/>
<path d="M36.3888 25.7304C36.2404 26.073 36.0651 26.4188 35.863 26.7676C35.8614 26.7704 35.8588 26.7726 35.8558 26.7738C35.8528 26.775 35.8494 26.7751 35.8462 26.7742C35.843 26.7733 35.8401 26.7713 35.838 26.7686C35.8359 26.7659 35.8347 26.7626 35.8345 26.7592L35.8353 21.4531C35.8353 21.4368 35.8434 21.4287 35.8597 21.4287L37.94 21.4296C37.9685 21.4296 37.9828 21.4438 37.9828 21.4724V23.9524C37.9828 23.969 37.9785 23.9852 37.9702 23.9994C37.9619 24.0136 37.95 24.0252 37.9358 24.0331C37.2264 24.4222 36.7107 24.988 36.3888 25.7304Z" fill="#FFB301"/>
<path d="M22.2727 24.0367C22.0425 23.9057 21.7956 23.8309 21.5512 23.7352C21.5361 23.7293 21.5231 23.719 21.514 23.7056C21.5048 23.6923 21.5 23.6765 21.5 23.6604V22.1865C21.5 22.1585 21.514 22.1445 21.542 22.1445H23.5971C23.6307 22.1445 23.6475 22.1613 23.6475 22.1949V25.3107C23.6475 25.3897 23.6276 25.395 23.5879 25.3267C23.276 24.7881 22.8376 24.3581 22.2727 24.0367Z" fill="#FFB301"/>
<path d="M38.6362 25.2882L36.0427 42.2119L22.7648 42.2085C22.7385 42.2085 22.7234 42.1957 22.7195 42.1699L20.0966 25.0472C20.0933 25.0265 20.1022 25.0155 20.1235 25.0144C20.9776 24.9674 21.7049 25.1631 22.2374 25.8635C22.4793 26.181 22.6027 26.5723 22.7799 26.9284C23.1713 27.7154 23.6979 28.4544 24.3488 29.0566C25.9741 30.5599 27.9369 31.2825 30.2369 31.2242C31.9384 31.1806 33.493 30.7858 34.8695 29.8679C35.9775 29.1288 36.8249 28.1434 37.4117 26.9116C37.555 26.611 37.6928 26.3279 37.8249 26.0625C37.9772 25.7574 38.2476 25.4993 38.6362 25.2882ZM33.6727 36.8386C33.6727 35.7955 33.2583 34.7951 32.5208 34.0575C31.7832 33.32 30.7828 32.9056 29.7397 32.9056C28.6966 32.9056 27.6963 33.32 26.9587 34.0575C26.2211 34.7951 25.8067 35.7955 25.8067 36.8386C25.8067 37.8817 26.2211 38.8821 26.9587 39.6196C27.6963 40.3572 28.6966 40.7716 29.7397 40.7716C30.7828 40.7716 31.7832 40.3572 32.5208 39.6196C33.2583 38.8821 33.6727 37.8817 33.6727 36.8386Z" fill="#805EA3"/>
<path d="M36.043 42.2114L38.6364 25.2877C39.0255 25.0565 39.502 24.968 40.0658 25.0223C40.0927 25.0251 40.1039 25.0397 40.0994 25.066L37.4766 42.1711C37.4727 42.1985 37.4567 42.2123 37.4287 42.2123L36.043 42.2114Z" fill="#58367B"/>
<path d="M15.0484 28.2896C14.6559 28.1631 14.3379 28.223 14.0944 28.4693C13.3318 29.2409 12.5625 30.0065 11.7865 30.7663C10.7227 29.7036 9.68323 28.6645 8.66813 27.6488C8.2986 27.2793 7.93831 27.1541 7.41761 27.1575C6.57608 27.1637 5.78299 27.1642 5.03833 27.1592C5.02433 27.1592 5.01733 27.1522 5.01733 27.1382V25.0621C5.01733 25.0503 5.02193 25.039 5.03012 25.0306C5.03832 25.0223 5.04942 25.0176 5.06101 25.0176H18.5993C18.6278 25.0176 18.6444 25.0316 18.6488 25.0596L18.9638 27.1021C18.9705 27.1441 18.9529 27.1648 18.9109 27.1642C18.1763 27.1581 17.4661 27.1586 16.7802 27.1659C16.3664 27.1704 16.01 27.3252 15.7111 27.6303C15.4837 27.8621 15.2629 28.0819 15.0484 28.2896Z" fill="#FFEB3A"/>
<path d="M15.0481 28.29L12.2077 31.1194C12.187 31.1401 12.1663 31.1401 12.1456 31.1194L11.7861 30.7667C12.5621 30.0069 13.3314 29.2413 14.094 28.4697C14.3376 28.2234 14.6556 28.1635 15.0481 28.29Z" fill="#FDD834"/>
<path d="M2.94709 30.4334C2.68338 29.7464 3.11422 28.9494 3.79701 28.6933C4.00305 28.616 4.33563 28.5805 4.79475 28.5866C5.64803 28.5984 6.51811 28.5992 7.40498 28.5891C7.52032 28.588 7.61914 28.6286 7.70145 28.7109C8.54521 29.558 9.44356 30.4558 10.3965 31.4043C10.4363 31.4435 10.4279 31.4631 10.3713 31.4631C8.42959 31.4614 6.48087 31.462 4.52516 31.4648C3.73794 31.4659 3.21192 31.1221 2.94709 30.4334Z" fill="#795548"/>
<path d="M16.7943 28.5936L19.1677 28.5928C19.1745 28.5929 19.181 28.5954 19.186 28.5999C19.1911 28.6043 19.1944 28.6104 19.1954 28.6171L19.6246 31.4298C19.6252 31.4339 19.6249 31.438 19.6238 31.442C19.6226 31.446 19.6206 31.4496 19.6179 31.4527C19.6152 31.4558 19.6118 31.4583 19.608 31.46C19.6043 31.4617 19.6002 31.4626 19.596 31.4625L13.9792 31.4634C13.9735 31.4633 13.968 31.4617 13.9633 31.4585C13.9587 31.4554 13.955 31.4509 13.9529 31.4457C13.9507 31.4405 13.9501 31.4348 13.9512 31.4293C13.9523 31.4237 13.955 31.4186 13.959 31.4146L16.7742 28.602C16.7795 28.5967 16.7868 28.5936 16.7943 28.5936Z" fill="#795548"/>
<path d="M17.1833 35.4485C16.9011 35.1671 16.4837 35.0387 16.0831 35.0395C12.4108 35.0423 8.73756 35.0429 5.06353 35.0412C5.03273 35.0412 5.01733 35.0255 5.01733 34.9941V32.9374C5.01733 32.9088 5.03133 32.8945 5.05933 32.8945H19.8045C19.8358 32.8945 19.854 32.9102 19.8591 32.9416L20.5939 37.7438C20.5995 37.7796 20.5894 37.8101 20.5637 37.8353L20.1085 38.2863C20.0799 38.3149 20.0511 38.3146 20.022 38.2855C19.0746 37.3381 18.1284 36.3925 17.1833 35.4485Z" fill="#4CAF50"/>
<path d="M33.6726 36.8383C33.6726 37.8814 33.2583 38.8817 32.5207 39.6193C31.7831 40.3569 30.7827 40.7713 29.7396 40.7713C28.6965 40.7713 27.6962 40.3569 26.9586 39.6193C26.221 38.8817 25.8066 37.8814 25.8066 36.8383C25.8066 35.7952 26.221 34.7948 26.9586 34.0572C27.6962 33.3196 28.6965 32.9053 29.7396 32.9053C30.7827 32.9053 31.7831 33.3196 32.5207 34.0572C33.2583 34.7948 33.6726 35.7952 33.6726 36.8383ZM29.921 39.3301C30.2968 39.3031 30.6616 39.1915 30.9883 39.0036C31.3149 38.8157 31.5949 38.5564 31.8073 38.245C31.9962 37.9684 32.1276 37.6566 32.1935 37.3281C32.2594 36.9996 32.2586 36.6611 32.1911 36.3327C32.0825 35.8032 31.8051 35.3232 31.4005 34.9646C30.9959 34.606 30.4859 34.3883 29.9471 34.3439C29.5709 34.3128 29.1925 34.3673 28.8403 34.5035C28.4882 34.6396 28.1714 34.8538 27.9138 35.13C27.4756 35.5996 27.2349 36.22 27.2419 36.8626C27.2489 37.5152 27.5105 38.1391 27.9709 38.6011C28.2245 38.8555 28.5299 39.0522 28.8664 39.178C29.2029 39.3038 29.5626 39.3557 29.921 39.3301Z" fill="black"/>
<path d="M29.9475 34.3445C30.228 34.7481 30.4052 35.0373 30.4791 35.212C30.7893 35.95 30.8828 36.7176 30.7596 37.5149C30.6571 38.1772 30.3778 38.7825 29.9214 39.3306C29.563 39.3562 29.2033 39.3043 28.8668 39.1785C28.5303 39.0527 28.2249 38.856 27.9713 38.6016C27.5109 38.1396 27.2493 37.5158 27.2423 36.8631C27.2353 36.2206 27.476 35.6001 27.9142 35.1305C28.1718 34.8544 28.4886 34.6402 28.8407 34.504C29.1929 34.3678 29.5713 34.3133 29.9475 34.3445Z" fill="#F4F4F4"/>
<path d="M29.9469 34.3438C30.4858 34.3881 30.9958 34.6059 31.4004 34.9644C31.805 35.323 32.0824 35.803 32.191 36.3325C32.2585 36.6609 32.2593 36.9994 32.1934 37.3279C32.1274 37.6564 31.9961 37.9683 31.8072 38.2448C31.5948 38.5562 31.3148 38.8155 30.9881 39.0034C30.6615 39.1913 30.2967 39.3029 29.9209 39.3299C30.3772 38.7818 30.6566 38.1765 30.7591 37.5142C30.8822 36.7169 30.7887 35.9493 30.4786 35.2113C30.4046 35.0366 30.2274 34.7474 29.9469 34.3438Z" fill="#CFD8DC"/>
<path d="M20.5358 39.881C20.6377 39.7892 20.7334 39.6951 20.823 39.5988C20.8521 39.568 20.8697 39.5736 20.8759 39.6156L21.2689 42.1729C21.2697 42.1775 21.2694 42.1822 21.2681 42.1867C21.2669 42.1912 21.2646 42.1953 21.2616 42.1988C21.2585 42.2023 21.2548 42.2052 21.2505 42.2071C21.2463 42.209 21.2417 42.2099 21.237 42.2099C16.2187 42.2121 11.3202 42.2118 6.54144 42.209C6.04202 42.2085 5.56275 42.1161 5.10363 41.9319C4.02695 41.4985 3.20726 40.5302 2.96875 39.414C2.78902 38.5742 2.87637 37.5395 2.86125 36.6342C2.85957 36.5362 2.908 36.4872 3.00654 36.4872L16.1644 36.4805C16.18 36.4805 16.1951 36.4868 16.2064 36.4981C17.301 37.5933 18.4042 38.6965 19.5162 39.8079C19.7942 40.0859 20.2301 40.1565 20.5358 39.881Z" fill="#FF9801"/>
</g>
<defs>
<clipPath id="clip0_370_7883">
<rect width="43" height="43" fill="white" transform="translate(0 0.644531)"/>
</clipPath>
</defs>
</svg>
