<svg width="43" height="44" viewBox="0 0 43 44" fill="none" xmlns="http://www.w3.org/2000/svg">
<g clip-path="url(#clip0_370_7607)">
<path d="M33.3827 24.5272C35.0635 24.0244 36.6064 23.143 37.8927 21.9506C39.3604 20.5897 40.4464 18.8684 41.043 16.9577C41.7312 14.7513 41.7365 12.3882 41.0581 10.1785C40.4054 8.05161 39.1477 6.16039 37.4383 4.73549C36.3673 3.84267 35.1423 3.15277 33.8237 2.69971C33.6235 2.63092 33.4208 2.56778 33.2173 2.51074" stroke="#7F6104" stroke-width="2"/>
<path d="M33.2173 2.51099C31.0399 1.89492 28.729 1.9373 26.5758 2.63277C24.8126 3.20209 23.2136 4.19022 21.9155 5.51259C20.4899 6.96509 19.4768 8.77072 18.9802 10.744C18.4772 12.7411 18.5219 14.837 19.1096 16.811C19.7088 18.8274 20.8516 20.6402 22.4127 22.0508C23.9272 23.4185 25.7795 24.3572 27.7784 24.7702C29.6378 25.1544 31.5635 25.071 33.3827 24.5275" stroke="#806E00" stroke-width="2"/>
<path d="M33.2173 2.51074C33.2974 2.60928 33.4009 2.68655 33.528 2.74254C33.7497 2.84108 33.8617 2.89091 33.864 2.89203C39.5967 6.11199 41.7938 13.2473 38.7829 19.1077C37.6016 21.4078 35.8138 23.1855 33.4197 24.4407C33.4007 24.4508 33.39 24.4665 33.3878 24.4878L33.3827 24.5272" stroke="#FFCF04" stroke-width="2"/>
<path d="M13.6876 22.1451C13.0779 22.1477 12.5219 22.3904 12.1078 22.8288C12.0451 22.8948 11.8668 23.1373 11.5729 23.5561C10.5678 24.9883 9.56646 26.418 8.56873 27.8452C8.56654 27.8482 8.56525 27.8518 8.56499 27.8555C8.56473 27.8593 8.56552 27.863 8.56726 27.8663C8.56901 27.8696 8.57164 27.8724 8.57486 27.8743C8.57809 27.8762 8.58178 27.8772 8.58553 27.8771H17.1553C17.1844 27.8771 17.199 27.8625 17.199 27.8334V22.2039C17.199 22.1675 17.181 22.1493 17.1452 22.1493C15.9834 22.1421 14.8309 22.1407 13.6876 22.1451Z" stroke="#01557A" stroke-width="2"/>
<path d="M28.7963 27.8745L29.9872 27.8686C30.0191 27.8686 30.025 27.8563 30.0048 27.8317L28.8777 26.4224C28.8598 26.3995 28.8363 26.386 28.8072 26.3821L27.4592 26.1738" stroke="#023C5E" stroke-width="2"/>
<path d="M27.4591 26.1739C26.4961 25.9511 25.5446 25.6353 24.6045 25.2266" stroke="#01557A" stroke-width="2"/>
<path d="M24.6045 25.2262C23.0738 24.4659 21.7454 23.4762 20.6195 22.2574C20.5497 22.1809 20.4842 22.1549 20.3868 22.1515C20.0621 22.1409 19.7163 22.1409 19.3496 22.1515" stroke="#023C5E" stroke-width="2"/>
<path d="M19.3497 22.1514L18.6786 22.1572C18.6473 22.1572 18.6316 22.1729 18.6316 22.2043L18.6324 27.8186C18.6324 27.8556 18.6509 27.8741 18.6879 27.8741H28.7962" stroke="#01557A" stroke-width="2"/>
<path d="M19.3496 22.1514C20.8384 23.662 22.59 24.6869 24.6045 25.226" stroke="#0390D8" stroke-width="2"/>
<path d="M27.4592 26.1738L28.7963 27.8745" stroke="#0390D8" stroke-width="2"/>
<path d="M5.85201 35.0102C7.81977 33.1382 10.818 33.1625 12.7807 35.0076C12.805 35.0303 12.8368 35.043 12.8697 35.0429H17.1513C17.1821 35.0429 17.1975 35.0275 17.1975 34.9967V29.3622C17.1975 29.3281 17.1804 29.311 17.1462 29.311C14.1183 29.3104 11.0145 29.3093 7.83488 29.3076C7.4088 29.3071 6.97712 29.3348 6.53984 29.3908C5.23193 29.5576 4.00128 29.7127 2.84789 29.856C2.38038 29.9137 2.1469 30.1909 2.14746 30.6875C2.15026 32.2966 2.15026 33.73 2.14746 34.9875C2.14746 35.0244 2.16594 35.0429 2.20289 35.0429H5.77055C5.8019 35.0429 5.82906 35.032 5.85201 35.0102Z" stroke="#7A221B" stroke-width="2"/>
<path d="M39.4124 35.0402L40.804 35.0393C40.8365 35.0393 40.8527 35.0231 40.8527 34.9906L40.8511 33.6679C40.8511 33.6343 40.8343 33.6175 40.8007 33.6175L39.4082 33.6133" stroke="#640F0F" stroke-width="2"/>
<path d="M39.4089 33.6135C38.4514 33.5858 37.636 32.9912 37.3596 32.0858C37.2857 31.844 37.2538 31.5293 37.2639 31.1418C37.2729 30.8126 37.2726 30.4862 37.2631 30.1626C37.2628 30.1546 37.2597 30.1469 37.2543 30.1409C37.2489 30.1349 37.2416 30.131 37.2337 30.1298C35.5489 29.8936 33.8233 29.6469 32.0569 29.3899C31.6767 29.3345 31.2968 29.3071 30.9172 29.3076C26.7583 29.311 22.6719 29.3113 18.658 29.3085C18.6513 29.3085 18.6449 29.3112 18.6402 29.3161C18.6355 29.321 18.6328 29.3276 18.6328 29.3345V34.9976C18.6328 35.0098 18.6377 35.0216 18.6463 35.0302C18.655 35.0389 18.6668 35.0438 18.679 35.0438H30.8618C30.8828 35.0437 30.903 35.0356 30.918 35.0211C32.9018 33.1566 35.8807 33.1407 37.8686 35.0085C37.8882 35.0275 37.9114 35.037 37.9383 35.037L39.4131 35.0404" stroke="#7A221B" stroke-width="2"/>
<path d="M39.4082 33.6133L39.4124 35.0402" stroke="#DE312A" stroke-width="2"/>
<path d="M39.4044 32.1803L40.8078 32.1744C40.8425 32.1744 40.8588 32.1568 40.8565 32.1215C40.817 31.5076 41.0488 30.6669 40.1653 30.5451C39.8159 30.4964 39.4761 30.4488 39.1458 30.4023" stroke="#7F6104" stroke-width="2"/>
<path d="M39.1456 30.402L38.7449 30.3474C38.717 30.3435 38.7027 30.3558 38.7021 30.3843C38.6971 30.7124 38.694 31.0377 38.6929 31.3602C38.6912 31.844 38.9283 32.1172 39.4042 32.1799" stroke="#806E00" stroke-width="2"/>
<path d="M39.1458 30.4023C39.3087 30.6672 39.3974 30.9382 39.412 31.2153C39.4221 31.4085 39.4195 31.7301 39.4044 32.1803" stroke="#FFCF04" stroke-width="2"/>
<path d="M34.6377 42.2006C34.8094 42.1889 34.9797 42.165 35.1475 42.1292C35.7507 42.0004 36.3104 41.7178 36.7723 41.3091C37.2342 40.9003 37.5826 40.3792 37.7838 39.7962C37.9611 39.2826 38.0193 38.7353 37.9538 38.1959C37.8883 37.6565 37.7009 37.1391 37.4058 36.6829C37.107 36.2213 36.706 35.8347 36.2338 35.5531C35.7617 35.2714 35.231 35.1022 34.683 35.0586" stroke="#1C2428" stroke-width="2"/>
<path d="M34.6828 35.0582C34.4666 35.0409 34.2493 35.0434 34.0336 35.0658C33.4701 35.1235 32.9284 35.3141 32.4529 35.622C31.9773 35.9299 31.5816 36.3463 31.2982 36.837C30.9919 37.3678 30.8269 37.9684 30.8191 38.5813C30.8113 39.1942 30.961 39.7989 31.2537 40.3375C31.5807 40.9389 32.0732 41.434 32.6729 41.7642C33.2726 42.0943 33.9544 42.2456 34.6374 42.2002" stroke="#303F46" stroke-width="2"/>
<path d="M34.6826 35.0586C34.7593 35.142 34.8391 35.217 34.922 35.2837C35.0748 35.4068 35.1596 35.4763 35.1764 35.492C35.9205 36.1885 36.3589 37.0437 36.4916 38.0577" stroke="#4C626D" stroke-width="2"/>
<path d="M36.4917 38.0569C36.298 37.488 35.9811 37.0706 35.541 36.8047C35.1177 36.5488 34.6704 36.4444 34.1989 36.4914C32.3639 36.6745 31.5828 38.9043 32.9282 40.1901C33.3767 40.6193 34.0519 40.846 34.6415 40.7654C35.5698 40.64 36.1885 40.1041 36.4976 39.1579" stroke="#303F46" stroke-width="2"/>
<path d="M36.4977 39.1582C36.3432 40.4213 35.7231 41.4353 34.6375 42.2001" stroke="#4C626D" stroke-width="2"/>
<path d="M36.4976 39.1587C36.544 38.7925 36.5421 38.4255 36.4917 38.0576" stroke="#1C2428" stroke-width="2"/>
<path d="M9.61423 42.1953C10.1512 42.1503 10.6711 41.9846 11.1353 41.7106C11.5994 41.4367 11.9959 41.0615 12.295 40.613C12.5968 40.1603 12.7915 39.6446 12.8641 39.1053C12.9367 38.566 12.8854 38.0172 12.7141 37.5006C12.491 36.8276 12.0731 36.2361 11.5135 35.801C10.9538 35.3659 10.2776 35.1068 9.57056 35.0566" stroke="#1C2428" stroke-width="2"/>
<path d="M9.57088 35.0562C9.36911 35.0416 9.16655 35.0442 8.96535 35.0637C8.42155 35.1173 7.89726 35.2946 7.43261 35.5819C6.96795 35.8693 6.57525 36.2591 6.28457 36.7216C6.00561 37.1654 5.82748 37.665 5.76275 38.1851C5.69803 38.7052 5.7483 39.2331 5.91 39.7316C6.08879 40.2824 6.39851 40.7817 6.81262 41.1866C7.22672 41.5915 7.73285 41.8899 8.2876 42.0563C8.71709 42.1855 9.16729 42.2326 9.61455 42.1948" stroke="#303F46" stroke-width="2"/>
<path d="M9.57056 35.0566C10.6125 35.8153 11.2178 36.7828 11.3863 37.9591" stroke="#4C626D" stroke-width="2"/>
<path d="M11.3864 37.9591C11.0941 37.2614 10.6328 36.8068 10.0023 36.5952C9.37917 36.386 8.65774 36.4683 8.13032 36.8379C7.44949 37.3149 7.13175 37.9697 7.1771 38.8023C7.21153 39.4364 7.61298 40.1082 8.15384 40.4324C8.95617 40.9128 9.75738 40.8977 10.5575 40.3871C10.9035 40.1659 11.182 39.7941 11.3931 39.2717" stroke="#303F46" stroke-width="2"/>
<path d="M11.393 39.2715C11.257 40.2468 10.8326 41.0713 10.1198 41.7448C10.1075 41.756 10.0207 41.828 9.85949 41.9607C9.77495 42.0301 9.6932 42.1082 9.61426 42.195" stroke="#4C626D" stroke-width="2"/>
<path d="M11.3929 39.2717C11.4635 38.84 11.4613 38.4024 11.3862 37.959" stroke="#1C2428" stroke-width="2"/>
<path d="M13.8622 36.5234C14.0694 36.9854 14.2037 37.4324 14.2653 37.8647C14.2698 37.8971 14.2883 37.9134 14.3208 37.9134H17.1762C17.1908 37.9134 17.1981 37.9058 17.1981 37.8907L17.1989 36.5268C17.1989 36.4966 17.1835 36.4814 17.1527 36.4814H13.8899C13.8591 36.4814 13.8499 36.4954 13.8622 36.5234Z" stroke="#40474A" stroke-width="2"/>
<path d="M40.1328 37.9092L41.537 37.9109C41.5464 37.9109 41.5554 37.9071 41.562 37.9005C41.5686 37.8939 41.5723 37.8849 41.5723 37.8756V36.5285C41.5723 36.4994 41.5577 36.4848 41.5286 36.4848L40.1387 36.4814" stroke="#1C2428" stroke-width="2"/>
<path d="M40.1385 36.4814L38.977 36.489C38.9434 36.489 38.9336 36.5044 38.9476 36.5352C39.1435 36.9529 39.2768 37.393 39.3473 37.8554C39.3518 37.8862 39.3697 37.9016 39.4011 37.9016L40.1326 37.9092" stroke="#40474A" stroke-width="2"/>
<path d="M40.1387 36.4814L40.1328 37.9092" stroke="#5B6B72" stroke-width="2"/>
<path d="M4.7717 36.5275C4.78626 36.4961 4.77618 36.4805 4.74146 36.4805L1.48371 36.4821C1.449 36.4821 1.43164 36.4995 1.43164 36.5342L1.43248 37.8519C1.43248 37.8682 1.43885 37.8838 1.45019 37.8953C1.46153 37.9068 1.47691 37.9132 1.49295 37.9132H4.30811C4.34562 37.9132 4.36717 37.8945 4.37277 37.857C4.43492 37.4147 4.5679 36.9715 4.7717 36.5275Z" stroke="#40474A" stroke-width="2"/>
<path d="M29.8656 36.5041C29.8667 36.5017 29.8672 36.499 29.867 36.4964C29.8669 36.4937 29.866 36.4912 29.8646 36.4889C29.8632 36.4866 29.8612 36.4848 29.8589 36.4835C29.8566 36.4822 29.854 36.4815 29.8513 36.4814H18.6822C18.6492 36.4814 18.6327 36.4982 18.6327 36.5318L18.6318 37.8546C18.6318 37.8938 18.6514 37.9134 18.6906 37.9134H29.3919C29.4266 37.9134 29.4465 37.896 29.4515 37.8613C29.5187 37.4011 29.6567 36.9487 29.8656 36.5041Z" stroke="#40474A" stroke-width="2"/>
<path d="M25.803 16.4083C25.8098 16.9584 25.7745 17.5295 25.835 18.0703C25.9738 19.3195 26.4867 20.3877 27.3736 21.2752C29.6361 23.5394 33.3213 23.3496 35.3412 20.8704C36.1452 19.8844 36.5486 18.7352 36.5514 17.4228C36.553 16.635 36.5522 15.8056 36.5488 14.9344C36.5488 14.8996 36.5651 14.8773 36.5976 14.8672C37.5931 14.5492 38.2476 13.9154 38.5611 12.9658C38.8559 12.0722 38.6594 11.0534 38.0673 10.3169C36.9856 8.97147 34.9758 8.88245 33.7706 10.1221C32.2472 11.6909 33.0022 14.2709 35.0724 14.8621C35.101 14.87 35.1152 14.8887 35.1152 14.9184C35.1186 15.7403 35.1178 16.5791 35.1127 17.4346C35.1071 18.4049 34.8188 19.2422 34.2477 19.9465C32.463 22.1469 29.0423 21.8362 27.7011 19.3419C27.198 18.4054 27.1997 17.4883 27.2392 16.3982C27.2403 16.3685 27.2557 16.3512 27.2854 16.3461C29.7251 15.9304 31.5467 13.8728 31.5316 11.3667C31.5288 10.8902 31.5325 10.3522 31.5425 9.75252C31.5515 9.20831 31.5056 8.79678 31.4048 8.51795C31.2352 8.04708 30.9303 7.67587 30.4902 7.40432C29.9099 7.04571 29.3631 7.10618 28.7097 7.0919C28.6806 7.09134 28.6644 7.0765 28.661 7.04739C28.5586 6.10172 27.2207 6.19495 27.2316 7.14313C27.2361 7.55465 27.2347 7.97206 27.2274 8.39534C27.2224 8.71028 27.3156 9.00506 27.6129 9.15456C28.0832 9.39055 28.6132 9.10584 28.661 8.57842C28.6644 8.54427 28.6832 8.52663 28.7173 8.52551C28.9838 8.51991 29.2184 8.52299 29.4211 8.53475C29.9426 8.56582 30.1123 8.97735 30.1064 9.45606C30.0991 10.0848 30.0969 10.6867 30.0997 11.2617C30.1089 12.7978 29.2666 14.1651 27.8439 14.7185C25.4612 15.6457 22.9148 13.9215 22.9316 11.3264C22.935 10.748 22.9333 10.1134 22.9266 9.42247C22.9215 8.95887 23.1105 8.55995 23.6085 8.53559C23.8207 8.52551 24.0559 8.52243 24.314 8.52635C24.3498 8.52691 24.3694 8.54455 24.3728 8.57926C24.445 9.33596 25.5041 9.50057 25.7493 8.77243C25.7902 8.65149 25.8089 8.5104 25.8056 8.34915C25.7977 7.99137 25.7977 7.6238 25.8056 7.24643C25.8114 6.96172 25.7501 6.69633 25.5083 6.52081C25.0203 6.16639 24.4408 6.48973 24.3652 7.06418C24.3624 7.08378 24.3512 7.09358 24.3316 7.09358C23.9117 7.08938 23.4271 7.05831 23.0332 7.1868C22.1069 7.48999 21.5098 8.26684 21.5005 9.25366C21.4933 9.98376 21.4949 10.7113 21.5056 11.4364C21.5417 13.9223 23.2986 15.9203 25.7476 16.3436C25.784 16.3498 25.8025 16.3713 25.803 16.4083Z" stroke="#806E00" stroke-width="2"/>
<path d="M37.2643 12.1116C37.2643 11.7318 37.1134 11.3676 36.8449 11.0991C36.5763 10.8306 36.2121 10.6797 35.8323 10.6797C35.4526 10.6797 35.0883 10.8306 34.8198 11.0991C34.5513 11.3676 34.4004 11.7318 34.4004 12.1116C34.4004 12.4914 34.5513 12.8556 34.8198 13.1242C35.0883 13.3927 35.4526 13.5436 35.8323 13.5436C36.2121 13.5436 36.5763 13.3927 36.8449 13.1242C37.1134 12.8556 37.2643 12.4914 37.2643 12.1116Z" stroke="#40474A" stroke-width="2"/>
<path d="M22.9208 31.4299C22.9211 31.2506 22.8501 31.0785 22.7236 30.9515C22.597 30.8244 22.4252 30.7529 22.2459 30.7526L20.756 30.75C20.6672 30.7498 20.5793 30.7672 20.4972 30.801C20.4151 30.8348 20.3405 30.8845 20.2776 30.9472C20.2147 31.0099 20.1648 31.0843 20.1307 31.1663C20.0965 31.2482 20.0789 31.3361 20.0787 31.4249L20.0786 31.4954C20.0783 31.6748 20.1492 31.8468 20.2758 31.9738C20.4024 32.1009 20.5742 32.1724 20.7535 32.1727L22.2434 32.1753C22.3322 32.1755 22.4201 32.1581 22.5022 32.1243C22.5843 32.0905 22.6589 32.0408 22.7218 31.9781C22.7847 31.9154 22.8346 31.841 22.8687 31.759C22.9028 31.6771 22.9205 31.5892 22.9206 31.5004L22.9208 31.4299Z" stroke="#7A221B" stroke-width="2"/>
<path d="M10.0303 38.6279C10.0303 38.4386 9.95506 38.257 9.82119 38.1231C9.68731 37.9893 9.50574 37.9141 9.31641 37.9141C9.12708 37.9141 8.9455 37.9893 8.81163 38.1231C8.67775 38.257 8.60254 38.4386 8.60254 38.6279C8.60254 38.8173 8.67775 38.9988 8.81163 39.1327C8.9455 39.2666 9.12708 39.3418 9.31641 39.3418C9.50574 39.3418 9.68731 39.2666 9.82119 39.1327C9.95506 38.9988 10.0303 38.8173 10.0303 38.6279Z" stroke="#40474A" stroke-width="2"/>
<path d="M35.1133 38.6279C35.1133 38.4386 35.0381 38.257 34.9042 38.1231C34.7703 37.9893 34.5887 37.9141 34.3994 37.9141C34.2101 37.9141 34.0285 37.9893 33.8946 38.1231C33.7608 38.257 33.6855 38.4386 33.6855 38.6279C33.6855 38.8173 33.7608 38.9988 33.8946 39.1327C34.0285 39.2666 34.2101 39.3418 34.3994 39.3418C34.5887 39.3418 34.7703 39.2666 34.9042 39.1327C35.0381 38.9988 35.1133 38.8173 35.1133 38.6279Z" stroke="#40474A" stroke-width="2"/>
<path d="M29.3626 0.644531H30.8491C37.5309 1.10561 42.6825 6.34791 43 13.0431V13.9376C42.7229 20.6513 37.5116 26.0322 30.7694 26.4034C30.7285 26.4056 30.7206 26.423 30.7458 26.4554C31.4183 27.3059 31.8026 27.7821 31.8989 27.884C31.9146 27.9008 31.9337 27.9134 31.9561 27.9218C31.9801 27.9308 34.7306 28.3244 40.2075 29.1026C40.5474 29.1508 40.8167 29.2205 41.0154 29.3118C41.5877 29.5732 41.9759 30.008 42.1803 30.616C42.2643 30.8663 42.3018 31.3347 42.2929 32.0211C42.2772 33.1728 42.2766 34.2352 42.2912 35.2083C42.2912 35.2329 42.3015 35.252 42.3222 35.2654C42.7007 35.5157 42.9267 35.8698 43 36.3278V38.0797C42.8287 38.9523 42.2181 39.363 41.3757 39.3496C40.6888 39.3384 40.025 39.3373 39.3845 39.3462C39.3769 39.3465 39.3696 39.3493 39.364 39.3542C39.3583 39.3591 39.3546 39.3658 39.3534 39.3731C38.9654 41.7776 37.0279 43.5202 34.5696 43.6445H34.2228C32.6517 43.5482 31.4088 42.9228 30.4939 41.7683C29.9329 41.0612 29.5843 40.263 29.4483 39.3739C29.4469 39.3652 29.4425 39.3573 29.4358 39.3516C29.4292 39.3459 29.4208 39.3428 29.4122 39.3428H14.3227C14.2964 39.3428 14.281 39.3557 14.2765 39.3815C13.8566 41.7893 11.9535 43.5135 9.50619 43.6445H9.12658C7.60814 43.5471 6.37329 42.9164 5.42203 41.7524C4.89629 41.1085 4.56147 40.4092 4.41758 39.6544C4.40022 39.5643 4.38286 39.4772 4.36551 39.3932C4.35879 39.3613 4.33891 39.3451 4.30588 39.3445C3.41285 39.3389 2.50525 39.3403 1.58311 39.3487C0.75418 39.3554 0.15873 38.9246 0 38.0713V36.3287C0.0761458 35.8572 0.310462 35.4978 0.702949 35.2503C0.726465 35.2357 0.737383 35.2145 0.735703 35.1865C0.731224 35.1098 0.728704 35.0381 0.728145 34.9715C0.720306 33.7223 0.713587 32.4732 0.707988 31.2241C0.705189 30.5656 0.742422 30.1298 0.819688 29.9164C1.03245 29.3252 1.40954 28.8977 1.95096 28.634C2.16596 28.5293 2.48342 28.4518 2.90334 28.4014C4.1116 28.2558 5.27282 28.113 6.38701 27.973C6.50683 27.9579 6.62217 27.9397 6.73303 27.9185C6.75561 27.9141 6.77553 27.9012 6.78846 27.8823C8.06502 26.0728 9.28811 24.3245 10.4577 22.6375C10.8189 22.1168 11.1263 21.752 11.3799 21.5432C11.7925 21.2033 12.248 20.9665 12.7463 20.8327C13.0744 20.7442 13.5246 20.702 14.0968 20.7059C15.8409 20.7171 17.5838 20.7185 19.3256 20.7101C19.3654 20.7101 19.3741 20.6933 19.3517 20.6597C15.5942 14.9975 16.8935 7.34312 22.297 3.26232C24.3613 1.70357 26.7165 0.830977 29.3626 0.644531ZM33.3829 24.5272C35.0637 24.0244 36.6066 23.1429 37.8929 21.9505C39.3606 20.5896 40.4466 18.8683 41.0432 16.9577C41.7314 14.7512 41.7367 12.3881 41.0583 10.1784C40.4056 8.05153 39.1479 6.16032 37.4386 4.73541C36.3675 3.84259 35.1425 3.1527 33.8239 2.69963C33.6237 2.63084 33.421 2.5677 33.2175 2.51066C31.0402 1.8946 28.7292 1.93697 26.576 2.63244C24.8129 3.20176 23.2138 4.18989 21.9157 5.51227C20.4902 6.96477 19.4771 8.77039 18.9805 10.7437C18.4775 12.7408 18.5222 14.8366 19.1098 16.8107C19.7091 18.8271 20.8518 20.6399 22.4129 22.0505C23.9274 23.4181 25.7797 24.3569 27.7787 24.7699C29.6381 25.1541 31.5638 25.0707 33.3829 24.5272ZM13.6878 22.1445C13.078 22.1471 12.5221 22.3898 12.108 22.8282C12.0453 22.8942 11.867 23.1367 11.573 23.5555C10.568 24.9877 9.56666 26.4174 8.56893 27.8446C8.56674 27.8476 8.56545 27.8512 8.56519 27.8549C8.56493 27.8587 8.56571 27.8624 8.56746 27.8657C8.5692 27.869 8.57183 27.8718 8.57506 27.8737C8.57829 27.8756 8.58198 27.8765 8.58572 27.8765H17.1555C17.1846 27.8765 17.1992 27.8619 17.1992 27.8328V22.2033C17.1992 22.1669 17.1812 22.1487 17.1454 22.1487C15.9836 22.1415 14.8311 22.1401 13.6878 22.1445ZM28.7966 27.8739L29.9875 27.8681C30.0194 27.8681 30.0253 27.8557 30.0051 27.8311L28.878 26.4219C28.8601 26.3989 28.8366 26.3855 28.8075 26.3815L27.4595 26.1733C26.4965 25.9504 25.545 25.6346 24.6049 25.2259C23.0741 24.4656 21.7458 23.476 20.6198 22.2571C20.5501 22.1806 20.4846 22.1546 20.3872 22.1512C20.0625 22.1406 19.7167 22.1406 19.35 22.1512L18.679 22.1571C18.6476 22.1571 18.6319 22.1728 18.6319 22.2042L18.6328 27.8185C18.6328 27.8555 18.6513 27.8739 18.6882 27.8739H28.7966ZM5.85203 35.0101C7.81979 33.1381 10.818 33.1624 12.7807 35.0076C12.805 35.0303 12.8368 35.0429 12.8698 35.0429H17.1513C17.1821 35.0429 17.1975 35.0275 17.1975 34.9967V29.3621C17.1975 29.328 17.1804 29.3109 17.1462 29.3109C14.1183 29.3104 11.0146 29.3092 7.8349 29.3076C7.40882 29.307 6.97714 29.3347 6.53986 29.3907C5.23195 29.5576 4.0013 29.7126 2.84791 29.856C2.3804 29.9136 2.14692 30.1908 2.14748 30.6874C2.15028 32.2966 2.15028 33.7299 2.14748 34.9874C2.14748 35.0244 2.16596 35.0429 2.20291 35.0429H5.77057C5.80192 35.0429 5.82908 35.0319 5.85203 35.0101ZM39.413 35.0403L40.8046 35.0395C40.8371 35.0395 40.8534 35.0233 40.8534 34.9908L40.8517 33.668C40.8517 33.6344 40.8349 33.6176 40.8013 33.6176L39.4088 33.6134C38.4514 33.5857 37.6359 32.9911 37.3596 32.0858C37.2857 31.8439 37.2538 31.5292 37.2639 31.1418C37.2728 30.8126 37.2725 30.4861 37.263 30.1625C37.2627 30.1545 37.2596 30.1468 37.2542 30.1408C37.2489 30.1349 37.2416 30.1309 37.2336 30.1298C35.5489 29.8935 33.8233 29.6469 32.0568 29.3899C31.6767 29.3344 31.2968 29.307 30.9172 29.3076C26.7583 29.3109 22.6719 29.3112 18.658 29.3084C18.6513 29.3084 18.6449 29.3111 18.6402 29.316C18.6354 29.3209 18.6328 29.3275 18.6328 29.3344V34.9975C18.6328 35.0098 18.6376 35.0215 18.6463 35.0302C18.655 35.0388 18.6667 35.0437 18.679 35.0437H30.8617C30.8828 35.0437 30.903 35.0355 30.918 35.021C32.9017 33.1566 35.8806 33.1406 37.8686 35.0084C37.8881 35.0275 37.9114 35.037 37.9383 35.037L39.413 35.0403ZM39.4046 32.1798L40.808 32.1739C40.8427 32.1739 40.859 32.1563 40.8567 32.121C40.8172 31.5071 41.049 30.6664 40.1655 30.5446C39.8162 30.4959 39.4763 30.4483 39.146 30.4019L38.7453 30.3473C38.7174 30.3434 38.7031 30.3557 38.7025 30.3842C38.6975 30.7123 38.6944 31.0376 38.6933 31.3601C38.6916 31.8439 38.9287 32.1171 39.4046 32.1798ZM34.6377 42.2C34.8093 42.1883 34.9797 42.1644 35.1475 42.1286C35.7507 41.9997 36.3104 41.7172 36.7723 41.3084C37.2342 40.8997 37.5826 40.3785 37.7837 39.7955C37.9611 39.2819 38.0193 38.7347 37.9538 38.1953C37.8883 37.6559 37.7009 37.1385 37.4058 36.6822C37.107 36.2207 36.706 35.8341 36.2338 35.5524C35.7617 35.2708 35.231 35.1016 34.683 35.058C34.4668 35.0406 34.2495 35.0432 34.0338 35.0655C33.4704 35.1232 32.9286 35.3139 32.4531 35.6218C31.9776 35.9297 31.5819 36.3461 31.2985 36.8368C30.9921 37.3676 30.8272 37.9682 30.8194 38.5811C30.8116 39.194 30.9612 39.7986 31.2539 40.3372C31.5809 40.9387 32.0734 41.4338 32.6731 41.7639C33.2728 42.0941 33.9546 42.2454 34.6377 42.2ZM9.61453 42.195C10.1515 42.1499 10.6714 41.9842 11.1356 41.7103C11.5998 41.4363 11.9962 41.0611 12.2953 40.6127C12.5971 40.1599 12.7918 39.6443 12.8644 39.105C12.937 38.5656 12.8857 38.0168 12.7144 37.5002C12.4913 36.8273 12.0734 36.2358 11.5138 35.8007C10.9541 35.3656 10.2779 35.1065 9.57086 35.0563C9.3691 35.0418 9.16653 35.0443 8.96533 35.0638C8.42154 35.1174 7.89724 35.2947 7.43259 35.5821C6.96793 35.8694 6.57523 36.2592 6.28455 36.7217C6.00559 37.1655 5.82746 37.6651 5.76274 38.1852C5.69801 38.7053 5.74828 39.2332 5.90998 39.7317C6.08877 40.2826 6.39849 40.7818 6.8126 41.1867C7.2267 41.5916 7.73283 41.89 8.28758 42.0564C8.71707 42.1857 9.16728 42.2327 9.61453 42.195ZM13.8625 36.5227C14.0696 36.9846 14.204 37.4316 14.2656 37.8639C14.2701 37.8964 14.2885 37.9126 14.321 37.9126H17.1765C17.191 37.9126 17.1983 37.905 17.1983 37.8899L17.1992 36.526C17.1992 36.4958 17.1838 36.4807 17.153 36.4807H13.8902C13.8594 36.4807 13.8501 36.4947 13.8625 36.5227ZM40.1328 37.9092L41.537 37.9109C41.5463 37.9109 41.5553 37.9072 41.5619 37.9006C41.5686 37.894 41.5723 37.885 41.5723 37.8756V36.5285C41.5723 36.4994 41.5577 36.4849 41.5286 36.4849L40.1387 36.4815L38.9771 36.4891C38.9436 36.4891 38.9338 36.5045 38.9478 36.5353C39.1437 36.9529 39.277 37.393 39.3475 37.8555C39.352 37.8863 39.3699 37.9017 39.4013 37.9017L40.1328 37.9092ZM4.77199 36.5269C4.78655 36.4955 4.77647 36.4798 4.74176 36.4798L1.484 36.4815C1.44929 36.4815 1.43193 36.4989 1.43193 36.5336L1.43277 37.8513C1.43277 37.8675 1.43914 37.8831 1.45048 37.8946C1.46182 37.9061 1.4772 37.9126 1.49324 37.9126H4.3084C4.34591 37.9126 4.36747 37.8938 4.37307 37.8563C4.43521 37.414 4.56819 36.9709 4.77199 36.5269ZM29.8657 36.5033C29.8668 36.5009 29.8673 36.4983 29.8671 36.4956C29.867 36.4929 29.8661 36.4904 29.8647 36.4881C29.8633 36.4859 29.8613 36.484 29.859 36.4827C29.8567 36.4814 29.8541 36.4807 29.8514 36.4807H18.6823C18.6493 36.4807 18.6328 36.4975 18.6328 36.5311L18.6319 37.8538C18.6319 37.893 18.6515 37.9126 18.6907 37.9126H29.392C29.4267 37.9126 29.4466 37.8952 29.4516 37.8605C29.5188 37.4003 29.6568 36.9479 29.8657 36.5033Z" fill="black"/>
<path d="M33.2177 2.51099C33.2978 2.60953 33.4014 2.6868 33.5285 2.74279C33.7502 2.84133 33.8622 2.89116 33.8644 2.89228C39.5972 6.11224 41.7942 13.2476 38.7834 19.108C37.602 21.408 35.8143 23.1857 33.4201 24.441C33.4011 24.4511 33.3905 24.4667 33.3882 24.488L33.3832 24.5275C31.564 25.071 29.6383 25.1544 27.7789 24.7702C25.78 24.3572 23.9276 23.4185 22.4132 22.0508C20.8521 20.6402 19.7093 18.8274 19.11 16.811C18.5224 14.837 18.4777 12.7411 18.9807 10.744C19.4773 8.77072 20.4904 6.96509 21.916 5.51259C23.2141 4.19022 24.8131 3.20209 26.5763 2.63277C28.7295 1.9373 31.0404 1.89492 33.2177 2.51099ZM25.8036 16.4087C25.8103 16.9588 25.775 17.5299 25.8355 18.0708C25.9744 19.3199 26.4872 20.3882 27.3741 21.2756C29.6366 23.5398 33.3219 23.35 35.3417 20.8708C36.1457 19.8848 36.5491 18.7356 36.5519 17.4233C36.5536 16.6355 36.5528 15.806 36.5494 14.9348C36.5494 14.9001 36.5656 14.8777 36.5981 14.8676C37.5936 14.5496 38.2481 13.9158 38.5617 12.9662C38.8565 12.0726 38.6599 11.0539 38.0678 10.3173C36.9861 8.97191 34.9764 8.88288 33.7712 10.1225C32.2477 11.6913 33.0027 14.2713 35.073 14.8626C35.1015 14.8704 35.1158 14.8892 35.1158 14.9188C35.1191 15.7408 35.1183 16.5795 35.1133 17.435C35.1077 18.4053 34.8193 19.2426 34.2482 19.947C32.4636 22.1474 29.0429 21.8366 27.7016 19.3423C27.1986 18.4059 27.2003 17.4888 27.2397 16.3986C27.2409 16.369 27.2563 16.3516 27.2859 16.3466C29.7257 15.9309 31.5473 13.8732 31.5322 11.3671C31.5294 10.8907 31.533 10.3526 31.5431 9.75296C31.5521 9.20874 31.5061 8.79722 31.4054 8.51839C31.2357 8.04752 30.9308 7.67631 30.4908 7.40476C29.9104 7.04614 29.3637 7.10661 28.7103 7.09234C28.6812 7.09178 28.6649 7.07694 28.6616 7.04782C28.5591 6.10216 27.2213 6.19538 27.2322 7.14357C27.2367 7.55509 27.2353 7.97249 27.228 8.39577C27.2229 8.71072 27.3162 9.0055 27.6135 9.15499C28.0838 9.39099 28.6137 9.10628 28.6616 8.57886C28.6649 8.54471 28.6837 8.52707 28.7179 8.52595C28.9844 8.52035 29.219 8.52343 29.4216 8.53519C29.9432 8.56626 30.1128 8.97779 30.107 9.4565C30.0997 10.0853 30.0974 10.6871 30.1002 11.2622C30.1095 12.7982 29.2671 14.1655 27.8444 14.719C25.4618 15.6461 22.9154 13.9219 22.9322 11.3268C22.9355 10.7485 22.9339 10.1138 22.9271 9.4229C22.9221 8.95931 23.1111 8.56038 23.6091 8.53603C23.8213 8.52595 24.0564 8.52287 24.3146 8.52679C24.3504 8.52735 24.37 8.54499 24.3733 8.5797C24.4456 9.3364 25.5046 9.50101 25.7499 8.77286C25.7907 8.65193 25.8095 8.51083 25.8061 8.34958C25.7983 7.99181 25.7983 7.62424 25.8061 7.24687C25.812 6.96216 25.7507 6.69677 25.5088 6.52124C25.0209 6.16683 24.4414 6.49017 24.3658 7.06462C24.363 7.08422 24.3518 7.09402 24.3322 7.09402C23.9123 7.08982 23.4277 7.05874 23.0338 7.18724C22.1074 7.49042 21.5103 8.26728 21.5011 9.25409C21.4938 9.9842 21.4955 10.7118 21.5061 11.4368C21.5422 13.9228 23.2992 15.9208 25.7482 16.3441C25.7846 16.3502 25.803 16.3718 25.8036 16.4087Z" fill="#4DB8A6"/>
<path d="M33.2175 2.51074C33.4211 2.56778 33.6237 2.63092 33.8239 2.69971C35.1426 3.15277 36.3675 3.84267 37.4386 4.73549C39.1479 6.16039 40.4056 8.05161 41.0583 10.1785C41.7367 12.3882 41.7314 14.7513 41.0432 16.9577C40.4467 18.8684 39.3606 20.5897 37.8929 21.9506C36.6067 23.143 35.0638 24.0244 33.383 24.5272L33.388 24.4878C33.3903 24.4665 33.4009 24.4508 33.4199 24.4407C35.814 23.1855 37.6018 21.4078 38.7832 19.1077C41.794 13.2473 39.597 6.11199 33.8642 2.89203C33.862 2.89091 33.75 2.84108 33.5283 2.74254C33.4012 2.68655 33.2976 2.60928 33.2175 2.51074Z" fill="#2F9A88"/>
<path d="M25.7479 16.3436C23.2989 15.9203 21.5419 13.9223 21.5058 11.4364C21.4952 10.7113 21.4935 9.98376 21.5008 9.25366C21.51 8.26684 22.1071 7.48999 23.0335 7.1868C23.4274 7.05831 23.912 7.08938 24.3319 7.09358C24.3515 7.09358 24.3627 7.08378 24.3655 7.06418C24.4411 6.48973 25.0206 6.16639 25.5085 6.52081C25.7504 6.69633 25.8117 6.96172 25.8058 7.24643C25.798 7.6238 25.798 7.99137 25.8058 8.34915C25.8092 8.5104 25.7904 8.65149 25.7495 8.77243C25.5043 9.50057 24.4453 9.33596 24.373 8.57926C24.3697 8.54455 24.3501 8.52691 24.3142 8.52635C24.0561 8.52243 23.821 8.52551 23.6088 8.53559C23.1108 8.55995 22.9218 8.95887 22.9268 9.42247C22.9335 10.1134 22.9352 10.748 22.9319 11.3264C22.9151 13.9215 25.4615 15.6457 27.8441 14.7185C29.2668 14.1651 30.1092 12.7978 30.0999 11.2617C30.0971 10.6867 30.0994 10.0848 30.1067 9.45606C30.1125 8.97735 29.9429 8.56582 29.4213 8.53475C29.2187 8.52299 28.9841 8.51991 28.7175 8.52551C28.6834 8.52663 28.6646 8.54427 28.6613 8.57842C28.6134 9.10584 28.0835 9.39055 27.6132 9.15456C27.3159 9.00506 27.2226 8.71028 27.2277 8.39534C27.2349 7.97206 27.2363 7.55465 27.2319 7.14313C27.2209 6.19495 28.5588 6.10172 28.6613 7.04739C28.6646 7.0765 28.6809 7.09134 28.71 7.0919C29.3634 7.10618 29.9101 7.04571 30.4905 7.40432C30.9305 7.67587 31.2354 8.04708 31.4051 8.51795C31.5058 8.79678 31.5517 9.20831 31.5428 9.75252C31.5327 10.3522 31.5291 10.8902 31.5319 11.3667C31.547 13.8728 29.7254 15.9304 27.2856 16.3461C27.2559 16.3512 27.2405 16.3685 27.2394 16.3982C27.2 17.4883 27.1983 18.4054 27.7013 19.3419C29.0426 21.8362 32.4633 22.1469 34.2479 19.9465C34.819 19.2422 35.1074 18.4049 35.113 17.4346C35.118 16.5791 35.1188 15.7403 35.1155 14.9184C35.1155 14.8887 35.1012 14.87 35.0726 14.8621C33.0024 14.2709 32.2474 11.6909 33.7709 10.1221C34.9761 8.88245 36.9858 8.97147 38.0675 10.3169C38.6596 11.0534 38.8561 12.0722 38.5614 12.9658C38.2478 13.9154 37.5933 14.5492 36.5978 14.8672C36.5653 14.8773 36.5491 14.8996 36.5491 14.9344C36.5525 15.8056 36.5533 16.635 36.5516 17.4228C36.5488 18.7352 36.1454 19.8844 35.3414 20.8704C33.3216 23.3496 29.6363 23.5394 27.3738 21.2752C26.4869 20.3877 25.9741 19.3195 25.8352 18.0703C25.7747 17.5295 25.81 16.9584 25.8033 16.4083C25.8027 16.3713 25.7843 16.3498 25.7479 16.3436ZM37.2646 12.1108C37.2646 11.731 37.1138 11.3668 36.8452 11.0983C36.5767 10.8297 36.2125 10.6789 35.8327 10.6789C35.4529 10.6789 35.0887 10.8297 34.8202 11.0983C34.5516 11.3668 34.4008 11.731 34.4008 12.1108C34.4008 12.4906 34.5516 12.8548 34.8202 13.1233C35.0887 13.3919 35.4529 13.5427 35.8327 13.5427C36.2125 13.5427 36.5767 13.3919 36.8452 13.1233C37.1138 12.8548 37.2646 12.4906 37.2646 12.1108Z" fill="white"/>
<path d="M35.8328 13.5426C36.6236 13.5426 37.2647 12.9015 37.2647 12.1106C37.2647 11.3198 36.6236 10.6787 35.8328 10.6787C35.042 10.6787 34.4009 11.3198 34.4009 12.1106C34.4009 12.9015 35.042 13.5426 35.8328 13.5426Z" fill="#2F9A88"/>
<path d="M12.1083 22.8278C12.5224 22.3894 13.0783 22.1467 13.6881 22.1442C14.8314 22.1397 15.9839 22.1411 17.1457 22.1484C17.1815 22.1484 17.1995 22.1666 17.1995 22.203V27.8324C17.1995 27.8615 17.1849 27.8761 17.1558 27.8761H8.58601C8.58227 27.8762 8.57858 27.8752 8.57535 27.8733C8.57213 27.8714 8.56949 27.8686 8.56775 27.8653C8.56601 27.862 8.56522 27.8583 8.56548 27.8545C8.56574 27.8508 8.56703 27.8472 8.56922 27.8442C9.56695 26.417 10.5683 24.9873 11.5733 23.5551C11.8673 23.1363 12.0456 22.8939 12.1083 22.8278Z" fill="#02A9F4"/>
<path d="M19.3499 22.1514C20.8387 23.662 22.5903 24.6869 24.6048 25.226C25.5449 25.6348 26.4964 25.9505 27.4594 26.1734L28.7965 27.8741H18.6881C18.6512 27.8741 18.6327 27.8556 18.6327 27.8186L18.6318 22.2043C18.6318 22.1729 18.6475 22.1572 18.6789 22.1572L19.3499 22.1514Z" fill="#02A9F4"/>
<path d="M19.3501 22.1515C19.7168 22.1409 20.0626 22.1409 20.3873 22.1515C20.4847 22.1549 20.5502 22.1809 20.6199 22.2574C21.7459 23.4762 23.0742 24.4659 24.605 25.2262C22.5905 24.687 20.8389 23.6621 19.3501 22.1515Z" fill="#0377BC"/>
<path d="M27.4595 26.1729L28.8074 26.3811C28.8365 26.3851 28.8601 26.3985 28.878 26.4214L30.005 27.8307C30.0252 27.8553 30.0193 27.8677 29.9874 27.8677L28.7965 27.8735L27.4595 26.1729Z" fill="#0377BC"/>
<path d="M12.7807 35.0076C10.818 33.1625 7.81977 33.1382 5.85201 35.0102C5.82906 35.032 5.8019 35.0429 5.77055 35.0429H2.20289C2.16594 35.0429 2.14746 35.0244 2.14746 34.9875C2.15026 33.73 2.15026 32.2966 2.14746 30.6875C2.1469 30.1909 2.38038 29.9137 2.84789 29.856C4.00128 29.7127 5.23193 29.5576 6.53984 29.3908C6.97712 29.3348 7.4088 29.3071 7.83488 29.3076C11.0145 29.3093 14.1183 29.3104 17.1462 29.311C17.1804 29.311 17.1975 29.3281 17.1975 29.3622V34.9967C17.1975 35.0275 17.1821 35.0429 17.1513 35.0429H12.8697C12.8368 35.043 12.805 35.0303 12.7807 35.0076Z" fill="#805EA3"/>
<path d="M39.4089 33.6135L39.4131 35.0404L37.9383 35.037C37.9114 35.037 37.8882 35.0275 37.8686 35.0085C35.8807 33.1407 32.9018 33.1566 30.918 35.0211C30.903 35.0356 30.8828 35.0437 30.8618 35.0438H18.679C18.6668 35.0438 18.655 35.0389 18.6463 35.0302C18.6377 35.0216 18.6328 35.0098 18.6328 34.9976V29.3345C18.6328 29.3276 18.6355 29.321 18.6402 29.3161C18.6449 29.3112 18.6513 29.3085 18.658 29.3085C22.6719 29.3113 26.7583 29.311 30.9172 29.3076C31.2968 29.3071 31.6767 29.3345 32.0569 29.3899C33.8233 29.6469 35.5489 29.8936 37.2337 30.1298C37.2416 30.131 37.2489 30.1349 37.2543 30.1409C37.2597 30.1469 37.2628 30.1546 37.2631 30.1626C37.2726 30.4862 37.2729 30.8126 37.2639 31.1418C37.2538 31.5293 37.2857 31.844 37.3596 32.0858C37.636 32.9912 38.4514 33.5858 39.4089 33.6135ZM22.9211 31.4299C22.9214 31.2506 22.8505 31.0785 22.7239 30.9515C22.5974 30.8245 22.4255 30.7529 22.2462 30.7526L20.7563 30.75C20.6676 30.7499 20.5796 30.7672 20.4975 30.801C20.4154 30.8349 20.3408 30.8845 20.2779 30.9472C20.2151 31.0099 20.1651 31.0843 20.131 31.1663C20.0969 31.2482 20.0792 31.3361 20.0791 31.4249L20.079 31.4955C20.0787 31.6748 20.1496 31.8468 20.2761 31.9739C20.4027 32.1009 20.5746 32.1724 20.7539 32.1727L22.2437 32.1753C22.3325 32.1755 22.4205 32.1581 22.5025 32.1243C22.5846 32.0905 22.6593 32.0408 22.7221 31.9781C22.785 31.9155 22.835 31.841 22.8691 31.759C22.9032 31.6771 22.9208 31.5892 22.921 31.5004L22.9211 31.4299Z" fill="#805EA3"/>
<path d="M39.146 30.402C39.309 30.6668 39.3977 30.9378 39.4123 31.2149C39.4224 31.4081 39.4198 31.7298 39.4047 32.1799C38.9288 32.1172 38.6917 31.844 38.6934 31.3602C38.6945 31.0377 38.6976 30.7124 38.7026 30.3843C38.7032 30.3558 38.7174 30.3435 38.7454 30.3474L39.146 30.402Z" fill="#FFDC00"/>
<path d="M39.146 30.4023C39.4763 30.4488 39.8162 30.4964 40.1656 30.5451C41.0491 30.6669 40.8173 31.5076 40.8568 32.1215C40.859 32.1568 40.8428 32.1744 40.808 32.1744L39.4047 32.1803C39.4198 31.7301 39.4223 31.4085 39.4122 31.2153C39.3977 30.9382 39.3089 30.6672 39.146 30.4023Z" fill="#FEC108"/>
<path d="M22.246 30.7528L20.7562 30.7502C20.3828 30.7496 20.0795 31.0517 20.0789 31.4251L20.0788 31.4956C20.0781 31.869 20.3803 32.1722 20.7537 32.1729L22.2435 32.1755C22.6169 32.1761 22.9202 31.874 22.9208 31.5006L22.9209 31.4301C22.9216 31.0567 22.6194 30.7535 22.246 30.7528Z" fill="black"/>
<path d="M39.4089 33.6133L40.8014 33.6175C40.835 33.6175 40.8518 33.6343 40.8518 33.6679L40.8535 34.9906C40.8535 35.0231 40.8372 35.0393 40.8048 35.0393L39.4131 35.0402L39.4089 33.6133Z" fill="#5E4C70"/>
<path d="M34.683 35.0582C34.7597 35.1416 34.8395 35.2167 34.9224 35.2833C35.0752 35.4065 35.1601 35.4759 35.1769 35.4916C35.921 36.1881 36.3594 37.0433 36.4921 38.0573C36.2983 37.4884 35.9814 37.071 35.5414 36.8051C35.1181 36.5492 34.6707 36.4448 34.1993 36.4918C32.3642 36.6749 31.5832 38.9047 32.9286 40.1905C33.3771 40.6197 34.0523 40.8464 34.6419 40.7658C35.5702 40.6404 36.1889 40.1046 36.4979 39.1583C36.3434 40.4215 35.7233 41.4354 34.6377 42.2002C33.9546 42.2456 33.2728 42.0943 32.6731 41.7642C32.0734 41.434 31.5809 40.9389 31.254 40.3375C30.9612 39.7989 30.8116 39.1942 30.8194 38.5813C30.8272 37.9684 30.9921 37.3678 31.2985 36.837C31.5819 36.3463 31.9776 35.9299 32.4531 35.622C32.9286 35.3141 33.4704 35.1235 34.0338 35.0658C34.2495 35.0434 34.4668 35.0409 34.683 35.0582Z" fill="#607D8B"/>
<path d="M9.57088 35.0562C10.6128 35.8148 11.2181 36.7823 11.3866 37.9587C11.0944 37.261 10.633 36.8064 10.0026 36.5948C9.37939 36.3856 8.65797 36.4679 8.13054 36.8375C7.44971 37.3145 7.13197 37.9693 7.17732 38.8019C7.21176 39.4359 7.6132 40.1078 8.15406 40.432C8.95639 40.9124 9.7576 40.8973 10.5577 40.3866C10.9037 40.1655 11.1823 39.7937 11.3933 39.2713C11.2573 40.2467 10.8329 41.0711 10.1201 41.7447C10.1078 41.7559 10.021 41.8278 9.85978 41.9605C9.77524 42.0299 9.69349 42.108 9.61455 42.1948C9.16729 42.2326 8.71709 42.1855 8.2876 42.0563C7.73285 41.8899 7.22672 41.5915 6.81262 41.1866C6.39851 40.7817 6.08879 40.2824 5.91 39.7316C5.7483 39.2331 5.69803 38.7052 5.76275 38.1851C5.82748 37.665 6.00561 37.1654 6.28457 36.7216C6.57525 36.2591 6.96795 35.8693 7.43261 35.5819C7.89726 35.2946 8.42155 35.1173 8.96535 35.0637C9.16655 35.0442 9.36911 35.0416 9.57088 35.0562Z" fill="#607D8B"/>
<path d="M9.61447 42.1953C9.69342 42.1085 9.77516 42.0304 9.85971 41.961C10.021 41.8283 10.1077 41.7564 10.1201 41.7452C10.8328 41.0716 11.2572 40.2472 11.3933 39.2718C11.4638 38.8401 11.4616 38.4026 11.3865 37.9591C11.218 36.7828 10.6128 35.8153 9.5708 35.0566C10.2778 35.1068 10.954 35.3659 11.5137 35.801C12.0734 36.2361 12.4912 36.8276 12.7143 37.5006C12.8856 38.0172 12.9369 38.566 12.8643 39.1053C12.7917 39.6446 12.5971 40.1603 12.2953 40.613C11.9961 41.0615 11.5997 41.4367 11.1355 41.7106C10.6714 41.9846 10.1515 42.1503 9.61447 42.1953Z" fill="#37474F"/>
<path d="M34.6377 42.1996C35.7233 41.4348 36.3434 40.4209 36.4979 39.1577C36.5444 38.7916 36.5425 38.4246 36.4921 38.0567C36.3594 37.0427 35.921 36.1875 35.1769 35.491C35.1601 35.4753 35.0753 35.4059 34.9224 35.2827C34.8395 35.2161 34.7598 35.141 34.683 35.0576C35.231 35.1012 35.7617 35.2704 36.2338 35.5521C36.706 35.8338 37.107 36.2203 37.4058 36.6819C37.7009 37.1381 37.8883 37.6555 37.9538 38.1949C38.0193 38.7343 37.9611 39.2816 37.7838 39.7952C37.5826 40.3782 37.2342 40.8993 36.7723 41.3081C36.3104 41.7169 35.7507 41.9994 35.1475 42.1283C34.9797 42.1641 34.8094 42.1879 34.6377 42.1996Z" fill="#37474F"/>
<path d="M13.8625 36.5225C13.8501 36.4945 13.8594 36.4805 13.8902 36.4805H17.153C17.1838 36.4805 17.1992 36.4956 17.1992 36.5258L17.1983 37.8897C17.1983 37.9048 17.191 37.9124 17.1765 37.9124H14.321C14.2885 37.9124 14.2701 37.8962 14.2656 37.8637C14.204 37.4315 14.0696 36.9844 13.8625 36.5225Z" fill="#7F8E94"/>
<path d="M40.1387 36.4814L40.1328 37.9092L39.4013 37.9016C39.37 37.9016 39.3521 37.8862 39.3476 37.8554C39.277 37.393 39.1438 36.9529 38.9478 36.5352C38.9338 36.5044 38.9436 36.489 38.9772 36.489L40.1387 36.4814Z" fill="#7F8E94"/>
<path d="M4.7717 36.5265C4.5679 36.9705 4.43492 37.4137 4.37277 37.856C4.36717 37.8935 4.34562 37.9123 4.30811 37.9123H1.49295C1.47691 37.9123 1.46153 37.9058 1.45019 37.8943C1.43885 37.8828 1.43248 37.8672 1.43248 37.851L1.43164 36.5332C1.43164 36.4985 1.449 36.4812 1.48371 36.4812L4.74146 36.4795C4.77618 36.4795 4.78626 36.4952 4.7717 36.5265Z" fill="#7F8E94"/>
<path d="M11.3864 37.9591C11.4614 38.4025 11.4637 38.8401 11.3931 39.2717C11.182 39.7941 10.9035 40.1659 10.5575 40.3871C9.75738 40.8977 8.95617 40.9128 8.15384 40.4324C7.61298 40.1082 7.21153 39.4364 7.1771 38.8023C7.13175 37.9697 7.44949 37.3149 8.13032 36.8379C8.65774 36.4683 9.37917 36.386 10.0023 36.5952C10.6328 36.8068 11.0941 37.2614 11.3864 37.9591ZM10.03 38.6276C10.03 38.4383 9.95484 38.2567 9.82096 38.1228C9.68709 37.9889 9.50551 37.9137 9.31618 37.9137C9.12685 37.9137 8.94528 37.9889 8.8114 38.1228C8.67753 38.2567 8.60231 38.4383 8.60231 38.6276C8.60231 38.8169 8.67753 38.9985 8.8114 39.1324C8.94528 39.2662 9.12685 39.3415 9.31618 39.3415C9.50551 39.3415 9.68709 39.2662 9.82096 39.1324C9.95484 38.9985 10.03 38.8169 10.03 38.6276Z" fill="black"/>
<path d="M29.8656 36.5031C29.6567 36.9477 29.5187 37.4001 29.4515 37.8603C29.4465 37.895 29.4266 37.9124 29.3919 37.9124H18.6906C18.6514 37.9124 18.6318 37.8928 18.6318 37.8536L18.6327 36.5309C18.6327 36.4973 18.6492 36.4805 18.6822 36.4805H29.8513C29.854 36.4805 29.8566 36.4812 29.8589 36.4825C29.8612 36.4838 29.8632 36.4857 29.8646 36.4879C29.866 36.4902 29.8669 36.4927 29.867 36.4954C29.8672 36.4981 29.8667 36.5007 29.8656 36.5031Z" fill="#7F8E94"/>
<path d="M36.4919 38.0569C36.5423 38.4247 36.5443 38.7918 36.4978 39.1579C36.1888 40.1041 35.5701 40.64 34.6418 40.7654C34.0522 40.846 33.377 40.6193 32.9285 40.1901C31.5831 38.9043 32.3641 36.6745 34.1992 36.4914C34.6706 36.4444 35.118 36.5488 35.5412 36.8047C35.9813 37.0706 36.2982 37.488 36.4919 38.0569ZM35.1138 38.6271C35.1138 38.4378 35.0385 38.2562 34.9047 38.1224C34.7708 37.9885 34.5892 37.9133 34.3999 37.9133C34.2106 37.9133 34.029 37.9885 33.8951 38.1224C33.7612 38.2562 33.686 38.4378 33.686 38.6271C33.686 38.8165 33.7612 38.9981 33.8951 39.1319C34.029 39.2658 34.2106 39.341 34.3999 39.341C34.5892 39.341 34.7708 39.2658 34.9047 39.1319C35.0385 38.9981 35.1138 38.8165 35.1138 38.6271Z" fill="black"/>
<path d="M40.1387 36.4814L41.5286 36.4848C41.5577 36.4848 41.5723 36.4994 41.5723 36.5285V37.8756C41.5723 37.8849 41.5686 37.8939 41.562 37.9005C41.5554 37.9071 41.5464 37.9109 41.537 37.9109L40.1328 37.9092L40.1387 36.4814Z" fill="#37474F"/>
<path d="M9.31641 39.3408C9.71066 39.3408 10.0303 39.0212 10.0303 38.627C10.0303 38.2327 9.71066 37.9131 9.31641 37.9131C8.92215 37.9131 8.60254 38.2327 8.60254 38.627C8.60254 39.0212 8.92215 39.3408 9.31641 39.3408Z" fill="#7F8E94"/>
<path d="M34.3999 39.3408C34.7942 39.3408 35.1138 39.0212 35.1138 38.627C35.1138 38.2327 34.7942 37.9131 34.3999 37.9131C34.0056 37.9131 33.686 38.2327 33.686 38.627C33.686 39.0212 34.0056 39.3408 34.3999 39.3408Z" fill="#7F8E94"/>
</g>
<defs>
<clipPath id="clip0_370_7607">
<rect width="43" height="43" fill="white" transform="translate(0 0.644531)"/>
</clipPath>
</defs>
</svg>
