<svg width="43" height="44" viewBox="0 0 43 44" fill="none" xmlns="http://www.w3.org/2000/svg">
<g clip-path="url(#clip0_370_7680)">
<path d="M20.8366 3.51008H25.0324C25.0469 3.51008 25.0608 3.50433 25.071 3.49409C25.0813 3.48385 25.087 3.46997 25.087 3.45549V2.84156C25.087 2.63753 25.0031 2.44186 24.8538 2.29759C24.7045 2.15332 24.502 2.07227 24.2909 2.07227H21.5782C21.367 2.07227 21.1645 2.15332 21.0152 2.29759C20.8659 2.44186 20.782 2.63753 20.782 2.84156V3.45549C20.782 3.46997 20.7877 3.48385 20.798 3.49409C20.8082 3.50433 20.8221 3.51008 20.8366 3.51008Z" stroke="#7A221B" stroke-width="2"/>
<path d="M5.99139 6.43826C6.58768 6.64906 6.586 7.52082 5.99475 7.75178C5.87997 7.79657 5.73971 7.81757 5.57399 7.81477C5.16358 7.80805 4.75598 7.80721 4.35117 7.81225C4.31758 7.81281 4.30078 7.82988 4.30078 7.86348V14.8972C4.30078 14.9392 4.32178 14.9602 4.36377 14.9602L5.68568 14.9593C5.71648 14.9593 5.73188 14.9442 5.73188 14.914C5.73188 13.5848 5.7316 12.2069 5.73104 10.7803C5.73104 9.93957 6.31221 9.24838 7.14701 9.24838C8.98515 9.24782 11.0484 9.24586 13.3367 9.2425C13.6928 9.24194 13.9559 9.27498 14.1261 9.3416C14.5035 9.48998 14.7745 9.75453 14.9391 10.1353C15.0208 10.3234 15.06 10.6417 15.0567 11.0902C15.0466 12.4361 15.0457 13.7116 15.0541 14.9165C15.0541 14.9456 15.0684 14.9602 15.097 14.9602L16.4231 14.9593C16.4505 14.9593 16.4645 14.9453 16.4651 14.9173L16.4878 3.92629C16.4878 3.89494 16.4749 3.88766 16.4491 3.90445C15.7747 4.34285 14.9912 4.58557 14.179 4.69727C13.6701 4.76725 13.1166 4.75998 12.5187 4.67543C11.7566 4.56793 11.026 4.38932 10.3267 4.13961C9.93193 3.99852 9.52629 3.87926 9.12316 3.7558C8.81466 3.66174 8.50924 3.58839 8.2069 3.53576C6.93537 3.31348 5.65041 3.27485 4.35201 3.41986C4.33791 3.42132 4.32485 3.42798 4.31538 3.43854C4.30591 3.44909 4.30071 3.46279 4.30078 3.47697V6.33076C4.30078 6.36044 4.31534 6.37527 4.34445 6.37527C4.71175 6.37807 5.10675 6.37695 5.52947 6.37192C5.70696 6.36968 5.86093 6.39179 5.99139 6.43826Z" stroke="#7F6104" stroke-width="2"/>
<path d="M25.9093 10.4782C24.8763 10.0006 24.3612 9.16553 24.364 7.97295C24.3656 6.97578 24.3662 5.98364 24.3656 4.99654C24.3656 4.96239 24.3486 4.94531 24.3144 4.94531H21.5253C21.5177 4.94531 21.5104 4.94832 21.5051 4.95368C21.4997 4.95903 21.4967 4.96629 21.4967 4.97387C21.5051 5.9912 21.5032 7.07544 21.4909 8.22658C21.4791 9.32594 20.7325 10.2456 19.7028 10.5672C19.4693 10.6395 19.2241 10.6604 18.9814 10.6756C18.5178 10.7033 18.092 11.0132 17.9761 11.4474C17.9291 11.6249 17.9176 11.8348 17.9417 12.0773C17.9439 12.0985 17.9557 12.1092 17.9769 12.1092H27.9005C27.9269 12.1092 27.9414 12.0963 27.9442 12.0705C28.0131 11.4827 27.8101 11.0557 27.3353 10.7898C27.1279 10.6739 26.8709 10.6781 26.6399 10.6554C26.3947 10.6302 26.1159 10.5731 25.9093 10.4782Z" stroke="#686C6E" stroke-width="2"/>
<path d="M35.1705 5.75879C34.5233 5.98387 33.925 6.37607 33.3758 6.93541C32.6199 7.70415 32.0141 8.48968 31.5583 9.29201C30.5606 11.0481 29.9526 12.9109 29.5427 14.9307C29.536 14.9632 29.5492 14.9794 29.5822 14.9794H32.9668C32.9778 14.9794 32.9885 14.9756 32.9972 14.9688C33.0059 14.9619 33.012 14.9524 33.0146 14.9416L33.4891 13.0486C33.4905 13.0434 33.4907 13.038 33.4899 13.0326C33.4891 13.0273 33.4871 13.0221 33.4842 13.0175C33.4813 13.0129 33.4775 13.0089 33.473 13.0057C33.4685 13.0025 33.4634 13.0003 33.4581 12.9991C33.1776 12.9375 32.9125 12.87 32.6627 12.7967C31.938 12.5825 31.99 11.5604 32.7098 11.4235C33.0381 11.3614 33.4723 11.5378 33.8142 11.6117C33.8233 11.6135 33.8328 11.6118 33.8406 11.607C33.8484 11.6021 33.854 11.5945 33.8562 11.5856C34.0012 10.9994 34.1498 10.4068 34.3021 9.80768C34.4407 9.26178 35.084 9.03418 35.488 9.43982C35.6856 9.63859 35.7556 9.85863 35.6979 10.0999C35.5529 10.7063 35.4012 11.3169 35.2427 11.9316C35.2414 11.9368 35.2411 11.9421 35.2419 11.9473C35.2427 11.9526 35.2446 11.9576 35.2474 11.9622C35.2502 11.9667 35.2539 11.9707 35.2583 11.9738C35.2627 11.9769 35.2677 11.9791 35.273 11.9804C35.4801 12.0257 35.6867 12.0792 35.8928 12.1408C36.348 12.2768 36.5747 12.7816 36.3177 13.1948C35.9776 13.744 35.4149 13.4837 34.937 13.372C34.9046 13.3647 34.8841 13.3773 34.8757 13.4098L34.4936 14.9366C34.4869 14.9629 34.4972 14.9761 34.5247 14.9761L36.4697 14.9794" stroke="#3D2B24" stroke-width="2"/>
<path d="M36.4692 14.9786L37.8725 14.976C37.8804 14.9761 37.8879 14.9731 37.8937 14.9678C37.8994 14.9625 37.903 14.9553 37.9036 14.9475C38.0464 13.4072 38.0453 11.9112 37.9003 10.4594C37.8515 9.97113 37.7872 9.47226 37.7071 8.96275C37.6225 8.42637 37.5318 7.93982 37.435 7.5031C37.3471 7.10446 37.1508 6.70973 36.8463 6.31892C36.6329 6.04458 36.3955 5.86205 36.1341 5.77135C35.8396 5.66944 35.5182 5.66497 35.1699 5.75791" stroke="#271A17" stroke-width="2"/>
<path d="M36.4692 14.9794C36.589 13.676 36.6119 12.4392 36.538 11.269C36.4563 9.98348 36.2654 8.63973 35.9653 7.23775C35.8695 6.79096 35.6044 6.29797 35.1699 5.75879" stroke="#64453B" stroke-width="2"/>
<path d="M13.6148 10.7064C13.6148 10.6991 13.6119 10.692 13.6067 10.6868C13.6015 10.6816 13.5945 10.6787 13.5871 10.6787H7.19422C7.18687 10.6787 7.17982 10.6816 7.17462 10.6868C7.16942 10.692 7.1665 10.6991 7.1665 10.7064V14.9157C7.1665 14.9231 7.16942 14.9301 7.17462 14.9353C7.17982 14.9405 7.18687 14.9434 7.19422 14.9434H13.5871C13.5945 14.9434 13.6015 14.9405 13.6067 14.9353C13.6119 14.9301 13.6148 14.9231 13.6148 14.9157V10.7064Z" stroke="#7B3E00" stroke-width="2"/>
<path d="M27.9484 13.5714C27.9484 13.5636 27.9453 13.5561 27.9398 13.5506C27.9343 13.5451 27.9268 13.542 27.919 13.542H17.9635C17.9557 13.542 17.9482 13.5451 17.9427 13.5506C17.9372 13.5561 17.9341 13.5636 17.9341 13.5714V14.9504C17.9341 14.9582 17.9372 14.9657 17.9427 14.9712C17.9482 14.9767 17.9557 14.9798 17.9635 14.9798H27.919C27.9268 14.9798 27.9343 14.9767 27.9398 14.9712C27.9453 14.9657 27.9484 14.9582 27.9484 14.9504V13.5714Z" stroke="#7A221B" stroke-width="2"/>
<path d="M39.9926 19.2679C40.6897 19.2947 41.5001 19.4123 41.5547 18.5347C41.5704 18.2855 41.5782 17.9459 41.5782 17.5159C41.5791 16.9213 41.4825 16.4376 40.7955 16.4149C40.6566 16.4099 40.3803 16.4099 39.9666 16.4149" stroke="#141B4A" stroke-width="2"/>
<path d="M39.9665 16.4153C36.3429 16.4136 32.7139 16.4195 29.0796 16.433C28.7997 16.4341 28.5197 16.4341 28.2398 16.433C24.1402 16.4178 20.5569 16.4162 17.4898 16.4279C17.3795 16.4285 17.2675 16.429 17.1538 16.4296C11.8091 16.4408 6.93826 16.4366 2.5414 16.417C2.18754 16.4159 1.95295 16.4419 1.83761 16.4951C1.56998 16.62 1.4356 16.8646 1.43448 17.2291C1.43392 17.5477 1.4314 17.8968 1.42693 18.2764C1.42413 18.5564 1.45632 18.7596 1.52351 18.8861C1.65956 19.1403 1.8726 19.2674 2.16263 19.2674C14.7737 19.2691 27.3837 19.2694 39.9926 19.2683" stroke="#20295B" stroke-width="2"/>
<path d="M39.9666 16.415C40.0735 16.6989 40.1272 16.9007 40.1278 17.0206C40.1306 17.5071 40.1309 17.9934 40.1286 18.4794C40.1281 18.6188 40.1141 18.7512 40.0866 18.8766C40.0581 19.0043 40.0267 19.1347 39.9926 19.268" stroke="#3443A4" stroke-width="2"/>
<path d="M34.9922 35.5486C35.4239 35.7737 35.8242 36.09 36.1932 36.4976C36.2133 36.5194 36.2262 36.5158 36.2318 36.4867L39.2527 20.774C39.2589 20.7421 39.2457 20.7259 39.2132 20.7253L37.8451 20.7178" stroke="#004248" stroke-width="2"/>
<path d="M37.8452 20.7178L3.75927 20.7195C3.75653 20.7194 3.75381 20.7199 3.75132 20.7211C3.74883 20.7223 3.74661 20.724 3.74485 20.7262C3.74308 20.7283 3.7418 20.7309 3.74109 20.7337C3.74039 20.7364 3.74029 20.7393 3.74079 20.7421L6.76675 36.485C6.77179 36.5108 6.78326 36.5141 6.80118 36.4951C7.29053 35.9693 7.82551 35.5889 8.40612 35.3537C10.6897 34.4274 13.21 35.5687 14.0877 37.8791C14.0961 37.9015 14.112 37.9127 14.1355 37.9127H28.8656C28.8752 37.9128 28.8846 37.9098 28.8926 37.9043C28.9005 37.8987 28.9066 37.8908 28.9101 37.8817C29.2578 36.9886 29.8084 36.2868 30.562 35.7762C31.8806 34.8834 33.5704 34.7608 34.9922 35.5486" stroke="#005E6A" stroke-width="2"/>
<path d="M37.8451 20.7178L34.9922 35.5486" stroke="#00A0B2" stroke-width="2"/>
<path d="M12.8908 39.3337C12.8908 38.5759 12.5898 37.8492 12.054 37.3134C11.5182 36.7776 10.7914 36.4766 10.0337 36.4766C9.2759 36.4766 8.54917 36.7776 8.01335 37.3134C7.47753 37.8492 7.17651 38.5759 7.17651 39.3337C7.17651 40.0915 7.47753 40.8182 8.01335 41.354C8.54917 41.8898 9.2759 42.1909 10.0337 42.1909C10.7914 42.1909 11.5182 41.8898 12.054 41.354C12.5898 40.8182 12.8908 40.0915 12.8908 39.3337Z" stroke="#303F46" stroke-width="2"/>
<path d="M32.9604 42.1909C33.5745 42.1925 34.1727 41.9961 34.6662 41.6307C35.1136 41.2997 35.4547 40.8453 35.6475 40.3231C35.8402 39.8009 35.8763 39.2337 35.7513 38.6912C35.5823 37.9603 35.1328 37.3251 34.4999 36.9225C34.044 36.6323 33.5151 36.4777 32.9747 36.4766" stroke="#1C2428" stroke-width="2"/>
<path d="M32.9747 36.4766C32.3951 36.4744 31.8284 36.649 31.3505 36.9771C30.7371 37.3977 30.3119 38.041 30.1654 38.7702C30.0874 39.1585 30.0909 39.5588 30.1757 39.9456C30.2606 40.3325 30.425 40.6976 30.6584 41.0176C30.9229 41.3804 31.2691 41.6757 31.6691 41.8796C32.0691 42.0835 32.5115 42.1901 32.9604 42.1909" stroke="#303F46" stroke-width="2"/>
<path d="M32.9749 36.4766C33.7828 37.1154 34.2391 37.9211 34.3438 38.8936" stroke="#4C626D" stroke-width="2"/>
<path d="M34.3439 38.8934C34.0869 38.3391 33.7118 38.0264 33.2185 37.9553C32.1813 37.805 31.2936 38.7473 31.6261 39.7828C31.8798 40.5714 32.7473 40.9846 33.5166 40.6655C33.8761 40.5166 34.1521 40.233 34.3447 39.8147" stroke="#98ABB4" stroke-width="2"/>
<path d="M34.3445 39.8145C34.2163 40.7948 33.7549 41.5868 32.9604 42.1904" stroke="#4C626D" stroke-width="2"/>
<path d="M34.3446 39.8149C34.4157 39.5086 34.4154 39.2015 34.3438 38.8936" stroke="#839096" stroke-width="2"/>
<path d="M15.0357 7.08471C15.0358 6.99273 15.0179 6.90162 14.9828 6.81658C14.9478 6.73154 14.8963 6.65423 14.8314 6.58908C14.7665 6.52392 14.6893 6.47219 14.6044 6.43684C14.5195 6.4015 14.4285 6.38322 14.3365 6.38306L8.59867 6.37305C8.41291 6.37272 8.23462 6.44621 8.10304 6.57733C7.97145 6.70846 7.89735 6.88649 7.89702 7.07225L7.89697 7.10249C7.89681 7.19447 7.91477 7.28558 7.94982 7.37062C7.98487 7.45566 8.03633 7.53297 8.10126 7.59812C8.16618 7.66328 8.24331 7.71501 8.32823 7.75036C8.41315 7.7857 8.5042 7.80398 8.59618 7.80414L14.334 7.81415C14.5197 7.81448 14.698 7.74099 14.8296 7.60987C14.9612 7.47874 15.0353 7.30071 15.0356 7.11495L15.0357 7.08471Z" stroke="#7F6104" stroke-width="2"/>
<path d="M12.3526 24.0098C12.2786 23.4928 12.0208 23.0198 11.6264 22.6775C11.2319 22.3352 10.7273 22.1466 10.2051 22.1462L8.25077 22.1445C7.92684 22.1443 7.60697 22.2166 7.3146 22.3561C7.02224 22.4956 6.76479 22.6987 6.56113 22.9506C6.35747 23.2025 6.21276 23.4968 6.1376 23.8119C6.06245 24.1269 6.05876 24.4549 6.12681 24.7716L7.65532 31.8934C7.75939 32.3788 8.02663 32.8138 8.4125 33.126C8.79837 33.4382 9.27957 33.6088 9.77593 33.6092L11.2213 33.6101C11.5326 33.6103 11.8403 33.5437 12.1236 33.4145C12.4068 33.2854 12.659 33.0969 12.863 32.8618C13.067 32.6266 13.2181 32.3504 13.3059 32.0517C13.3937 31.7531 13.4163 31.439 13.3721 31.1309L12.3526 24.0098Z" stroke="#005E6A" stroke-width="2"/>
<path d="M20.7852 24.3189C20.7852 23.7426 20.5563 23.1899 20.1489 22.7823C19.7415 22.3747 19.1889 22.1456 18.6125 22.1454L16.0124 22.1445C15.701 22.1445 15.3932 22.2114 15.1099 22.3407C14.8266 22.47 14.5744 22.6587 14.3704 22.894C14.1664 23.1292 14.0153 23.4056 13.9273 23.7043C13.8394 24.003 13.8167 24.3172 13.8607 24.6254L14.8786 31.7431C14.9527 32.2605 15.2108 32.7338 15.6055 33.0764C16.0002 33.4189 16.5051 33.6078 17.0278 33.6084L18.6084 33.6101C18.894 33.6104 19.1769 33.5544 19.4409 33.4454C19.7049 33.3363 19.9448 33.1762 20.1469 32.9744C20.349 32.7725 20.5093 32.5328 20.6187 32.2689C20.7281 32.005 20.7844 31.7222 20.7844 31.4366L20.7852 24.3189Z" stroke="#005E6A" stroke-width="2"/>
<path d="M29.1395 24.6254C29.1837 24.3171 29.1611 24.0029 29.0732 23.7041C28.9853 23.4054 28.8342 23.1289 28.6301 22.8937C28.4261 22.6584 28.1738 22.4697 27.8905 22.3405C27.6071 22.2112 27.2993 22.1444 26.9878 22.1445L24.3885 22.1454C23.8123 22.1454 23.2596 22.3743 22.8522 22.7817C22.4447 23.1892 22.2158 23.7418 22.2158 24.318V31.4374C22.2158 31.7229 22.2721 32.0057 22.3814 32.2694C22.4908 32.5332 22.6511 32.7728 22.8531 32.9746C23.0551 33.1764 23.2949 33.3364 23.5588 33.4454C23.8227 33.5545 24.1055 33.6104 24.391 33.6101L25.9724 33.6084C26.4949 33.6078 26.9996 33.419 27.3941 33.0766C27.7887 32.7342 28.0466 32.2611 28.1208 31.7439L29.1395 24.6254Z" stroke="#005E6A" stroke-width="2"/>
<path d="M36.8733 24.7716C36.9412 24.4547 36.9373 24.1267 36.862 23.8116C36.7867 23.4964 36.6419 23.2021 36.438 22.9502C36.2342 22.6983 35.9766 22.4953 35.6841 22.3558C35.3916 22.2164 35.0716 22.1442 34.7476 22.1445L32.7942 22.1471C32.272 22.1479 31.7676 22.3368 31.3733 22.6792C30.9791 23.0216 30.7214 23.4946 30.6475 24.0115L29.6279 31.1309C29.5837 31.4393 29.6064 31.7536 29.6944 32.0524C29.7823 32.3513 29.9336 32.6277 30.1379 32.863C30.3421 33.0982 30.5946 33.2868 30.8782 33.4158C31.1617 33.5449 31.4697 33.6114 31.7813 33.6109L33.2267 33.6084C33.7231 33.6077 34.2043 33.437 34.5902 33.1246C34.976 32.8123 35.2432 32.3772 35.3473 31.8918L36.8733 24.7716Z" stroke="#005E6A" stroke-width="2"/>
<path d="M17.1835 35.7252C17.1835 35.5463 17.1125 35.3748 16.986 35.2483C16.8595 35.1218 16.688 35.0508 16.5091 35.0508H15.026C14.8471 35.0508 14.6756 35.1218 14.5491 35.2483C14.4226 35.3748 14.3516 35.5463 14.3516 35.7252V35.7974C14.3516 35.886 14.369 35.9737 14.4029 36.0555C14.4368 36.1373 14.4865 36.2116 14.5491 36.2743C14.6117 36.3369 14.6861 36.3866 14.7679 36.4205C14.8497 36.4544 14.9374 36.4718 15.026 36.4718H16.5091C16.688 36.4718 16.8595 36.4007 16.986 36.2743C17.1125 36.1478 17.1835 35.9763 17.1835 35.7974V35.7252Z" stroke="#005E6A" stroke-width="2"/>
<path d="M28.6538 35.7402C28.6537 35.6475 28.6352 35.5557 28.5996 35.47C28.564 35.3844 28.5118 35.3066 28.4461 35.2412C28.3804 35.1757 28.3024 35.1238 28.2167 35.0884C28.1309 35.0531 28.0391 35.035 27.9463 35.0352L19.353 35.0502C19.2603 35.0503 19.1685 35.0687 19.0828 35.1044C18.9972 35.14 18.9194 35.1922 18.854 35.2579C18.7885 35.3236 18.7366 35.4016 18.7012 35.4873C18.6659 35.5731 18.6478 35.6649 18.648 35.7577L18.648 35.7812C18.6482 35.874 18.6666 35.9658 18.7022 36.0514C18.7379 36.137 18.79 36.2148 18.8557 36.2803C18.9214 36.3458 18.9994 36.3977 19.0851 36.433C19.1709 36.4683 19.2628 36.4865 19.3555 36.4863L27.9488 36.4713C28.0416 36.4711 28.1334 36.4527 28.219 36.4171C28.3046 36.3814 28.3824 36.3293 28.4479 36.2635C28.5134 36.1978 28.5652 36.1199 28.6006 36.0341C28.6359 35.9484 28.654 35.8565 28.6539 35.7637L28.6538 35.7402Z" stroke="#005E6A" stroke-width="2"/>
<path d="M10.9374 24.2195C10.912 24.0413 10.8232 23.8783 10.6873 23.7603C10.5514 23.6423 10.3775 23.5772 10.1975 23.577L8.26171 23.5762C8.15005 23.5761 8.03978 23.601 7.93898 23.649C7.83819 23.6971 7.74943 23.767 7.67921 23.8539C7.60898 23.9407 7.55908 24.0421 7.53315 24.1507C7.50722 24.2593 7.50593 24.3724 7.52936 24.4815L9.052 31.5858C9.08775 31.7533 9.17989 31.9034 9.31302 32.0112C9.44615 32.119 9.61222 32.1778 9.7835 32.1779L11.2121 32.1787C11.3193 32.1787 11.4252 32.1556 11.5228 32.1111C11.6203 32.0666 11.7071 32.0017 11.7774 31.9207C11.8476 31.8397 11.8996 31.7445 11.9299 31.6417C11.9602 31.5389 11.968 31.4307 11.9528 31.3246L10.9374 24.2195Z" stroke="#20295B" stroke-width="2"/>
<path d="M19.3519 24.3269C19.3519 24.1281 19.273 23.9375 19.1326 23.7968C18.9921 23.6562 18.8016 23.5771 18.6028 23.5769L16.0253 23.5752C15.9179 23.5752 15.8117 23.5983 15.714 23.6429C15.6163 23.6875 15.5293 23.7526 15.4589 23.8337C15.3885 23.9149 15.3363 24.0102 15.306 24.1132C15.2756 24.2163 15.2677 24.3246 15.2829 24.431L16.2966 31.5352C16.3221 31.7141 16.4113 31.8778 16.5479 31.9962C16.6844 32.1145 16.8591 32.1796 17.0398 32.1794L18.6028 32.1786C18.8017 32.1786 18.9925 32.0995 19.1331 31.9589C19.2738 31.8182 19.3528 31.6275 19.3528 31.4286L19.3519 24.3269Z" stroke="#20295B" stroke-width="2"/>
<path d="M27.7182 24.4318C27.7334 24.3253 27.7254 24.2168 27.695 24.1135C27.6645 24.0103 27.6123 23.9149 27.5417 23.8336C27.4711 23.7524 27.3839 23.6873 27.286 23.6427C27.1881 23.5981 27.0817 23.5751 26.9741 23.5752L24.3983 23.5769C24.1993 23.5771 24.0085 23.6563 23.8679 23.7971C23.7273 23.9379 23.6483 24.1287 23.6483 24.3277L23.6475 31.4277C23.6475 31.5263 23.6669 31.624 23.7046 31.7151C23.7423 31.8062 23.7977 31.8889 23.8674 31.9586C23.9371 32.0284 24.0199 32.0837 24.111 32.1214C24.202 32.1591 24.2997 32.1786 24.3983 32.1786L25.9596 32.1794C26.1405 32.1796 26.3154 32.1144 26.4521 31.9959C26.5888 31.8774 26.6782 31.7135 26.7037 31.5344L27.7182 24.4318Z" stroke="#20295B" stroke-width="2"/>
<path d="M35.4719 24.479C35.4952 24.3701 35.4938 24.2574 35.4679 24.1491C35.442 24.0408 35.3922 23.9397 35.3221 23.8531C35.2521 23.7665 35.1636 23.6967 35.063 23.6488C34.9625 23.6009 34.8526 23.5761 34.7412 23.5762L32.8012 23.577C32.6215 23.5772 32.448 23.6423 32.3124 23.7601C32.1768 23.878 32.0882 24.0408 32.0629 24.2187L31.0476 31.3262C31.0324 31.4322 31.0402 31.5402 31.0704 31.6429C31.1007 31.7456 31.1526 31.8406 31.2228 31.9215C31.293 32.0023 31.3797 32.0671 31.4772 32.1115C31.5746 32.1559 31.6804 32.1788 31.7875 32.1787L33.2186 32.1779C33.3894 32.1778 33.5551 32.1191 33.6879 32.0117C33.8207 31.9042 33.9127 31.7545 33.9484 31.5874L35.4719 24.479Z" stroke="#20295B" stroke-width="2"/>
<path d="M11.4505 39.3337C11.4505 39.1475 11.4139 38.9632 11.3426 38.7912C11.2714 38.6192 11.167 38.4629 11.0353 38.3312C10.9037 38.1996 10.7474 38.0952 10.5754 38.0239C10.4034 37.9527 10.2191 37.916 10.0329 37.916C9.6569 37.916 9.29632 38.0654 9.03046 38.3312C8.76459 38.5971 8.61523 38.9577 8.61523 39.3337C8.61523 39.7097 8.76459 40.0702 9.03046 40.3361C9.29632 40.602 9.6569 40.7513 10.0329 40.7513C10.2191 40.7513 10.4034 40.7147 10.5754 40.6434C10.7474 40.5722 10.9037 40.4677 11.0353 40.3361C11.167 40.2045 11.2714 40.0482 11.3426 39.8762C11.4139 39.7042 11.4505 39.5198 11.4505 39.3337Z" stroke="#98ABB4" stroke-width="2"/>
<path d="M21.4001 0.644531H24.4688C25.6866 0.751191 26.5214 1.67754 26.5164 2.86844C26.5147 3.22677 26.5169 3.60498 26.5231 4.00307C26.5298 4.47926 26.3694 4.87734 25.8554 4.92941C25.819 4.93333 25.8008 4.95349 25.8008 4.98988C25.8008 6.02009 25.8008 7.0629 25.8008 8.1183C25.8014 8.57741 26.0156 8.91839 26.4433 9.14123C26.5435 9.19386 26.651 9.2255 26.7658 9.23613C27.0631 9.26469 27.3512 9.27393 27.6359 9.37051C28.3688 9.61854 28.8887 10.0998 29.1955 10.8142C29.214 10.8568 29.2313 10.8565 29.2476 10.8134C29.9522 8.95479 31.0297 7.20623 32.4482 5.82217C33.6383 4.66066 35.2466 3.76623 36.9128 4.54057C37.214 4.68054 37.506 4.9115 37.7888 5.23344C38.0962 5.58337 38.3397 5.9459 38.5194 6.32103C38.6829 6.66257 38.81 7.05674 38.9007 7.50353C39.254 9.25265 39.4346 10.9245 39.4424 12.5191C39.4466 13.3211 39.3971 14.1274 39.3492 14.9311C39.3475 14.9641 39.3635 14.9807 39.3971 14.9807C39.8657 14.9767 40.3385 14.9767 40.8156 14.9807C41.9939 14.9907 42.9051 15.8381 43 17.0282V18.6676C42.8925 19.8686 41.9846 20.7143 40.7727 20.7076C40.7595 20.7075 40.7468 20.712 40.7366 20.7203C40.7265 20.7286 40.7197 20.7401 40.7173 20.7529C39.6261 26.4286 38.5852 31.8408 37.5948 36.9896C37.5181 37.3899 37.368 37.7494 37.1446 38.068C37.1289 38.0898 37.1225 38.1139 37.1253 38.1402C37.1315 38.2147 37.1435 38.2877 37.1614 38.3594C37.2885 38.8717 37.3154 39.3854 37.242 39.9005C37.1698 40.4095 37.015 40.8834 36.7776 41.3224C36.2877 42.2294 35.5758 42.8898 34.6419 43.3036C34.2684 43.4693 33.8261 43.5829 33.3149 43.6445H27.2882C26.2544 43.5773 26.2821 42.2059 27.3218 42.2008C28.0855 42.1969 28.885 42.1975 29.7204 42.2025C29.7245 42.2025 29.7286 42.2014 29.7321 42.1992C29.7356 42.197 29.7383 42.1938 29.74 42.1901C29.7417 42.1865 29.7423 42.1824 29.7416 42.1785C29.741 42.1746 29.7391 42.1709 29.7363 42.1681C29.2582 41.6255 28.9399 41.0197 28.7814 40.3507C28.7176 40.0797 28.6689 39.7572 28.6353 39.3832C28.6331 39.3568 28.6191 39.3437 28.5933 39.3437H14.3798C14.3726 39.3437 14.3657 39.3466 14.3605 39.3518C14.3553 39.3569 14.3523 39.364 14.3521 39.3714C14.3314 40.2247 14.0847 41.0074 13.6122 41.7196C12.8703 42.8377 11.7897 43.4794 10.3704 43.6445H4.33863C3.66844 43.5891 3.34342 42.9147 3.80953 42.4091C3.9943 42.2084 4.27396 42.2 4.53516 42.1983C5.26974 42.1955 6.02084 42.1972 6.78846 42.2034C6.79196 42.2034 6.7954 42.2024 6.79836 42.2005C6.80132 42.1986 6.80369 42.1959 6.80519 42.1928C6.80669 42.1896 6.80725 42.1861 6.80682 42.1826C6.80638 42.1791 6.80497 42.1758 6.80273 42.1731C5.88003 41.0942 5.54857 39.8498 5.80836 38.44C5.83775 38.2813 5.94105 38.1998 5.82936 38.0327C5.62051 37.7214 5.47998 37.3785 5.40775 37.0039C4.35459 31.5343 3.31402 26.1226 2.28605 20.7689C2.28046 20.7381 2.26198 20.7207 2.23062 20.7168C2.01143 20.6924 1.77795 20.6933 1.56967 20.6261C0.635202 20.3243 0.111979 19.6678 0 18.6567V17.0173C0.104701 16.1103 0.546458 15.489 1.32527 15.1537C1.79643 14.9504 2.31041 14.9681 2.8118 14.9807C2.84875 14.9812 2.86723 14.9633 2.86723 14.9269C2.86443 11.016 2.86415 6.96072 2.86639 2.76094C2.86639 2.3427 3.2082 2.11426 3.58445 2.06891C4.62306 1.94237 5.50322 1.89086 6.22492 1.91437C7.26745 1.94797 8.19576 2.05631 9.00984 2.23939C9.51487 2.35361 10.0935 2.53054 10.7458 2.77018C11.4983 3.04648 12.2248 3.21277 13.0285 3.28248C13.4887 3.32223 13.9003 3.30516 14.2631 3.23125C15.0366 3.07336 15.7966 2.7643 16.2821 2.16297C16.4643 1.93789 16.5827 1.59188 16.8506 1.44994C17.0108 1.36428 17.1647 1.33712 17.3125 1.36848C17.6317 1.43566 17.8223 1.60755 17.8845 1.88414C17.9141 2.01628 17.9284 2.18984 17.9273 2.40484C17.9122 4.8807 17.9097 7.22555 17.9197 9.43937C17.9197 9.47465 17.936 9.48501 17.9685 9.47045C18.2702 9.33607 18.5866 9.26385 18.9175 9.25377C19.6305 9.23277 20.0807 8.73895 20.0765 8.01416C20.0703 6.99067 20.0681 5.97866 20.0697 4.97813C20.0698 4.96714 20.0657 4.95652 20.0583 4.9483C20.0508 4.94009 20.0406 4.93485 20.0294 4.93361C19.4625 4.87482 19.3273 4.43811 19.3441 3.92244C19.3564 3.55459 19.3592 3.19402 19.3525 2.84072C19.3298 1.6557 20.2344 0.745313 21.4001 0.644531ZM20.8365 3.51008H25.0324C25.0469 3.51008 25.0607 3.50433 25.071 3.49409C25.0812 3.48385 25.087 3.46997 25.087 3.45549V2.84156C25.087 2.63753 25.0031 2.44186 24.8538 2.29759C24.7045 2.15332 24.502 2.07227 24.2908 2.07227H21.5781C21.3669 2.07227 21.1644 2.15332 21.0151 2.29759C20.8658 2.44186 20.7819 2.63753 20.7819 2.84156V3.45549C20.7819 3.46997 20.7877 3.48385 20.7979 3.49409C20.8082 3.50433 20.822 3.51008 20.8365 3.51008ZM5.99145 6.43861C6.58773 6.64941 6.58605 7.52117 5.9948 7.75213C5.88003 7.79692 5.73977 7.81792 5.57404 7.81512C5.16364 7.8084 4.75604 7.80756 4.35123 7.8126C4.31764 7.81316 4.30084 7.83023 4.30084 7.86383V14.8975C4.30084 14.9395 4.32184 14.9605 4.36383 14.9605L5.68574 14.9597C5.71654 14.9597 5.73193 14.9446 5.73193 14.9143C5.73193 13.5851 5.73165 12.2072 5.73109 10.7806C5.73109 9.93992 6.31227 9.24873 7.14707 9.24873C8.98521 9.24817 11.0484 9.24621 13.3367 9.24285C13.6928 9.24229 13.956 9.27533 14.1262 9.34195C14.5035 9.49032 14.7745 9.75488 14.9391 10.1356C15.0209 10.3237 15.0601 10.642 15.0567 11.0905C15.0466 12.4365 15.0458 13.7119 15.0542 14.9168C15.0542 14.946 15.0685 14.9605 15.097 14.9605L16.4231 14.9597C16.4506 14.9597 16.4646 14.9457 16.4651 14.9177L16.4878 3.92664C16.4878 3.89529 16.4749 3.88801 16.4492 3.9048C15.7748 4.3432 14.9912 4.58592 14.1791 4.69762C13.6701 4.7676 13.1167 4.76033 12.5187 4.67578C11.7567 4.56828 11.026 4.38967 10.3267 4.13996C9.93199 3.99887 9.52635 3.87961 9.12322 3.75615C8.81472 3.66209 8.5093 3.58874 8.20695 3.53611C6.93543 3.31383 5.65047 3.2752 4.35207 3.42021C4.33796 3.42167 4.32491 3.42833 4.31544 3.43889C4.30597 3.44944 4.30076 3.46314 4.30084 3.47732V6.33111C4.30084 6.36079 4.3154 6.37562 4.34451 6.37562C4.7118 6.37842 5.10681 6.3773 5.52953 6.37227C5.70702 6.37003 5.86099 6.39214 5.99145 6.43861ZM25.9092 10.4783C24.8762 10.0007 24.3611 9.16559 24.3639 7.97301C24.3655 6.97583 24.3661 5.9837 24.3655 4.9966C24.3655 4.96245 24.3485 4.94537 24.3143 4.94537H21.5252C21.5176 4.94537 21.5104 4.94838 21.505 4.95373C21.4996 4.95909 21.4966 4.96635 21.4966 4.97393C21.505 5.99126 21.5031 7.07549 21.4908 8.22664C21.479 9.326 20.7324 10.2456 19.7027 10.5673C19.4693 10.6395 19.224 10.6605 18.9813 10.6756C18.5177 10.7033 18.0919 11.0132 17.976 11.4474C17.929 11.6249 17.9175 11.8349 17.9416 12.0773C17.9438 12.0986 17.9556 12.1092 17.9769 12.1092H27.9004C27.9268 12.1092 27.9413 12.0964 27.9441 12.0706C28.013 11.4827 27.81 11.0558 27.3352 10.7898C27.1278 10.6739 26.8708 10.6781 26.6398 10.6555C26.3946 10.6303 26.1158 10.5732 25.9092 10.4783ZM35.1701 5.75834C34.5229 5.98342 33.9246 6.37563 33.3754 6.93496C32.6195 7.7037 32.0137 8.48923 31.558 9.29156C30.5602 11.0477 29.9522 12.9104 29.5423 14.9303C29.5356 14.9627 29.5488 14.979 29.5818 14.979H32.9664C32.9774 14.9789 32.9882 14.9752 32.9968 14.9683C33.0055 14.9615 33.0116 14.9519 33.0143 14.9412L33.4888 13.0482C33.4901 13.043 33.4904 13.0375 33.4895 13.0322C33.4887 13.0268 33.4868 13.0217 33.4839 13.017C33.481 13.0124 33.4771 13.0084 33.4727 13.0053C33.4682 13.0021 33.4631 12.9998 33.4577 12.9986C33.1772 12.937 32.9121 12.8696 32.6624 12.7962C31.9376 12.5821 31.9896 11.56 32.7094 11.4231C33.0378 11.3609 33.472 11.5373 33.8138 11.6112C33.8229 11.613 33.8324 11.6114 33.8402 11.6065C33.848 11.6017 33.8536 11.594 33.8558 11.5852C34.0008 10.999 34.1494 10.4063 34.3017 9.80723C34.4403 9.26133 35.0836 9.03373 35.4876 9.43937C35.6852 9.63814 35.7552 9.85818 35.6976 10.0995C35.5525 10.7059 35.4008 11.3164 35.2424 11.9312C35.241 11.9363 35.2407 11.9417 35.2415 11.9469C35.2423 11.9521 35.2442 11.9572 35.247 11.9617C35.2498 11.9663 35.2536 11.9702 35.258 11.9734C35.2623 11.9765 35.2673 11.9787 35.2726 11.9799C35.4798 12.0253 35.6864 12.0787 35.8924 12.1403C36.3476 12.2764 36.5744 12.7811 36.3174 13.1943C35.9772 13.7436 35.4145 13.4832 34.9367 13.3715C34.9042 13.3642 34.8838 13.3768 34.8754 13.4093L34.4932 14.9362C34.4865 14.9625 34.4969 14.9756 34.5243 14.9756L36.4694 14.979L37.8728 14.9765C37.8806 14.9765 37.8881 14.9736 37.8939 14.9683C37.8996 14.963 37.9032 14.9557 37.9038 14.9479C38.0466 13.4076 38.0455 11.9116 37.9005 10.4598C37.8518 9.97156 37.7874 9.47269 37.7073 8.96318C37.6228 8.4268 37.5321 7.94025 37.4352 7.50353C37.3473 7.10489 37.1511 6.71016 36.8465 6.31936C36.6331 6.04501 36.3957 5.86248 36.1343 5.77178C35.8398 5.66988 35.5184 5.6654 35.1701 5.75834ZM13.6147 10.7067C13.6147 10.6993 13.6118 10.6923 13.6066 10.6871C13.6014 10.6819 13.5943 10.679 13.587 10.679H7.1941C7.18675 10.679 7.1797 10.6819 7.1745 10.6871C7.16931 10.6923 7.16639 10.6993 7.16639 10.7067V14.916C7.16639 14.9233 7.16931 14.9304 7.1745 14.9356C7.1797 14.9408 7.18675 14.9437 7.1941 14.9437H13.587C13.5943 14.9437 13.6014 14.9408 13.6066 14.9356C13.6118 14.9304 13.6147 14.9233 13.6147 14.916V10.7067ZM27.9483 13.5714C27.9483 13.5636 27.9452 13.5561 27.9397 13.5506C27.9342 13.5451 27.9267 13.542 27.9189 13.542H17.9634C17.9556 13.542 17.9481 13.5451 17.9426 13.5506C17.9371 13.5561 17.934 13.5636 17.934 13.5714V14.9504C17.934 14.9582 17.9371 14.9657 17.9426 14.9712C17.9481 14.9767 17.9556 14.9798 17.9634 14.9798H27.9189C27.9267 14.9798 27.9342 14.9767 27.9397 14.9712C27.9452 14.9657 27.9483 14.9582 27.9483 14.9504V13.5714ZM39.9925 19.2681C40.6896 19.2949 41.5 19.4125 41.5546 18.5349C41.5703 18.2857 41.5781 17.9462 41.5781 17.5162C41.579 16.9215 41.4824 16.4378 40.7954 16.4151C40.6566 16.4101 40.3802 16.4101 39.9665 16.4151C36.3428 16.4134 32.7139 16.4193 29.0796 16.4328C28.7996 16.4339 28.5197 16.4339 28.2397 16.4328C24.1402 16.4176 20.5569 16.416 17.4897 16.4277C17.3794 16.4283 17.2675 16.4288 17.1538 16.4294C11.809 16.4406 6.93823 16.4364 2.54137 16.4168C2.18751 16.4157 1.95292 16.4417 1.83758 16.4949C1.56995 16.6198 1.43557 16.8644 1.43445 17.2289C1.43389 17.5475 1.43137 17.8966 1.42689 18.2762C1.4241 18.5562 1.45629 18.7594 1.52348 18.8859C1.65953 19.1401 1.87257 19.2672 2.1626 19.2672C14.7737 19.2689 27.3837 19.2692 39.9925 19.2681ZM34.9921 35.5484C35.4238 35.7735 35.8241 36.0899 36.1931 36.4975C36.2132 36.5193 36.2261 36.5157 36.2317 36.4865L39.2526 20.7739C39.2588 20.742 39.2456 20.7258 39.2131 20.7252L37.845 20.7176L3.75914 20.7193C3.7564 20.7192 3.75369 20.7198 3.75119 20.721C3.7487 20.7221 3.74649 20.7239 3.74472 20.726C3.74295 20.7282 3.74167 20.7308 3.74097 20.7335C3.74027 20.7363 3.74016 20.7392 3.74066 20.742L6.76662 36.4849C6.77166 36.5106 6.78314 36.514 6.80105 36.4949C7.2904 35.9692 7.82538 35.5887 8.406 35.3536C10.6895 34.4272 13.2099 35.5686 14.0875 37.879C14.0959 37.9014 14.1119 37.9126 14.1354 37.9126H28.8654C28.8751 37.9126 28.8845 37.9097 28.8924 37.9041C28.9004 37.8986 28.9065 37.8907 28.9099 37.8815C29.2576 36.9885 29.8083 36.2867 30.5619 35.776C31.8805 34.8833 33.5702 34.7607 34.9921 35.5484ZM12.8908 39.3336C12.8908 38.5759 12.5897 37.8491 12.0539 37.3133C11.5181 36.7775 10.7914 36.4765 10.0336 36.4765C9.27585 36.4765 8.54912 36.7775 8.0133 37.3133C7.47749 37.8491 7.17646 38.5759 7.17646 39.3336C7.17646 40.0914 7.47749 40.8181 8.0133 41.3539C8.54912 41.8897 9.27585 42.1908 10.0336 42.1908C10.7914 42.1908 11.5181 41.8897 12.0539 41.3539C12.5897 40.8181 12.8908 40.0914 12.8908 39.3336ZM32.9605 42.1908C33.5745 42.1924 34.1727 41.996 34.6662 41.6306C35.1137 41.2996 35.4548 40.8452 35.6475 40.323C35.8403 39.8008 35.8764 39.2336 35.7513 38.6911C35.5823 37.9603 35.1329 37.325 34.4999 36.9224C34.0441 36.6322 33.5151 36.4776 32.9748 36.4765C32.3951 36.4743 31.8285 36.6489 31.3505 36.977C30.7371 37.3976 30.312 38.0409 30.1655 38.7701C30.0874 39.1584 30.0909 39.5586 30.1758 39.9455C30.2607 40.3324 30.425 40.6975 30.6585 41.0175C30.9229 41.3803 31.2692 41.6756 31.6692 41.8795C32.0691 42.0833 32.5116 42.19 32.9605 42.1908Z" fill="black"/>
<path d="M20.8366 3.51008C20.8221 3.51008 20.8082 3.50433 20.798 3.49409C20.7877 3.48385 20.782 3.46997 20.782 3.45549V2.84156C20.782 2.63753 20.8659 2.44186 21.0152 2.29759C21.1645 2.15332 21.367 2.07227 21.5782 2.07227H24.2909C24.502 2.07227 24.7045 2.15332 24.8538 2.29759C25.0031 2.44186 25.087 2.63753 25.087 2.84156V3.45549C25.087 3.46997 25.0813 3.48385 25.071 3.49409C25.0608 3.50433 25.0469 3.51008 25.0324 3.51008H20.8366Z" fill="#805EA3"/>
<path d="M5.99475 7.75178C6.586 7.52082 6.58768 6.64906 5.99139 6.43826C5.86093 6.39179 5.70696 6.36968 5.52947 6.37192C5.10675 6.37695 4.71175 6.37807 4.34445 6.37527C4.31534 6.37527 4.30078 6.36044 4.30078 6.33076V3.47697C4.30071 3.46279 4.30591 3.44909 4.31538 3.43854C4.32485 3.42798 4.33791 3.42132 4.35201 3.41986C5.65041 3.27485 6.93537 3.31348 8.2069 3.53576C8.50924 3.58839 8.81466 3.66174 9.12316 3.7558C9.52629 3.87926 9.93193 3.99852 10.3267 4.13961C11.026 4.38932 11.7566 4.56793 12.5187 4.67543C13.1166 4.75998 13.6701 4.76725 14.179 4.69727C14.9912 4.58557 15.7747 4.34285 16.4491 3.90445C16.4749 3.88766 16.4878 3.89494 16.4878 3.92629L16.4651 14.9173C16.4645 14.9453 16.4505 14.9593 16.4231 14.9593L15.097 14.9602C15.0684 14.9602 15.0541 14.9456 15.0541 14.9165C15.0457 13.7116 15.0466 12.4361 15.0567 11.0902C15.06 10.6417 15.0208 10.3234 14.9391 10.1353C14.7745 9.75453 14.5035 9.48998 14.1261 9.3416C13.9559 9.27498 13.6928 9.24194 13.3367 9.2425C11.0484 9.24586 8.98515 9.24782 7.14701 9.24838C6.31221 9.24838 5.73104 9.93957 5.73104 10.7803C5.7316 12.2069 5.73188 13.5848 5.73188 14.914C5.73188 14.9442 5.71648 14.9593 5.68568 14.9593L4.36377 14.9602C4.32178 14.9602 4.30078 14.9392 4.30078 14.8972V7.86348C4.30078 7.82988 4.31758 7.81281 4.35117 7.81225C4.75598 7.80721 5.16358 7.80805 5.57399 7.81477C5.73971 7.81757 5.87997 7.79657 5.99475 7.75178ZM15.0357 7.08446C15.0358 6.99247 15.0179 6.90136 14.9828 6.81632C14.9478 6.73128 14.8963 6.65397 14.8314 6.58882C14.7665 6.52366 14.6893 6.47193 14.6044 6.43659C14.5195 6.40124 14.4285 6.38296 14.3365 6.3828L8.59867 6.37279C8.41291 6.37247 8.23463 6.44595 8.10304 6.57708C7.97146 6.7082 7.89735 6.88623 7.89703 7.07199L7.89698 7.10223C7.89682 7.19421 7.91477 7.28532 7.94982 7.37036C7.98488 7.4554 8.03633 7.53271 8.10126 7.59786C8.16619 7.66302 8.24331 7.71475 8.32823 7.7501C8.41315 7.78545 8.5042 7.80372 8.59618 7.80388L14.334 7.81389C14.5197 7.81422 14.698 7.74073 14.8296 7.60961C14.9612 7.47848 15.0353 7.30045 15.0356 7.11469L15.0357 7.08446Z" fill="#FEC108"/>
<path d="M25.9093 10.4782C26.1159 10.5731 26.3947 10.6302 26.6399 10.6554C26.8709 10.6781 27.1279 10.6739 27.3353 10.7898C27.8101 11.0557 28.0131 11.4827 27.9442 12.0705C27.9414 12.0963 27.9269 12.1092 27.9005 12.1092H17.9769C17.9557 12.1092 17.9439 12.0985 17.9417 12.0773C17.9176 11.8348 17.9291 11.6249 17.9761 11.4474C18.092 11.0132 18.5178 10.7033 18.9814 10.6756C19.2241 10.6604 19.4693 10.6395 19.7028 10.5672C20.7325 10.2456 21.4791 9.32594 21.4908 8.22658C21.5032 7.07544 21.5051 5.9912 21.4967 4.97387C21.4967 4.96629 21.4997 4.95903 21.5051 4.95368C21.5104 4.94832 21.5177 4.94531 21.5253 4.94531H24.3144C24.3486 4.94531 24.3656 4.96239 24.3656 4.99654C24.3662 5.98364 24.3656 6.97578 24.364 7.97295C24.3612 9.16553 24.8763 10.0006 25.9093 10.4782Z" fill="#CFD8DC"/>
<path d="M36.4692 14.9786C36.589 13.6751 36.6119 12.4383 36.538 11.2681C36.4563 9.9826 36.2654 8.63885 35.9653 7.23687C35.8695 6.79008 35.6044 6.29709 35.1699 5.75791C35.5182 5.66497 35.8396 5.66944 36.1341 5.77135C36.3955 5.86205 36.6329 6.04458 36.8463 6.31892C37.1508 6.70973 37.3471 7.10446 37.435 7.5031C37.5318 7.93982 37.6225 8.42637 37.7071 8.96275C37.7872 9.47226 37.8515 9.97113 37.9003 10.4594C38.0453 11.9112 38.0464 13.4072 37.9036 14.9475C37.903 14.9553 37.8994 14.9625 37.8937 14.9678C37.8879 14.9731 37.8804 14.9761 37.8725 14.976L36.4692 14.9786Z" fill="#B94000"/>
<path d="M35.17 5.75879C35.6045 6.29797 35.8696 6.79096 35.9654 7.23775C36.2655 8.63973 36.4564 9.98348 36.5381 11.269C36.612 12.4392 36.5891 13.676 36.4693 14.9794L34.5242 14.9761C34.4967 14.9761 34.4864 14.9629 34.4931 14.9366L34.8752 13.4098C34.8836 13.3773 34.9041 13.3647 34.9365 13.372C35.4144 13.4837 35.9771 13.744 36.3172 13.1948C36.5742 12.7816 36.3475 12.2768 35.8923 12.1408C35.6862 12.0792 35.4796 12.0257 35.2725 11.9804C35.2672 11.9791 35.2622 11.9769 35.2578 11.9738C35.2534 11.9707 35.2497 11.9667 35.2469 11.9622C35.2441 11.9576 35.2422 11.9526 35.2414 11.9473C35.2406 11.9421 35.2409 11.9368 35.2422 11.9316C35.4007 11.3169 35.5524 10.7063 35.6974 10.0999C35.7551 9.85863 35.6851 9.63859 35.4875 9.43982C35.0835 9.03418 34.4402 9.26178 34.3016 9.80768C34.1493 10.4068 34.0007 10.9994 33.8557 11.5856C33.8535 11.5945 33.8479 11.6021 33.8401 11.607C33.8323 11.6118 33.8228 11.6135 33.8137 11.6117C33.4719 11.5378 33.0377 11.3614 32.7093 11.4235C31.9895 11.5604 31.9375 12.5825 32.6622 12.7967C32.912 12.87 33.1771 12.9375 33.4576 12.9991C33.463 13.0003 33.468 13.0025 33.4725 13.0057C33.477 13.0089 33.4808 13.0129 33.4837 13.0175C33.4866 13.0221 33.4886 13.0273 33.4894 13.0326C33.4903 13.038 33.49 13.0434 33.4887 13.0486L33.0141 14.9416C33.0115 14.9524 33.0054 14.9619 32.9967 14.9688C32.988 14.9756 32.9773 14.9794 32.9663 14.9794H29.5817C29.5487 14.9794 29.5355 14.9632 29.5422 14.9307C29.9521 12.9109 30.5601 11.0481 31.5579 9.29201C32.0136 8.48968 32.6194 7.70415 33.3753 6.93541C33.9245 6.37607 34.5228 5.98387 35.17 5.75879Z" fill="#F57C00"/>
<path d="M14.3364 6.38331L8.59862 6.37329C8.21179 6.37262 7.89765 6.68566 7.89697 7.0725L7.89692 7.10273C7.89624 7.48957 8.20929 7.80371 8.59612 7.80438L14.3339 7.8144C14.7208 7.81507 15.0349 7.50203 15.0356 7.11519L15.0356 7.08496C15.0363 6.69812 14.7233 6.38398 14.3364 6.38331Z" fill="black"/>
<path d="M13.5871 10.6787H7.19422C7.17891 10.6787 7.1665 10.6911 7.1665 10.7064V14.9157C7.1665 14.931 7.17891 14.9434 7.19422 14.9434H13.5871C13.6024 14.9434 13.6148 14.931 13.6148 14.9157V10.7064C13.6148 10.6911 13.6024 10.6787 13.5871 10.6787Z" fill="#F57C00"/>
<path d="M27.919 13.542H17.9635C17.9472 13.542 17.9341 13.5552 17.9341 13.5714V14.9504C17.9341 14.9666 17.9472 14.9798 17.9635 14.9798H27.919C27.9352 14.9798 27.9484 14.9666 27.9484 14.9504V13.5714C27.9484 13.5552 27.9352 13.542 27.919 13.542Z" fill="#805EA3"/>
<path d="M39.9665 16.4153C40.0735 16.6992 40.1272 16.901 40.1278 17.0208C40.1306 17.5074 40.1308 17.9937 40.1286 18.4797C40.128 18.6191 40.114 18.7515 40.0866 18.8769C40.0581 19.0046 40.0267 19.135 39.9925 19.2683C27.3837 19.2694 14.7737 19.2691 2.16263 19.2674C1.8726 19.2674 1.65956 19.1403 1.52351 18.8861C1.45632 18.7596 1.42413 18.5564 1.42693 18.2764C1.4314 17.8968 1.43392 17.5477 1.43448 17.2291C1.4356 16.8646 1.56998 16.62 1.83761 16.4951C1.95295 16.4419 2.18754 16.4159 2.5414 16.417C6.93826 16.4366 11.8091 16.4408 17.1538 16.4296C17.2675 16.429 17.3795 16.4285 17.4898 16.4279C20.5569 16.4162 24.1402 16.4178 28.2398 16.433C28.5197 16.4341 28.7997 16.4341 29.0796 16.433C32.7139 16.4195 36.3429 16.4136 39.9665 16.4153Z" fill="#4DB8A6"/>
<path d="M39.9666 16.4149C40.3803 16.4099 40.6566 16.4099 40.7955 16.4149C41.4825 16.4376 41.5791 16.9213 41.5782 17.5159C41.5782 17.9459 41.5704 18.2855 41.5547 18.5347C41.5001 19.4123 40.6897 19.2947 39.9926 19.2679C40.0267 19.1346 40.0581 19.0042 40.0866 18.8765C40.1141 18.7511 40.1281 18.6187 40.1286 18.4792C40.1309 17.9933 40.1306 17.507 40.1278 17.0204C40.1272 16.9006 40.0735 16.6988 39.9666 16.4149Z" fill="#2F9A88"/>
<path d="M37.8449 20.7178L34.992 35.5486C33.5701 34.7608 31.8804 34.8834 30.5618 35.7762C29.8082 36.2868 29.2575 36.9886 28.9098 37.8817C28.9064 37.8908 28.9003 37.8987 28.8923 37.9043C28.8844 37.9098 28.8749 37.9128 28.8653 37.9127H14.1353C14.1118 37.9127 14.0958 37.9015 14.0874 37.8791C13.2098 35.5687 10.6894 34.4274 8.40588 35.3537C7.82527 35.5889 7.29029 35.9693 6.80094 36.4951C6.78302 36.5141 6.77154 36.5108 6.7665 36.485L3.74055 20.7421C3.74005 20.7393 3.74015 20.7364 3.74085 20.7337C3.74155 20.7309 3.74283 20.7283 3.7446 20.7262C3.74637 20.724 3.74858 20.7223 3.75107 20.7211C3.75357 20.7199 3.75628 20.7194 3.75902 20.7195L37.8449 20.7178ZM12.3523 24.01C12.2784 23.493 12.0205 23.02 11.6261 22.6777C11.2317 22.3354 10.7271 22.1467 10.2048 22.1463L8.25051 22.1447C7.92658 22.1445 7.6067 22.2167 7.31434 22.3562C7.02197 22.4957 6.76452 22.6988 6.56086 22.9507C6.3572 23.2026 6.21249 23.4969 6.13734 23.812C6.06219 24.1271 6.0585 24.455 6.12654 24.7717L7.65506 31.8936C7.75913 32.3789 8.02636 32.8139 8.41223 33.1261C8.7981 33.4383 9.27931 33.6089 9.77566 33.6094L11.221 33.6102C11.5323 33.6105 11.84 33.5438 12.1233 33.4147C12.4066 33.2856 12.6588 33.097 12.8628 32.8619C13.0667 32.6268 13.2178 32.3505 13.3056 32.0518C13.3935 31.7532 13.4161 31.4391 13.3719 31.131L12.3523 24.01ZM20.7852 24.319C20.7852 23.7427 20.5563 23.19 20.1489 22.7824C19.7414 22.3748 19.1888 22.1457 18.6125 22.1455L16.0123 22.1447C15.7009 22.1447 15.3932 22.2116 15.1099 22.3409C14.8266 22.4702 14.5744 22.6588 14.3703 22.8941C14.1663 23.1293 14.0152 23.4057 13.9273 23.7044C13.8393 24.0032 13.8166 24.3173 13.8607 24.6256L14.8786 31.7432C14.9527 32.2606 15.2107 32.7339 15.6054 33.0765C16.0001 33.4191 16.5051 33.608 17.0277 33.6085L18.6083 33.6102C18.8939 33.6105 19.1768 33.5546 19.4408 33.4455C19.7048 33.3364 19.9447 33.1764 20.1468 32.9745C20.3489 32.7726 20.5093 32.5329 20.6186 32.2691C20.728 32.0052 20.7843 31.7223 20.7843 31.4367L20.7852 24.319ZM29.1391 24.6256C29.1833 24.3173 29.1607 24.0031 29.0728 23.7043C28.9849 23.4055 28.8338 23.1291 28.6298 22.8938C28.4257 22.6585 28.1734 22.4699 27.8901 22.3406C27.6067 22.2113 27.2989 22.1445 26.9874 22.1447L24.3881 22.1455C23.8119 22.1455 23.2592 22.3744 22.8518 22.7819C22.4443 23.1893 22.2154 23.742 22.2154 24.3182V31.4375C22.2154 31.7231 22.2717 32.0058 22.3811 32.2696C22.4904 32.5333 22.6507 32.773 22.8527 32.9747C23.0547 33.1765 23.2945 33.3365 23.5584 33.4456C23.8223 33.5546 24.1051 33.6105 24.3906 33.6102L25.972 33.6085C26.4945 33.608 26.9992 33.4192 27.3937 33.0768C27.7883 32.7343 28.0463 32.2612 28.1204 31.7441L29.1391 24.6256ZM36.8732 24.7717C36.9411 24.4549 36.9373 24.1269 36.862 23.8117C36.7867 23.4966 36.6418 23.2023 36.438 22.9504C36.2342 22.6985 35.9766 22.4954 35.6841 22.356C35.3916 22.2166 35.0716 22.1444 34.7476 22.1447L32.7941 22.1472C32.2719 22.148 31.7675 22.3369 31.3733 22.6793C30.979 23.0217 30.7214 23.4947 30.6475 24.0116L29.6279 31.131C29.5837 31.4394 29.6063 31.7537 29.6943 32.0526C29.7823 32.3514 29.9336 32.6279 30.1378 32.8631C30.3421 33.0984 30.5946 33.2869 30.8781 33.416C31.1617 33.545 31.4697 33.6116 31.7812 33.6111L33.2266 33.6085C33.7231 33.6079 34.2043 33.4371 34.5901 33.1248C34.976 32.8124 35.2432 32.3773 35.3472 31.8919L36.8732 24.7717ZM17.1831 35.7249C17.1831 35.5461 17.112 35.3745 16.9856 35.2481C16.8591 35.1216 16.6876 35.0505 16.5087 35.0505H15.0255C14.8467 35.0505 14.6751 35.1216 14.5487 35.2481C14.4222 35.3745 14.3511 35.5461 14.3511 35.7249V35.7972C14.3511 35.8857 14.3686 35.9734 14.4025 36.0552C14.4364 36.1371 14.486 36.2114 14.5487 36.274C14.6113 36.3367 14.6856 36.3863 14.7674 36.4202C14.8493 36.4541 14.937 36.4716 15.0255 36.4716H16.5087C16.6876 36.4716 16.8591 36.4005 16.9856 36.274C17.112 36.1476 17.1831 35.976 17.1831 35.7972V35.7249ZM28.6536 35.7406C28.6535 35.6478 28.6351 35.556 28.5994 35.4704C28.5638 35.3847 28.5116 35.307 28.4459 35.2415C28.3802 35.176 28.3022 35.1241 28.2165 35.0888C28.1307 35.0534 28.0389 35.0353 27.9461 35.0355L19.3528 35.0505C19.2601 35.0507 19.1683 35.0691 19.0826 35.1047C18.997 35.1404 18.9192 35.1925 18.8538 35.2582C18.7883 35.3239 18.7364 35.4019 18.701 35.4876C18.6657 35.5734 18.6476 35.6653 18.6478 35.758L18.6478 35.7815C18.648 35.8743 18.6664 35.9661 18.702 36.0517C18.7377 36.1374 18.7898 36.2152 18.8555 36.2806C18.9212 36.3461 18.9992 36.398 19.085 36.4333C19.1707 36.4687 19.2626 36.4868 19.3553 36.4866L27.9486 36.4716C28.0414 36.4715 28.1332 36.453 28.2188 36.4174C28.3044 36.3817 28.3822 36.3296 28.4477 36.2639C28.5132 36.1982 28.5651 36.1202 28.6004 36.0345C28.6357 35.9487 28.6539 35.8568 28.6537 35.7641L28.6536 35.7406Z" fill="#4DB8A6"/>
<path d="M37.8451 20.7178L39.2132 20.7253C39.2457 20.7259 39.2589 20.7421 39.2527 20.774L36.2318 36.4867C36.2262 36.5158 36.2133 36.5194 36.1932 36.4976C35.8242 36.09 35.4239 35.7737 34.9922 35.5486L37.8451 20.7178Z" fill="#2F9A88"/>
<path d="M12.3523 24.0098L13.3719 31.1309C13.4161 31.439 13.3935 31.7531 13.3057 32.0517C13.2178 32.3504 13.0668 32.6266 12.8628 32.8618C12.6588 33.0969 12.4066 33.2854 12.1233 33.4145C11.8401 33.5437 11.5324 33.6103 11.2211 33.6101L9.77568 33.6092C9.27933 33.6088 8.79812 33.4382 8.41225 33.126C8.02638 32.8138 7.75915 32.3788 7.65508 31.8934L6.12656 24.7716C6.05852 24.4549 6.06221 24.1269 6.13736 23.8119C6.21251 23.4968 6.35722 23.2025 6.56088 22.9506C6.76454 22.6987 7.02199 22.4956 7.31436 22.3561C7.60673 22.2166 7.9266 22.1443 8.25053 22.1445L10.2048 22.1462C10.7271 22.1466 11.2317 22.3352 11.6261 22.6775C12.0206 23.0198 12.2784 23.4928 12.3523 24.0098ZM10.9372 24.2198C10.9117 24.0416 10.8229 23.8786 10.687 23.7606C10.5511 23.6426 10.3773 23.5775 10.1973 23.5773L8.26145 23.5765C8.14979 23.5764 8.03952 23.6012 7.93872 23.6493C7.83793 23.6973 7.74917 23.7673 7.67895 23.8542C7.60872 23.941 7.55882 24.0424 7.53289 24.151C7.50696 24.2596 7.50567 24.3726 7.5291 24.4818L9.05174 31.5861C9.08749 31.7536 9.17963 31.9037 9.31276 32.0115C9.44589 32.1192 9.61196 32.1781 9.78324 32.1781L11.2118 32.179C11.319 32.179 11.425 32.1559 11.5225 32.1114C11.62 32.0669 11.7069 32.002 11.7771 31.921C11.8473 31.84 11.8994 31.7448 11.9296 31.642C11.9599 31.5391 11.9677 31.431 11.9526 31.3249L10.9372 24.2198Z" fill="black"/>
<path d="M20.7852 24.3189L20.7844 31.4366C20.7844 31.7222 20.7281 32.005 20.6187 32.2689C20.5093 32.5328 20.349 32.7725 20.1469 32.9744C19.9448 33.1762 19.7049 33.3363 19.4409 33.4454C19.1769 33.5544 18.894 33.6104 18.6084 33.6101L17.0278 33.6084C16.5051 33.6078 16.0002 33.4189 15.6055 33.0764C15.2108 32.7338 14.9527 32.2605 14.8786 31.7431L13.8607 24.6254C13.8167 24.3172 13.8394 24.003 13.9273 23.7043C14.0153 23.4056 14.1664 23.1292 14.3704 22.894C14.5744 22.6587 14.8266 22.47 15.1099 22.3407C15.3932 22.2114 15.701 22.1445 16.0124 22.1445L18.6125 22.1454C19.1889 22.1456 19.7415 22.3747 20.1489 22.7823C20.5563 23.1899 20.7852 23.7426 20.7852 24.3189ZM19.3516 24.3264C19.3516 24.1277 19.2727 23.9371 19.1322 23.7964C18.9918 23.6558 18.8012 23.5767 18.6025 23.5765L16.025 23.5748C15.9176 23.5748 15.8114 23.5979 15.7137 23.6425C15.6159 23.6871 15.5289 23.7522 15.4585 23.8333C15.3881 23.9145 15.336 24.0098 15.3056 24.1128C15.2753 24.2159 15.2674 24.3242 15.2826 24.4306L16.2963 31.5348C16.3218 31.7137 16.411 31.8774 16.5476 31.9958C16.6841 32.1141 16.8588 32.1792 17.0395 32.179L18.6025 32.1781C18.8014 32.1781 18.9921 32.0991 19.1328 31.9585C19.2734 31.8178 19.3525 31.6271 19.3525 31.4282L19.3516 24.3264Z" fill="black"/>
<path d="M29.1392 24.6254L28.1205 31.7439C28.0464 32.2611 27.7884 32.7342 27.3939 33.0766C26.9993 33.419 26.4946 33.6078 25.9722 33.6084L24.3908 33.6101C24.1052 33.6104 23.8224 33.5545 23.5586 33.4454C23.2947 33.3364 23.0548 33.1764 22.8528 32.9746C22.6508 32.7728 22.4905 32.5332 22.3812 32.2694C22.2719 32.0057 22.2156 31.7229 22.2156 31.4374V24.318C22.2156 23.7418 22.4445 23.1892 22.8519 22.7817C23.2594 22.3743 23.812 22.1454 24.3883 22.1454L26.9876 22.1445C27.299 22.1444 27.6069 22.2112 27.8902 22.3405C28.1736 22.4697 28.4258 22.6584 28.6299 22.8937C28.834 23.1289 28.9851 23.4054 29.0729 23.7041C29.1608 24.0029 29.1834 24.3171 29.1392 24.6254ZM27.7182 24.4314C27.7334 24.3249 27.7255 24.2163 27.695 24.1131C27.6646 24.0099 27.6123 23.9145 27.5417 23.8332C27.4712 23.752 27.384 23.6869 27.286 23.6423C27.1881 23.5977 27.0817 23.5747 26.9741 23.5748L24.3983 23.5765C24.1993 23.5767 24.0086 23.6559 23.868 23.7967C23.7273 23.9375 23.6483 24.1283 23.6483 24.3273L23.6475 31.4273C23.6475 31.5259 23.6669 31.6236 23.7047 31.7147C23.7424 31.8057 23.7977 31.8885 23.8674 31.9582C23.9371 32.028 24.0199 32.0833 24.111 32.121C24.2021 32.1587 24.2997 32.1781 24.3983 32.1781L25.9596 32.179C26.1405 32.1792 26.3154 32.114 26.4522 31.9955C26.5889 31.877 26.6782 31.7131 26.7037 31.534L27.7182 24.4314Z" fill="black"/>
<path d="M36.8733 24.7716L35.3473 31.8918C35.2432 32.3772 34.976 32.8123 34.5902 33.1246C34.2043 33.437 33.7231 33.6077 33.2267 33.6084L31.7813 33.6109C31.4697 33.6114 31.1617 33.5449 30.8782 33.4158C30.5946 33.2868 30.3421 33.0982 30.1379 32.863C29.9336 32.6277 29.7823 32.3513 29.6944 32.0524C29.6064 31.7536 29.5837 31.4393 29.6279 31.1309L30.6475 24.0115C30.7214 23.4946 30.9791 23.0216 31.3733 22.6792C31.7676 22.3368 32.272 22.1479 32.7942 22.1471L34.7476 22.1445C35.0716 22.1442 35.3916 22.2164 35.6841 22.3558C35.9766 22.4953 36.2342 22.6983 36.438 22.9502C36.6419 23.2021 36.7867 23.4964 36.862 23.8116C36.9373 24.1267 36.9412 24.4547 36.8733 24.7716ZM35.4716 24.4793C35.4949 24.3704 35.4935 24.2577 35.4676 24.1494C35.4417 24.0411 35.3919 23.94 35.3218 23.8534C35.2518 23.7668 35.1633 23.697 35.0627 23.6491C34.9622 23.6012 34.8523 23.5764 34.7409 23.5765L32.8009 23.5773C32.6212 23.5775 32.4477 23.6426 32.3121 23.7604C32.1765 23.8783 32.0879 24.0411 32.0626 24.2189L31.0473 31.3265C31.0321 31.4325 31.0399 31.5405 31.0701 31.6432C31.1004 31.7459 31.1523 31.8409 31.2225 31.9218C31.2927 32.0026 31.3794 32.0674 31.4769 32.1118C31.5743 32.1562 31.6801 32.1791 31.7872 32.179L33.2183 32.1781C33.3891 32.1781 33.5548 32.1194 33.6876 32.012C33.8204 31.9045 33.9124 31.7548 33.9481 31.5877L35.4716 24.4793Z" fill="black"/>
<path d="M10.9374 24.2195L11.9528 31.3246C11.968 31.4307 11.9602 31.5389 11.9299 31.6417C11.8996 31.7445 11.8476 31.8397 11.7774 31.9207C11.7071 32.0017 11.6203 32.0666 11.5228 32.1111C11.4252 32.1556 11.3193 32.1787 11.2121 32.1787L9.7835 32.1779C9.61222 32.1778 9.44615 32.119 9.31302 32.0112C9.17989 31.9034 9.08775 31.7533 9.052 31.5858L7.52936 24.4815C7.50593 24.3724 7.50722 24.2593 7.53315 24.1507C7.55908 24.0421 7.60898 23.9407 7.67921 23.8539C7.74943 23.767 7.83819 23.6971 7.93898 23.649C8.03978 23.601 8.15005 23.5761 8.26171 23.5762L10.1975 23.577C10.3775 23.5772 10.5514 23.6423 10.6873 23.7603C10.8232 23.8783 10.912 24.0413 10.9374 24.2195Z" fill="white"/>
<path d="M19.3519 24.3269L19.3528 31.4286C19.3528 31.6275 19.2738 31.8182 19.1331 31.9589C18.9925 32.0995 18.8017 32.1786 18.6028 32.1786L17.0398 32.1794C16.8591 32.1796 16.6844 32.1145 16.5479 31.9962C16.4113 31.8778 16.3221 31.7141 16.2966 31.5352L15.2829 24.431C15.2677 24.3246 15.2756 24.2163 15.306 24.1132C15.3363 24.0102 15.3885 23.9149 15.4589 23.8337C15.5293 23.7526 15.6163 23.6875 15.714 23.6429C15.8117 23.5983 15.9179 23.5752 16.0253 23.5752L18.6028 23.5769C18.8016 23.5771 18.9921 23.6562 19.1326 23.7968C19.273 23.9375 19.3519 24.1281 19.3519 24.3269Z" fill="white"/>
<path d="M27.7182 24.4318L26.7037 31.5344C26.6782 31.7135 26.5888 31.8774 26.4521 31.9959C26.3154 32.1144 26.1405 32.1796 25.9596 32.1794L24.3983 32.1786C24.2997 32.1786 24.202 32.1591 24.111 32.1214C24.0199 32.0837 23.9371 32.0284 23.8674 31.9586C23.7977 31.8889 23.7423 31.8062 23.7046 31.7151C23.6669 31.624 23.6475 31.5263 23.6475 31.4277L23.6483 24.3277C23.6483 24.1287 23.7273 23.9379 23.8679 23.7971C24.0085 23.6563 24.1993 23.5771 24.3983 23.5769L26.9741 23.5752C27.0817 23.5751 27.1881 23.5981 27.286 23.6427C27.3839 23.6873 27.4711 23.7524 27.5417 23.8336C27.6123 23.9149 27.6645 24.0103 27.695 24.1135C27.7254 24.2168 27.7334 24.3253 27.7182 24.4318Z" fill="white"/>
<path d="M35.4719 24.479L33.9484 31.5874C33.9127 31.7545 33.8207 31.9042 33.6879 32.0117C33.5551 32.1191 33.3894 32.1778 33.2186 32.1779L31.7875 32.1787C31.6804 32.1788 31.5746 32.1559 31.4772 32.1115C31.3797 32.0671 31.293 32.0023 31.2228 31.9215C31.1526 31.8406 31.1007 31.7456 31.0704 31.6429C31.0402 31.5402 31.0324 31.4322 31.0476 31.3263L32.0629 24.2187C32.0882 24.0408 32.1768 23.878 32.3124 23.7601C32.448 23.6423 32.6215 23.5772 32.8012 23.577L34.7412 23.5762C34.8526 23.5761 34.9625 23.6009 35.063 23.6488C35.1636 23.6967 35.2521 23.7665 35.3221 23.8531C35.3922 23.9397 35.442 24.0408 35.4679 24.1491C35.4938 24.2574 35.4952 24.3701 35.4719 24.479Z" fill="white"/>
<path d="M16.5091 35.0508H15.026C14.6535 35.0508 14.3516 35.3527 14.3516 35.7252V35.7974C14.3516 36.1699 14.6535 36.4718 15.026 36.4718H16.5091C16.8816 36.4718 17.1835 36.1699 17.1835 35.7974V35.7252C17.1835 35.3527 16.8816 35.0508 16.5091 35.0508Z" fill="black"/>
<path d="M27.9463 35.0355L19.353 35.0505C18.963 35.0512 18.6473 35.368 18.648 35.7581L18.648 35.7816C18.6487 36.1717 18.9655 36.4873 19.3555 36.4867L27.9488 36.4717C28.3389 36.471 28.6546 36.1542 28.6539 35.7641L28.6538 35.7406C28.6532 35.3505 28.3364 35.0348 27.9463 35.0355Z" fill="black"/>
<path d="M12.8908 39.3337C12.8908 40.0915 12.5898 40.8182 12.054 41.354C11.5182 41.8898 10.7914 42.1909 10.0337 42.1909C9.2759 42.1909 8.54917 41.8898 8.01335 41.354C7.47753 40.8182 7.17651 40.0915 7.17651 39.3337C7.17651 38.5759 7.47753 37.8492 8.01335 37.3134C8.54917 36.7776 9.2759 36.4766 10.0337 36.4766C10.7914 36.4766 11.5182 36.7776 12.054 37.3134C12.5898 37.8492 12.8908 38.5759 12.8908 39.3337ZM11.4505 39.3337C11.4505 39.1475 11.4138 38.9632 11.3426 38.7912C11.2713 38.6192 11.1669 38.4629 11.0353 38.3313C10.9036 38.1996 10.7473 38.0952 10.5753 38.024C10.4033 37.9527 10.219 37.9161 10.0328 37.9161C9.65684 37.9161 9.29625 38.0654 9.03039 38.3313C8.76453 38.5971 8.61517 38.9577 8.61517 39.3337C8.61517 39.7097 8.76453 40.0703 9.03039 40.3361C9.29625 40.602 9.65684 40.7514 10.0328 40.7514C10.219 40.7514 10.4033 40.7147 10.5753 40.6435C10.7473 40.5722 10.9036 40.4678 11.0353 40.3361C11.1669 40.2045 11.2713 40.0482 11.3426 39.8762C11.4138 39.7042 11.4505 39.5199 11.4505 39.3337Z" fill="#607D8B"/>
<path d="M32.9747 36.4766C33.7827 37.1154 34.239 37.9211 34.3437 38.8937C34.0867 38.3394 33.7115 38.0267 33.2183 37.9555C32.1811 37.8052 31.2934 38.7475 31.6259 39.783C31.8796 40.5717 32.7471 40.9849 33.5164 40.6657C33.8759 40.5168 34.1519 40.2332 34.3445 39.815C34.2163 40.7953 33.7549 41.5873 32.9604 42.1909C32.5115 42.1901 32.0691 42.0835 31.6691 41.8796C31.2691 41.6757 30.9229 41.3804 30.6584 41.0176C30.425 40.6976 30.2606 40.3325 30.1757 39.9456C30.0909 39.5588 30.0874 39.1585 30.1654 38.7702C30.3119 38.041 30.7371 37.3977 31.3505 36.9771C31.8284 36.649 32.3951 36.4744 32.9747 36.4766Z" fill="#607D8B"/>
<path d="M32.9604 42.1909C33.7549 41.5873 34.2163 40.7953 34.3445 39.8149C34.4156 39.5087 34.4153 39.2016 34.3437 38.8936C34.239 37.9211 33.7827 37.1154 32.9747 36.4766C33.5151 36.4777 34.044 36.6323 34.4999 36.9225C35.1328 37.3251 35.5823 37.9603 35.7513 38.6912C35.8763 39.2337 35.8402 39.8009 35.6475 40.3231C35.4547 40.8453 35.1136 41.2997 34.6662 41.6307C34.1727 41.9961 33.5745 42.1925 32.9604 42.1909Z" fill="#37474F"/>
<path d="M10.0329 40.7513C10.8158 40.7513 11.4505 40.1166 11.4505 39.3337C11.4505 38.5507 10.8158 37.916 10.0329 37.916C9.24994 37.916 8.61523 38.5507 8.61523 39.3337C8.61523 40.1166 9.24994 40.7513 10.0329 40.7513Z" fill="#CFD8DC"/>
<path d="M34.3436 38.8934C34.4153 39.2014 34.4156 39.5085 34.3445 39.8147C34.1519 40.233 33.8758 40.5166 33.5164 40.6655C32.7471 40.9846 31.8795 40.5714 31.6259 39.7828C31.2933 38.7473 32.181 37.805 33.2182 37.9553C33.7115 38.0264 34.0866 38.3391 34.3436 38.8934Z" fill="#CFD8DC"/>
<path d="M1.48316 43.6444H0.651719C0.282188 43.5721 0.0649479 43.3515 0 42.9826V42.8667C0.0851042 42.4428 0.336777 42.2248 0.755019 42.2124C0.992975 42.2057 1.22981 42.2088 1.46553 42.2217C1.85354 42.2427 2.13488 42.54 2.1332 42.9372C2.13096 43.3135 1.91428 43.5492 1.48316 43.6444Z" fill="black"/>
<path d="M24.4142 43.6449H23.592C23.1429 43.534 22.9299 43.2854 22.9528 42.8991C22.9764 42.5052 23.2493 42.2365 23.6356 42.2197C23.8736 42.209 24.1222 42.2093 24.3814 42.2205C24.7686 42.2365 25.0541 42.517 25.0642 42.91C25.0749 43.3025 24.8582 43.5475 24.4142 43.6449Z" fill="black"/>
</g>
<defs>
<clipPath id="clip0_370_7680">
<rect width="43" height="43" fill="white" transform="translate(0 0.644531)"/>
</clipPath>
</defs>
</svg>
