<svg width="43" height="44" viewBox="0 0 43 44" fill="none" xmlns="http://www.w3.org/2000/svg">
<g clip-path="url(#clip0_370_7749)">
<path d="M20.5029 39.1147C20.5707 39.1203 20.6415 39.1097 20.7154 39.0828C21.5989 38.7609 22.4721 38.4045 23.3349 38.0137C23.3618 38.0014 23.3668 37.9829 23.35 37.9583L23.0695 37.54" stroke="#5E0D1E" stroke-width="2"/>
<path d="M23.0697 37.5393C22.1078 36.0965 21.3864 34.5481 20.9055 32.8941C20.2828 30.7537 20.0065 28.5082 20.0765 26.1578C20.0905 25.6841 20.1527 25.3221 20.263 25.0718C20.6123 24.2799 21.3019 23.7608 22.161 23.6811C22.3592 23.6631 22.5515 23.6438 22.738 23.6231C25.1534 23.3594 27.4117 22.2978 29.2107 20.6753C29.4996 20.4141 29.7633 20.1075 30.0564 19.8531C31.0289 19.0048 32.4172 19.1862 33.2805 20.1067C34.1579 21.0423 35.2007 21.8152 36.409 22.4255" stroke="#781926" stroke-width="2"/>
<path d="M36.409 22.4256L37.6116 22.9421C37.6136 22.943 37.6158 22.9434 37.618 22.9434C37.6202 22.9434 37.6224 22.9429 37.6245 22.9419C37.6266 22.941 37.6284 22.9396 37.6299 22.9379C37.6315 22.9362 37.6327 22.9342 37.6335 22.932C38.5312 20.284 38.926 17.368 38.5598 14.5999C38.1592 11.5681 36.8432 8.55807 34.4043 6.61719C33.5168 5.91116 32.5269 5.42125 31.4346 5.14746" stroke="#5E0D1E" stroke-width="2"/>
<path d="M31.4345 5.14774C31.0062 5.0492 30.6549 4.99013 30.3805 4.97053C29.5927 4.91454 28.7504 4.95961 27.8534 5.10574C25.0584 5.56038 22.6579 6.84002 20.6518 8.94467C20.2864 9.32764 19.8589 9.35451 19.4861 8.95727C17.2798 6.60823 14.3345 5.17293 11.091 4.96801C10.6806 4.94226 10.2976 4.94058 9.94207 4.96297C7.27893 5.13094 5.04914 6.74428 3.59621 8.96819C1.73428 11.8169 1.14807 15.3913 1.56043 18.8263C2.20627 24.2055 4.91393 29.1202 8.88975 32.8164C12.0543 35.7575 15.915 37.9084 20.0219 39.2781C20.0488 39.2877 20.0756 39.2868 20.1025 39.2756L20.5031 39.1144" stroke="#781926" stroke-width="2"/>
<path d="M31.4346 5.14746C31.4273 5.18049 31.4402 5.20625 31.4732 5.22473C35.7346 7.60316 37.4823 12.9177 37.2429 17.5049C37.1562 19.1712 36.8782 20.8114 36.409 22.4256" stroke="#D52544" stroke-width="2"/>
<path d="M23.0695 37.54C22.8696 37.7354 22.6756 37.9322 22.4875 38.1304C22.3861 38.2379 22.2697 38.3214 22.1381 38.3807C21.5944 38.6254 21.0494 38.8701 20.5029 39.1147" stroke="#D52544" stroke-width="2"/>
<path d="M30.9693 20.9531C28.751 23.3036 26.0355 24.675 22.8228 25.0675C22.3475 25.1255 21.8763 25.0532 21.6193 25.5555C21.5555 25.6809 21.5194 25.8662 21.511 26.1114C21.4287 28.6019 21.7543 30.9377 22.4877 33.1191C23.4547 35.993 25.1498 38.3376 27.573 40.1528C28.6497 40.9596 29.9097 41.639 31.3531 42.1911" stroke="#526200" stroke-width="2"/>
<path d="M31.353 42.1907C31.5104 42.2265 31.6554 42.2187 31.7881 42.1672C35.8554 40.5958 38.9629 37.59 40.4561 33.4538C41.3245 31.0502 41.6834 28.5228 41.5328 25.8717C41.5165 25.5845 41.3945 25.3773 41.1666 25.2502C41.0216 25.1702 40.8069 25.1156 40.5224 25.0864C40.3074 25.0641 40.081 25.0411 39.843 25.0176" stroke="#485600" stroke-width="2"/>
<path d="M39.843 25.0179C38.5261 24.813 37.2429 24.4278 35.9932 23.8623" stroke="#526200" stroke-width="2"/>
<path d="M35.9932 23.8623C34.851 23.2772 33.816 22.5689 32.8883 21.7375C32.7617 21.6238 32.5501 21.4164 32.2534 21.1152C32.0496 20.908 31.8746 20.7837 31.7285 20.7423C31.4597 20.6667 31.2066 20.7369 30.9692 20.9531" stroke="#485600" stroke-width="2"/>
<path d="M35.9932 23.8623C34.0789 23.3321 32.4043 22.3624 30.9692 20.9531" stroke="#9AB800" stroke-width="2"/>
<path d="M39.843 25.0176C39.9998 25.3294 40.0829 25.5638 40.0924 25.7205C40.2363 28.1594 39.967 30.5082 39.2845 32.7668C37.994 37.0371 35.3501 40.1784 31.353 42.1907" stroke="#9AB800" stroke-width="2"/>
<path d="M5.65729 8.59663C3.65091 10.8718 2.82282 14.0254 2.86901 17.0715C2.88413 18.1104 4.3253 18.0785 4.30347 17.0639C4.24468 14.2597 5.03749 11.1959 7.06235 9.20384C7.9621 8.3192 9.0469 7.85617 10.3167 7.81474C11.4203 7.77862 11.3372 6.31897 10.2479 6.37356C8.4019 6.46679 6.85743 7.23524 5.65729 8.59663Z" stroke="#F293A1" stroke-width="2"/>
<path d="M4.0141 23.0351C4.35928 24.0219 5.73914 23.5449 5.35533 22.5052C5.05523 21.6922 4.81307 20.8238 4.62887 19.9C4.42814 18.8947 3.0256 19.1861 3.21121 20.1343C3.3887 21.0424 3.65633 22.0094 4.0141 23.0351Z" stroke="#F293A1" stroke-width="2"/>
<path d="M33.7306 33.6117C34.2602 33.6027 34.7748 33.6041 35.2742 33.6159C35.7882 33.6282 36.1459 33.594 36.3475 33.5134C37.0412 33.2371 37.2839 32.6534 37.2722 31.9202C37.266 31.5098 37.2632 31.1322 37.2638 30.7873C37.2655 29.9357 36.6331 29.31 35.7983 29.3083C35.1672 29.3078 34.4733 29.3083 33.7163 29.31C33.7083 29.31 33.7006 29.3069 33.6949 29.3014C33.6892 29.2959 33.686 29.2884 33.686 29.2806C33.6776 28.705 33.6782 28.104 33.6877 27.4775C33.6939 27.0906 33.6547 26.7989 33.5701 26.6023C33.3098 25.996 32.7538 25.7071 32.0828 25.7255C31.7026 25.7362 31.3303 25.7362 30.9658 25.7255C30.304 25.7054 29.7379 26.0119 29.4885 26.625C29.404 26.8322 29.3664 27.153 29.376 27.5875C29.3888 28.1558 29.3902 28.7143 29.3802 29.263C29.3796 29.2949 29.3636 29.3108 29.3323 29.3108C28.6431 29.3103 27.9964 29.3086 27.3923 29.3058C26.4197 29.3008 25.7722 29.9138 25.7982 30.8721C25.8083 31.2372 25.808 31.6078 25.7974 31.9841C25.7781 32.6509 26.0359 33.2069 26.6482 33.484C26.852 33.5764 27.1162 33.6201 27.441 33.615C28.0703 33.6055 28.701 33.6044 29.3331 33.6117C29.3628 33.6117 29.3776 33.6265 29.3776 33.6562C29.3855 34.2822 29.3849 34.853 29.376 35.3686C29.3687 35.7813 29.4051 36.0867 29.4851 36.2849C29.7724 36.9937 30.3897 37.2289 31.122 37.2003C31.4047 37.1886 31.6755 37.1883 31.9341 37.1995C33.0368 37.2474 33.7028 36.6611 33.6886 35.5366C33.6802 34.8334 33.6785 34.2074 33.6835 33.6587C33.6841 33.6279 33.6998 33.6122 33.7306 33.6117Z" stroke="#526200" stroke-width="2"/>
<path d="M32.2525 32.8806C32.2534 32.4859 32.591 32.181 32.9605 32.181C33.8989 32.1788 34.8364 32.1779 35.7731 32.1785C35.8123 32.1785 35.8322 32.1589 35.8328 32.1197L35.8336 30.7986C35.8336 30.7645 35.8165 30.7474 35.7824 30.7474C34.8328 30.7491 33.9065 30.748 33.0033 30.744C32.4919 30.7415 32.2458 30.3888 32.2475 29.905C32.2514 28.9863 32.2517 28.0868 32.2483 27.2066C32.2483 27.1769 32.2335 27.1621 32.2038 27.1621L30.8659 27.163C30.8335 27.163 30.8172 27.1789 30.8172 27.2108C30.8189 28.11 30.8203 29.0117 30.8214 29.916C30.8214 30.4241 30.5527 30.7457 30.0009 30.7457C29.0916 30.7468 28.1854 30.7468 27.2823 30.7457C27.2493 30.7457 27.2328 30.7622 27.2328 30.7953L27.2319 32.1357C27.2319 32.1648 27.2465 32.1793 27.2756 32.1793C28.0539 32.1805 28.988 32.1802 30.0782 32.1785C30.5124 32.1785 30.8164 32.5002 30.8172 32.9377C30.82 33.8599 30.82 34.7851 30.8172 35.7134C30.8172 35.7459 30.8335 35.7621 30.8659 35.7621L32.2164 35.7629C32.2258 35.7629 32.2347 35.7593 32.2413 35.7529C32.248 35.7464 32.2517 35.7376 32.2517 35.7285C32.2489 34.8041 32.2492 33.8548 32.2525 32.8806Z" stroke="#7B7B7B" stroke-width="2"/>
<path d="M43 26.3671V27.5488C42.9709 27.9804 42.9395 28.4113 42.9059 28.8413C42.5456 33.4453 40.6644 37.7831 37.0959 40.7242C35.6822 41.8899 34.0937 42.811 32.3306 43.4873C32.1352 43.5623 31.9311 43.6147 31.7184 43.6444H31.3405C31.1025 43.6068 30.916 43.5626 30.7811 43.5117C28.2946 42.5699 26.1494 41.1234 24.3454 39.1722C24.3258 39.1509 24.3026 39.1464 24.2757 39.1588C22.9969 39.75 21.6666 40.2777 20.2847 40.7419C20.1448 40.7889 20.0096 40.7911 19.8791 40.7486C16.5592 39.6559 13.3854 38.1031 10.5543 36.0513C4.48393 31.6522 0.304023 24.8512 0 17.2481V16.1378C0.123457 13.8056 0.586211 11.6194 1.62594 9.53663C3.39885 5.98241 6.62973 3.41417 10.6887 3.51663C14.2144 3.60482 17.5233 5.00484 20.0454 7.45634C20.0517 7.46249 20.0601 7.46594 20.0689 7.46594C20.0777 7.46594 20.0861 7.46249 20.0924 7.45634C22.7925 4.81671 26.4828 3.38226 30.2251 3.52923C33.1453 3.64345 35.7496 5.40544 37.4192 7.73181C39.6213 10.8014 40.4057 14.6656 40.0387 18.4726C39.873 20.197 39.5317 21.8087 39.0149 23.3075C39.0037 23.3406 39.0152 23.3613 39.0494 23.3697C39.504 23.4895 40.013 23.5805 40.5762 23.6426C40.9961 23.6888 41.3951 23.7308 41.7637 23.9349C42.5641 24.3775 42.9756 25.1149 42.9773 26.0429C42.9773 26.1521 42.9849 26.2602 43 26.3671ZM20.5031 39.1142C20.5709 39.1198 20.6417 39.1092 20.7156 39.0823C21.5991 38.7604 22.4723 38.404 23.3351 38.0132C23.3619 38.0009 23.367 37.9824 23.3502 37.9578L23.0697 37.5395C22.1078 36.0967 21.3863 34.5483 20.9054 32.8944C20.2828 30.7539 20.0065 28.5084 20.0765 26.158C20.0905 25.6843 20.1526 25.3223 20.2629 25.0721C20.6123 24.2801 21.3018 23.7611 22.161 23.6813C22.3592 23.6634 22.5515 23.644 22.7379 23.6233C25.1533 23.3596 27.4117 22.2981 29.2106 20.6755C29.4995 20.4143 29.7632 20.1077 30.0563 19.8533C31.0289 19.005 32.4171 19.1864 33.2805 20.1069C34.1578 21.0425 35.2006 21.8154 36.4089 22.4257L37.6116 22.9422C37.6136 22.9431 37.6158 22.9436 37.618 22.9435C37.6202 22.9435 37.6224 22.943 37.6244 22.9421C37.6265 22.9411 37.6283 22.9398 37.6299 22.938C37.6314 22.9363 37.6326 22.9343 37.6334 22.9321C38.5312 20.2841 38.9259 17.3682 38.5597 14.6C38.1591 11.5682 36.8431 8.55821 34.4042 6.61734C33.5168 5.91131 32.5269 5.4214 31.4345 5.14761C31.0062 5.04907 30.6549 4.99 30.3805 4.9704C29.5927 4.91441 28.7504 4.95948 27.8534 5.10562C25.0584 5.56025 22.6579 6.83989 20.6518 8.94454C20.2864 9.32751 19.8589 9.35439 19.4861 8.95714C17.2798 6.6081 14.3345 5.1728 11.091 4.96788C10.6806 4.94213 10.2976 4.94045 9.94207 4.96284C7.27893 5.13081 5.04914 6.74415 3.59621 8.96806C1.73428 11.8168 1.14807 15.3912 1.56043 18.8261C2.20627 24.2053 4.91393 29.1201 8.88975 32.8163C12.0543 35.7574 15.915 37.9082 20.0219 39.278C20.0487 39.2875 20.0756 39.2867 20.1025 39.2755L20.5031 39.1142ZM30.9692 20.9526C28.7509 23.3031 26.0354 24.6745 22.8228 25.067C22.3474 25.125 21.8763 25.0527 21.6193 25.555C21.5554 25.6804 21.5193 25.8657 21.5109 26.1109C21.4286 28.6014 21.7542 30.9372 22.4877 33.1186C23.4546 35.9925 25.1497 38.3371 27.5729 40.1523C28.6496 40.9591 29.9096 41.6385 31.353 42.1906C31.5104 42.2264 31.6554 42.2186 31.7881 42.1671C35.8554 40.5957 38.9629 37.5899 40.4561 33.4537C41.3245 31.0501 41.6834 28.5227 41.5328 25.8716C41.5166 25.5844 41.3945 25.3772 41.1666 25.2501C41.0216 25.17 40.8069 25.1154 40.5225 25.0863C40.3075 25.0639 40.081 25.041 39.843 25.0175C38.5262 24.8125 37.2429 24.4273 35.9932 23.8618C34.851 23.2768 33.816 22.5685 32.8883 21.737C32.7617 21.6234 32.5501 21.4159 32.2534 21.1147C32.0496 20.9076 31.8746 20.7833 31.7285 20.7418C31.4597 20.6662 31.2066 20.7365 30.9692 20.9526Z" fill="black"/>
<path d="M31.4345 5.14774C31.4272 5.18077 31.4401 5.20653 31.4731 5.225C35.7345 7.60344 37.4822 12.918 37.2429 17.5052C37.1561 19.1714 36.8781 20.8117 36.4089 22.4258C35.2007 21.8156 34.1578 21.0426 33.2805 20.107C32.4171 19.1866 31.0289 19.0052 30.0563 19.8534C29.7632 20.1079 29.4995 20.4144 29.2106 20.6756C27.4117 22.2982 25.1533 23.3597 22.7379 23.6235C22.5515 23.6442 22.3592 23.6635 22.161 23.6814C21.3018 23.7612 20.6123 24.2802 20.2629 25.0722C20.1526 25.3225 20.0905 25.6844 20.0765 26.1581C20.0065 28.5086 20.2828 30.754 20.9054 32.8945C21.3863 34.5484 22.1078 36.0968 23.0697 37.5397C22.8698 37.7351 22.6758 37.9319 22.4877 38.1301C22.3863 38.2376 22.2699 38.321 22.1383 38.3804C21.5946 38.625 21.0496 38.8697 20.5031 39.1144L20.1025 39.2756C20.0756 39.2868 20.0488 39.2877 20.0219 39.2781C15.915 37.9084 12.0543 35.7575 8.88975 32.8164C4.91393 29.1202 2.20627 24.2055 1.56043 18.8263C1.14807 15.3913 1.73428 11.8169 3.59621 8.96819C5.04914 6.74428 7.27893 5.13094 9.94207 4.96297C10.2976 4.94058 10.6806 4.94226 11.091 4.96801C14.3345 5.17293 17.2798 6.60823 19.4861 8.95727C19.8589 9.35451 20.2864 9.32764 20.6518 8.94467C22.6579 6.84002 25.0584 5.56038 27.8534 5.10574C28.7504 4.95961 29.5927 4.91454 30.3805 4.97053C30.6549 4.99013 31.0062 5.0492 31.4345 5.14774ZM5.65719 8.59698C3.6508 10.8721 2.82272 14.0257 2.86891 17.0718C2.88403 18.1107 4.3252 18.0788 4.30336 17.0643C4.24457 14.26 5.03739 11.1963 7.06225 9.20418C7.962 8.31955 9.0468 7.85651 10.3166 7.81508C11.4202 7.77897 11.3371 6.31932 10.2478 6.37391C8.4018 6.46713 6.85733 7.23559 5.65719 8.59698ZM4.01446 23.0356C4.35963 24.0224 5.7395 23.5454 5.35569 22.5056C5.05558 21.6927 4.81343 20.8243 4.62922 19.9004C4.4285 18.8951 3.02596 19.1866 3.21157 20.1347C3.38905 21.0429 3.65668 22.0098 4.01446 23.0356Z" fill="#4DB8A6"/>
<path d="M31.4346 5.14746C32.5269 5.42125 33.5168 5.91116 34.4043 6.61719C36.8432 8.55807 38.1592 11.5681 38.5598 14.5999C38.926 17.368 38.5313 20.284 37.6335 22.932C37.6327 22.9342 37.6315 22.9362 37.63 22.9379C37.6284 22.9396 37.6266 22.941 37.6245 22.9419C37.6225 22.9429 37.6203 22.9434 37.618 22.9434C37.6158 22.9434 37.6136 22.943 37.6116 22.9421L36.409 22.4256C36.8782 20.8114 37.1562 19.1712 37.2429 17.5049C37.4823 12.9177 35.7346 7.60316 31.4732 5.22473C31.4402 5.20625 31.4273 5.18049 31.4346 5.14746Z" fill="#1B8674"/>
<path d="M2.86901 17.0715C2.82282 14.0254 3.65091 10.8718 5.65729 8.59663C6.85743 7.23524 8.4019 6.46679 10.2479 6.37356C11.3372 6.31897 11.4203 7.77862 10.3167 7.81474C9.0469 7.85617 7.9621 8.3192 7.06235 9.20384C5.03749 11.1959 4.24468 14.2597 4.30347 17.0639C4.3253 18.0785 2.88413 18.1104 2.86901 17.0715Z" fill="#F5F5F5"/>
<path d="M4.0141 23.0361C3.65633 22.0103 3.3887 21.0434 3.21121 20.1352C3.0256 19.1871 4.42814 18.8956 4.62887 19.9009C4.81307 20.8248 5.05523 21.6932 5.35533 22.5061C5.73914 23.5459 4.35928 24.0229 4.0141 23.0361Z" fill="#F5F5F5"/>
<path d="M35.9932 23.8623C34.0789 23.3321 32.4043 22.3623 30.9692 20.9531C31.2066 20.7369 31.4597 20.6667 31.7285 20.7423C31.8746 20.7837 32.0496 20.908 32.2534 21.1152C32.5501 21.4164 32.7617 21.6238 32.8883 21.7375C33.816 22.5689 34.851 23.2772 35.9932 23.8623Z" fill="#6C4A8F"/>
<path d="M30.9693 20.9531C32.4043 22.3624 34.079 23.3321 35.9933 23.8623C37.2429 24.4278 38.5262 24.813 39.8431 25.018C39.9999 25.3298 40.083 25.5641 40.0925 25.7209C40.2364 28.1598 39.9671 30.5086 39.2846 32.7672C37.994 37.0375 35.3502 40.1788 31.3531 42.1911C29.9097 41.639 28.6497 40.9596 27.573 40.1528C25.1498 38.3376 23.4547 35.993 22.4877 33.1191C21.7543 30.9377 21.4287 28.6019 21.511 26.1114C21.5194 25.8662 21.5555 25.6809 21.6193 25.5555C21.8763 25.0532 22.3475 25.1255 22.8228 25.0675C26.0355 24.675 28.751 23.3036 30.9693 20.9531ZM33.7307 33.6121C34.2604 33.6031 34.7749 33.6045 35.2744 33.6163C35.7883 33.6286 36.1461 33.5945 36.3477 33.5138C37.0414 33.2375 37.2841 32.6538 37.2723 31.9206C37.2662 31.5102 37.2634 31.1326 37.2639 30.7877C37.2656 29.9361 36.6332 29.3104 35.7984 29.3087C35.1674 29.3082 34.4734 29.3087 33.7164 29.3104C33.7084 29.3104 33.7007 29.3073 33.6951 29.3018C33.6894 29.2963 33.6862 29.2888 33.6862 29.281C33.6778 28.7054 33.6784 28.1044 33.6879 27.4779C33.694 27.091 33.6549 26.7993 33.5703 26.6028C33.31 25.9964 32.754 25.7075 32.0829 25.726C31.7028 25.7366 31.3304 25.7366 30.966 25.726C30.3042 25.7058 29.7381 26.0123 29.4887 26.6254C29.4041 26.8326 29.3666 27.1534 29.3761 27.5879C29.389 28.1562 29.3904 28.7147 29.3803 29.2634C29.3798 29.2953 29.3638 29.3112 29.3325 29.3112C28.6432 29.3107 27.9965 29.309 27.3924 29.3062C26.4199 29.3012 25.7724 29.9143 25.7984 30.8725C25.8085 31.2376 25.8082 31.6082 25.7976 31.9845C25.7782 32.6513 26.0361 33.2073 26.6483 33.4844C26.8521 33.5768 27.1164 33.6205 27.4411 33.6154C28.0704 33.6059 28.7012 33.6048 29.3333 33.6121C29.363 33.6121 29.3778 33.6269 29.3778 33.6566C29.3856 34.2826 29.3851 34.8534 29.3761 35.369C29.3688 35.7817 29.4052 36.0871 29.4853 36.2853C29.7725 36.9941 30.3898 37.2293 31.1222 37.2007C31.4049 37.189 31.6756 37.1887 31.9343 37.1999C33.037 37.2478 33.703 36.6616 33.6887 35.537C33.6803 34.8338 33.6786 34.2078 33.6837 33.6591C33.6842 33.6283 33.6999 33.6127 33.7307 33.6121Z" fill="#805EA3"/>
<path d="M39.843 25.0176C40.081 25.0411 40.3074 25.0641 40.5224 25.0864C40.8069 25.1156 41.0216 25.1702 41.1666 25.2502C41.3945 25.3773 41.5165 25.5845 41.5328 25.8717C41.6834 28.5228 41.3245 31.0502 40.4561 33.4538C38.9629 37.59 35.8554 40.5958 31.7881 42.1672C31.6554 42.2187 31.5104 42.2265 31.353 42.1907C35.3501 40.1784 37.994 37.0371 39.2845 32.7668C39.967 30.5082 40.2363 28.1594 40.0924 25.7205C40.0829 25.5638 39.9998 25.3294 39.843 25.0176Z" fill="#58367B"/>
<path d="M33.6835 33.6587C33.6785 34.2074 33.6802 34.8334 33.6886 35.5366C33.7028 36.6611 33.0368 37.2474 31.9341 37.1995C31.6755 37.1883 31.4047 37.1886 31.122 37.2003C30.3897 37.2289 29.7724 36.9937 29.4851 36.2849C29.4051 36.0867 29.3687 35.7813 29.376 35.3686C29.3849 34.853 29.3855 34.2822 29.3776 33.6562C29.3776 33.6265 29.3628 33.6117 29.3331 33.6117C28.701 33.6044 28.0703 33.6055 27.441 33.615C27.1162 33.6201 26.852 33.5764 26.6482 33.484C26.0359 33.2069 25.7781 32.6509 25.7974 31.9841C25.808 31.6078 25.8083 31.2372 25.7982 30.8721C25.7722 29.9138 26.4197 29.3008 27.3923 29.3058C27.9964 29.3086 28.6431 29.3103 29.3323 29.3108C29.3636 29.3108 29.3796 29.2949 29.3802 29.263C29.3902 28.7143 29.3888 28.1558 29.376 27.5875C29.3664 27.153 29.404 26.8322 29.4885 26.625C29.7379 26.0119 30.304 25.7054 30.9658 25.7255C31.3303 25.7362 31.7026 25.7362 32.0828 25.7255C32.7538 25.7071 33.3098 25.996 33.5701 26.6023C33.6547 26.7989 33.6939 27.0906 33.6877 27.4775C33.6782 28.104 33.6776 28.705 33.686 29.2806C33.686 29.2884 33.6892 29.2959 33.6949 29.3014C33.7006 29.3069 33.7083 29.31 33.7163 29.31C34.4733 29.3083 35.1672 29.3078 35.7983 29.3083C36.6331 29.31 37.2655 29.9357 37.2638 30.7873C37.2632 31.1322 37.266 31.5098 37.2722 31.9202C37.2839 32.6534 37.0412 33.2371 36.3475 33.5134C36.1459 33.594 35.7882 33.6282 35.2742 33.6159C34.7748 33.6041 34.2602 33.6027 33.7306 33.6117C33.6998 33.6122 33.6841 33.6279 33.6835 33.6587ZM32.2524 32.8802C32.2533 32.4854 32.5909 32.1806 32.9604 32.1806C33.8988 32.1783 34.8364 32.1775 35.7731 32.1781C35.8123 32.1781 35.8321 32.1585 35.8327 32.1193L35.8335 30.7982C35.8335 30.764 35.8164 30.747 35.7823 30.747C34.8327 30.7486 33.9064 30.7475 33.0033 30.7436C32.4918 30.7411 32.2457 30.3884 32.2474 29.9046C32.2513 28.9858 32.2516 28.0863 32.2482 27.2062C32.2482 27.1765 32.2334 27.1617 32.2037 27.1617L30.8658 27.1625C30.8334 27.1625 30.8171 27.1785 30.8171 27.2104C30.8188 28.1096 30.8202 29.0113 30.8213 29.9155C30.8213 30.4236 30.5526 30.7453 30.0008 30.7453C29.0915 30.7464 28.1853 30.7464 27.2822 30.7453C27.2492 30.7453 27.2327 30.7618 27.2327 30.7948L27.2318 32.1352C27.2318 32.1643 27.2464 32.1789 27.2755 32.1789C28.0538 32.18 28.988 32.1797 30.0781 32.1781C30.5123 32.1781 30.8163 32.4997 30.8171 32.9373C30.8199 33.8594 30.8199 34.7847 30.8171 35.713C30.8171 35.7454 30.8334 35.7617 30.8658 35.7617L32.2163 35.7625C32.2257 35.7625 32.2346 35.7589 32.2413 35.7524C32.2479 35.746 32.2516 35.7372 32.2516 35.7281C32.2488 34.8037 32.2491 33.8544 32.2524 32.8802Z" fill="black"/>
<path d="M32.9605 32.181C32.591 32.181 32.2534 32.4859 32.2525 32.8806C32.2492 33.8548 32.2489 34.8041 32.2517 35.7285C32.2517 35.7376 32.248 35.7464 32.2413 35.7529C32.2347 35.7593 32.2258 35.7629 32.2164 35.7629L30.8659 35.7621C30.8335 35.7621 30.8172 35.7459 30.8172 35.7134C30.82 34.7851 30.82 33.8599 30.8172 32.9377C30.8164 32.5002 30.5124 32.1785 30.0782 32.1785C28.988 32.1802 28.0539 32.1805 27.2756 32.1793C27.2465 32.1793 27.2319 32.1648 27.2319 32.1357L27.2328 30.7953C27.2328 30.7622 27.2493 30.7457 27.2823 30.7457C28.1854 30.7468 29.0916 30.7468 30.0009 30.7457C30.5527 30.7457 30.8214 30.4241 30.8214 29.916C30.8203 29.0117 30.8189 28.11 30.8172 27.2108C30.8172 27.1789 30.8335 27.163 30.8659 27.163L32.2038 27.1621C32.2335 27.1621 32.2483 27.1769 32.2483 27.2066C32.2517 28.0868 32.2514 28.9863 32.2475 29.905C32.2458 30.3888 32.4919 30.7415 33.0033 30.744C33.9065 30.748 34.8328 30.7491 35.7824 30.7474C35.8165 30.7474 35.8336 30.7645 35.8336 30.7986L35.8328 32.1197C35.8322 32.1589 35.8123 32.1785 35.7731 32.1785C34.8364 32.1779 33.8989 32.1788 32.9605 32.181Z" fill="#F5F5F5"/>
<path d="M23.0695 37.54L23.35 37.9583C23.3668 37.9829 23.3618 38.0014 23.3349 38.0137C22.4721 38.4045 21.5989 38.7609 20.7154 39.0828C20.6415 39.1097 20.5707 39.1203 20.5029 39.1147C21.0494 38.8701 21.5944 38.6254 22.1381 38.3807C22.2697 38.3214 22.3861 38.2379 22.4875 38.1304C22.6756 37.9322 22.8696 37.7354 23.0695 37.54Z" fill="#BB193B"/>
</g>
<defs>
<clipPath id="clip0_370_7749">
<rect width="43" height="43" fill="white" transform="translate(0 0.644531)"/>
</clipPath>
</defs>
</svg>
