<svg width="20" height="20" viewBox="0 0 20 20" fill="none" xmlns="http://www.w3.org/2000/svg">
<path d="M6.49976 12.625C6.15809 12.625 5.87476 12.3417 5.87476 12V8.5C5.87476 8.15833 6.15809 7.875 6.49976 7.875C6.84142 7.875 7.12476 8.15833 7.12476 8.5V12C7.12476 12.3417 6.84142 12.625 6.49976 12.625Z" fill="#404040"/>
<path d="M6.62501 8.875C5.38334 8.875 4.375 7.86668 4.375 6.62501C4.375 5.38334 5.38334 4.375 6.62501 4.375C7.86668 4.375 8.87502 5.38334 8.87502 6.62501C8.87502 7.86668 7.86668 8.875 6.62501 8.875ZM6.62501 5.625C6.07501 5.625 5.625 6.07501 5.625 6.62501C5.625 7.17501 6.07501 7.62499 6.62501 7.62499C7.17501 7.62499 7.62502 7.17501 7.62502 6.62501C7.62502 6.07501 7.17501 5.625 6.62501 5.625Z" fill="#404040"/>
<path d="M6.49999 15.625C5.32499 15.625 4.375 14.675 4.375 13.5C4.375 12.325 5.32499 11.375 6.49999 11.375C7.67499 11.375 8.62498 12.325 8.62498 13.5C8.62498 14.675 7.67499 15.625 6.49999 15.625ZM6.49999 12.625C6.01666 12.625 5.625 13.0167 5.625 13.5C5.625 13.9833 6.01666 14.375 6.49999 14.375C6.98332 14.375 7.37498 13.9833 7.37498 13.5C7.37498 13.0167 6.98332 12.625 6.49999 12.625Z" fill="#404040"/>
<path d="M13.5 15.625C12.325 15.625 11.375 14.675 11.375 13.5C11.375 12.325 12.325 11.375 13.5 11.375C14.675 11.375 15.625 12.325 15.625 13.5C15.625 14.675 14.675 15.625 13.5 15.625ZM13.5 12.625C13.0167 12.625 12.625 13.0167 12.625 13.5C12.625 13.9833 13.0167 14.375 13.5 14.375C13.9833 14.375 14.375 13.9833 14.375 13.5C14.375 13.0167 13.9833 12.625 13.5 12.625Z" fill="#404040"/>
<path d="M13.0833 12.6419C12.825 12.6419 12.5833 12.4836 12.4916 12.2252C12.1583 11.2752 11.2667 10.6419 10.2583 10.6419H10.25L8.53332 10.6502H8.52497C7.31664 10.6502 6.25834 9.83354 5.95834 8.66687C5.87501 8.33354 6.07499 7.99187 6.40833 7.90854C6.73333 7.8252 7.0833 8.02521 7.16664 8.35854C7.32497 8.97521 7.88331 9.40855 8.52497 9.40855C8.52497 9.40855 8.52498 9.40855 8.53332 9.40855L10.25 9.40021C10.2583 9.40021 10.2583 9.40021 10.2667 9.40021C11.8 9.40021 13.175 10.3752 13.6833 11.8252C13.8 12.1502 13.625 12.5085 13.3 12.6252C13.225 12.6335 13.15 12.6419 13.0833 12.6419Z" fill="#404040"/>
<path d="M12.5001 18.9587H7.50008C2.97508 18.9587 1.04175 17.0253 1.04175 12.5003V7.50033C1.04175 2.97533 2.97508 1.04199 7.50008 1.04199H12.5001C17.0251 1.04199 18.9584 2.97533 18.9584 7.50033V12.5003C18.9584 17.0253 17.0251 18.9587 12.5001 18.9587ZM7.50008 2.29199C3.65841 2.29199 2.29175 3.65866 2.29175 7.50033V12.5003C2.29175 16.342 3.65841 17.7087 7.50008 17.7087H12.5001C16.3417 17.7087 17.7084 16.342 17.7084 12.5003V7.50033C17.7084 3.65866 16.3417 2.29199 12.5001 2.29199H7.50008Z" fill="#404040"/>
</svg>
