<svg width="20" height="20" viewBox="0 0 20 20" fill="none" xmlns="http://www.w3.org/2000/svg">
<path d="M10.0084 18.9499C9.48343 18.9499 8.96676 18.7749 8.55843 18.4249L7.24176 17.2999C7.10843 17.1833 6.7751 17.0666 6.6001 17.0666H5.14176C3.90843 17.0666 2.90843 16.0666 2.90843 14.8333V13.4083C2.90843 13.2333 2.79176 12.8999 2.68343 12.7749L1.5501 11.4416C0.866764 10.6333 0.866764 9.3666 1.5501 8.54994L2.68343 7.2166C2.79176 7.0916 2.90843 6.75827 2.90843 6.58327V5.1666C2.90843 3.93327 3.90843 2.93327 5.14176 2.93327H6.58343C6.75843 2.93327 7.08343 2.80827 7.2251 2.6916L8.54176 1.5666C9.35843 0.874935 10.6334 0.874935 11.4501 1.5666L12.7668 2.6916C12.9001 2.80827 13.2418 2.92493 13.4168 2.92493H14.8334C16.0668 2.92493 17.0668 3.92493 17.0668 5.15827V6.57493C17.0668 6.74993 17.1918 7.07493 17.3084 7.2166L18.4334 8.53327C19.1334 9.35827 19.1251 10.6333 18.4334 11.4416L17.3084 12.7583C17.1918 12.8999 17.0751 13.2249 17.0751 13.3999V14.8166C17.0751 16.0499 16.0751 17.0499 14.8418 17.0499H13.4251C13.2501 17.0499 12.9251 17.1749 12.7751 17.2916L11.4584 18.4166C11.0501 18.7749 10.5251 18.9499 10.0084 18.9499ZM5.14176 4.18327C4.6001 4.18327 4.15843 4.62493 4.15843 5.1666V6.58327C4.15843 7.05827 3.94176 7.65827 3.63343 8.02494L2.5001 9.35827C2.21676 9.69993 2.21676 10.2999 2.5001 10.6333L3.6251 11.9583C3.9251 12.2999 4.1501 12.9249 4.1501 13.3999V14.8249C4.1501 15.3666 4.59176 15.8083 5.13343 15.8083H6.58343C7.0501 15.8083 7.66676 16.0333 8.03343 16.3416L9.35843 17.4749C9.7001 17.7666 10.3001 17.7666 10.6418 17.4749L11.9584 16.3499C12.3334 16.0333 12.9418 15.8166 13.4084 15.8166H14.8251C15.3668 15.8166 15.8084 15.3749 15.8084 14.8333V13.4166C15.8084 12.9499 16.0334 12.3416 16.3418 11.9666L17.4751 10.6416C17.7668 10.2999 17.7668 9.69993 17.4751 9.35827L16.3501 8.0416C16.0334 7.6666 15.8168 7.05827 15.8168 6.5916V5.1666C15.8168 4.62493 15.3751 4.18327 14.8334 4.18327H13.4168C12.9418 4.18327 12.3251 3.95827 11.9584 3.64994L10.6334 2.5166C10.2918 2.22493 9.7001 2.22493 9.3501 2.5166L8.04176 3.64994C7.66676 3.95827 7.05843 4.18327 6.58343 4.18327H5.14176Z" fill="#404040"/>
<path d="M10.0001 14.0583C9.54175 14.0583 9.16675 13.6833 9.16675 13.2249C9.16675 12.7666 9.53341 12.3916 10.0001 12.3916C10.4584 12.3916 10.8334 12.7666 10.8334 13.2249C10.8334 13.6833 10.4667 14.0583 10.0001 14.0583Z" fill="#404040"/>
<path d="M10 11.4337C9.65833 11.4337 9.375 11.1504 9.375 10.8087V6.77539C9.375 6.43372 9.65833 6.15039 10 6.15039C10.3417 6.15039 10.625 6.43372 10.625 6.77539V10.8004C10.625 11.1504 10.35 11.4337 10 11.4337Z" fill="#404040"/>
</svg>
