<svg width="20" height="20" viewBox="0 0 20 20" fill="none" xmlns="http://www.w3.org/2000/svg">
<path d="M16.6749 16.0497C16.5166 16.0497 16.3583 15.9913 16.2333 15.8663L12.1083 11.7413C11.8666 11.4997 11.8666 11.0997 12.1083 10.858C12.3499 10.6163 12.7499 10.6163 12.9916 10.858L17.1166 14.983C17.3582 15.2247 17.3582 15.6247 17.1166 15.8663C16.9916 15.9913 16.8332 16.0497 16.6749 16.0497Z" fill="#404040"/>
<path d="M8.42496 15.3581C7.81663 15.3581 7.23329 15.1164 6.80829 14.6831L3.27495 11.1497C2.38328 10.2581 2.38328 8.79972 3.27495 7.90805L9.16662 2.01641C10.0583 1.12474 11.5166 1.12474 12.4083 2.01641L15.9416 5.54973C16.375 5.98306 16.6166 6.55807 16.6166 7.1664C16.6166 7.77473 16.375 8.35807 15.9416 8.78307L10.05 14.6747C9.61662 15.1247 9.04163 15.3581 8.42496 15.3581ZM10.7833 2.59972C10.5166 2.59972 10.25 2.69972 10.05 2.90805L4.1583 8.79973C3.74996 9.20806 3.74996 9.86638 4.1583 10.2747L7.69162 13.8081C8.08329 14.1997 8.76662 14.1997 9.16662 13.8081L15.0583 7.9164C15.2583 7.71639 15.3666 7.45806 15.3666 7.18306C15.3666 6.90806 15.2583 6.64139 15.0583 6.44972L11.525 2.9164C11.3166 2.69973 11.05 2.59972 10.7833 2.59972Z" fill="#404040"/>
<path d="M6.66675 18.125H1.66675C1.32508 18.125 1.04175 17.8417 1.04175 17.5C1.04175 17.1583 1.32508 16.875 1.66675 16.875H6.66675C7.00841 16.875 7.29175 17.1583 7.29175 17.5C7.29175 17.8417 7.00841 18.125 6.66675 18.125Z" fill="#404040"/>
<path d="M11.3583 13.1171C11.2 13.1171 11.0417 13.0588 10.9167 12.9338L5.025 7.04212C4.78333 6.80045 4.78333 6.40046 5.025 6.15879C5.26667 5.91712 5.66666 5.91712 5.90833 6.15879L11.8 12.0504C12.0417 12.2921 12.0417 12.6921 11.8 12.9338C11.6833 13.0588 11.5167 13.1171 11.3583 13.1171Z" fill="#404040"/>
</svg>
