<svg width="43" height="44" viewBox="0 0 43 44" fill="none" xmlns="http://www.w3.org/2000/svg">
<g clip-path="url(#clip0_370_7782)">
<path d="M37.7249 2.15625C37.3542 2.24695 37.0365 2.35417 36.7716 2.47791C35.9245 2.8732 35.1197 3.33903 34.3571 3.87541C34.3516 3.87936 34.3474 3.88489 34.345 3.89131C34.3426 3.89773 34.3421 3.90476 34.3437 3.91152C34.6337 5.21888 35.368 6.17938 36.5466 6.79303" stroke="#005E6A" stroke-width="2"/>
<path d="M36.5466 6.79294C36.8775 6.95643 37.216 7.07288 37.562 7.14231C37.5911 7.14791 37.6141 7.13867 37.6309 7.1146C38.2826 6.18517 38.777 5.31509 39.114 4.50436C39.2686 4.13371 39.3663 3.76418 39.4071 3.39577C39.4802 2.74153 39.1837 2.16876 38.4858 2.09401C38.2669 2.07106 38.0133 2.09177 37.7249 2.15616" stroke="#004248" stroke-width="2"/>
<path d="M36.5466 6.79303C37.1295 5.85744 37.6426 4.89498 37.9021 3.81578C38.0432 3.22733 37.9842 2.67415 37.7249 2.15625" stroke="#00A0B2" stroke-width="2"/>
<path d="M25.1349 9.64408L6.67765 2.15519C6.65403 2.14548 6.62803 2.143 6.60292 2.14808C6.57781 2.15316 6.55472 2.16557 6.53656 2.18375L4.12284 4.59914C4.11048 4.61143 4.10091 4.62625 4.09481 4.64259C4.08871 4.65892 4.08621 4.67638 4.08748 4.69377C4.08876 4.71116 4.09378 4.72807 4.1022 4.74334C4.11063 4.75861 4.12225 4.77187 4.13628 4.78223L18.8814 15.7178C18.891 15.7249 18.9028 15.7283 18.9147 15.7274C18.9266 15.7264 18.9377 15.7213 18.9461 15.7128C20.9673 13.6787 23.0344 11.6723 25.1475 9.69363C25.1511 9.69039 25.1537 9.68625 25.155 9.68157C25.1564 9.6769 25.1564 9.67186 25.1552 9.66692C25.1539 9.66197 25.1514 9.65728 25.1478 9.65329C25.1443 9.6493 25.1398 9.64613 25.1349 9.64408Z" stroke="#40474A" stroke-width="2"/>
<path d="M32.0651 5.55566C30.387 6.90501 28.7614 8.30419 27.1881 9.7532C24.8253 11.9295 22.4824 14.1862 20.1594 16.5232C16.381 20.3252 13.266 23.6325 10.2484 27.4747C9.10009 28.9366 8.13063 30.3439 7.34005 31.6966C6.88822 32.4699 6.55116 33.2123 6.32888 33.9239C6.24322 34.1983 6.20403 34.4846 6.2113 34.7831C6.21802 35.0608 6.35856 35.2128 6.63291 35.2391C6.87478 35.2621 7.08334 35.2481 7.25859 35.1971" stroke="#4F4F4F" stroke-width="2"/>
<path d="M7.25879 35.1968C7.70895 35.1196 8.15882 34.9751 8.60842 34.7635C9.23158 34.4707 9.76264 34.1907 10.2016 33.9236C11.6915 33.016 13.1923 31.9469 14.704 30.7163C17.2325 28.6581 19.7002 26.4597 22.1072 24.121C22.1856 24.0448 22.2466 23.9555 22.2903 23.8531C23.4739 21.0676 25.4571 19.0875 28.2398 17.9129C28.3529 17.8653 28.4511 17.7992 28.5346 17.7146C31.4438 14.769 34.1651 11.6751 36.6987 8.4327C36.7011 8.4297 36.7027 8.4262 36.7036 8.42247C36.7044 8.41873 36.7044 8.41485 36.7035 8.41113C36.7026 8.4074 36.7009 8.40393 36.6984 8.40097C36.696 8.39802 36.6929 8.39565 36.6894 8.39406L35.7429 7.98926" stroke="#383838" stroke-width="2"/>
<path d="M35.7428 7.98928L35.5547 7.89941" stroke="#4F4F4F" stroke-width="2"/>
<path d="M35.555 7.90022C34.3646 7.14772 33.5458 6.12339 33.0984 4.82723C33.0895 4.80035 33.0735 4.79559 33.0506 4.81295L32.0654 5.55621" stroke="#383838" stroke-width="2"/>
<path d="M35.5547 7.89967C34.0397 7.65947 32.8765 6.87814 32.0652 5.55566" stroke="#878787" stroke-width="2"/>
<path d="M35.7429 7.98926C34.1775 10.1437 32.4992 12.1994 30.7081 14.1562C29.4489 15.5325 28.1491 16.9143 26.8087 18.3017C26.718 18.3958 26.6183 18.4646 26.5097 18.5083C23.778 19.6074 21.8502 21.5303 20.7265 24.2772C20.6795 24.392 20.6137 24.4902 20.5292 24.572C18.4872 26.5512 16.3837 28.4512 14.2186 30.272C13.1329 31.1852 12.1646 31.9601 11.3136 32.5967C10.1221 33.488 8.77051 34.3548 7.25879 35.1968" stroke="#878787" stroke-width="2"/>
<path d="M32.1424 17.0831L31.8527 16.3675C31.8387 16.3334 31.8191 16.3297 31.7939 16.3566L31.0447 17.1553C31.0218 17.1799 31.0271 17.1911 31.0607 17.1889L32.1139 17.1284C32.119 17.1282 32.124 17.1267 32.1285 17.124C32.1329 17.1214 32.1367 17.1177 32.1395 17.1133C32.1423 17.1089 32.144 17.1038 32.1445 17.0986C32.145 17.0933 32.1443 17.088 32.1424 17.0831Z" stroke="#40474A" stroke-width="2"/>
<path d="M31.7678 41.7042L32.2281 42.0376C32.2349 42.0425 32.243 42.0452 32.2513 42.0452C32.2596 42.0452 32.2677 42.0425 32.2742 42.0376C34.2966 40.5858 36.1073 38.9165 37.7064 37.0296C39.8748 34.4723 41.6192 31.1558 41.5621 27.7578C41.5279 25.7584 40.921 23.9513 39.7413 22.3366C38.486 20.6199 36.7881 19.4654 34.6476 18.873" stroke="#640F0F" stroke-width="2"/>
<path d="M34.6475 18.8736C34.2477 18.7717 33.8824 18.6983 33.5515 18.6535C27.6222 17.8507 22.5252 22.6428 22.9628 28.6099C23.2139 32.0407 25.1052 35.1884 27.3686 37.692C28.7303 39.1981 30.1966 40.5357 31.7677 41.7047" stroke="#7A221B" stroke-width="2"/>
<path d="M34.6476 18.873C34.7076 18.961 34.7899 19.0301 34.8946 19.0805C35.0284 19.1443 35.0981 19.1779 35.1037 19.1813C36.7274 20.1297 37.9897 21.42 38.8905 23.0521C41.4311 27.6528 39.7396 32.8707 36.7011 36.7575C35.2633 38.5968 33.6188 40.2457 31.7678 41.7042" stroke="#DE312A" stroke-width="2"/>
<path d="M1.50074 29.5677L6.00482 31.0702C6.03281 31.0797 6.05409 31.0716 6.06865 31.0458C6.79427 29.7799 7.59688 28.5722 8.47648 27.4227C8.47938 27.419 8.48122 27.4146 8.4818 27.4099C8.48239 27.4052 8.48169 27.4005 8.4798 27.3962C8.4779 27.3919 8.47487 27.3882 8.47104 27.3854C8.4672 27.3827 8.46269 27.3811 8.458 27.3807L3.8649 27.0717C3.84166 27.0701 3.81832 27.0735 3.79644 27.0818C3.77457 27.0901 3.75467 27.1029 3.73808 27.1195L1.46042 29.3989C1.44814 29.4111 1.43921 29.4262 1.43449 29.4429C1.42977 29.4596 1.42941 29.4772 1.43345 29.4941C1.43749 29.511 1.44579 29.5267 1.45756 29.5395C1.46934 29.5524 1.4842 29.5621 1.50074 29.5677Z" stroke="#40474A" stroke-width="2"/>
<path d="M10.4537 35.4371C10.443 35.4432 10.4348 35.4528 10.4304 35.4642C10.4259 35.4757 10.4256 35.4883 10.4293 35.5L11.9226 39.9865C11.9285 40.0041 11.9387 40.0199 11.9524 40.0325C11.9662 40.045 11.9829 40.0539 12.0009 40.0582C12.019 40.0624 12.0379 40.062 12.0558 40.057C12.0737 40.052 12.09 40.0424 12.1031 40.0293L14.3951 37.7374C14.4051 37.7274 14.4128 37.7154 14.4177 37.7022C14.4226 37.689 14.4247 37.675 14.4236 37.661L14.1188 33.0401C14.1185 33.0362 14.1172 33.0323 14.115 33.029C14.1127 33.0257 14.1096 33.0231 14.106 33.0215C14.1023 33.0198 14.0983 33.0192 14.0943 33.0197C14.0904 33.0202 14.0866 33.0217 14.0835 33.0242C12.929 33.9094 11.719 34.7137 10.4537 35.4371Z" stroke="#40474A" stroke-width="2"/>
<path d="M12.7752 29.7294C12.9055 29.5986 12.9785 29.4214 12.9782 29.2367C12.9779 29.0521 12.9042 28.8751 12.7734 28.7448L12.7473 28.7187C12.6165 28.5883 12.4392 28.5153 12.2546 28.5156C12.0699 28.5159 11.893 28.5896 11.7626 28.7204L9.97943 30.5099C9.84909 30.6407 9.77605 30.8179 9.77637 31.0025C9.77669 31.1872 9.85035 31.3641 9.98115 31.4945L10.0073 31.5206C10.1381 31.6509 10.3153 31.7239 10.5 31.7236C10.6846 31.7233 10.8616 31.6496 10.9919 31.5188L12.7752 29.7294Z" stroke="#4F4F4F" stroke-width="2"/>
<path d="M39.4137 27.8768C39.4137 25.9768 38.6589 24.1546 37.3154 22.8111C35.9719 21.4677 34.1498 20.7129 32.2498 20.7129C30.3498 20.7129 28.5277 21.4677 27.1842 22.8111C25.8407 24.1546 25.0859 25.9768 25.0859 27.8768C25.0859 28.8175 25.2712 29.7491 25.6313 30.6183C25.9913 31.4874 26.519 32.2771 27.1842 32.9424C28.5277 34.2859 30.3498 35.0406 32.2498 35.0406C33.1906 35.0406 34.1221 34.8553 34.9913 34.4953C35.8605 34.1353 36.6502 33.6076 37.3154 32.9424C37.9807 32.2771 38.5083 31.4874 38.8684 30.6183C39.2284 29.7491 39.4137 28.8175 39.4137 27.8768Z" stroke="#7A221B" stroke-width="2"/>
<path d="M33.303 33.5098C33.5915 33.4561 33.8753 33.3803 34.1521 33.283C34.8663 33.0316 35.5236 32.6411 36.0861 32.1341C36.6486 31.6271 37.105 31.0137 37.4291 30.3293C37.7887 29.5697 37.9768 28.7403 37.9802 27.9C37.9835 27.0596 37.802 26.2289 37.4484 25.4666C37.0643 24.6381 36.4878 23.9134 35.767 23.3528C35.0462 22.7923 34.202 22.4122 33.3047 22.2441" stroke="#686C6E" stroke-width="2"/>
<path d="M33.3048 22.2445C32.401 22.0751 31.4699 22.1258 30.5904 22.3923C29.8036 22.6303 29.0772 23.0348 28.4604 23.5784C27.8437 24.1219 27.3511 24.7918 27.016 25.5426C26.4376 26.8388 26.361 28.3038 26.801 29.6536C27.2476 31.0241 28.1943 32.1759 29.4524 32.8795C30.6223 33.5339 31.985 33.7571 33.3031 33.5102" stroke="#7B7B7B" stroke-width="2"/>
<path d="M33.3047 22.2441C33.3741 22.3231 33.4542 22.3897 33.5449 22.444C33.64 22.5011 33.7293 22.5594 33.8128 22.6187C36.6094 24.6108 37.3611 28.2961 35.5974 31.2439C35.07 32.1246 34.3052 32.8799 33.303 33.5098" stroke="#E2E7E9" stroke-width="2"/>
<path d="M43 27.4805V28.3481C42.9155 29.8603 42.5907 31.3191 42.0258 32.7245C41.0994 35.0273 39.6532 37.1177 37.9777 38.9376C36.2969 40.7646 34.4456 42.3337 32.4238 43.645H32.1358C32.0468 43.6063 31.9443 43.5887 31.862 43.5333C29.8928 42.1996 28.0936 40.6445 26.4643 38.8679C24.746 36.9942 23.2914 34.8644 22.3869 32.5036C21.6797 30.6568 21.3262 28.6042 21.5789 26.6885C21.5873 26.6213 21.5669 26.611 21.5176 26.6574C19.5776 28.4855 17.5763 30.2383 15.5136 31.9157C15.4912 31.9342 15.4811 31.9577 15.4834 31.9863C15.6088 33.8664 15.7322 35.7149 15.8537 37.5317C15.8856 38.0063 15.7219 38.443 15.3859 38.7764C14.7029 39.4527 14.0192 40.1383 13.335 40.8332C13.082 41.0902 12.8717 41.2587 12.7043 41.3388C11.8779 41.7368 10.8617 41.3371 10.5644 40.4468C10.0756 38.9827 9.59885 37.5525 9.13414 36.1561C9.1235 36.1236 9.10251 36.1147 9.07115 36.1292C8.48998 36.4075 7.84526 36.5914 7.13699 36.681C5.77141 36.8531 4.77955 36.0645 4.80307 34.6746C4.8165 33.9045 5.07854 33.1494 5.38256 32.4339C5.396 32.4025 5.38648 32.3815 5.354 32.3709C4.01977 31.9185 2.71354 31.4846 1.43529 31.0691C1.00305 30.9286 0.69679 30.7788 0.516504 30.6198C0.237676 30.3735 0.0655078 30.0431 0 29.6288V29.3172C0.0559896 28.9415 0.236556 28.6 0.541699 28.2926C1.31044 27.5205 2.08057 26.7501 2.85211 25.9814C3.01448 25.8196 3.22836 25.7143 3.49375 25.6656C3.66564 25.6337 3.8798 25.627 4.13623 25.6454C5.93574 25.7753 7.7344 25.8965 9.53223 26.0091C9.55406 26.0102 9.5717 26.0024 9.58514 25.9856C12.1626 22.7774 14.9685 19.7304 17.871 16.8052C17.8749 16.8013 17.8779 16.7966 17.8798 16.7914C17.8817 16.7861 17.8824 16.7806 17.882 16.775C17.8815 16.7694 17.8798 16.764 17.8771 16.7591C17.8743 16.7541 17.8705 16.7498 17.866 16.7465L9.05184 10.2116C9.04358 10.2056 9.03353 10.2026 9.02351 10.2032C9.0135 10.2038 9.00418 10.208 8.99725 10.215C8.72122 10.4899 8.43819 10.7732 8.14816 11.0649C7.72236 11.4932 7.05217 11.3614 6.8968 10.7684C6.81365 10.451 6.96818 10.1973 7.19326 9.98235C7.42002 9.76567 7.62746 9.55963 7.81559 9.36422C7.8391 9.33959 7.83714 9.31719 7.80971 9.29704L6.38449 8.23967C6.37243 8.2306 6.35743 8.22628 6.34228 8.22751C6.32714 8.22875 6.31289 8.23546 6.30219 8.24639C6.12694 8.425 5.95589 8.59633 5.78904 8.76038C5.09365 9.44317 4.1018 8.48155 4.74092 7.787C4.87025 7.6459 5.00883 7.50677 5.15664 7.3696C5.16007 7.36642 5.16274 7.36251 5.16446 7.35814C5.16617 7.35378 5.1669 7.34906 5.16658 7.34434C5.16626 7.33961 5.1649 7.33498 5.1626 7.33078C5.1603 7.32659 5.15712 7.32292 5.15328 7.32004C4.52172 6.85701 3.89072 6.38894 3.26027 5.91583C2.69338 5.49086 2.48426 4.71905 2.7782 4.06901C2.86779 3.87025 3.02036 3.66476 3.23592 3.45256C4.01809 2.68327 4.76163 1.9428 5.46654 1.23118C5.82992 0.863886 6.22352 0.690318 6.64736 0.710474C6.86628 0.720552 7.20866 0.820214 7.67449 1.00946C13.2802 3.28991 19.4975 5.81225 26.3266 8.57645C26.334 8.57922 26.3419 8.57998 26.3494 8.57865C26.357 8.57731 26.3639 8.57394 26.3694 8.56889C28.6177 6.49448 30.897 4.44694 33.3477 2.74458C33.7334 2.47695 34.1581 2.20848 34.6217 1.93917C35.8991 1.19842 37.8896 0.221685 39.3736 0.851568C40.2235 1.21186 40.8256 2.04583 40.8676 2.99065C40.913 4.02702 40.4561 5.12553 39.9749 6.02081C39.4055 7.08013 38.7073 8.15401 37.8803 9.24245C36.3865 11.2099 34.7399 13.1631 32.9404 15.102C32.9288 15.1146 32.921 15.1301 32.9179 15.1468C32.9148 15.1634 32.9165 15.1805 32.9227 15.1961L33.7332 17.1924C33.7466 17.2254 33.771 17.245 33.8062 17.2512C36.4691 17.6896 38.6477 18.8774 40.3419 20.8147C41.979 22.6858 42.8651 24.9078 43 27.4805ZM37.7249 2.15669C37.3543 2.24739 37.0365 2.35461 36.7717 2.47835C35.9246 2.87363 35.1197 3.33947 34.3572 3.87585C34.3517 3.87979 34.3474 3.88532 34.3451 3.89175C34.3427 3.89817 34.3422 3.9052 34.3437 3.91196C34.6338 5.21932 35.3681 6.17982 36.5466 6.79346C36.8775 6.95695 37.216 7.07341 37.562 7.14284C37.5911 7.14844 37.6141 7.1392 37.6309 7.11512C38.2826 6.1857 38.777 5.31562 39.114 4.50489C39.2686 4.13424 39.3663 3.76471 39.4072 3.39629C39.4802 2.74206 39.1838 2.16928 38.4858 2.09454C38.2669 2.07158 38.0133 2.0923 37.7249 2.15669ZM25.1348 9.64473L6.6776 2.15585C6.65398 2.14613 6.62797 2.14365 6.60287 2.14873C6.57776 2.15382 6.55467 2.16623 6.5365 2.1844L4.12279 4.59979C4.11042 4.61208 4.10086 4.6269 4.09476 4.64324C4.08865 4.65957 4.08615 4.67703 4.08743 4.69442C4.08871 4.71181 4.09373 4.72872 4.10215 4.74399C4.11058 4.75926 4.1222 4.77252 4.13623 4.78288L18.8814 15.7185C18.891 15.7256 18.9028 15.7289 18.9146 15.728C18.9265 15.7271 18.9377 15.7219 18.946 15.7134C20.9673 13.6793 23.0344 11.673 25.1474 9.69428C25.151 9.69104 25.1536 9.6869 25.155 9.68223C25.1563 9.67756 25.1564 9.67251 25.1551 9.66757C25.1539 9.66262 25.1513 9.65794 25.1478 9.65394C25.1443 9.64995 25.1398 9.64678 25.1348 9.64473ZM32.0652 5.55637C30.3872 6.90572 28.7616 8.3049 27.1883 9.75391C24.8255 11.9302 22.4826 14.1869 20.1596 16.5239C16.3812 20.3259 13.2662 23.6332 10.2486 27.4755C9.10027 28.9373 8.13081 30.3446 7.34023 31.6973C6.8884 32.4706 6.55134 33.213 6.32906 33.9246C6.2434 34.199 6.20421 34.4854 6.21148 34.7838C6.2182 35.0615 6.35874 35.2135 6.63309 35.2398C6.87496 35.2628 7.08352 35.2488 7.25877 35.1978C7.70893 35.1206 8.1588 34.9761 8.6084 34.7645C9.23156 34.4716 9.76262 34.1917 10.2016 33.9246C11.6915 33.017 13.1923 31.9479 14.704 30.7173C17.2325 28.6591 19.7002 26.4606 22.1072 24.122C22.1856 24.0458 22.2466 23.9565 22.2903 23.854C23.4739 21.0686 25.4571 19.0885 28.2397 17.9138C28.3528 17.8662 28.4511 17.8002 28.5345 17.7156C31.4438 14.77 34.1651 11.676 36.6987 8.43368C36.701 8.43068 36.7027 8.42719 36.7035 8.42345C36.7044 8.41971 36.7043 8.41583 36.7035 8.41211C36.7026 8.40838 36.7008 8.40491 36.6984 8.40195C36.696 8.399 36.6929 8.39663 36.6894 8.39504L35.7429 7.99024L35.5548 7.90038C34.3644 7.14788 33.5456 6.12355 33.0982 4.82739C33.0893 4.80051 33.0733 4.79575 33.0504 4.81311L32.0652 5.55637ZM32.1425 17.0841L31.8528 16.3685C31.8388 16.3344 31.8192 16.3307 31.794 16.3576L31.0448 17.1563C31.0219 17.1809 31.0272 17.1921 31.0608 17.1899L32.1139 17.1294C32.1191 17.1292 32.1241 17.1276 32.1286 17.125C32.133 17.1224 32.1368 17.1187 32.1396 17.1143C32.1423 17.1099 32.1441 17.1048 32.1446 17.0996C32.1451 17.0943 32.1444 17.089 32.1425 17.0841ZM31.7679 41.7049L32.2282 42.0383C32.235 42.0433 32.2431 42.0459 32.2514 42.0459C32.2597 42.0459 32.2678 42.0433 32.2744 42.0383C34.2967 40.5865 36.1074 38.9172 37.7065 37.0304C39.8749 34.473 41.6193 31.1565 41.5622 27.7585C41.528 25.7591 40.9211 23.952 39.7414 22.3373C38.4861 20.6207 36.7882 19.4661 34.6478 18.8738C34.248 18.7719 33.8827 18.6985 33.5518 18.6537C27.6225 17.8508 22.5254 22.643 22.963 28.6101C23.2141 32.0408 25.1054 35.1886 27.3688 37.6922C28.7305 39.1983 30.1969 40.5359 31.7679 41.7049ZM1.5008 29.5683L6.00488 31.0708C6.03288 31.0803 6.05415 31.0722 6.06871 31.0465C6.79434 29.7805 7.59695 28.5729 8.47654 27.4234C8.47944 27.4197 8.48128 27.4153 8.48187 27.4106C8.48245 27.4059 8.48176 27.4012 8.47986 27.3969C8.47797 27.3926 8.47494 27.3888 8.4711 27.3861C8.46726 27.3834 8.46276 27.3818 8.45807 27.3814L3.86496 27.0723C3.84172 27.0708 3.81838 27.0742 3.79651 27.0825C3.77463 27.0907 3.75473 27.1036 3.73814 27.1202L1.46049 29.3995C1.4482 29.4118 1.43928 29.4269 1.43456 29.4436C1.42983 29.4603 1.42948 29.4779 1.43351 29.4948C1.43755 29.5117 1.44585 29.5273 1.45763 29.5402C1.46941 29.5531 1.48427 29.5628 1.5008 29.5683ZM10.4535 35.438C10.4429 35.4441 10.4347 35.4537 10.4302 35.4652C10.4258 35.4767 10.4254 35.4893 10.4292 35.501L11.9224 39.9874C11.9283 40.0051 11.9386 40.0209 11.9523 40.0335C11.966 40.046 11.9827 40.0548 12.0008 40.0591C12.0189 40.0634 12.0377 40.063 12.0556 40.058C12.0735 40.0529 12.0898 40.0434 12.103 40.0303L14.3949 37.7383C14.4049 37.7284 14.4126 37.7164 14.4176 37.7032C14.4225 37.69 14.4245 37.6759 14.4235 37.6619L14.1186 33.0411C14.1184 33.0371 14.1171 33.0333 14.1148 33.03C14.1126 33.0267 14.1094 33.0241 14.1058 33.0224C14.1022 33.0208 14.0982 33.0202 14.0942 33.0206C14.0902 33.0211 14.0865 33.0227 14.0833 33.0251C12.9288 33.9103 11.7189 34.7146 10.4535 35.438Z" fill="black"/>
<path d="M36.5466 6.79294C37.1295 5.85735 37.6426 4.89489 37.9021 3.81569C38.0432 3.22724 37.9842 2.67406 37.7249 2.15616C38.0133 2.09177 38.2669 2.07106 38.4858 2.09401C39.1837 2.16876 39.4802 2.74153 39.4071 3.39577C39.3663 3.76418 39.2686 4.13371 39.114 4.50436C38.777 5.31509 38.2826 6.18517 37.6309 7.1146C37.6141 7.13867 37.5911 7.14791 37.562 7.14231C37.216 7.07288 36.8775 6.95643 36.5466 6.79294Z" fill="#58367B"/>
<path d="M6.67765 2.15519L25.1349 9.64408C25.1398 9.64613 25.1443 9.6493 25.1478 9.65329C25.1514 9.65728 25.1539 9.66197 25.1552 9.66692C25.1564 9.67186 25.1564 9.6769 25.155 9.68157C25.1537 9.68624 25.1511 9.69039 25.1475 9.69363C23.0344 11.6723 20.9673 13.6787 18.9461 15.7128C18.9377 15.7213 18.9266 15.7264 18.9147 15.7274C18.9028 15.7283 18.891 15.7249 18.8814 15.7178L4.13628 4.78223C4.12225 4.77187 4.11063 4.75861 4.1022 4.74334C4.09378 4.72807 4.08876 4.71116 4.08748 4.69377C4.08621 4.67638 4.08871 4.65892 4.09481 4.64259C4.10091 4.62625 4.11048 4.61143 4.12284 4.59914L6.53656 2.18375C6.55472 2.16557 6.57781 2.15316 6.60292 2.14808C6.62803 2.143 6.65403 2.14548 6.67765 2.15519Z" fill="#805EA3"/>
<path d="M37.7249 2.15625C37.9841 2.67415 38.0432 3.22733 37.9021 3.81578C37.6426 4.89498 37.1294 5.85744 36.5466 6.79303C35.368 6.17938 34.6337 5.21888 34.3437 3.91152C34.3421 3.90476 34.3426 3.89773 34.345 3.89131C34.3474 3.88489 34.3516 3.87936 34.3571 3.87541C35.1197 3.33903 35.9245 2.8732 36.7716 2.47791C37.0365 2.35417 37.3542 2.24695 37.7249 2.15625Z" fill="#805EA3"/>
<path d="M35.555 7.90022C34.0399 7.66002 32.8767 6.87869 32.0654 5.55621L33.0506 4.81295C33.0735 4.79559 33.0895 4.80035 33.0984 4.82723C33.5458 6.12339 34.3646 7.14772 35.555 7.90022Z" fill="#58367B"/>
<path d="M32.0655 5.55566C32.8768 6.87814 34.04 7.65947 35.5551 7.89967L35.7432 7.98953C34.1777 10.144 32.4995 12.1997 30.7084 14.1565C29.4492 15.5327 28.1494 16.9146 26.809 18.302C26.7183 18.396 26.6186 18.4649 26.51 18.5086C23.7782 19.6077 21.8505 21.5306 20.7268 24.2775C20.6798 24.3922 20.614 24.4905 20.5294 24.5722C18.4875 26.5515 16.384 28.4515 14.2189 30.2723C13.1332 31.1855 12.1649 31.9604 11.3138 32.597C10.1224 33.4883 8.7708 34.355 7.25908 35.1971C7.08383 35.2481 6.87527 35.2621 6.63339 35.2391C6.35905 35.2128 6.21851 35.0608 6.21179 34.7831C6.20451 34.4846 6.24371 34.1983 6.32937 33.9239C6.55165 33.2123 6.88871 32.4699 7.34054 31.6966C8.13112 30.3439 9.10058 28.9366 10.2489 27.4747C13.2665 23.6325 16.3815 20.3252 20.1599 16.5232C22.4829 14.1862 24.8258 11.9295 27.1886 9.7532C28.7619 8.30419 30.3875 6.90501 32.0655 5.55566ZM12.7755 29.7292C12.9059 29.5984 12.9789 29.4212 12.9786 29.2365C12.9783 29.0519 12.9046 28.8749 12.7738 28.7446L12.7476 28.7185C12.6168 28.5881 12.4396 28.5151 12.255 28.5154C12.0703 28.5157 11.8934 28.5894 11.763 28.7202L9.97981 30.5096C9.84947 30.6404 9.77643 30.8177 9.77675 31.0023C9.77707 31.187 9.85074 31.3639 9.98153 31.4943L10.0077 31.5203C10.1385 31.6507 10.3157 31.7237 10.5004 31.7234C10.685 31.7231 10.862 31.6494 10.9923 31.5186L12.7755 29.7292Z" fill="#805EA3"/>
<path d="M35.7429 7.99023L36.6894 8.39504C36.6929 8.39663 36.696 8.39899 36.6984 8.40195C36.7009 8.4049 36.7026 8.40838 36.7035 8.4121C36.7044 8.41583 36.7044 8.4197 36.7036 8.42344C36.7027 8.42718 36.7011 8.43068 36.6987 8.43367C34.1651 11.676 31.4438 14.77 28.5346 17.7156C28.4511 17.8002 28.3529 17.8662 28.2398 17.9138C25.4571 19.0885 23.4739 21.0686 22.2903 23.854C22.2466 23.9565 22.1856 24.0458 22.1072 24.122C19.7002 26.4606 17.2325 28.6591 14.704 30.7172C13.1923 31.9479 11.6915 33.017 10.2016 33.9246C9.76264 34.1917 9.23158 34.4716 8.60842 34.7645C8.15882 34.9761 7.70895 35.1205 7.25879 35.1978C8.77051 34.3557 10.1221 33.489 11.3136 32.5977C12.1646 31.9611 13.1329 31.1862 14.2186 30.273C16.3837 28.4522 18.4872 26.5522 20.5292 24.573C20.6137 24.4912 20.6795 24.3929 20.7265 24.2782C21.8502 21.5313 23.778 19.6084 26.5097 18.5093C26.6183 18.4656 26.718 18.3967 26.8087 18.3027C28.1491 16.9153 29.4489 15.5334 30.7081 14.1572C32.4992 12.2004 34.1775 10.1447 35.7429 7.99023Z" fill="#58367B"/>
<path d="M32.1424 17.0841C32.1443 17.089 32.145 17.0943 32.1445 17.0996C32.144 17.1048 32.1423 17.1099 32.1395 17.1143C32.1367 17.1187 32.1329 17.1224 32.1285 17.125C32.124 17.1276 32.119 17.1291 32.1139 17.1294L31.0607 17.1899C31.0271 17.1921 31.0218 17.1809 31.0447 17.1563L31.7939 16.3576C31.8191 16.3307 31.8387 16.3344 31.8527 16.3685L32.1424 17.0841Z" fill="#7F8E94"/>
<path d="M34.6475 18.8736C34.7074 18.9615 34.7897 19.0306 34.8944 19.081C35.0282 19.1449 35.0979 19.1785 35.1035 19.1818C36.7272 20.1303 37.9895 21.4206 38.8904 23.0526C41.4309 27.6533 39.7395 32.8713 36.7009 36.7581C35.2631 38.5973 33.6187 40.2462 31.7677 41.7047C30.1966 40.5357 28.7303 39.1981 27.3686 37.692C25.1052 35.1884 23.2139 32.0407 22.9628 28.6099C22.5252 22.6428 27.6222 17.8507 33.5515 18.6535C33.8824 18.6983 34.2477 18.7717 34.6475 18.8736ZM39.4136 27.8776C39.4136 25.9776 38.6589 24.1554 37.3154 22.8119C35.9719 21.4684 34.1497 20.7137 32.2498 20.7137C30.3498 20.7137 28.5276 21.4684 27.1841 22.8119C25.8407 24.1554 25.0859 25.9776 25.0859 27.8776C25.0859 28.8183 25.2712 29.7499 25.6312 30.619C25.9912 31.4882 26.5189 32.2779 27.1841 32.9432C28.5276 34.2867 30.3498 35.0414 32.2498 35.0414C33.1905 35.0414 34.1221 34.8561 34.9912 34.4961C35.8604 34.1361 36.6502 33.6084 37.3154 32.9432C37.9806 32.2779 38.5083 31.4882 38.8683 30.619C39.2283 29.7499 39.4136 28.8183 39.4136 27.8776Z" fill="#4DB8A6"/>
<path d="M34.6474 18.873C36.7879 19.4654 38.4858 20.6199 39.7411 22.3366C40.9208 23.9513 41.5277 25.7584 41.5618 27.7578C41.6189 31.1558 39.8746 34.4723 37.7061 37.0296C36.107 38.9165 34.2963 40.5858 32.274 42.0376C32.2674 42.0425 32.2594 42.0452 32.2511 42.0452C32.2428 42.0452 32.2346 42.0425 32.2278 42.0376L31.7676 41.7042C33.6186 40.2457 35.263 38.5968 36.7008 36.7575C39.7394 32.8707 41.4308 27.6528 38.8903 23.0521C37.9894 21.42 36.7271 20.1297 35.1034 19.1813C35.0978 19.1779 35.0281 19.1443 34.8943 19.0805C34.7896 19.0301 34.7073 18.961 34.6474 18.873Z" fill="#117C6A"/>
<path d="M39.4137 27.8777C39.4137 28.8185 39.2284 29.7501 38.8684 30.6192C38.5083 31.4884 37.9807 32.2781 37.3154 32.9434C36.6502 33.6086 35.8605 34.1363 34.9913 34.4963C34.1221 34.8563 33.1906 35.0416 32.2498 35.0416C30.3498 35.0416 28.5277 34.2868 27.1842 32.9434C25.8407 31.5999 25.0859 29.7777 25.0859 27.8777C25.0859 25.9778 25.8407 24.1556 27.1842 22.8121C28.5277 21.4686 30.3498 20.7139 32.2498 20.7139C34.1498 20.7139 35.9719 21.4686 37.3154 22.8121C38.6589 24.1556 39.4137 25.9778 39.4137 27.8777ZM33.303 33.5106C33.5914 33.4569 33.8753 33.3811 34.152 33.2838C34.8663 33.0323 35.5236 32.6419 36.0861 32.1349C36.6485 31.6279 37.105 31.0145 37.4291 30.3301C37.7887 29.5704 37.9768 28.7411 37.9802 27.9007C37.9835 27.0604 37.802 26.2296 37.4484 25.4674C37.0643 24.6389 36.4878 23.9141 35.767 23.3536C35.0462 22.7931 34.202 22.413 33.3046 22.2449C32.4008 22.0755 31.4698 22.1262 30.5903 22.3927C29.8034 22.6307 29.077 23.0352 28.4603 23.5788C27.8436 24.1223 27.3509 24.7922 27.0159 25.543C26.4375 26.8392 26.3609 28.3042 26.8009 29.654C27.2474 31.0244 28.1941 32.1763 29.4523 32.8798C30.6222 33.5342 31.9849 33.7574 33.303 33.5106Z" fill="black"/>
<path d="M33.3048 22.2445C33.3742 22.3235 33.4543 22.3901 33.545 22.4444C33.6402 22.5015 33.7295 22.5597 33.8129 22.6191C36.6096 24.6112 37.3612 28.2964 35.5976 31.2443C35.0701 32.125 34.3053 32.8803 33.3031 33.5102C31.985 33.7571 30.6223 33.5339 29.4524 32.8795C28.1943 32.1759 27.2476 31.0241 26.801 29.6536C26.361 28.3038 26.4376 26.8388 27.016 25.5426C27.3511 24.7918 27.8437 24.1219 28.4604 23.5784C29.0772 23.0348 29.8036 22.6303 30.5904 22.3923C31.4699 22.1258 32.401 22.0751 33.3048 22.2445Z" fill="#F5F5F5"/>
<path d="M33.3049 22.2441C34.2022 22.4122 35.0465 22.7923 35.7672 23.3528C36.488 23.9134 37.0645 24.6381 37.4487 25.4666C37.8022 26.2289 37.9838 27.0596 37.9804 27.9C37.9771 28.7403 37.789 29.5697 37.4294 30.3293C37.1053 31.0137 36.6488 31.6271 36.0863 32.1341C35.5239 32.6411 34.8665 33.0316 34.1523 33.283C33.8756 33.3803 33.5917 33.4561 33.3032 33.5098C34.3054 32.8799 35.0703 32.1246 35.5977 31.2439C37.3613 28.2961 36.6097 24.6108 33.813 22.6187C33.7296 22.5594 33.6403 22.5011 33.5451 22.444C33.4544 22.3897 33.3743 22.3231 33.3049 22.2441Z" fill="#CFD8DC"/>
<path d="M6.00482 31.0702L1.50074 29.5677C1.4842 29.5621 1.46934 29.5524 1.45756 29.5395C1.44579 29.5267 1.43749 29.511 1.43345 29.4941C1.42941 29.4772 1.42977 29.4596 1.43449 29.4429C1.43921 29.4262 1.44814 29.4111 1.46042 29.3989L3.73808 27.1195C3.75467 27.1029 3.77457 27.0901 3.79644 27.0818C3.81832 27.0735 3.84166 27.0701 3.8649 27.0717L8.458 27.3807C8.46269 27.3811 8.4672 27.3827 8.47104 27.3854C8.47487 27.3882 8.4779 27.3919 8.4798 27.3962C8.48169 27.4005 8.48239 27.4052 8.4818 27.4099C8.48122 27.4146 8.47938 27.419 8.47648 27.4227C7.59688 28.5722 6.79427 29.7799 6.06865 31.0458C6.05409 31.0716 6.03281 31.0797 6.00482 31.0702Z" fill="#805EA3"/>
<path d="M12.7735 28.7451L12.7473 28.719C12.4749 28.4476 12.0341 28.4483 11.7627 28.7207L9.97949 30.5102C9.70807 30.7825 9.70884 31.2233 9.98121 31.4948L10.0074 31.5209C10.2798 31.7923 10.7206 31.7915 10.992 31.5191L12.7752 29.7297C13.0466 29.4573 13.0459 29.0165 12.7735 28.7451Z" fill="black"/>
<path d="M10.4537 35.438C11.719 34.7146 12.929 33.9104 14.0835 33.0252C14.0866 33.0227 14.0904 33.0211 14.0943 33.0207C14.0983 33.0202 14.1023 33.0208 14.106 33.0224C14.1096 33.0241 14.1127 33.0267 14.115 33.03C14.1172 33.0333 14.1185 33.0371 14.1188 33.0411L14.4236 37.6619C14.4247 37.6759 14.4226 37.69 14.4177 37.7032C14.4128 37.7164 14.4051 37.7284 14.3951 37.7384L12.1031 40.0303C12.09 40.0434 12.0737 40.0529 12.0558 40.058C12.0379 40.063 12.019 40.0634 12.0009 40.0591C11.9829 40.0548 11.9662 40.046 11.9524 40.0335C11.9387 40.0209 11.9285 40.0051 11.9226 39.9875L10.4293 35.501C10.4256 35.4893 10.4259 35.4767 10.4304 35.4652C10.4348 35.4538 10.443 35.4442 10.4537 35.438Z" fill="#805EA3"/>
</g>
<defs>
<clipPath id="clip0_370_7782">
<rect width="43" height="43" fill="white" transform="translate(0 0.644531)"/>
</clipPath>
</defs>
</svg>
