<svg width="20" height="20" viewBox="0 0 20 20" fill="none" xmlns="http://www.w3.org/2000/svg">
<path d="M4.55838 8.95866C3.96671 8.95866 3.36671 8.74199 2.90838 8.30033C1.37505 6.84199 0.758381 5.25033 1.11671 3.69199C1.54171 1.85866 3.15005 1.04199 4.55838 1.04199C5.96671 1.04199 7.58338 1.86699 8.00005 3.69199C8.35838 5.25033 7.73338 6.84199 6.20838 8.30033C5.75005 8.74199 5.15838 8.95866 4.55838 8.95866ZM2.33338 3.97533C2.01671 5.36699 2.94171 6.60033 3.77505 7.39199C4.21671 7.81699 4.90838 7.80866 5.35005 7.39199C6.18338 6.60033 7.10838 5.36699 6.78338 3.96699C6.50005 2.73366 5.40838 2.29199 4.56671 2.29199C3.71671 2.29199 2.62505 2.73366 2.33338 3.97533Z" fill="#404040"/>
<path d="M4.59163 5.16667C4.1333 5.16667 3.7583 4.79167 3.7583 4.33333C3.7583 3.875 4.12497 3.5 4.59163 3.5H4.59997C5.0583 3.5 5.4333 3.875 5.4333 4.33333C5.4333 4.79167 5.0583 5.16667 4.59163 5.16667Z" fill="#404040"/>
<path d="M15.4084 18.9582C14.8167 18.9582 14.2167 18.7415 13.7501 18.2999C12.2084 16.8415 11.5834 15.2499 11.9501 13.6832C12.3751 11.8582 13.9917 11.0332 15.4084 11.0332C16.8251 11.0332 18.4417 11.8582 18.8667 13.6832C19.2251 15.2415 18.6001 16.8415 17.0584 18.2915C16.6001 18.7415 16.0084 18.9582 15.4084 18.9582ZM15.4084 12.2915C14.5584 12.2915 13.4584 12.7332 13.1667 13.9749C12.8417 15.3665 13.7751 16.6082 14.6084 17.3999C15.0501 17.8249 15.7501 17.8249 16.2001 17.3999C17.0334 16.6082 17.9667 15.3749 17.6417 13.9832C17.3667 12.7332 16.2667 12.2915 15.4084 12.2915Z" fill="#404040"/>
<path d="M15.4417 15.1667C14.9834 15.1667 14.6084 14.7917 14.6084 14.3333C14.6084 13.875 14.9751 13.5 15.4417 13.5H15.4501C15.9084 13.5 16.2834 13.875 16.2834 14.3333C16.2834 14.7917 15.9001 15.1667 15.4417 15.1667Z" fill="#404040"/>
<path d="M10 16.4587H7.7667C6.80003 16.4587 5.95837 15.8753 5.62503 14.9753C5.28337 14.0753 5.53337 13.0837 6.25837 12.442L12.9167 6.61699C13.3167 6.26699 13.325 5.79199 13.2084 5.46699C13.0834 5.14199 12.7667 4.79199 12.2334 4.79199H10C9.65836 4.79199 9.37503 4.50866 9.37503 4.16699C9.37503 3.82533 9.65836 3.54199 10 3.54199H12.2334C13.2 3.54199 14.0417 4.12533 14.375 5.02533C14.7167 5.92533 14.4667 6.91699 13.7417 7.55866L7.08337 13.3837C6.68337 13.7337 6.67503 14.2087 6.7917 14.5337C6.9167 14.8587 7.23336 15.2087 7.7667 15.2087H10C10.3417 15.2087 10.625 15.492 10.625 15.8337C10.625 16.1753 10.3417 16.4587 10 16.4587Z" fill="#404040"/>
<path d="M10 16.4587H7.7667C6.80003 16.4587 5.95837 15.8753 5.62503 14.9753C5.28337 14.0753 5.53337 13.0837 6.25837 12.442L12.9167 6.61699C13.3167 6.26699 13.325 5.79199 13.2084 5.46699C13.0834 5.14199 12.7667 4.79199 12.2334 4.79199H10C9.65836 4.79199 9.37503 4.50866 9.37503 4.16699C9.37503 3.82533 9.65836 3.54199 10 3.54199H12.2334C13.2 3.54199 14.0417 4.12533 14.375 5.02533C14.7167 5.92533 14.4667 6.91699 13.7417 7.55866L7.08337 13.3837C6.68337 13.7337 6.67503 14.2087 6.7917 14.5337C6.9167 14.8587 7.23336 15.2087 7.7667 15.2087H10C10.3417 15.2087 10.625 15.492 10.625 15.8337C10.625 16.1753 10.3417 16.4587 10 16.4587Z" fill="#404040"/>
</svg>
