<svg width="20" height="20" viewBox="0 0 20 20" fill="none" xmlns="http://www.w3.org/2000/svg">
<path d="M12.3251 16.1833C12.2334 16.1833 12.1334 16.1583 12.0501 16.1167C11.7417 15.9583 11.6167 15.5833 11.7667 15.275L13.5501 11.7166C13.6584 11.5083 13.8751 11.375 14.1084 11.375C14.3417 11.375 14.5584 11.5083 14.6667 11.725L16.4501 15.2833C16.6084 15.5917 16.4834 15.9666 16.1667 16.125C15.8584 16.2833 15.4834 16.1583 15.3251 15.8417L14.1084 13.4L12.8917 15.8417C12.7751 16.0583 12.5501 16.1833 12.3251 16.1833Z" fill="#404040"/>
<path d="M15.5669 15.5498H12.6335C12.2919 15.5498 12.0085 15.2665 12.0085 14.9248C12.0085 14.5831 12.2919 14.2998 12.6335 14.2998H15.5669C15.9085 14.2998 16.1919 14.5831 16.1919 14.9248C16.1919 15.2665 15.9169 15.5498 15.5669 15.5498Z" fill="#404040"/>
<path d="M14.0998 18.9588C11.4248 18.9588 9.24146 16.7838 9.24146 14.1005C9.24146 11.4172 11.4165 9.24219 14.0998 9.24219C16.7748 9.24219 18.9581 11.4172 18.9581 14.1005C18.9581 16.7838 16.7831 18.9588 14.0998 18.9588ZM14.0998 10.5005C12.1081 10.5005 10.4915 12.1172 10.4915 14.1088C10.4915 16.1005 12.1081 17.7172 14.0998 17.7172C16.0831 17.7172 17.7081 16.1005 17.7081 14.1088C17.7081 12.1172 16.0915 10.5005 14.0998 10.5005Z" fill="#404040"/>
<path d="M4.05008 10.5832C3.12508 10.5832 2.39175 10.3249 1.87508 9.82486C1.32508 9.29153 1.04175 8.4832 1.04175 7.44154V4.17489C1.04175 2.14989 2.15842 1.0332 4.18342 1.0332H7.45008C8.49175 1.0332 9.29175 1.3082 9.83342 1.86654C10.3584 2.4082 10.6168 3.19157 10.5918 4.19157V7.44154C10.6168 8.45821 10.3584 9.25822 9.81675 9.79989C9.27508 10.3416 8.47508 10.5915 7.44174 10.5749H4.19175C4.13341 10.5832 4.09175 10.5832 4.05008 10.5832ZM4.18342 2.29154C2.84175 2.29154 2.29175 2.84156 2.29175 4.18323V7.44988C2.29175 8.14155 2.44174 8.64152 2.74174 8.93319C3.03341 9.21652 3.50009 9.34155 4.15842 9.33322H7.44174C8.14174 9.34989 8.62508 9.20822 8.91675 8.91655C9.20841 8.62489 9.34175 8.13322 9.32508 7.45822V4.17489C9.34175 3.50822 9.20842 3.03319 8.92509 2.74153C8.63342 2.44153 8.13341 2.29154 7.44174 2.29154H4.18342Z" fill="#404040"/>
<path d="M7.50003 5.5H4.1167C3.77503 5.5 3.4917 5.21667 3.4917 4.875C3.4917 4.53333 3.77503 4.25 4.1167 4.25H7.50003C7.8417 4.25 8.12503 4.53333 8.12503 4.875C8.12503 5.21667 7.85003 5.5 7.50003 5.5Z" fill="#404040"/>
<path d="M5.81665 5.50025C5.47498 5.50025 5.19165 5.21692 5.19165 4.87525V4.30859C5.19165 3.96693 5.47498 3.68359 5.81665 3.68359C6.15832 3.68359 6.44165 3.96693 6.44165 4.30859V4.87525C6.44165 5.21692 6.15832 5.50025 5.81665 5.50025Z" fill="#404040"/>
<path d="M4.1167 8.13286C3.77503 8.13286 3.4917 7.84953 3.4917 7.50786C3.4917 7.1662 3.77503 6.88286 4.1167 6.88286C5.17503 6.88286 6.03337 5.98288 6.03337 4.86621C6.03337 4.52454 6.3167 4.24121 6.65837 4.24121C7.00004 4.24121 7.28337 4.52454 7.28337 4.86621C7.28337 6.66621 5.8667 8.13286 4.1167 8.13286Z" fill="#404040"/>
<path d="M7.5082 8.13339C6.7332 8.13339 5.99153 7.74173 5.46653 7.05007C5.2582 6.77507 5.31654 6.38336 5.59154 6.17502C5.86654 5.96669 6.2582 6.02505 6.46653 6.30005C6.74986 6.68338 7.12486 6.89173 7.5082 6.89173C7.84986 6.89173 8.1332 7.17506 8.1332 7.51673C8.1332 7.8584 7.84986 8.13339 7.5082 8.13339Z" fill="#404040"/>
<path d="M7.50008 18.9583C3.94175 18.9583 1.04175 16.0583 1.04175 12.5C1.04175 12.1583 1.32508 11.875 1.66675 11.875C2.00841 11.875 2.29175 12.1583 2.29175 12.5C2.29175 14.9667 4.00842 17.0334 6.31675 17.575L6.09175 17.2C5.91675 16.9 6.00842 16.5167 6.30842 16.3417C6.60009 16.1667 6.99175 16.2583 7.16675 16.5583L8.04174 18.0167C8.15841 18.2083 8.15842 18.45 8.05008 18.6417C7.93342 18.8333 7.72508 18.9583 7.50008 18.9583Z" fill="#404040"/>
<path d="M18.3332 8.12533C17.9915 8.12533 17.7082 7.84199 17.7082 7.50033C17.7082 5.03366 15.9915 2.96697 13.6832 2.4253L13.9082 2.80031C14.0832 3.10031 13.9915 3.48367 13.6915 3.65867C13.3999 3.83367 13.0082 3.742 12.8332 3.442L11.9582 1.98366C11.8415 1.792 11.8415 1.55033 11.9499 1.35866C12.0582 1.15866 12.2665 1.04199 12.4915 1.04199C16.0499 1.04199 18.9499 3.94199 18.9499 7.50033C18.9582 7.84199 18.6749 8.12533 18.3332 8.12533Z" fill="#404040"/>
</svg>
