<svg width="20" height="20" viewBox="0 0 20 20" fill="none" xmlns="http://www.w3.org/2000/svg">
<path d="M12.5 18.9583H7.50004C6.40004 18.9583 5.48337 18.85 4.70837 18.6166C4.42504 18.5333 4.24171 18.2583 4.25837 17.9666C4.46671 15.475 6.99171 13.5166 10 13.5166C13.0084 13.5166 15.525 15.4666 15.7417 17.9666C15.7667 18.2666 15.5834 18.5333 15.2917 18.6166C14.5167 18.85 13.6 18.9583 12.5 18.9583ZM5.60004 17.55C6.15004 17.6583 6.77504 17.7083 7.50004 17.7083H12.5C13.225 17.7083 13.85 17.6583 14.4 17.55C13.9584 15.95 12.1334 14.7666 10 14.7666C7.86671 14.7666 6.04171 15.95 5.60004 17.55Z" fill="#404040"/>
<path d="M12.5001 1.66699H7.50008C3.33341 1.66699 1.66675 3.33366 1.66675 7.50033V12.5003C1.66675 15.6503 2.61675 17.3753 4.88342 18.017C5.06675 15.8503 7.29175 14.142 10.0001 14.142C12.7084 14.142 14.9334 15.8503 15.1167 18.017C17.3834 17.3753 18.3334 15.6503 18.3334 12.5003V7.50033C18.3334 3.33366 16.6667 1.66699 12.5001 1.66699ZM10.0001 11.8086C8.35008 11.8086 7.01675 10.467 7.01675 8.81701C7.01675 7.16701 8.35008 5.83366 10.0001 5.83366C11.6501 5.83366 12.9834 7.16701 12.9834 8.81701C12.9834 10.467 11.6501 11.8086 10.0001 11.8086Z" stroke="#404040" stroke-width="1.5" stroke-linecap="round" stroke-linejoin="round"/>
<path d="M9.99994 12.433C8.00827 12.433 6.3916 10.808 6.3916 8.81636C6.3916 6.82469 8.00827 5.20801 9.99994 5.20801C11.9916 5.20801 13.6083 6.82469 13.6083 8.81636C13.6083 10.808 11.9916 12.433 9.99994 12.433ZM9.99994 6.45801C8.69994 6.45801 7.6416 7.51636 7.6416 8.81636C7.6416 10.1247 8.69994 11.183 9.99994 11.183C11.2999 11.183 12.3583 10.1247 12.3583 8.81636C12.3583 7.51636 11.2999 6.45801 9.99994 6.45801Z" fill="#404040"/>
</svg>
