<svg width="75" height="37" viewBox="0 0 75 37" fill="none" xmlns="http://www.w3.org/2000/svg">
<g clip-path="url(#clip0_370_8406)">
<path d="M35.5363 19.9776C35.5363 20.1061 35.5049 20.2346 35.4107 20.2988C35.3164 20.3952 35.2221 20.4273 35.0964 20.4273H33.117V12.4941H32.1115V20.4594H29.6293V16.4768H28.6239V20.4594H26.3302V16.4768H25.2933V20.4594H22.9997V16.4768H21.9942V22.4829C21.9942 22.6113 21.9628 22.7398 21.8685 22.8362C21.7743 22.9325 21.68 22.9967 21.5858 22.9967H17.564C17.4383 22.9967 17.344 22.9325 17.2498 22.8362C17.1555 22.7398 17.1241 22.6113 17.1241 22.4829V17.4724H16.1187V22.4829C16.1187 22.9004 16.2758 23.2537 16.5585 23.5428C16.8413 23.8318 17.1869 23.9924 17.5954 23.9924H21.6172C21.9942 23.9924 22.3399 23.8318 22.6226 23.5428C22.9054 23.2537 23.0625 22.8683 23.0625 22.4829V21.5193H35.1593C35.5678 21.5193 35.882 21.3587 36.1962 21.0697C36.4789 20.7806 36.636 20.3952 36.636 19.9776V16.4768H35.6306V19.9776H35.5363Z" fill="#805EA3"/>
<path d="M42.48 23.4785C42.2914 23.4785 42.1658 23.5428 42.0401 23.6712C41.9144 23.7997 41.8516 23.9603 41.8516 24.1209C41.8516 24.3136 41.9144 24.4421 42.0401 24.5705C42.1658 24.699 42.2914 24.7632 42.48 24.7632C42.6371 24.7632 42.7942 24.699 42.9199 24.5705C43.0455 24.4421 43.077 24.3136 43.077 24.1209C43.077 23.9282 43.0141 23.7676 42.9199 23.6712C42.8256 23.5106 42.6685 23.4785 42.48 23.4785Z" fill="#805EA3"/>
<path d="M46.0305 18.6929H44.1453C44.0196 18.6929 43.9254 18.6608 43.8311 18.5645C43.7368 18.4681 43.7054 18.3717 43.7054 18.2433V17.5046C43.7054 17.3761 43.7368 17.2476 43.8311 17.1834C43.9254 17.087 44.0196 17.0549 44.1453 17.0549H47.0045V15.9629H44.1453C43.7683 15.9629 43.4226 16.1235 43.1084 16.4125C42.8257 16.7016 42.6686 17.087 42.6686 17.5046V18.2433C42.6686 18.6608 42.8257 19.0141 43.1084 19.3032C43.3912 19.5922 43.7368 19.7528 44.1453 19.7528H46.0305C46.1562 19.7528 46.2505 19.7849 46.3447 19.8813C46.439 19.9776 46.4704 20.074 46.4704 20.2025V21.4551C46.4704 21.5836 46.439 21.712 46.3447 21.8084C46.2505 21.9047 46.1562 21.969 46.0619 21.969H40.6262C40.5006 21.969 40.4063 21.9047 40.312 21.8084C40.2178 21.712 40.1864 21.5836 40.1864 21.4551V16.9585H39.1809V21.4551C39.1809 21.8726 39.338 22.2259 39.6208 22.515C39.9036 22.804 40.2492 22.9646 40.6577 22.9646H46.0934C46.4704 22.9646 46.816 22.804 47.0988 22.515C47.3816 22.2259 47.5387 21.8405 47.5387 21.4551V20.2346C47.5387 19.8171 47.3816 19.4638 47.0988 19.1747C46.7532 18.8535 46.4076 18.6929 46.0305 18.6929Z" fill="#805EA3"/>
<path d="M44.3652 23.4785C44.1767 23.4785 44.051 23.5428 43.9253 23.6712C43.7997 23.7997 43.7368 23.9603 43.7368 24.1209C43.7368 24.3136 43.7997 24.4421 43.9253 24.5705C44.051 24.699 44.1767 24.7632 44.3652 24.7632C44.5223 24.7632 44.6794 24.699 44.8051 24.5705C44.9308 24.4421 44.9622 24.3136 44.9622 24.1209C44.9622 23.9282 44.8994 23.7676 44.8051 23.6712C44.7108 23.5106 44.5537 23.4785 44.3652 23.4785Z" fill="#805EA3"/>
<path d="M51.969 15.9629H49.801V17.0549H51.969C52.0947 17.0549 52.1889 17.087 52.2832 17.1834C52.3775 17.2797 52.4089 17.3761 52.4089 17.5046V19.9776C52.4089 20.1061 52.3775 20.2346 52.2832 20.2988C52.1889 20.3952 52.0947 20.4273 51.969 20.4273H48.8584V21.5193H51.969C52.3775 21.5193 52.7231 21.3587 53.0059 21.0697C53.2886 20.7806 53.4457 20.3952 53.4457 19.9776V17.5046C53.4457 17.087 53.2886 16.7337 53.0059 16.4125C52.6917 16.1235 52.346 15.9629 51.969 15.9629Z" fill="#805EA3"/>
<path d="M73.9631 16.4763V19.9772C73.9631 20.1057 73.9316 20.2342 73.8374 20.2984C73.7431 20.3947 73.6489 20.4269 73.5232 20.4269H71.6694V16.4763H70.6639V20.459H68.3703V16.4763H67.3648V20.459H61.992V17.9859C61.992 17.8574 62.0234 17.729 62.1177 17.6647C62.2119 17.5684 62.3062 17.5362 62.4319 17.5362H64.8512V16.4442H62.4319C62.0548 16.4442 61.7092 16.6048 61.395 16.8939C61.1122 17.1829 60.9551 17.5684 60.9551 17.9859V20.4269H58.9442V17.472C58.9442 17.1829 58.85 16.9581 58.6614 16.7333C58.4729 16.5406 58.2216 16.4121 57.9702 16.4121H56.5563C56.0221 16.4121 55.5823 16.6048 55.2052 17.0224C54.8282 17.4078 54.6396 17.8895 54.6396 18.4355V19.913C54.6396 20.3305 54.7968 20.6838 55.0795 21.005C55.3623 21.2941 55.7079 21.4546 56.1164 21.4546H57.9702V22.4182C57.9702 22.5467 57.9388 22.6751 57.8445 22.7715C57.7503 22.8678 57.656 22.9321 57.5617 22.9321H55.3937V23.9599H57.5617C57.9388 23.9599 58.2844 23.7993 58.5986 23.5102C58.8814 23.2211 59.0385 22.8357 59.0385 22.4503V21.4868H73.6174C74.0259 21.4868 74.3715 21.3262 74.6543 21.0371C74.9371 20.748 75.0942 20.3626 75.0942 19.9451V16.4763H73.9631ZM55.6451 18.4998C55.6451 18.2428 55.7394 18.018 55.8965 17.8253C56.085 17.6326 56.3049 17.5362 56.5563 17.5362H57.9388V20.4269H56.085C55.9593 20.4269 55.865 20.3947 55.7708 20.2984C55.6765 20.202 55.6451 20.1057 55.6451 19.9772V18.4998Z" fill="#805EA3"/>
<path d="M34.4048 23.4785C34.2162 23.4785 34.0906 23.5428 33.9649 23.6712C33.8392 23.7997 33.7764 23.9603 33.7764 24.1209C33.7764 24.3136 33.8392 24.4421 33.9649 24.5705C34.0906 24.699 34.2162 24.7632 34.4048 24.7632C34.5619 24.7632 34.719 24.699 34.8447 24.5705C34.9703 24.4421 35.0018 24.3136 35.0018 24.1209C35.0018 23.9282 34.9389 23.7676 34.8447 23.6712C34.719 23.5106 34.5619 23.4785 34.4048 23.4785Z" fill="#805EA3"/>
<path d="M21.4913 28.296L20.8943 29.099C20.4544 28.7135 19.7318 28.4566 18.9777 28.4566C17.7837 28.4566 17.3124 29.1632 17.3124 29.8377C17.3124 30.2552 17.5009 30.6727 17.8466 30.9618C18.1608 31.2509 18.6949 31.4115 19.1348 31.5399C19.7318 31.7326 20.3916 31.9253 20.9572 32.4392C21.4285 32.8568 21.8369 33.5955 21.8369 34.3984C21.8369 35.6832 20.9257 37.0321 18.9777 37.0321C17.9723 37.0321 16.9982 36.6788 16.2441 36.0043L16.8725 35.2335C17.4381 35.7795 18.2236 36.0365 18.9777 36.0365C20.3288 36.0365 20.8315 35.1693 20.8315 34.3984C20.8315 33.9488 20.6115 33.467 20.2345 33.1458C19.8575 32.8247 19.3233 32.6641 18.6949 32.4714C18.1922 32.3108 17.6895 32.1502 17.1239 31.6684C16.684 31.283 16.307 30.6085 16.307 29.8698C16.307 28.5208 17.3124 27.4609 18.9463 27.4609C19.9517 27.4609 20.8629 27.7821 21.4913 28.296Z" fill="#4DB8A6"/>
<path d="M27.9953 36.2614C27.5869 36.7432 26.9584 37.0001 26.1729 37.0001C25.5445 37.0001 24.979 36.8716 24.5391 36.5505C24.0992 36.2293 23.7222 35.6512 23.7222 34.9446C23.7222 34.2058 24.0992 33.6598 24.5077 33.3387C25.1361 32.8569 25.8902 32.8569 26.4243 32.8569H27.524C27.524 32.4072 27.524 31.8612 27.2098 31.4758C26.9899 31.2189 26.6442 31.0583 26.1101 31.0583C25.5131 31.0583 24.9161 31.1867 24.382 31.4116L24.0992 30.5123C24.7276 30.2874 25.4189 30.0947 26.1415 30.0947C26.9584 30.0947 27.5554 30.3517 27.9639 30.8334C28.498 31.4758 28.498 32.3109 28.498 33.0496V34.0774C28.4666 35.0409 28.4666 35.6833 27.9953 36.2614ZM27.524 33.692H26.4243C25.9844 33.692 25.4817 33.692 25.1047 33.981C24.8533 34.1737 24.6648 34.4949 24.6648 34.9124C24.6648 35.2979 24.8533 35.619 25.1047 35.8117C25.356 36.0045 25.7331 36.0687 26.1729 36.0687C26.6757 36.0687 27.0527 35.9402 27.2727 35.6833C27.524 35.3621 27.524 34.9446 27.524 34.1095V33.692Z" fill="#4DB8A6"/>
<path d="M31.5772 30.1914V33.7886C31.5772 34.6558 31.5772 35.2661 31.9543 35.6515C32.1742 35.8763 32.5198 36.069 32.9597 36.069C33.3996 36.069 33.7452 35.9084 33.9652 35.6515C34.3422 35.2339 34.3422 34.6558 34.3422 33.7886V30.1914H35.2848V33.7886C35.2848 34.7843 35.2848 35.5872 34.6564 36.2938C34.3422 36.6471 33.7452 37.0004 32.9283 37.0004C32.1114 37.0004 31.5458 36.6471 31.2002 36.2938C30.5718 35.6194 30.5718 34.7843 30.5718 33.7886V30.1914H31.5772Z" fill="#4DB8A6"/>
<path d="M41.4118 30.962V27.5254H42.3544V33.6278C42.3544 34.6877 42.3544 35.3943 41.9145 36.0367C41.5374 36.5827 40.8776 36.9681 40.0293 36.9681C39.2123 36.9681 38.5839 36.6148 38.1755 36.1973C37.4214 35.3943 37.4214 34.3987 37.4214 33.5636C37.4214 32.6 37.4214 31.6686 38.0184 30.9299C38.3954 30.4481 39.0238 30.0948 39.8407 30.0948C40.4691 30.0948 41.0661 30.416 41.4118 30.962ZM41.0347 31.508C40.7833 31.219 40.4063 31.0263 39.9036 31.0263C39.4009 31.0263 38.9924 31.219 38.7725 31.508C38.364 31.9898 38.364 32.7606 38.364 33.5636C38.364 34.2702 38.364 35.0089 38.8353 35.5549C39.1181 35.9082 39.5894 36.0688 40.0293 36.0688C40.4377 36.0688 40.8462 35.9403 41.129 35.587C41.4432 35.1695 41.4432 34.5592 41.4432 33.8205C41.4118 32.7928 41.4118 31.9898 41.0347 31.508Z" fill="#4DB8A6"/>
<path d="M45.8105 28.4245C45.8105 28.8099 45.5277 29.099 45.1821 29.099C44.8365 29.099 44.5537 28.842 44.5537 28.4245C44.5537 28.0391 44.8365 27.75 45.1821 27.75C45.5592 27.7821 45.8105 28.0391 45.8105 28.4245ZM44.7108 30.191H45.6534V36.9036H44.7108V30.191Z" fill="#4DB8A6"/>
<path d="M56.9648 28.2962C57.6246 28.9065 57.876 29.8058 57.876 30.5445C57.876 31.2832 57.6246 32.1825 56.9648 32.7928C56.1479 33.5636 55.1424 33.5636 54.1056 33.5636H53.3829V36.8717H52.3774V29.7094C52.3774 29.0349 52.3774 28.4247 52.9116 27.9108C53.3515 27.5254 53.8542 27.5254 54.2941 27.5254C55.2367 27.5254 56.1479 27.5254 56.9648 28.2962ZM53.6028 28.6495C53.3829 28.8422 53.3829 29.1313 53.3829 29.7094V32.6H54.1056C55.111 32.6 55.7394 32.6 56.2735 32.1183C56.6506 31.765 56.8705 31.2511 56.8705 30.5766C56.8705 29.9021 56.6192 29.3561 56.2735 29.0349C55.7394 28.5532 55.1738 28.5532 54.2941 28.5532C53.9485 28.5211 53.7599 28.5211 53.6028 28.6495Z" fill="#4DB8A6"/>
<path d="M61.1123 27.5254H60.1697V36.9039H61.1123V27.5254Z" fill="#4DB8A6"/>
<path d="M64.38 30.1914V33.7886C64.38 34.6558 64.38 35.2661 64.757 35.6515C64.9769 35.8763 65.3226 36.069 65.7624 36.069C66.2023 36.069 66.548 35.9084 66.7679 35.6515C67.1449 35.2339 67.1449 34.6558 67.1449 33.7886V30.1914H68.0875V33.7886C68.0875 34.7843 68.0875 35.5872 67.4591 36.2938C67.1449 36.6471 66.548 37.0004 65.731 37.0004C64.9141 37.0004 64.3485 36.6471 64.0029 36.2938C63.3745 35.6194 63.3745 34.7843 63.3745 33.7886V30.1914H64.38Z" fill="#4DB8A6"/>
<path d="M73.9003 31.4117C73.3976 31.1547 72.832 31.0263 72.2979 31.0263C71.9523 31.0263 71.7323 31.0905 71.481 31.219C71.261 31.3474 71.1039 31.6044 71.1039 31.9256C71.1039 32.2146 71.261 32.4716 71.4495 32.6C71.7323 32.8249 71.9837 32.8891 72.4864 33.0176C72.9577 33.1139 73.3976 33.2424 73.7746 33.5315C74.1831 33.8526 74.5601 34.3665 74.5601 35.0731C74.5601 35.7155 74.2459 36.2294 73.8375 36.5506C73.429 36.8717 72.9263 37.0002 72.2979 37.0002C71.5752 37.0002 70.8211 36.8396 70.1299 36.5184L70.5069 35.6834C71.0411 35.9403 71.6695 36.1009 72.2979 36.1009C72.6749 36.1009 73.0205 36.0367 73.2719 35.844C73.5233 35.6513 73.6175 35.3622 73.6175 35.1374C73.6175 34.8162 73.4604 34.5592 73.2405 34.3665C72.9577 34.1417 72.6121 34.0454 72.1722 33.949C71.7323 33.8526 71.261 33.7242 70.8525 33.403C70.4441 33.0818 70.1299 32.5679 70.1299 31.9577C70.1299 31.3153 70.4755 30.8014 70.8525 30.5445C71.2296 30.2554 71.7009 30.127 72.2665 30.127C72.9577 30.127 73.6175 30.2875 74.2145 30.5766L73.9003 31.4117Z" fill="#4DB8A6"/>
<path d="M16.9355 5.97396H13.1336V1.9592C13.1336 0.867188 12.2853 0 11.2484 0H8.20064C7.16377 0 6.31543 0.867188 6.31543 1.9592V11.5946C6.31543 12.4297 6.97525 13.1042 7.76076 13.1042H16.904C17.9409 13.1042 18.7892 12.237 18.7892 11.145V7.93316C18.8207 6.84115 17.9723 5.97396 16.9355 5.97396ZM17.4382 11.145C17.4382 11.4661 17.2182 11.691 16.904 11.691H7.76076C7.72934 11.691 7.6665 11.6589 7.6665 11.5946V1.9592C7.6665 1.63802 7.88644 1.41319 8.20064 1.41319H11.2484C11.5312 1.41319 11.7511 1.67014 11.7511 1.9592V6.13455C11.7511 6.80903 12.2853 7.38715 12.9451 7.38715H16.904C17.1868 7.38715 17.4068 7.6441 17.4068 7.93316V11.145H17.4382Z" fill="#805EA3"/>
<path d="M11.9397 11.6918V8.44792C11.9397 7.77344 11.4055 7.19531 10.7457 7.19531H1.60243C0.722664 7.19531 0 7.96615 0 8.89757V12.1094C0 13.0408 0.722664 13.8116 1.60243 13.8116H5.56137C5.62422 13.8116 5.65563 13.8438 5.65563 13.908V18.0833C5.65563 19.0148 6.3783 19.7856 7.25807 19.7856H10.3058C11.1856 19.7856 11.9083 19.0148 11.9083 18.0833V13.105H11.0913V18.0833C11.0913 18.533 10.7457 18.9184 10.3058 18.9184H7.25807C6.81818 18.9184 6.47256 18.533 6.47256 18.0833V13.908C6.47256 13.362 6.0641 12.9444 5.52995 12.9444H1.60243C1.16255 12.9444 0.816925 12.559 0.816925 12.1094V8.89757C0.816925 8.44792 1.16255 8.0625 1.60243 8.0625H10.7457C10.9342 8.0625 11.0913 8.22309 11.0913 8.44792V11.6918H11.9397Z" fill="#4DB8A6"/>
<path d="M11.9397 11.6918V8.44792C11.9397 7.77344 11.4055 7.19531 10.7457 7.19531H1.60243C0.722664 7.19531 0 7.96615 0 8.89757V12.1094C0 13.0408 0.722664 13.8116 1.60243 13.8116H5.56137C5.62422 13.8116 5.65563 13.8438 5.65563 13.908V18.0833C5.65563 19.0148 6.3783 19.7856 7.25807 19.7856H10.3058C11.1856 19.7856 11.9083 19.0148 11.9083 18.0833V13.105H11.0913V18.0833C11.0913 18.533 10.7457 18.9184 10.3058 18.9184H7.25807C6.81818 18.9184 6.47256 18.533 6.47256 18.0833V13.908C6.47256 13.362 6.0641 12.9444 5.52995 12.9444H1.60243C1.16255 12.9444 0.816925 12.559 0.816925 12.1094V8.89757C0.816925 8.44792 1.16255 8.0625 1.60243 8.0625H10.7457C10.9342 8.0625 11.0913 8.22309 11.0913 8.44792V11.6918H11.9397Z" fill="black" fill-opacity="0.2"/>
</g>
<defs>
<clipPath id="clip0_370_8406">
<rect width="75" height="37" fill="white"/>
</clipPath>
</defs>
</svg>
