<svg width="20" height="20" viewBox="0 0 20 20" fill="none" xmlns="http://www.w3.org/2000/svg">
<path d="M9.99979 11.0834C9.89146 11.0834 9.78312 11.0584 9.68312 11.0001L2.3248 6.74175C2.0248 6.56675 1.92478 6.18339 2.09978 5.88339C2.27478 5.58339 2.64978 5.48337 2.95811 5.65837L9.99979 9.73339L16.9998 5.6834C17.2998 5.5084 17.6831 5.61675 17.8581 5.90841C18.0331 6.20841 17.9248 6.59172 17.6331 6.76672L10.3248 11.0001C10.2165 11.0501 10.1081 11.0834 9.99979 11.0834Z" fill="#404040"/>
<path d="M10 18.6335C9.65833 18.6335 9.375 18.3502 9.375 18.0085V10.4502C9.375 10.1085 9.65833 9.8252 10 9.8252C10.3417 9.8252 10.625 10.1085 10.625 10.4502V18.0085C10.625 18.3502 10.3417 18.6335 10 18.6335Z" fill="#404040"/>
<path d="M10 18.9587C9.26669 18.9587 8.54168 18.8003 7.96668 18.4836L3.51669 16.0087C2.30835 15.342 1.3667 13.7337 1.3667 12.3503V7.64197C1.3667 6.25864 2.30835 4.65868 3.51669 3.98368L7.96668 1.51699C9.10835 0.883659 10.8917 0.883659 12.0334 1.51699L16.4834 3.99197C17.6917 4.65863 18.6333 6.26698 18.6333 7.65031V12.3587C18.6333 13.742 17.6917 15.342 16.4834 16.017L12.0334 18.4836C11.4584 18.8003 10.7334 18.9587 10 18.9587ZM10 2.29199C9.47502 2.29199 8.95836 2.40032 8.57503 2.60866L4.12503 5.08363C3.32503 5.53363 2.6167 6.72531 2.6167 7.65031V12.3587C2.6167 13.2753 3.32503 14.4753 4.12503 14.9253L8.57503 17.4003C9.33336 17.8253 10.6667 17.8253 11.425 17.4003L15.875 14.9253C16.675 14.4753 17.3833 13.2837 17.3833 12.3587V7.65031C17.3833 6.73365 16.675 5.53363 15.875 5.08363L11.425 2.60866C11.0417 2.40032 10.525 2.29199 10 2.29199Z" fill="#404040"/>
<path d="M14.1667 11.6585C13.8251 11.6585 13.5417 11.3751 13.5417 11.0335V8.35014L5.94174 3.9668C5.64174 3.7918 5.54172 3.40845 5.71672 3.11679C5.89172 2.81679 6.26674 2.71677 6.56674 2.89177L14.4751 7.45847C14.6667 7.56681 14.7917 7.77511 14.7917 8.00011V11.0501C14.7917 11.3751 14.5084 11.6585 14.1667 11.6585Z" fill="#404040"/>
</svg>
