<svg width="31" height="30" viewBox="0 0 31 30" fill="none" xmlns="http://www.w3.org/2000/svg">
<path d="M26.7782 8.81373H21.1986V2.89053C21.1986 1.27941 19.9536 0 18.4319 0H13.959C12.4373 0 11.1923 1.27941 11.1923 2.89053V17.1062C11.1923 18.3383 12.1607 19.3334 13.3135 19.3334H26.7321C28.2537 19.3334 29.4988 18.0539 29.4988 16.4428V11.7043C29.5449 10.0931 28.2999 8.81373 26.7782 8.81373ZM27.516 16.4428C27.516 16.9167 27.1932 17.2484 26.7321 17.2484H13.3135C13.2674 17.2484 13.1751 17.201 13.1751 17.1062V2.89053C13.1751 2.41667 13.4979 2.08497 13.959 2.08497H18.4319C18.8469 2.08497 19.1697 2.46405 19.1697 2.89053V9.05066C19.1697 10.0458 19.9536 10.8987 20.9219 10.8987H26.7321C27.1471 10.8987 27.4698 11.2778 27.4698 11.7043V16.4428H27.516Z" fill="#979797"/>
<path d="M18.7308 17.2634V12.5588C18.7308 11.5806 17.9599 10.7422 17.0077 10.7422H3.81255C2.54291 10.7422 1.5 11.8601 1.5 13.2109V17.8689C1.5 19.2197 2.54291 20.3376 3.81255 20.3376H9.52591C9.6166 20.3376 9.66194 20.3842 9.66194 20.4774V26.5327C9.66194 27.8836 10.7049 29.0015 11.9745 29.0015H16.3729C17.6425 29.0015 18.6854 27.8836 18.6854 26.5327V19.3129H17.5065V26.5327C17.5065 27.1849 17.0077 27.7438 16.3729 27.7438H11.9745C11.3397 27.7438 10.8409 27.1849 10.8409 26.5327V20.4774C10.8409 19.6855 10.2514 19.08 9.48057 19.08H3.81255C3.17773 19.08 2.67895 18.521 2.67895 17.8689V13.2109C2.67895 12.5588 3.17773 11.9998 3.81255 11.9998H17.0077C17.2798 11.9998 17.5065 12.2327 17.5065 12.5588V17.2634H18.7308Z" fill="#979797"/>
</svg>
