<svg width="31" height="30" viewBox="0 0 31 30" fill="none" xmlns="http://www.w3.org/2000/svg">
<path d="M26.7782 8.81373H21.1987V2.89053C21.1987 1.27941 19.9537 0 18.432 0H13.9591C12.4374 0 11.1924 1.27941 11.1924 2.89053V17.1062C11.1924 18.3383 12.1607 19.3334 13.3135 19.3334H26.7321C28.2538 19.3334 29.4988 18.0539 29.4988 16.4428V11.7043C29.5449 10.0931 28.2999 8.81373 26.7782 8.81373ZM27.516 16.4428C27.516 16.9167 27.1932 17.2484 26.7321 17.2484H13.3135C13.2674 17.2484 13.1752 17.201 13.1752 17.1062V2.89053C13.1752 2.41667 13.498 2.08497 13.9591 2.08497H18.432C18.847 2.08497 19.1698 2.46405 19.1698 2.89053V9.05066C19.1698 10.0458 19.9537 10.8987 20.922 10.8987H26.7321C27.1471 10.8987 27.4699 11.2778 27.4699 11.7043V16.4428H27.516Z" fill="#805EA3"/>
<path d="M18.7308 17.2624V12.5578C18.7308 11.5796 17.9599 10.7412 17.0077 10.7412H3.81255C2.54291 10.7412 1.5 11.8591 1.5 13.2099V17.8679C1.5 19.2187 2.54291 20.3366 3.81255 20.3366H9.52591C9.6166 20.3366 9.66194 20.3832 9.66194 20.4764V26.5318C9.66194 27.8826 10.7049 29.0005 11.9745 29.0005H16.3729C17.6425 29.0005 18.6854 27.8826 18.6854 26.5318V19.3119H17.5065V26.5318C17.5065 27.1839 17.0077 27.7428 16.3729 27.7428H11.9745C11.3397 27.7428 10.8409 27.1839 10.8409 26.5318V20.4764C10.8409 19.6845 10.2514 19.079 9.48057 19.079H3.81255C3.17773 19.079 2.67895 18.52 2.67895 17.8679V13.2099C2.67895 12.5578 3.17773 11.9989 3.81255 11.9989H17.0077C17.2798 11.9989 17.5065 12.2318 17.5065 12.5578V17.2624H18.7308Z" fill="#4DB8A6"/>
</svg>
