<svg width="16" height="16" viewBox="0 0 16 16" fill="none" xmlns="http://www.w3.org/2000/svg">
<path d="M12.1667 1.33333L12.1667 6C12.1667 6.27333 11.9401 6.5 11.6667 6.5C11.3934 6.5 11.1667 6.27333 11.1667 6L11.1667 1.33333C11.1667 1.06 11.3934 0.833333 11.6667 0.833333C11.9401 0.833333 12.1667 1.06 12.1667 1.33333Z" fill="#9CA4AB"/>
<path d="M12.1667 12.667L12.1667 14.667C12.1667 14.9403 11.9401 15.167 11.6667 15.167C11.3934 15.167 11.1667 14.9403 11.1667 14.667L11.1667 12.667C11.1667 12.3937 11.3934 12.167 11.6667 12.167C11.9401 12.167 12.1667 12.3937 12.1667 12.667Z" fill="#9CA4AB"/>
<path d="M4.83325 1.33301L4.83325 3.33301C4.83325 3.60634 4.60659 3.83301 4.33325 3.83301C4.05992 3.83301 3.83325 3.60634 3.83325 3.33301L3.83325 1.33301C3.83325 1.05967 4.05992 0.833008 4.33325 0.833008C4.60659 0.833008 4.83325 1.05967 4.83325 1.33301Z" fill="#9CA4AB"/>
<path d="M4.83325 10.0003L4.83325 14.667C4.83325 14.9403 4.60659 15.167 4.33325 15.167C4.05992 15.167 3.83325 14.9403 3.83325 14.667L3.83325 10.0003C3.83325 9.72699 4.05992 9.50033 4.33325 9.50033C4.60659 9.50033 4.83325 9.72699 4.83325 10.0003Z" fill="#9CA4AB"/>
<path d="M14.1667 7.33366L14.1667 11.3337C14.1667 12.4803 13.4801 13.167 12.3334 13.167L11.0001 13.167C9.85341 13.167 9.16675 12.4803 9.16675 11.3337L9.16675 7.33366C9.16675 6.18699 9.85341 5.50033 11.0001 5.50033L12.3334 5.50033C13.4801 5.50033 14.1667 6.18699 14.1667 7.33366ZM10.1667 11.3337C10.1667 11.927 10.4067 12.167 11.0001 12.167L12.3334 12.167C12.9267 12.167 13.1667 11.927 13.1667 11.3337L13.1667 7.33366C13.1667 6.74033 12.9267 6.50033 12.3334 6.50033L11.0001 6.50033C10.4067 6.50033 10.1667 6.74033 10.1667 7.33366L10.1667 11.3337Z" fill="#9CA4AB"/>
<path d="M6.83325 4.66667L6.83325 8.66667C6.83325 9.81333 6.14659 10.5 4.99992 10.5L3.66659 10.5C2.51992 10.5 1.83325 9.81333 1.83325 8.66667L1.83325 4.66667C1.83325 3.52 2.51992 2.83333 3.66658 2.83333L4.99992 2.83333C6.14659 2.83333 6.83325 3.52 6.83325 4.66667ZM2.83325 8.66667C2.83325 9.26 3.07325 9.5 3.66659 9.5L4.99992 9.5C5.59325 9.5 5.83325 9.26 5.83325 8.66667L5.83325 4.66667C5.83325 4.07333 5.59325 3.83333 4.99992 3.83333L3.66659 3.83333C3.07325 3.83333 2.83325 4.07333 2.83325 4.66667L2.83325 8.66667Z" fill="#9CA4AB"/>
</svg>
