<svg width="215" height="197" viewBox="0 0 215 197" fill="none" xmlns="http://www.w3.org/2000/svg">
<g filter="url(#filter0_d_1_1091)">
<path d="M148.41 117.096L119.668 123.516L90.9267 130.07L89.4493 131.408L43.919 171L8.86472 82.1848L59.9016 39.6498L61.5133 39.2485L91.3296 32.4268L125.712 24.4014L148.41 117.096Z" fill="url(#paint0_linear_1_1091)"/>
<path d="M16.9232 84.325L62.9907 45.8027L120.743 32.4269L140.218 112.013L87.8376 123.917L46.6051 159.764L16.9232 84.325Z" fill="white"/>
<mask id="mask0_1_1091" style="mask-type:luminance" maskUnits="userSpaceOnUse" x="16" y="32" width="125" height="128">
<path d="M16.9232 84.325L62.9907 45.8027L120.743 32.4269L140.218 112.013L87.8376 123.917L46.6051 159.764L16.9232 84.325Z" fill="white"/>
</mask>
<g mask="url(#mask0_1_1091)">
<path d="M4.83546 123.115L4.16393 121.911L46.8737 98.9045L59.0957 30.0192L83.2711 29.0829L83.5397 29.3504L114.699 63.3249L153.648 73.758L153.245 74.9619L114.028 64.5287L113.893 64.395L82.7339 30.4205L60.1702 31.3568L48.0825 99.7071L4.83546 123.115Z" fill="#EAEAEA"/>
<path d="M151.096 131.541L84.6139 105.057L17.1915 130.471L16.6543 129.134L84.6139 103.72H84.8825L151.633 130.338L151.096 131.541Z" fill="#EAEAEA"/>
<path d="M150.962 124.854L98.7163 93.153L108.789 78.0383L155.528 87.6689L155.26 89.0065L109.327 79.5097L100.597 92.7517L151.634 123.784L150.962 124.854Z" fill="#D3D1D3"/>
<path d="M8.73039 102.248L8.19316 101.045L29.4138 93.1528C33.443 91.6814 36.3978 88.07 37.2036 83.7897L44.5905 40.9872L45.9336 41.2547L37.2036 91.6815L8.73039 102.248Z" fill="#D3D1D3"/>
<path d="M54.8957 115.748L53.5529 115.774L54.4287 161.243L55.7716 161.217L54.8957 115.748Z" fill="#EAEAEA"/>
<path d="M70.8829 109.77L69.545 109.886L73.3732 153.326L74.7112 153.209L70.8829 109.77Z" fill="#EAEAEA"/>
<path d="M83.9421 104.522L78.1669 82.4522L107.849 56.9044L108.789 57.9745L79.6443 82.8535L85.2852 104.255L83.9421 104.522Z" fill="#EAEAEA"/>
<path d="M64.0175 21.726L62.7164 22.0579L78.3443 82.8268L79.6454 82.495L64.0175 21.726Z" fill="#EAEAEA"/>
<path d="M124.965 81.8193L112.751 100.873L113.883 101.593L126.097 82.5391L124.965 81.8193Z" fill="#D3D1D3"/>
<path d="M139.66 84.9856L125.536 108.679L126.691 109.362L140.815 85.6685L139.66 84.9856Z" fill="#D3D1D3"/>
<path d="M71.4504 125.409L54.3973 130.236L54.7645 131.523L71.8176 126.695L71.4504 125.409Z" fill="#EAEAEA"/>
<path d="M74.6285 29.8664L73.4217 30.4536L92.9968 70.3539L94.2035 69.7667L74.6285 29.8664Z" fill="#D3D1D3"/>
<path d="M59.7673 45.1337L51.1716 97.7006L77.6302 101.58L65.4082 42.8599L59.7673 45.1337Z" fill="#F2F2F2"/>
<path d="M97.3733 28.9491L108.386 50.0829L134.039 46.3377L130.95 24.4014" fill="#F2F2F2"/>
<path d="M141.963 50.0829L113.356 53.4268L118.191 59.7135L148.41 67.0701" fill="#F2F2F2"/>
<path d="M109.998 82.1848L103.82 92.3504L112.013 97.7007L120.34 85.2612L109.998 82.1848Z" fill="#D3D1D3"/>
<path d="M127.19 85.2612L118.325 100.51L124.906 105.057L135.517 87.4014L127.19 85.2612Z" fill="#D3D1D3"/>
<path d="M76.9584 137.561L75.0781 114.956L85.1511 110.006L92.5381 133.548" fill="#F2F2F2"/>
<path d="M94.4186 128.465L88.1062 111.611L89.7179 110.541L114.162 122.58V134.083" fill="#F2F2F2"/>
<path d="M31.5625 130.739L45.9335 124.987C47.8138 124.185 49.9627 125.656 49.9627 127.662V128.866C49.9627 129.936 49.2911 131.006 48.351 131.541L34.6516 138.363" fill="url(#paint1_linear_1_1091)"/>
<path d="M31.5625 141.439L45.9335 135.688C47.8138 134.885 49.9627 136.357 49.9627 138.363V139.567C49.9627 140.637 49.2911 141.707 48.351 142.242L34.6516 149.064" fill="url(#paint2_linear_1_1091)"/>
<path d="M31.5625 152.14L45.9335 146.389C47.8138 145.586 49.9627 147.057 49.9627 149.064V150.268C49.9627 151.338 49.2911 152.408 48.351 152.943L34.6516 159.764" fill="url(#paint3_linear_1_1091)"/>
<path d="M16.2514 92.6179L27.3989 89.5415C29.4135 89.0065 30.7566 87.0001 30.6223 84.86L29.1449 70.6816C28.8763 68.0065 26.3244 66.2676 23.7726 66.9364C15.7141 68.9428 0.537367 72.688 -0.134171 72.9555" fill="url(#paint4_linear_1_1091)"/>
</g>
<path d="M139.009 119.102L90.9269 130.07L89.4495 131.408L61.5135 39.2486L106.91 28.6818C113.088 49.2805 129.876 90.8792 139.009 119.102Z" fill="url(#paint5_linear_1_1091)"/>
<path d="M120.878 23.4651C120.878 28.6816 118.863 33.8982 114.834 37.9109L110.267 42.4587L100.194 52.4905L85.6889 37.9109C77.6305 29.8854 77.6305 16.9109 85.6889 8.88544C89.7182 4.8727 94.9561 2.86633 100.194 2.86633C103.686 2.86633 107.044 3.66888 110.133 5.40773C111.745 6.34404 113.356 7.4141 114.699 8.88544C118.863 13.0319 120.878 18.2485 120.878 23.4651Z" fill="url(#paint6_linear_1_1091)"/>
<path d="M120.878 23.4652C120.878 28.6817 118.863 33.8983 114.834 37.911L110.267 42.4588L105.701 37.911C97.6424 29.8855 97.6424 16.911 105.701 8.88554C107.044 7.54796 108.656 6.34414 110.267 5.40784C111.879 6.34414 113.491 7.41421 114.834 8.88554C118.863 13.032 120.878 18.2486 120.878 23.4652Z" fill="url(#paint7_linear_1_1091)"/>
<path d="M100.194 31.0892C104.126 31.0892 107.313 27.9153 107.313 24.0001C107.313 20.0848 104.126 16.9109 100.194 16.9109C96.263 16.9109 93.076 20.0848 93.076 24.0001C93.076 27.9153 96.263 31.0892 100.194 31.0892Z" fill="white"/>
<path d="M149.485 149.064L120.877 135.822C117.654 134.35 116.177 130.471 117.654 127.261L147.202 63.86C148.679 60.6498 152.574 59.1785 155.797 60.6498L184.405 73.8919C187.628 75.3632 189.106 79.2422 187.628 82.4524L158.081 145.854C156.603 149.198 152.708 150.535 149.485 149.064Z" fill="url(#paint8_linear_1_1091)"/>
<path d="M147.201 148.128L118.594 134.886C115.37 133.414 113.893 129.535 115.37 126.325L144.918 62.9237C146.395 59.7135 150.29 58.2422 153.514 59.7135L182.121 72.9556C185.345 74.4269 186.822 78.3059 185.345 81.5161L155.797 144.917C154.32 148.128 150.559 149.599 147.201 148.128Z" fill="url(#paint9_linear_1_1091)"/>
<path d="M161.706 70.2805L156.737 80.8474C155.394 83.6563 152.171 84.8601 149.35 83.5226L140.755 79.6436L145.724 69.0767C147.067 66.2678 150.29 65.064 153.111 66.4015L161.706 70.2805Z" fill="url(#paint10_linear_1_1091)"/>
<path d="M161.706 70.2805L156.737 80.8474C155.394 83.6563 152.171 84.8601 149.35 83.5226L140.755 79.6436L145.724 69.0767C147.067 66.2678 150.29 65.064 153.111 66.4015L161.706 70.2805Z" fill="url(#paint11_linear_1_1091)"/>
<path opacity="0.58" d="M172.988 100.242L154.991 138.764C153.648 141.573 150.425 142.777 147.604 141.44L138.74 137.293L156.737 98.7708C158.08 95.9619 161.304 94.758 164.124 96.0956L172.988 100.242Z" fill="url(#paint12_linear_1_1091)"/>
<path d="M147.202 101.178L148.813 105.325L156.603 102.516" stroke="white" stroke-width="2.97134" stroke-miterlimit="10" stroke-linecap="round" stroke-linejoin="round"/>
<path d="M160.174 107.38C162.577 102.219 160.325 96.0962 155.143 93.7032C149.962 91.3101 143.813 93.5535 141.41 98.7138C139.008 103.874 141.26 109.997 146.442 112.39C151.623 114.783 157.772 112.54 160.174 107.38Z" stroke="white" stroke-width="2.97134" stroke-miterlimit="10" stroke-linecap="round" stroke-linejoin="round"/>
<path d="M160.767 67.3376C161.212 67.3376 161.573 66.9783 161.573 66.5351C161.573 66.0919 161.212 65.7325 160.767 65.7325C160.322 65.7325 159.961 66.0919 159.961 66.5351C159.961 66.9783 160.322 67.3376 160.767 67.3376Z" fill="url(#paint13_linear_1_1091)"/>
<path d="M171.78 72.5543L163.05 68.5415C162.647 68.4078 162.513 67.8727 162.647 67.4715C162.781 67.0702 163.318 66.9364 163.721 67.0702L172.451 71.0829C172.854 71.2167 172.989 71.7517 172.854 72.153C172.72 72.5543 172.183 72.688 171.78 72.5543Z" fill="url(#paint14_linear_1_1091)"/>
<path d="M44.3219 24.4014C46.8439 24.4014 48.8884 22.3653 48.8884 19.8537C48.8884 17.342 46.8439 15.3059 44.3219 15.3059C41.7999 15.3059 39.7555 17.342 39.7555 19.8537C39.7555 22.3653 41.7999 24.4014 44.3219 24.4014Z" fill="url(#paint15_linear_1_1091)"/>
<path d="M188.434 135.955C190.956 135.955 193 133.919 193 131.408C193 128.896 190.956 126.86 188.434 126.86C185.912 126.86 183.867 128.896 183.867 131.408C183.867 133.919 185.912 135.955 188.434 135.955Z" fill="url(#paint16_linear_1_1091)"/>
<path d="M155.26 41.2549L157.812 40.1848C158.483 39.9173 158.752 39.1148 158.483 38.446C158.215 37.7772 157.409 37.5097 156.737 37.7772L154.186 38.8472L153.111 36.3058C152.842 35.6371 152.037 35.3695 151.365 35.6371C150.694 35.9046 150.425 36.7071 150.694 37.3759L151.768 39.9173L149.216 40.9874C148.545 41.2549 148.276 42.0574 148.545 42.7262C148.679 43.1275 148.948 43.2613 149.216 43.395C149.485 43.5288 149.888 43.5288 150.291 43.395L152.842 42.325L153.917 44.8664C154.051 45.2676 154.32 45.4014 154.588 45.5351C154.857 45.6689 155.26 45.6689 155.663 45.5351C156.334 45.2676 156.603 44.4651 156.334 43.7963L155.26 41.2549Z" fill="url(#paint17_linear_1_1091)"/>
</g>
<defs>
<filter id="filter0_d_1_1091" x="-6" y="0.866333" width="221" height="196.134" filterUnits="userSpaceOnUse" color-interpolation-filters="sRGB">
<feFlood flood-opacity="0" result="BackgroundImageFix"/>
<feColorMatrix in="SourceAlpha" type="matrix" values="0 0 0 0 0 0 0 0 0 0 0 0 0 0 0 0 0 0 127 0" result="hardAlpha"/>
<feOffset dx="8" dy="12"/>
<feGaussianBlur stdDeviation="7"/>
<feComposite in2="hardAlpha" operator="out"/>
<feColorMatrix type="matrix" values="0 0 0 0 0 0 0 0 0 0 0 0 0 0 0 0 0 0 0.25 0"/>
<feBlend mode="normal" in2="BackgroundImageFix" result="effect1_dropShadow_1_1091"/>
<feBlend mode="normal" in="SourceGraphic" in2="effect1_dropShadow_1_1091" result="shape"/>
</filter>
<linearGradient id="paint0_linear_1_1091" x1="40.5303" y1="195.734" x2="105.45" y2="30.7162" gradientUnits="userSpaceOnUse">
<stop offset="6.8e-07" stop-color="#B9A5FF"/>
<stop offset="1" stop-color="#C3F1FF"/>
</linearGradient>
<linearGradient id="paint1_linear_1_1091" x1="15.0348" y1="132.763" x2="57.4685" y2="130.888" gradientUnits="userSpaceOnUse">
<stop offset="5.4e-07" stop-color="#51C991"/>
<stop offset="1" stop-color="#C5FFC3"/>
</linearGradient>
<linearGradient id="paint2_linear_1_1091" x1="15.4991" y1="143.379" x2="57.9328" y2="141.504" gradientUnits="userSpaceOnUse">
<stop offset="5.4e-07" stop-color="#51C991"/>
<stop offset="1" stop-color="#C5FFC3"/>
</linearGradient>
<linearGradient id="paint3_linear_1_1091" x1="15.9659" y1="154.055" x2="58.3998" y2="152.18" gradientUnits="userSpaceOnUse">
<stop offset="5.4e-07" stop-color="#51C991"/>
<stop offset="1" stop-color="#C5FFC3"/>
</linearGradient>
<linearGradient id="paint4_linear_1_1091" x1="11.8306" y1="61.7632" x2="24.762" y2="108.234" gradientUnits="userSpaceOnUse">
<stop offset="5.4e-07" stop-color="#51C991"/>
<stop offset="1" stop-color="#C5FFC3"/>
</linearGradient>
<linearGradient id="paint5_linear_1_1091" x1="12.6066" y1="107.28" x2="118.142" y2="73.2183" gradientUnits="userSpaceOnUse">
<stop offset="5.4e-07" stop-color="#00008B"/>
<stop offset="1" stop-color="white" stop-opacity="0"/>
</linearGradient>
<linearGradient id="paint6_linear_1_1091" x1="98.2824" y1="-8.42431" x2="104.744" y2="97.7782" gradientUnits="userSpaceOnUse">
<stop offset="5.4e-07" stop-color="#4DB8A6"/>
<stop offset="1" stop-color="#3FE9CC"/>
</linearGradient>
<linearGradient id="paint7_linear_1_1091" x1="49.0931" y1="-29.6065" x2="143.172" y2="53.1936" gradientUnits="userSpaceOnUse">
<stop offset="5.4e-07" stop-color="#4DB8A6"/>
<stop offset="1" stop-color="#6BE7D2"/>
</linearGradient>
<linearGradient id="paint8_linear_1_1091" x1="133.837" y1="35.1634" x2="160.09" y2="133.452" gradientUnits="userSpaceOnUse">
<stop offset="6.8e-07" stop-color="#6D5EB7"/>
<stop offset="1" stop-color="#453777"/>
</linearGradient>
<linearGradient id="paint9_linear_1_1091" x1="165.598" y1="55.994" x2="130.5" y2="167.737" gradientUnits="userSpaceOnUse">
<stop offset="6.8e-07" stop-color="#6D5EB7"/>
<stop offset="1" stop-color="#453777"/>
</linearGradient>
<linearGradient id="paint10_linear_1_1091" x1="147.166" y1="25.9479" x2="151.049" y2="72.7436" gradientUnits="userSpaceOnUse">
<stop offset="5.4e-07" stop-color="#4DB8A6"/>
<stop offset="1" stop-color="#92F7E6"/>
</linearGradient>
<linearGradient id="paint11_linear_1_1091" x1="147.166" y1="25.9479" x2="151.049" y2="72.7436" gradientUnits="userSpaceOnUse">
<stop offset="5.4e-07" stop-color="#7F5DA2"/>
<stop offset="1" stop-color="#8564A6"/>
</linearGradient>
<linearGradient id="paint12_linear_1_1091" x1="149.22" y1="-6.19542" x2="164.511" y2="111.954" gradientUnits="userSpaceOnUse">
<stop offset="5.4e-07" stop-color="#7F5DA2"/>
<stop offset="1" stop-color="#8564A6"/>
</linearGradient>
<linearGradient id="paint13_linear_1_1091" x1="161.644" y1="55.4676" x2="160.367" y2="71.6264" gradientUnits="userSpaceOnUse">
<stop offset="6.8e-07" stop-color="#6D5EB7"/>
<stop offset="1" stop-color="#453777"/>
</linearGradient>
<linearGradient id="paint14_linear_1_1091" x1="170.501" y1="35.5341" x2="166.556" y2="85.4888" gradientUnits="userSpaceOnUse">
<stop offset="6.8e-07" stop-color="#6D5EB7"/>
<stop offset="1" stop-color="#453777"/>
</linearGradient>
<linearGradient id="paint15_linear_1_1091" x1="44.1645" y1="41.8409" x2="44.3912" y2="14.7479" gradientUnits="userSpaceOnUse">
<stop offset="6.8e-07" stop-color="#7F5DA2"/>
<stop offset="1" stop-color="#D2A6FF"/>
</linearGradient>
<linearGradient id="paint16_linear_1_1091" x1="188.434" y1="126.86" x2="188.434" y2="135.955" gradientUnits="userSpaceOnUse">
<stop stop-color="#46CFB8"/>
<stop offset="1" stop-color="#B1ECE2"/>
</linearGradient>
<linearGradient id="paint17_linear_1_1091" x1="148.773" y1="51.0464" x2="155.934" y2="34.9545" gradientUnits="userSpaceOnUse">
<stop offset="5.4e-07" stop-color="#7BB8EF"/>
<stop offset="1" stop-color="#E3FBFF"/>
</linearGradient>
</defs>
</svg>
