<svg width="43" height="44" viewBox="0 0 43 44" fill="none" xmlns="http://www.w3.org/2000/svg">
<g clip-path="url(#clip0_370_7825)">
<path d="M26.5718 3.98234L27.1294 4.12764C27.1541 4.13436 27.1767 4.13044 27.1975 4.11588L28.1641 3.46416C28.1681 3.46137 28.1713 3.45768 28.1736 3.45342C28.1759 3.44916 28.1771 3.44444 28.1772 3.43967C28.1773 3.43489 28.1762 3.4302 28.1741 3.42599C28.1719 3.42177 28.1688 3.41816 28.165 3.41545C27.4634 2.90482 26.6664 2.55573 25.7739 2.36816" stroke="#686C6E" stroke-width="2"/>
<path d="M25.7741 2.3679C25.3424 2.25816 24.8797 2.18454 24.3859 2.14702C23.8377 2.10447 23.2887 2.08292 22.7389 2.08236C19.9568 2.07732 17.1741 2.07536 14.3909 2.07648C14.3545 2.07648 14.3363 2.09467 14.3363 2.13107L14.3354 3.45802C14.3354 3.49273 14.3528 3.51037 14.3875 3.51093C17.2497 3.51485 20.1105 3.51317 22.9699 3.50589C24.116 3.50309 25.3167 3.66182 26.572 3.98208" stroke="#7B7B7B" stroke-width="2"/>
<path d="M25.7739 2.36816C25.9576 2.50534 26.1356 2.63579 26.3081 2.75953C26.532 2.92078 26.6686 3.06523 26.7179 3.19289C26.8103 3.43141 26.7616 3.69456 26.5718 3.98234" stroke="#E2E7E9" stroke-width="2"/>
<path d="M18.0996 6.37443L19.466 6.37275C19.494 6.37275 19.5114 6.35904 19.5181 6.3316L19.8515 5.00213C19.8594 4.96966 19.8465 4.95342 19.8129 4.95342L18.4507 4.94922" stroke="#686C6E" stroke-width="2"/>
<path d="M18.4507 4.94922L16.0269 4.95174C15.9894 4.95174 15.9751 4.96993 15.984 5.00633L16.3116 6.31984C16.3205 6.35568 16.3435 6.37359 16.3804 6.37359L18.0996 6.37443" stroke="#7B7B7B" stroke-width="2"/>
<path d="M18.4507 4.94922L18.0996 6.37443" stroke="#E2E7E9" stroke-width="2"/>
<path d="M18.6334 7.83729C18.6334 7.82993 18.6305 7.82289 18.6253 7.81769C18.6201 7.81249 18.613 7.80957 18.6057 7.80957H17.225C17.2176 7.80957 17.2106 7.81249 17.2054 7.81769C17.2002 7.82289 17.1973 7.82993 17.1973 7.83729V10.6524C17.1973 10.6598 17.2002 10.6668 17.2054 10.672C17.2106 10.6772 17.2176 10.6802 17.225 10.6802H18.6057C18.613 10.6802 18.6201 10.6772 18.6253 10.672C18.6305 10.6668 18.6334 10.6598 18.6334 10.6524V7.83729Z" stroke="#686C6E" stroke-width="2"/>
<path d="M20.7744 14.2615L22.1669 14.2623C22.2016 14.2623 22.2187 14.2447 22.2181 14.2094C22.2114 13.7755 22.2114 13.343 22.2181 12.9118C22.2209 12.7495 22.1918 12.6106 22.1308 12.4953C21.9435 12.14 21.6596 12.1115 21.2447 12.109C21.042 12.1078 20.8363 12.1084 20.6274 12.1106" stroke="#686C6E" stroke-width="2"/>
<path d="M20.6274 12.1113C18.591 12.1085 16.548 12.1088 14.4982 12.1121C14.3196 12.1127 14.1771 12.1309 14.0707 12.1667C13.7423 12.2784 13.6071 12.6009 13.613 12.9394C13.6203 13.4102 13.6211 13.8405 13.6155 14.2302C13.6154 14.2344 13.6161 14.2385 13.6176 14.2424C13.6191 14.2462 13.6214 14.2498 13.6243 14.2527C13.6272 14.2557 13.6307 14.2581 13.6345 14.2597C13.6383 14.2613 13.6424 14.2621 13.6466 14.2621H20.7743" stroke="#7B7B7B" stroke-width="2"/>
<path d="M20.6274 12.1113C20.7209 12.3963 20.7713 12.5914 20.7786 12.6967C20.7976 12.9822 20.7962 13.5041 20.7744 14.2622" stroke="#E2E7E9" stroke-width="2"/>
<path d="M20.4985 42.2096L21.5256 42.2122C21.5648 42.2122 21.5707 42.1985 21.5432 42.171C20.8423 41.4689 20.3862 40.6296 20.1751 39.6532C20.0979 39.2971 20.0604 38.78 20.0626 38.102C20.0721 34.943 20.0735 31.818 20.0668 28.7268C20.0646 27.6871 20.5382 26.9693 21.4878 26.5734C21.5141 26.5622 21.5256 26.5426 21.5222 26.5146C21.4248 25.6614 21.6631 24.9259 22.2369 24.3084C22.3937 24.1387 22.5919 23.9503 22.8316 23.7432" stroke="#7B3E00" stroke-width="2"/>
<path d="M22.8313 23.743C23.2081 23.4905 23.6504 23.2842 24.1583 23.124" stroke="#804C01" stroke-width="2"/>
<path d="M24.1582 23.1236L25.2358 22.8658C25.2397 22.8648 25.2434 22.863 25.2466 22.8604C25.2498 22.8578 25.2524 22.8545 25.2541 22.8508C25.2559 22.8471 25.2568 22.8431 25.2568 22.839C25.2568 22.8349 25.256 22.8309 25.2542 22.8271C24.7596 21.7303 24.9662 20.6234 25.7002 19.6727C26.1965 19.0294 26.8466 18.5297 27.5067 18.0526C27.5109 18.0496 27.5142 18.0456 27.5166 18.041C27.5189 18.0364 27.5201 18.0313 27.5201 18.0262C27.5201 18.021 27.5189 18.0159 27.5166 18.0113C27.5142 18.0067 27.5109 18.0028 27.5067 17.9997C26.1557 17.0216 24.6761 16.2792 23.0681 15.7725" stroke="#7B3E00" stroke-width="2"/>
<path d="M23.068 15.7726C22.9533 15.7211 22.8435 15.6953 22.7388 15.6953C19.5127 15.6981 16.2863 15.702 13.0596 15.7071C13.0025 15.7071 12.946 15.7157 12.89 15.7331C10.5574 16.4671 8.51663 17.6284 6.76751 19.2168C3.56267 22.1268 1.66042 26.1539 1.4513 30.4833C1.29901 33.6389 1.95157 36.5749 3.40898 39.2916C3.64749 39.7356 3.85465 40.0667 4.03046 40.2851C5.06235 41.5673 6.40638 42.21 8.06255 42.2134C10.0463 42.2179 14.1915 42.2165 20.4981 42.2092" stroke="#804C01" stroke-width="2"/>
<path d="M23.0681 15.7725C23.2428 15.9102 23.4326 16.0283 23.6375 16.1269C24.0177 16.3088 24.2179 16.4057 24.238 16.4175C25.0314 16.8659 25.785 17.3749 26.4989 17.9443C26.5325 17.9712 26.5333 17.9992 26.5014 18.0283C26.1419 18.3536 25.7769 18.6467 25.4062 18.9076C24.7839 19.346 24.1213 19.954 23.7912 20.615C23.3495 21.5002 23.4718 22.3364 24.1582 23.1236" stroke="#FA8A01" stroke-width="2"/>
<path d="M22.8315 23.7432C22.1008 23.8176 21.4972 24.0349 21.0208 24.3949C20.1177 25.0785 19.8567 25.9783 20.238 27.0941C20.2408 27.1021 20.2415 27.1107 20.2402 27.119C20.2389 27.1274 20.2356 27.1353 20.2305 27.1421C20.2255 27.1488 20.2189 27.1543 20.2113 27.1579C20.2036 27.1616 20.1952 27.1633 20.1868 27.163C19.3545 27.1345 18.6348 27.7358 18.6356 28.5697C18.6378 31.9252 18.6376 35.2812 18.6348 38.6378C18.6336 40.0549 19.2549 41.2455 20.4984 42.2096" stroke="#FA8A01" stroke-width="2"/>
<path d="M30.4519 16.3359C30.2643 17.2004 29.8363 17.9274 29.1678 18.517C28.6812 18.9465 28.2756 19.2796 27.9508 19.5164C27.1051 20.1337 25.9612 21.1684 26.6247 22.3408C26.6282 22.3467 26.6336 22.3512 26.6401 22.3535C26.6465 22.3558 26.6536 22.3557 26.66 22.3534C27.7383 21.9447 28.6269 21.2961 29.3256 20.4075C29.7489 19.8683 30.5417 20.1035 30.6173 20.7678C30.6484 21.0424 30.4922 21.2633 30.3251 21.4615C29.8945 21.9727 29.4108 22.4046 28.8738 22.7574C27.6661 23.5513 26.3641 24.1042 24.9677 24.4161C24.5394 24.5113 24.2183 24.6143 24.0044 24.7251C23.6718 24.8976 23.3899 25.1378 23.1587 25.4457C22.9739 25.691 22.9036 26.0079 22.9479 26.3964C22.9518 26.4278 22.9697 26.4435 23.0016 26.4435L38.6521 26.4451" stroke="#80761D" stroke-width="2"/>
<path d="M38.6522 26.4452L39.9834 26.4435C40.0545 26.4435 40.0811 26.4091 40.0632 26.3402C39.7491 25.1135 39.0374 24.2806 37.9283 23.8417C37.9048 23.8322 37.8846 23.8369 37.8678 23.856L37.5823 24.1826" stroke="#7F6C1A" stroke-width="2"/>
<path d="M37.5824 24.1832C37.3265 24.4531 37.0429 24.6938 36.7316 24.9055C36.0941 25.3388 35.3232 24.6938 35.66 24.0136C35.7092 23.9139 35.8072 23.812 35.9539 23.7078C36.1079 23.5975 36.2579 23.4733 36.4041 23.335" stroke="#80761D" stroke-width="2"/>
<path d="M36.4039 23.3344C36.8658 22.9044 37.1387 22.3599 37.2227 21.7009C37.3017 21.0828 37.1421 20.5372 36.744 20.064C36.2205 19.4409 35.5999 18.8953 34.8821 18.4272C33.5663 17.57 32.1142 16.8253 30.5258 16.1932C30.4973 16.182 30.4771 16.1907 30.4653 16.2192C30.4457 16.2674 30.4413 16.3063 30.4519 16.336" stroke="#7F6C1A" stroke-width="2"/>
<path d="M36.4041 23.3344C36.1113 23.1625 35.8039 23.0407 35.482 22.969C35.4478 22.9612 35.4386 22.9419 35.4543 22.9111C35.7742 22.2778 35.9288 21.4304 35.7339 20.7342C35.4593 19.7533 34.5388 18.8571 33.72 18.2583C32.701 17.512 31.6117 16.8712 30.4521 16.3359" stroke="#FEE237" stroke-width="2"/>
<path d="M37.5823 24.1826C37.8219 24.5079 37.9739 24.7193 38.0383 24.8167C38.3412 25.2747 38.5459 25.8175 38.6522 26.4452" stroke="#FEE237" stroke-width="2"/>
<path d="M40.1378 30.7463H41.5361C41.5442 30.7463 41.552 30.7431 41.5578 30.7375C41.5636 30.7318 41.567 30.7241 41.5672 30.716C41.5728 30.0229 41.572 29.3421 41.5647 28.6735C41.5608 28.3275 41.4401 28.0938 41.2027 27.9723C40.8987 27.8169 40.3343 27.8757 39.948 27.8782" stroke="#141B4A" stroke-width="2"/>
<path d="M39.9482 27.8779C34.0922 27.8751 28.2329 27.8754 22.3702 27.8787C22.1899 27.8787 22.0466 27.8986 21.9402 27.9384C21.5783 28.0727 21.4875 28.4229 21.4934 28.8051C21.5041 29.4546 21.5055 30.0889 21.4976 30.7082C21.4975 30.713 21.4984 30.7178 21.5001 30.7222C21.5019 30.7267 21.5045 30.7308 21.5079 30.7342C21.5113 30.7377 21.5153 30.7404 21.5197 30.7423C21.5242 30.7442 21.5289 30.7451 21.5337 30.7451L40.138 30.746" stroke="#20295B" stroke-width="2"/>
<path d="M39.948 27.8779C40.0639 28.117 40.1221 28.3054 40.1227 28.4431C40.1238 29.2085 40.1288 29.9761 40.1378 30.746" stroke="#3443A4" stroke-width="2"/>
<path d="M38.27 42.2101C38.4274 42.1804 38.5754 42.1496 38.7143 42.1177C39.754 41.8797 40.5292 41.3364 41.0398 40.4876C41.4043 39.8812 41.5698 39.2345 41.5698 38.5366C41.5703 36.4605 41.5703 34.3584 41.5698 32.2302C41.5698 32.2017 41.5555 32.1874 41.5269 32.1874L40.132 32.1807" stroke="#023C5E" stroke-width="2"/>
<path d="M40.1319 32.1807L21.547 32.1832C21.5151 32.1832 21.4991 32.1991 21.4991 32.2311C21.5008 34.3525 21.5005 36.4457 21.4983 38.5106C21.4972 39.5956 21.8661 40.4954 22.6052 41.2098C23.2695 41.8523 24.1791 42.2109 25.0903 42.2126C26.9525 42.2171 31.3457 42.2162 38.27 42.2101" stroke="#01557A" stroke-width="2"/>
<path d="M40.132 32.1807C40.1269 35.4617 40.1264 37.5753 40.1303 38.5215C40.1353 39.83 39.6541 40.9495 38.7042 41.8187C38.5659 41.9447 38.4212 42.0751 38.27 42.2101" stroke="#0390D8" stroke-width="2"/>
<path d="M3.79118 26.1326C3.1669 27.7999 2.85896 29.577 2.86735 31.4639C2.86987 32.2063 3.84661 32.4683 4.20439 31.8233C4.27213 31.7013 4.30573 31.5395 4.30517 31.3379C4.30181 28.8464 4.93113 26.5444 6.19314 24.4319C7.88122 21.6061 10.3403 19.6338 13.5703 18.5152C14.1381 18.3186 14.2279 17.5855 13.7375 17.2537C13.551 17.1272 13.357 17.0961 13.1554 17.1605C8.82353 18.537 5.38689 21.8729 3.79118 26.1326Z" stroke="#FAC77B" stroke-width="2"/>
<path d="M25.087 33.6102C24.7059 33.6102 24.3404 33.7616 24.0709 34.0311C23.8014 34.3006 23.65 34.6661 23.65 35.0472L23.6492 37.9052C23.6492 38.2863 23.8006 38.6518 24.0701 38.9213C24.3395 39.1908 24.705 39.3421 25.0861 39.3421L37.9786 39.343C38.1674 39.343 38.3543 39.3058 38.5287 39.2335C38.7031 39.1613 38.8615 39.0553 38.995 38.9218C39.1284 38.7883 39.2342 38.6298 39.3064 38.4553C39.3786 38.2809 39.4157 38.094 39.4156 37.9052L39.4147 35.0455C39.4145 34.6645 39.263 34.2993 38.9935 34.03C38.7241 33.7607 38.3587 33.6094 37.9777 33.6094L25.087 33.6102Z" stroke="#01557A" stroke-width="2"/>
<path d="M37.9821 35.0656C37.9821 35.0596 37.9797 35.0539 37.9754 35.0496C37.9712 35.0454 37.9654 35.043 37.9594 35.043H25.1081C25.1021 35.043 25.0963 35.0454 25.0921 35.0496C25.0878 35.0539 25.0854 35.0596 25.0854 35.0656V37.8892C25.0854 37.8952 25.0878 37.901 25.0921 37.9052C25.0963 37.9095 25.1021 37.9119 25.1081 37.9119H37.9594C37.9654 37.9119 37.9712 37.9095 37.9754 37.9052C37.9797 37.901 37.9821 37.8952 37.9821 37.8892V35.0656Z" stroke="#7B7B7B" stroke-width="2"/>
<path d="M14.1749 0.644531H23.2225C23.699 0.664128 24.1743 0.694082 24.6486 0.734395C26.2359 0.870449 27.7963 1.35084 29.0653 2.2965C29.901 2.91967 29.7842 4.09713 28.9402 4.6657C28.6737 4.84543 28.3783 5.04419 28.0541 5.26199C27.667 5.52318 27.2454 5.66092 26.7784 5.52318C25.6726 5.19844 24.5707 5.01032 23.4728 4.95881C22.9795 4.93585 22.285 4.93249 21.3891 4.94873C21.3611 4.94929 21.3432 4.96329 21.3354 4.99072C21.238 5.33618 21.1487 5.69311 21.0675 6.06152C20.9121 6.76111 20.7903 7.33893 20.1151 7.66814C20.0843 7.68326 20.0689 7.70818 20.0689 7.74289V10.6353C20.0689 10.6627 20.0823 10.6765 20.1092 10.6765C20.5101 10.6837 20.8976 10.6832 21.2716 10.6748C21.6142 10.6669 21.902 10.7011 22.1349 10.7772C23.1192 11.0981 23.6643 11.9337 23.6517 12.9659C23.6461 13.4356 23.6455 13.9222 23.65 14.4255C23.6502 14.4385 23.6545 14.4511 23.6622 14.4615C23.6699 14.4719 23.6806 14.4796 23.6928 14.4835C25.4324 15.0495 27.0488 15.8832 28.5421 16.9845C28.5562 16.9949 28.5737 16.9995 28.5911 16.9973C28.6084 16.9951 28.6243 16.9863 28.6353 16.9728C28.9074 16.6385 29.1972 16.0338 28.9301 15.6223C28.8377 15.4795 28.7 15.3771 28.6513 15.2066C28.4833 14.6179 28.9939 14.1089 29.5701 14.3079C31.6422 15.0213 33.5103 15.8908 35.1743 16.9165C36.5718 17.7782 38.4648 19.2462 38.6605 20.9914C38.7137 21.4651 38.6684 21.9631 38.5245 22.4855C38.5161 22.5152 38.5259 22.5362 38.5539 22.5485C40.2711 23.3178 41.266 24.6405 41.5387 26.5168C41.5432 26.5448 41.5583 26.5641 41.584 26.5747C42.3992 26.914 42.8712 27.5246 43 28.4064V38.9271C42.7606 41.5147 40.8626 43.4379 38.2742 43.6445H7.63334C5.90662 43.5135 4.46713 42.8475 3.31486 41.6465C2.774 41.083 2.36332 40.4036 2.00051 39.6914C0.777695 37.2945 0.110859 34.7548 0 32.0723V30.852C0.241315 26.0073 2.04866 21.9237 5.42203 18.6012C7.25849 16.7928 9.49443 15.4213 12.1299 14.4868C12.1646 14.4745 12.1819 14.4499 12.1819 14.4129C12.1814 13.9353 12.1811 13.4362 12.1811 12.9155C12.1811 11.9404 12.7144 11.1165 13.6365 10.7957C13.8958 10.7056 14.2267 10.6653 14.6292 10.6748C15.0133 10.6837 15.3862 10.6843 15.7479 10.6765C15.753 10.6765 15.7579 10.6744 15.7616 10.6708C15.7652 10.6672 15.7672 10.6623 15.7672 10.6571V7.73869C15.7672 7.72611 15.7638 7.7138 15.7572 7.70312C15.7507 7.69245 15.7414 7.68383 15.7303 7.67822C15.3137 7.47386 15.0494 7.15416 14.9375 6.71912C14.798 6.1805 14.6544 5.60773 14.5066 5.0008C14.496 4.95769 14.4685 4.93753 14.4243 4.94033C13.7558 4.98736 13.1687 4.56156 12.9731 3.94428C12.8337 3.50672 12.9227 2.90623 12.8958 2.39896C12.8479 1.49361 13.225 0.832656 14.1749 0.644531ZM26.5718 3.98207L27.1295 4.12736C27.1541 4.13408 27.1768 4.13016 27.1975 4.11561L28.1642 3.46389C28.1681 3.46109 28.1714 3.45741 28.1736 3.45315C28.1759 3.44888 28.1771 3.44417 28.1772 3.43939C28.1773 3.43462 28.1762 3.42993 28.1741 3.42571C28.172 3.4215 28.1689 3.41789 28.165 3.41518C27.4634 2.90455 26.6664 2.55546 25.774 2.36789C25.3423 2.25815 24.8795 2.18452 24.3857 2.14701C23.8376 2.10446 23.2886 2.0829 22.7388 2.08234C19.9566 2.0773 17.174 2.07535 14.3907 2.07646C14.3543 2.07646 14.3361 2.09466 14.3361 2.13105L14.3353 3.45801C14.3353 3.49272 14.3526 3.51036 14.3874 3.51092C17.2495 3.51484 20.1103 3.51316 22.9697 3.50588C24.1158 3.50308 25.3165 3.66181 26.5718 3.98207ZM18.0995 6.37479L19.4659 6.37311C19.4939 6.37311 19.5112 6.35939 19.518 6.33195L19.8514 5.00248C19.8592 4.97001 19.8463 4.95377 19.8128 4.95377L18.4505 4.94957L16.0267 4.95209C15.9892 4.95209 15.9749 4.97029 15.9839 5.00668L16.3114 6.3202C16.3204 6.35603 16.3434 6.37395 16.3803 6.37395L18.0995 6.37479ZM18.6336 7.83695C18.6336 7.8296 18.6307 7.82255 18.6255 7.81736C18.6203 7.81216 18.6132 7.80924 18.6059 7.80924H17.2252C17.2178 7.80924 17.2108 7.81216 17.2056 7.81736C17.2004 7.82255 17.1975 7.8296 17.1975 7.83695V10.6521C17.1975 10.6595 17.2004 10.6665 17.2056 10.6717C17.2108 10.6769 17.2178 10.6798 17.2252 10.6798H18.6059C18.6132 10.6798 18.6203 10.6769 18.6255 10.6717C18.6307 10.6665 18.6336 10.6595 18.6336 10.6521V7.83695ZM20.7744 14.2618L22.1668 14.2626C22.2015 14.2626 22.2186 14.245 22.2181 14.2097C22.2113 13.7758 22.2113 13.3432 22.2181 12.9121C22.2209 12.7498 22.1918 12.6109 22.1307 12.4956C21.9434 12.1403 21.6596 12.1118 21.2447 12.1092C21.042 12.1081 20.8362 12.1087 20.6274 12.1109C18.5911 12.1081 16.548 12.1084 14.4982 12.1118C14.3196 12.1123 14.1771 12.1305 14.0707 12.1663C13.7424 12.278 13.6071 12.6005 13.613 12.939C13.6203 13.4099 13.6211 13.8402 13.6155 14.2298C13.6154 14.234 13.6162 14.2381 13.6177 14.242C13.6192 14.2459 13.6214 14.2494 13.6243 14.2524C13.6272 14.2553 13.6307 14.2577 13.6345 14.2593C13.6384 14.2609 13.6425 14.2618 13.6466 14.2618H20.7744ZM20.4981 42.2092L21.5252 42.2118C21.5644 42.2118 21.5703 42.198 21.5428 42.1706C20.8418 41.4685 20.3858 40.6292 20.1747 39.6528C20.0975 39.2967 20.0599 38.7796 20.0622 38.1016C20.0717 34.9426 20.0731 31.8176 20.0664 28.7264C20.0641 27.6867 20.5378 26.9689 21.4874 26.573C21.5137 26.5618 21.5252 26.5422 21.5218 26.5142C21.4244 25.661 21.6626 24.9255 22.2365 24.308C22.3933 24.1383 22.5915 23.9499 22.8312 23.7428C23.208 23.4902 23.6503 23.2839 24.1581 23.1238L25.2356 22.866C25.2396 22.865 25.2433 22.8631 25.2465 22.8605C25.2497 22.858 25.2522 22.8547 25.254 22.851C25.2558 22.8473 25.2567 22.8433 25.2567 22.8392C25.2567 22.8351 25.2558 22.831 25.2541 22.8273C24.7594 21.7305 24.966 20.6236 25.7001 19.6729C26.1964 19.0296 26.8464 18.5298 27.5066 18.0528C27.5107 18.0498 27.5141 18.0458 27.5165 18.0412C27.5188 18.0366 27.52 18.0315 27.52 18.0264C27.52 18.0212 27.5188 18.0161 27.5165 18.0115C27.5141 18.0069 27.5107 18.0029 27.5066 17.9999C26.1555 17.0218 24.676 16.2793 23.068 15.7726C22.9532 15.7211 22.8435 15.6954 22.7388 15.6954C19.5126 15.6982 16.2862 15.7021 13.0596 15.7071C13.0025 15.7071 12.9459 15.7158 12.8899 15.7332C10.5574 16.4672 8.51658 17.6284 6.76746 19.2168C3.56262 22.1269 1.66037 26.1539 1.45125 30.4833C1.29896 33.6389 1.95152 36.575 3.40893 39.2916C3.64744 39.7356 3.8546 40.0668 4.03041 40.2852C5.0623 41.5673 6.40633 42.2101 8.0625 42.2134C10.0462 42.2179 14.1914 42.2165 20.4981 42.2092ZM30.4519 16.3362C30.2643 17.2007 29.8363 17.9277 29.1678 18.5172C28.6812 18.9467 28.2756 19.2798 27.9508 19.5167C27.1051 20.1339 25.9612 21.1686 26.6247 22.3411C26.6282 22.3469 26.6337 22.3514 26.6401 22.3537C26.6465 22.356 26.6536 22.356 26.66 22.3537C27.7384 21.9449 28.6269 21.2963 29.3257 20.4077C29.7489 19.8686 30.5418 20.1037 30.6173 20.768C30.6484 21.0427 30.4922 21.2635 30.3251 21.4617C29.8945 21.9729 29.4108 22.4049 28.8738 22.7576C27.6661 23.5515 26.3641 24.1044 24.9677 24.4163C24.5394 24.5115 24.2183 24.6145 24.0044 24.7254C23.6718 24.8978 23.3899 25.138 23.1587 25.446C22.9739 25.6912 22.9037 26.0081 22.9479 26.3967C22.9518 26.428 22.9697 26.4437 23.0016 26.4437L38.6521 26.4454L39.9833 26.4437C40.0544 26.4437 40.081 26.4093 40.0631 26.3404C39.749 25.1137 39.0373 24.2808 37.9282 23.8419C37.9047 23.8323 37.8845 23.8371 37.8677 23.8561L37.5822 24.1828C37.3263 24.4527 37.0427 24.6935 36.7314 24.9051C36.094 25.3385 35.323 24.6935 35.6598 24.0132C35.709 23.9135 35.807 23.8116 35.9537 23.7075C36.1077 23.5972 36.2577 23.4729 36.4039 23.3346C36.8658 22.9046 37.1387 22.3601 37.2227 21.7011C37.3017 21.083 37.1421 20.5373 36.744 20.0642C36.2205 19.4411 35.5999 18.8955 34.8821 18.4274C33.5663 17.5702 32.1142 16.8255 30.5258 16.1934C30.4972 16.1822 30.4771 16.1909 30.4653 16.2194C30.4457 16.2676 30.4413 16.3065 30.4519 16.3362ZM40.1378 30.7462H41.5362C41.5443 30.7462 41.552 30.7431 41.5578 30.7374C41.5636 30.7318 41.567 30.7241 41.5672 30.716C41.5728 30.0228 41.572 29.342 41.5647 28.6735C41.5608 28.3275 41.4401 28.0937 41.2027 27.9722C40.8987 27.8168 40.3343 27.8756 39.948 27.8781C34.0921 27.8753 28.2327 27.8756 22.3701 27.879C22.1898 27.879 22.0465 27.8989 21.9401 27.9386C21.5781 28.073 21.4874 28.4232 21.4933 28.8053C21.5039 29.4548 21.5053 30.0892 21.4975 30.7084C21.4974 30.7132 21.4982 30.718 21.5 30.7225C21.5017 30.727 21.5044 30.7311 21.5078 30.7345C21.5111 30.7379 21.5151 30.7407 21.5196 30.7425C21.524 30.7444 21.5288 30.7454 21.5336 30.7454L40.1378 30.7462ZM38.27 42.2101C38.4273 42.1804 38.5754 42.1496 38.7143 42.1177C39.754 41.8797 40.5292 41.3364 41.0398 40.4876C41.4043 39.8812 41.5697 39.2345 41.5697 38.5366C41.5703 36.4605 41.5703 34.3584 41.5697 32.2302C41.5697 32.2017 41.5555 32.1874 41.5269 32.1874L40.1319 32.1807L21.547 32.1832C21.5151 32.1832 21.4992 32.1991 21.4992 32.2311C21.5008 34.3525 21.5006 36.4457 21.4983 38.5106C21.4972 39.5956 21.8662 40.4954 22.6052 41.2098C23.2696 41.8523 24.1791 42.2109 25.0903 42.2126C26.9525 42.2171 31.3458 42.2162 38.27 42.2101Z" fill="black"/>
<path d="M25.7739 2.3679C25.9575 2.50508 26.1356 2.63553 26.308 2.75927C26.532 2.92052 26.6686 3.06497 26.7179 3.19263C26.8102 3.43115 26.7615 3.6943 26.5717 3.98208C25.3164 3.66182 24.1157 3.50309 22.9696 3.50589C20.1103 3.51317 17.2495 3.51485 14.3873 3.51093C14.3526 3.51037 14.3352 3.49273 14.3352 3.45802L14.336 2.13107C14.336 2.09467 14.3542 2.07648 14.3906 2.07648C17.1739 2.07536 19.9566 2.07732 22.7387 2.08236C23.2885 2.08292 23.8375 2.10447 24.3856 2.14702C24.8794 2.18454 25.3422 2.25816 25.7739 2.3679Z" fill="#F5F5F5"/>
<path d="M25.7739 2.36816C26.6664 2.55573 27.4634 2.90482 28.165 3.41545C28.1688 3.41816 28.1719 3.42177 28.1741 3.42599C28.1762 3.4302 28.1773 3.43489 28.1772 3.43967C28.1771 3.44444 28.1759 3.44916 28.1736 3.45342C28.1713 3.45768 28.1681 3.46137 28.1641 3.46416L27.1975 4.11588C27.1767 4.13044 27.1541 4.13436 27.1294 4.12764L26.5718 3.98234C26.7616 3.69456 26.8103 3.43141 26.7179 3.19289C26.6686 3.06523 26.532 2.92078 26.3081 2.75953C26.1356 2.63579 25.9576 2.50534 25.7739 2.36816Z" fill="#CFD8DC"/>
<path d="M18.4507 4.94922L18.0996 6.37443L16.3804 6.37359C16.3435 6.37359 16.3205 6.35568 16.3116 6.31984L15.984 5.00633C15.9751 4.96993 15.9894 4.95174 16.0269 4.95174L18.4507 4.94922Z" fill="#F5F5F5"/>
<path d="M18.4507 4.94922L19.8129 4.95342C19.8465 4.95342 19.8594 4.96966 19.8515 5.00213L19.5181 6.3316C19.5114 6.35904 19.494 6.37275 19.466 6.37275L18.0996 6.37443L18.4507 4.94922Z" fill="#CFD8DC"/>
<path d="M18.6057 7.80957H17.225C17.2097 7.80957 17.1973 7.82198 17.1973 7.83729V10.6524C17.1973 10.6677 17.2097 10.6802 17.225 10.6802H18.6057C18.621 10.6802 18.6334 10.6677 18.6334 10.6524V7.83729C18.6334 7.82198 18.621 7.80957 18.6057 7.80957Z" fill="#CFD8DC"/>
<path d="M20.6274 12.1113C20.7209 12.3963 20.7712 12.5914 20.7785 12.6967C20.7976 12.9822 20.7962 13.504 20.7743 14.2621H13.6466C13.6424 14.2621 13.6383 14.2613 13.6345 14.2597C13.6307 14.2581 13.6272 14.2557 13.6243 14.2527C13.6214 14.2498 13.6191 14.2462 13.6176 14.2424C13.6161 14.2385 13.6154 14.2344 13.6155 14.2302C13.6211 13.8405 13.6203 13.4102 13.613 12.9394C13.6071 12.6009 13.7423 12.2784 14.0707 12.1667C14.1771 12.1309 14.3196 12.1127 14.4982 12.1121C16.548 12.1088 18.591 12.1085 20.6274 12.1113Z" fill="#F5F5F5"/>
<path d="M20.6274 12.1106C20.8363 12.1084 21.042 12.1078 21.2447 12.109C21.6596 12.1115 21.9435 12.14 22.1308 12.4953C22.1918 12.6106 22.2209 12.7495 22.2181 12.9118C22.2114 13.343 22.2114 13.7755 22.2181 14.2094C22.2187 14.2447 22.2016 14.2623 22.1669 14.2623L20.7744 14.2615C20.7963 13.5034 20.7976 12.9816 20.7786 12.696C20.7713 12.5907 20.7209 12.3956 20.6274 12.1106Z" fill="#CFD8DC"/>
<path d="M23.068 15.7726C23.2427 15.9103 23.4325 16.0285 23.6375 16.127C24.0176 16.309 24.2178 16.4058 24.2379 16.4176C25.0313 16.8661 25.7849 17.375 26.4988 17.9444C26.5324 17.9713 26.5332 17.9993 26.5013 18.0284C26.1419 18.3537 25.7768 18.6468 25.4062 18.9077C24.7838 19.3461 24.1212 19.9542 23.7911 20.6151C23.3494 21.5003 23.4717 22.3365 24.1582 23.1237C23.6503 23.2839 23.208 23.4902 22.8312 23.7427C22.1005 23.8172 21.497 24.0344 21.0205 24.3944C20.1174 25.078 19.8565 25.9778 20.2378 27.0937C20.2405 27.1017 20.2412 27.1102 20.2399 27.1186C20.2386 27.1269 20.2353 27.1348 20.2303 27.1416C20.2252 27.1484 20.2186 27.1538 20.211 27.1575C20.2034 27.1611 20.195 27.1629 20.1865 27.1625C19.3542 27.134 18.6345 27.7353 18.6353 28.5693C18.6376 31.9247 18.6373 35.2807 18.6345 38.6373C18.6334 40.0544 19.2546 41.245 20.4981 42.2092C14.1915 42.2165 10.0463 42.2179 8.06255 42.2134C6.40638 42.21 5.06235 41.5673 4.03046 40.2851C3.85465 40.0667 3.64749 39.7356 3.40898 39.2916C1.95157 36.5749 1.29901 33.6389 1.4513 30.4833C1.66042 26.1539 3.56267 22.1268 6.76751 19.2168C8.51662 17.6284 10.5574 16.4671 12.89 15.7331C12.946 15.7157 13.0025 15.7071 13.0596 15.7071C16.2863 15.702 19.5127 15.6981 22.7388 15.6953C22.8435 15.6953 22.9533 15.7211 23.068 15.7726ZM3.7911 26.1329C3.16682 27.8003 2.85888 29.5774 2.86728 31.4642C2.8698 32.2066 3.84653 32.4687 4.20431 31.8237C4.27205 31.7016 4.30565 31.5398 4.30509 31.3382C4.30173 28.8467 4.93105 26.5447 6.19306 24.4322C7.88114 21.6064 10.3402 19.6342 13.5702 18.5155C14.138 18.319 14.2278 17.5858 13.7374 17.2541C13.5509 17.1275 13.3569 17.0965 13.1554 17.1608C8.82345 18.5373 5.38681 21.8732 3.7911 26.1329Z" fill="#4DB8A6"/>
<path d="M23.0679 15.7725C24.6759 16.2792 26.1554 17.0216 27.5064 17.9997C27.5106 18.0028 27.514 18.0067 27.5163 18.0113C27.5187 18.0159 27.5199 18.021 27.5199 18.0262C27.5199 18.0313 27.5187 18.0364 27.5163 18.041C27.514 18.0456 27.5106 18.0496 27.5064 18.0526C26.8463 18.5297 26.1963 19.0294 25.6999 19.6727C24.9659 20.6234 24.7593 21.7303 25.254 22.8271C25.2557 22.8309 25.2566 22.8349 25.2566 22.839C25.2566 22.8431 25.2556 22.8471 25.2539 22.8508C25.2521 22.8545 25.2495 22.8578 25.2464 22.8604C25.2432 22.8629 25.2395 22.8648 25.2355 22.8658L24.158 23.1236C23.4716 22.3364 23.3492 21.5002 23.791 20.615C24.121 19.954 24.7837 19.346 25.406 18.9076C25.7766 18.6467 26.1417 18.3536 26.5012 18.0283C26.5331 17.9992 26.5322 17.9712 26.4986 17.9443C25.7848 17.3749 25.0311 16.8659 24.2378 16.4175C24.2176 16.4057 24.0175 16.3088 23.6373 16.1269C23.4324 16.0283 23.2426 15.9102 23.0679 15.7725Z" fill="#117C6A"/>
<path d="M36.4039 23.3344C36.1111 23.1625 35.8037 23.0407 35.4817 22.9691C35.4476 22.9612 35.4383 22.9419 35.454 22.9111C35.774 22.2779 35.9285 21.4305 35.7337 20.7342C35.4591 19.7533 34.5386 18.8572 33.7197 18.2584C32.7007 17.512 31.6114 16.8712 30.4519 16.336C30.4413 16.3063 30.4457 16.2674 30.4653 16.2192C30.4771 16.1907 30.4973 16.182 30.5258 16.1932C32.1142 16.8253 33.5663 17.57 34.8821 18.4272C35.5999 18.8953 36.2205 19.4409 36.744 20.064C37.1421 20.5372 37.3017 21.0828 37.2227 21.7009C37.1387 22.3599 36.8658 22.9044 36.4039 23.3344Z" fill="#C3C3C3"/>
<path d="M30.4519 16.3359C31.6114 16.8712 32.7007 17.512 33.7197 18.2583C34.5386 18.8571 35.459 19.7533 35.7337 20.7342C35.9285 21.4304 35.774 22.2778 35.454 22.9111C35.4383 22.9419 35.4475 22.9612 35.4817 22.969C35.8036 23.0407 36.111 23.1625 36.4039 23.3344C36.2577 23.4727 36.1077 23.5969 35.9537 23.7072C35.807 23.8114 35.709 23.9133 35.6597 24.0129C35.323 24.6932 36.0939 25.3382 36.7314 24.9049C37.0427 24.6932 37.3263 24.4525 37.5822 24.1826C37.8218 24.5079 37.9738 24.7193 38.0382 24.8167C38.3411 25.2747 38.5457 25.8175 38.6521 26.4451L23.0016 26.4435C22.9697 26.4435 22.9518 26.4278 22.9479 26.3964C22.9036 26.0079 22.9739 25.691 23.1587 25.4457C23.3899 25.1378 23.6718 24.8976 24.0044 24.7251C24.2183 24.6143 24.5394 24.5113 24.9677 24.4161C26.3641 24.1042 27.6661 23.5513 28.8738 22.7574C29.4108 22.4046 29.8945 21.9727 30.3251 21.4615C30.4922 21.2633 30.6484 21.0424 30.6173 20.7678C30.5417 20.1035 29.7489 19.8683 29.3256 20.4075C28.6269 21.2961 27.7383 21.9447 26.66 22.3534C26.6536 22.3557 26.6465 22.3558 26.6401 22.3535C26.6336 22.3512 26.6282 22.3467 26.6247 22.3408C25.9612 21.1684 27.1051 20.1337 27.9508 19.5164C28.2756 19.2796 28.6812 18.9465 29.1678 18.517C29.8363 17.9274 30.2643 17.2004 30.4519 16.3359Z" fill="#F5F5F5"/>
<path d="M3.79118 26.1326C5.38689 21.8729 8.82353 18.537 13.1554 17.1605C13.357 17.0961 13.551 17.1272 13.7375 17.2537C14.2279 17.5855 14.1381 18.3186 13.5703 18.5152C10.3403 19.6338 7.88122 21.6061 6.19314 24.4319C4.93113 26.5444 4.30181 28.8464 4.30517 31.3379C4.30573 31.5395 4.27213 31.7013 4.20439 31.8233C3.84661 32.4683 2.86987 32.2063 2.86735 31.4639C2.85896 29.577 3.1669 27.7999 3.79118 26.1326Z" fill="#F5F5F5"/>
<path d="M22.8315 23.7432C22.5918 23.9503 22.3936 24.1387 22.2369 24.3084C21.663 24.9259 21.4247 25.6614 21.5222 26.5146C21.5255 26.5426 21.514 26.5622 21.4877 26.5734C20.5381 26.9693 20.0645 27.6871 20.0667 28.7268C20.0734 31.818 20.072 34.943 20.0625 38.102C20.0603 38.78 20.0978 39.2971 20.175 39.6532C20.3861 40.6296 20.8422 41.4689 21.5431 42.171C21.5706 42.1985 21.5647 42.2122 21.5255 42.2122L20.4984 42.2096C19.2549 41.2455 18.6336 40.0549 18.6348 38.6378C18.6376 35.2812 18.6378 31.9252 18.6356 28.5697C18.6348 27.7358 19.3545 27.1345 20.1868 27.163C20.1952 27.1633 20.2036 27.1616 20.2113 27.1579C20.2189 27.1543 20.2255 27.1488 20.2305 27.1421C20.2356 27.1353 20.2389 27.1274 20.2402 27.119C20.2415 27.1107 20.2408 27.1021 20.238 27.0941C19.8567 25.9783 20.1177 25.0785 21.0208 24.3949C21.4972 24.0349 22.1008 23.8176 22.8315 23.7432Z" fill="#117C6A"/>
<path d="M38.6522 26.4452C38.5459 25.8175 38.3412 25.2747 38.0383 24.8167C37.9739 24.7193 37.8219 24.5079 37.5823 24.1826L37.8678 23.856C37.8846 23.8369 37.9048 23.8322 37.9283 23.8417C39.0374 24.2806 39.7491 25.1135 40.0632 26.3402C40.0811 26.4091 40.0545 26.4435 39.9834 26.4435L38.6522 26.4452Z" fill="#C3C3C3"/>
<path d="M39.9482 27.8779C40.0641 28.117 40.1223 28.3054 40.1228 28.4431C40.124 29.2085 40.129 29.9761 40.138 30.746L21.5337 30.7451C21.5289 30.7451 21.5242 30.7442 21.5197 30.7423C21.5153 30.7404 21.5113 30.7377 21.5079 30.7342C21.5045 30.7308 21.5019 30.7267 21.5001 30.7222C21.4984 30.7178 21.4975 30.713 21.4976 30.7082C21.5055 30.0889 21.5041 29.4546 21.4934 28.8051C21.4875 28.4229 21.5783 28.0727 21.9402 27.9384C22.0466 27.8986 22.1899 27.8787 22.3702 27.8787C28.2329 27.8754 34.0922 27.8751 39.9482 27.8779Z" fill="#805EA3"/>
<path d="M39.948 27.8782C40.3343 27.8757 40.8987 27.8169 41.2027 27.9723C41.4401 28.0938 41.5608 28.3275 41.5647 28.6735C41.572 29.3421 41.5728 30.0229 41.5672 30.716C41.567 30.7241 41.5636 30.7318 41.5578 30.7375C41.552 30.7431 41.5442 30.7463 41.5361 30.7463H40.1378C40.1288 29.9764 40.1238 29.2088 40.1227 28.4434C40.1221 28.3057 40.0639 28.1173 39.948 27.8782Z" fill="#442267"/>
<path d="M40.1319 32.1807C40.1269 35.4617 40.1263 37.5753 40.1302 38.5215C40.1353 39.83 39.654 40.9495 38.7042 41.8187C38.5659 41.9447 38.4211 42.0751 38.27 42.2101C31.3457 42.2162 26.9525 42.2171 25.0903 42.2126C24.1791 42.2109 23.2695 41.8523 22.6052 41.2098C21.8661 40.4954 21.4972 39.5956 21.4983 38.5106C21.5005 36.4457 21.5008 34.3525 21.4991 32.2311C21.4991 32.1991 21.5151 32.1832 21.547 32.1832L40.1319 32.1807ZM25.0869 33.6101C24.7058 33.6101 24.3403 33.7615 24.0709 34.031C23.8014 34.3004 23.65 34.6659 23.65 35.0471L23.6491 37.905C23.6491 38.2861 23.8005 38.6516 24.07 38.9211C24.3395 39.1906 24.705 39.342 25.0861 39.342L37.9785 39.3429C38.1673 39.3429 38.3542 39.3057 38.5286 39.2334C38.703 39.1611 38.8615 39.0552 38.9949 38.9217C39.1284 38.7882 39.2342 38.6296 39.3064 38.4552C39.3785 38.2808 39.4156 38.0938 39.4155 37.905L39.4147 35.0454C39.4145 34.6644 39.263 34.2991 38.9935 34.0298C38.724 33.7605 38.3587 33.6092 37.9777 33.6092L25.0869 33.6101Z" fill="#805EA3"/>
<path d="M40.132 32.1807L41.5269 32.1874C41.5555 32.1874 41.5698 32.2017 41.5698 32.2302C41.5703 34.3584 41.5703 36.4605 41.5698 38.5366C41.5698 39.2345 41.4043 39.8812 41.0398 40.4876C40.5292 41.3364 39.754 41.8797 38.7143 42.1177C38.5754 42.1496 38.4274 42.1804 38.27 42.2101C38.4212 42.0751 38.5659 41.9447 38.7042 41.8187C39.6541 40.9495 40.1353 39.83 40.1303 38.5215C40.1264 37.5753 40.1269 35.4617 40.132 32.1807Z" fill="#442267"/>
<path d="M25.087 33.6102L37.9777 33.6094C38.3587 33.6094 38.7241 33.7607 38.9935 34.03C39.263 34.2993 39.4145 34.6645 39.4147 35.0455L39.4156 37.9052C39.4157 38.094 39.3786 38.2809 39.3064 38.4553C39.2342 38.6298 39.1284 38.7883 38.995 38.9218C38.8615 39.0553 38.7031 39.1613 38.5287 39.2335C38.3543 39.3058 38.1674 39.343 37.9786 39.343L25.0861 39.3421C24.705 39.3421 24.3395 39.1908 24.0701 38.9213C23.8006 38.6518 23.6492 38.2863 23.6492 37.9052L23.65 35.0472C23.65 34.6661 23.8014 34.3006 24.0709 34.0311C24.3404 33.7616 24.7059 33.6102 25.087 33.6102ZM37.9819 35.0657C37.9819 35.0596 37.9796 35.0539 37.9753 35.0496C37.9711 35.0454 37.9653 35.043 37.9593 35.043H25.108C25.102 35.043 25.0962 35.0454 25.0919 35.0496C25.0877 35.0539 25.0853 35.0596 25.0853 35.0657V37.8892C25.0853 37.8952 25.0877 37.901 25.0919 37.9053C25.0962 37.9095 25.102 37.9119 25.108 37.9119H37.9593C37.9653 37.9119 37.9711 37.9095 37.9753 37.9053C37.9796 37.901 37.9819 37.8952 37.9819 37.8892V35.0657Z" fill="black"/>
<path d="M37.9592 35.043H25.1079C25.0954 35.043 25.0852 35.0531 25.0852 35.0656V37.8892C25.0852 37.9017 25.0954 37.9119 25.1079 37.9119H37.9592C37.9717 37.9119 37.9818 37.9017 37.9818 37.8892V35.0656C37.9818 35.0531 37.9717 35.043 37.9592 35.043Z" fill="#F5F5F5"/>
</g>
<defs>
<clipPath id="clip0_370_7825">
<rect width="43" height="43" fill="white" transform="translate(0 0.644531)"/>
</clipPath>
</defs>
</svg>
