<svg width="31" height="30" viewBox="0 0 31 30" fill="none" xmlns="http://www.w3.org/2000/svg">
<path d="M25.9749 26.4125C25.7249 26.4125 25.4874 26.3125 25.3124 26.1375L17.3374 18.1625C16.9749 17.8 16.9749 17.2 17.3374 16.8375L26.9999 7.17501C27.2374 6.93751 27.5999 6.85001 27.9249 6.93751C28.2499 7.03751 28.4999 7.30001 28.5749 7.62501C28.8124 8.68751 28.9374 9.87501 28.9374 11.25V18.75C28.9374 22.2125 28.2124 24.55 26.6374 26.1375C26.4624 26.3125 26.1999 26.35 25.9749 26.4125ZM19.3249 17.5L25.8999 24.075C26.6874 22.8625 27.0624 21.1375 27.0624 18.75V11.25C27.0624 10.7375 27.0499 10.2625 27.0124 9.81251L19.3249 17.5Z" fill="#979797"/>
<path d="M19.25 28.4383H11.75C10.375 28.4383 9.19999 28.3258 8.12499 28.0758C7.78749 28.0008 7.52496 27.7508 7.43746 27.4258C7.33746 27.1008 7.43747 26.7508 7.67497 26.5008L17.3375 16.8383C17.7 16.4758 18.3 16.4758 18.6625 16.8383L26.6375 24.8133C26.8125 24.9883 26.9125 25.2258 26.9125 25.4758C26.9125 25.7258 26.8125 25.9633 26.6375 26.1383C25.05 27.7133 22.7125 28.4383 19.25 28.4383ZM10.3125 26.5133C10.7625 26.5508 11.2375 26.5633 11.75 26.5633H19.25C21.65 26.5633 23.3625 26.1883 24.575 25.4008L18 18.8258L10.3125 26.5133Z" fill="#979797"/>
<path d="M8.33749 28.1C8.26249 28.1 8.20001 28.0875 8.12501 28.075C3.98751 27.125 2.0625 24.1625 2.0625 18.75V11.25C2.0625 4.4625 4.9625 1.5625 11.75 1.5625H19.25C24.6625 1.5625 27.625 3.48751 28.575 7.62501C28.65 7.93751 28.55 8.275 28.325 8.5L8.99998 27.825C8.82498 28 8.58749 28.1 8.33749 28.1ZM11.75 3.4375C5.9875 3.4375 3.9375 5.4875 3.9375 11.25V18.75C3.9375 23.0875 5.13751 25.2625 8.05001 26.125L26.6125 7.5625C25.7625 4.65 23.575 3.44999 19.2375 3.44999H11.75V3.4375Z" fill="#979797"/>
<path d="M11.8997 16.6383C11.1122 16.6383 10.3247 16.3508 9.69967 15.7633C7.71217 13.8758 6.9122 11.8008 7.3872 9.7758C7.8622 7.7008 9.67468 6.30078 11.8997 6.30078C14.1247 6.30078 15.9372 7.7008 16.4122 9.7758C16.8747 11.8133 16.0747 13.8758 14.0872 15.7633C13.4747 16.3383 12.6872 16.6383 11.8997 16.6383ZM9.21219 10.1883C8.81219 11.8883 9.96218 13.4133 10.9997 14.4008C11.5122 14.8883 12.2997 14.8883 12.7997 14.4008C13.8247 13.4258 14.9747 11.9008 14.5872 10.1883C14.2497 8.70078 12.9247 8.16329 11.8997 8.16329C10.8747 8.16329 9.56219 8.70078 9.21219 10.1883Z" fill="#979797"/>
<path d="M11.9375 11.8633C11.25 11.8633 10.6875 11.3008 10.6875 10.6133C10.6875 9.92578 11.2375 9.36328 11.9375 9.36328H11.95C12.6375 9.36328 13.2 9.92578 13.2 10.6133C13.2 11.3008 12.625 11.8633 11.9375 11.8633Z" fill="#979797"/>
</svg>
