<svg width="30" height="30" viewBox="0 0 30 30" fill="none" xmlns="http://www.w3.org/2000/svg">
<path d="M25.4749 26.4125C25.2249 26.4125 24.9874 26.3125 24.8124 26.1375L16.8374 18.1625C16.4749 17.8 16.4749 17.2 16.8374 16.8375L26.4999 7.17501C26.7374 6.93751 27.0999 6.85001 27.4249 6.93751C27.7499 7.03751 27.9999 7.30001 28.0749 7.62501C28.3124 8.68751 28.4374 9.87501 28.4374 11.25V18.75C28.4374 22.2125 27.7124 24.55 26.1374 26.1375C25.9624 26.3125 25.6999 26.35 25.4749 26.4125ZM18.8249 17.5L25.3999 24.075C26.1874 22.8625 26.5624 21.1375 26.5624 18.75V11.25C26.5624 10.7375 26.5499 10.2625 26.5124 9.81251L18.8249 17.5Z" fill="#4DB8A6"/>
<path d="M18.75 28.4383H11.25C9.87498 28.4383 8.69999 28.3258 7.62499 28.0758C7.28749 28.0008 7.02496 27.7508 6.93746 27.4258C6.83746 27.1008 6.93747 26.7508 7.17497 26.5008L16.8375 16.8383C17.2 16.4758 17.8 16.4758 18.1625 16.8383L26.1375 24.8133C26.3125 24.9883 26.4125 25.2258 26.4125 25.4758C26.4125 25.7258 26.3125 25.9633 26.1375 26.1383C24.55 27.7133 22.2125 28.4383 18.75 28.4383ZM9.81249 26.5133C10.2625 26.5508 10.7375 26.5633 11.25 26.5633H18.75C21.15 26.5633 22.8625 26.1883 24.075 25.4008L17.5 18.8258L9.81249 26.5133Z" fill="#4DB8A6"/>
<path d="M7.83749 28.1C7.76249 28.1 7.70001 28.0875 7.62501 28.075C3.48751 27.125 1.5625 24.1625 1.5625 18.75V11.25C1.5625 4.4625 4.4625 1.5625 11.25 1.5625H18.75C24.1625 1.5625 27.125 3.48751 28.075 7.62501C28.15 7.93751 28.05 8.275 27.825 8.5L8.49998 27.825C8.32498 28 8.08749 28.1 7.83749 28.1ZM11.25 3.4375C5.4875 3.4375 3.4375 5.4875 3.4375 11.25V18.75C3.4375 23.0875 4.63751 25.2625 7.55001 26.125L26.1125 7.5625C25.2625 4.65 23.075 3.44999 18.7375 3.44999H11.25V3.4375Z" fill="#805EA3"/>
<path d="M11.3997 16.6383C10.6122 16.6383 9.82467 16.3508 9.19967 15.7633C7.21217 13.8758 6.4122 11.8008 6.8872 9.7758C7.3622 7.7008 9.17468 6.30078 11.3997 6.30078C13.6247 6.30078 15.4372 7.7008 15.9122 9.7758C16.3747 11.8133 15.5747 13.8758 13.5872 15.7633C12.9747 16.3383 12.1872 16.6383 11.3997 16.6383ZM8.71219 10.1883C8.31219 11.8883 9.46218 13.4133 10.4997 14.4008C11.0122 14.8883 11.7997 14.8883 12.2997 14.4008C13.3247 13.4258 14.4747 11.9008 14.0872 10.1883C13.7497 8.70078 12.4247 8.16329 11.3997 8.16329C10.3747 8.16329 9.06219 8.70078 8.71219 10.1883Z" fill="#4DB8A6"/>
<path d="M11.4375 11.8633C10.75 11.8633 10.1875 11.3008 10.1875 10.6133C10.1875 9.92578 10.7375 9.36328 11.4375 9.36328H11.45C12.1375 9.36328 12.7 9.92578 12.7 10.6133C12.7 11.3008 12.125 11.8633 11.4375 11.8633Z" fill="#4DB8A6"/>
</svg>
