<svg width="20" height="21" viewBox="0 0 20 21" fill="none" xmlns="http://www.w3.org/2000/svg">
<path d="M10 13.6253C6.55 13.6253 3.75 10.917 3.75 7.58366C3.75 4.25033 6.55 1.54199 10 1.54199C13.45 1.54199 16.25 4.25033 16.25 7.58366C16.25 10.917 13.45 13.6253 10 13.6253ZM10 2.79199C7.24167 2.79199 5 4.94199 5 7.58366C5 10.2253 7.24167 12.3753 10 12.3753C12.7583 12.3753 15 10.2253 15 7.58366C15 4.94199 12.7583 2.79199 10 2.79199Z" fill="#404040"/>
<path d="M13.0166 19.4584C12.7833 19.4584 12.5499 19.4001 12.3082 19.2917L10.0666 18.2334C10.0416 18.2251 9.94992 18.2251 9.91658 18.2334L7.6916 19.2834C7.19993 19.5168 6.68326 19.5084 6.28326 19.2501C5.8666 18.9834 5.62493 18.4918 5.63327 17.9084L5.64158 11.7584C5.64158 11.4168 5.90825 11.1168 6.26658 11.1334C6.60825 11.1334 6.89158 11.4168 6.89158 11.7584L6.88327 17.9084C6.88327 18.0918 6.93326 18.1834 6.95826 18.1918C6.97493 18.2001 7.04993 18.2084 7.1666 18.1501L9.39992 17.0917C9.75826 16.9251 10.2499 16.9251 10.6083 17.0917L12.8499 18.1501C12.9666 18.2084 13.0416 18.2001 13.0583 18.1918C13.0833 18.1751 13.1333 18.0834 13.1333 17.9084V11.6084C13.1333 11.2667 13.4166 10.9834 13.7583 10.9834C14.0999 10.9834 14.3833 11.2667 14.3833 11.6084V17.9084C14.3833 18.5001 14.1416 18.9834 13.7249 19.2501C13.5083 19.3917 13.2666 19.4584 13.0166 19.4584Z" fill="#404040"/>
</svg>
