<svg width="20" height="21" viewBox="0 0 20 21" fill="none" xmlns="http://www.w3.org/2000/svg">
<path d="M10.0167 17.6086C8.07505 17.6086 6.13339 17.3003 4.29172 16.6836C3.59172 16.4419 3.05839 15.9503 2.82505 15.3086C2.58339 14.6669 2.66672 13.9586 3.05005 13.3253L4.00839 11.7336C4.20839 11.4003 4.39172 10.7336 4.39172 10.3419V7.93359C4.39172 4.83359 6.91672 2.30859 10.0167 2.30859C13.1167 2.30859 15.6417 4.83359 15.6417 7.93359V10.3419C15.6417 10.7253 15.8251 11.4003 16.0251 11.7419L16.9751 13.3253C17.3334 13.9253 17.4001 14.6503 17.1584 15.3086C16.9167 15.9669 16.3917 16.4669 15.7334 16.6836C13.9001 17.3003 11.9584 17.6086 10.0167 17.6086ZM10.0167 3.55859C7.60839 3.55859 5.64172 5.51693 5.64172 7.93359V10.3419C5.64172 10.9503 5.39172 11.8503 5.08339 12.3753L4.12505 13.9669C3.94172 14.2753 3.89172 14.6003 4.00005 14.8753C4.10005 15.1586 4.35005 15.3753 4.69172 15.4919C8.17505 16.6586 11.8667 16.6586 15.3501 15.4919C15.6501 15.3919 15.8834 15.1669 15.9917 14.8669C16.1001 14.5669 16.0751 14.2419 15.9084 13.9669L14.9501 12.3753C14.6334 11.8336 14.3917 10.9419 14.3917 10.3336V7.93359C14.3917 5.51693 12.4334 3.55859 10.0167 3.55859Z" fill="#404040"/>
<path d="M11.5666 3.7834C11.5083 3.7834 11.4499 3.77507 11.3916 3.7584C11.1499 3.69173 10.9166 3.64173 10.6916 3.6084C9.98327 3.51673 9.29993 3.56673 8.65827 3.7584C8.42493 3.8334 8.17493 3.7584 8.0166 3.5834C7.85827 3.4084 7.80827 3.1584 7.89993 2.9334C8.2416 2.0584 9.07493 1.4834 10.0249 1.4834C10.9749 1.4834 11.8083 2.05007 12.1499 2.9334C12.2333 3.1584 12.1916 3.4084 12.0333 3.5834C11.9083 3.71673 11.7333 3.7834 11.5666 3.7834Z" fill="#404040"/>
<path d="M10.0166 19.5088C9.1916 19.5088 8.3916 19.1755 7.80827 18.5921C7.22493 18.0088 6.8916 17.2088 6.8916 16.3838H8.1416C8.1416 16.8755 8.3416 17.3588 8.6916 17.7088C9.0416 18.0588 9.52493 18.2588 10.0166 18.2588C11.0499 18.2588 11.8916 17.4171 11.8916 16.3838H13.1416C13.1416 18.1088 11.7416 19.5088 10.0166 19.5088Z" fill="#404040"/>
</svg>
