<svg width="1184" height="571" viewBox="0 0 1184 571" fill="none" xmlns="http://www.w3.org/2000/svg">
<g clip-path="url(#clip0_1013_7328)">
<path d="M560.226 308.616C560.226 310.596 559.73 312.575 558.244 313.565C556.758 315.05 555.271 315.545 553.289 315.545H522.074V193.285H506.219V316.04H467.076V254.663H451.221V316.04H415.051V254.663H398.7V316.04H362.531V254.663H346.675V347.224C346.675 349.204 346.18 351.184 344.693 352.669C343.207 354.154 341.72 355.144 340.234 355.144H276.813C274.831 355.144 273.345 354.154 271.858 352.669C270.372 351.184 269.876 349.204 269.876 347.224V270.007H254.021V347.224C254.021 353.659 256.498 359.104 260.958 363.559C265.417 368.013 270.867 370.488 277.308 370.488H340.73C346.675 370.488 352.126 368.013 356.585 363.559C361.044 359.104 363.521 353.164 363.521 347.224V332.375H554.28C560.721 332.375 565.676 329.9 570.631 325.445C575.09 320.99 577.568 315.05 577.568 308.616V254.663H561.712V308.616H560.226Z" fill="#805EA3"/>
<path d="M669.726 362.564C666.754 362.564 664.772 363.554 662.79 365.534C660.808 367.514 659.817 369.989 659.817 372.464C659.817 375.434 660.808 377.414 662.79 379.394C664.772 381.374 666.754 382.364 669.726 382.364C672.204 382.364 674.681 381.374 676.663 379.394C678.645 377.414 679.141 375.434 679.141 372.464C679.141 369.494 678.15 367.019 676.663 365.534C675.177 363.059 672.699 362.564 669.726 362.564Z" fill="#805EA3"/>
<path d="M725.715 288.812H695.987C694.005 288.812 692.518 288.317 691.032 286.832C689.545 285.347 689.05 283.862 689.05 281.882V270.497C689.05 268.517 689.545 266.538 691.032 265.548C692.518 264.063 694.005 263.568 695.987 263.568H741.075V246.738H695.987C690.041 246.738 684.591 249.213 679.636 253.668C675.177 258.123 672.699 264.063 672.699 270.497V281.882C672.699 288.317 675.177 293.761 679.636 298.216C684.095 302.671 689.545 305.146 695.987 305.146H725.715C727.697 305.146 729.184 305.641 730.67 307.126C732.156 308.611 732.652 310.096 732.652 312.076V331.38C732.652 333.36 732.156 335.34 730.67 336.825C729.184 338.31 727.697 339.3 726.211 339.3H640.493C638.511 339.3 637.025 338.31 635.538 336.825C634.052 335.34 633.556 333.36 633.556 331.38V262.083H617.701V331.38C617.701 337.815 620.179 343.259 624.638 347.714C629.097 352.169 634.547 354.644 640.989 354.644H726.706C732.652 354.644 738.102 352.169 742.561 347.714C747.021 343.259 749.498 337.32 749.498 331.38V312.571C749.498 306.136 747.021 300.691 742.561 296.236C737.111 291.287 731.661 288.812 725.715 288.812Z" fill="#805EA3"/>
<path d="M699.455 362.564C696.482 362.564 694.5 363.554 692.518 365.534C690.536 367.514 689.545 369.989 689.545 372.464C689.545 375.434 690.536 377.414 692.518 379.394C694.5 381.374 696.482 382.364 699.455 382.364C701.932 382.364 704.41 381.374 706.392 379.394C708.374 377.414 708.869 375.434 708.869 372.464C708.869 369.494 707.878 367.019 706.392 365.534C704.905 363.059 702.428 362.564 699.455 362.564Z" fill="#805EA3"/>
<path d="M819.361 246.738H785.173V263.568H819.361C821.343 263.568 822.829 264.063 824.316 265.548C825.802 267.032 826.298 268.517 826.298 270.497V308.611C826.298 310.591 825.802 312.571 824.316 313.561C822.829 315.046 821.343 315.541 819.361 315.541H770.309V332.37H819.361C825.802 332.37 831.252 329.895 835.712 325.44C840.171 320.985 842.648 315.046 842.648 308.611V270.497C842.648 264.063 840.171 258.618 835.712 253.668C830.757 249.213 825.307 246.738 819.361 246.738Z" fill="#805EA3"/>
<path d="M1166.2 254.658V308.611C1166.2 310.591 1165.7 312.571 1164.21 313.561C1162.73 315.046 1161.24 315.541 1159.26 315.541H1130.03V254.658H1114.17V316.036H1078V254.658H1062.14V316.036H977.418V277.922C977.418 275.942 977.914 273.962 979.4 272.972C980.887 271.487 982.373 270.992 984.355 270.992H1022.51V254.163H984.355C978.409 254.163 972.959 256.638 968.004 261.093C963.545 265.548 961.068 271.487 961.068 277.922V315.541H929.357V270.002C929.357 265.548 927.871 262.083 924.898 258.618C921.925 255.648 917.961 253.668 913.997 253.668H891.701C883.278 253.668 876.341 256.638 870.395 263.073C864.449 269.012 861.477 276.437 861.477 284.852V307.621C861.477 314.056 863.954 319.5 868.413 324.45C872.873 328.905 878.323 331.38 884.764 331.38H913.997V346.229C913.997 348.209 913.502 350.189 912.015 351.674C910.529 353.159 909.042 354.149 907.556 354.149H873.368V369.988H907.556C913.502 369.988 918.952 367.514 923.907 363.059C928.366 358.604 930.843 352.664 930.843 346.724V331.875H1160.74C1167.19 331.875 1172.64 329.4 1177.1 324.945C1181.56 320.49 1184.03 314.551 1184.03 308.116V254.658H1166.2ZM877.332 285.842C877.332 281.882 878.818 278.417 881.296 275.447C884.269 272.477 887.737 270.992 891.701 270.992H913.502V315.541H884.269C882.287 315.541 880.8 315.046 879.314 313.561C877.827 312.076 877.332 310.591 877.332 308.611V285.842Z" fill="#805EA3"/>
<path d="M542.389 362.564C539.416 362.564 537.434 363.554 535.452 365.534C533.47 367.514 532.479 369.989 532.479 372.464C532.479 375.434 533.47 377.414 535.452 379.394C537.434 381.374 539.416 382.364 542.389 382.364C544.866 382.364 547.344 381.374 549.326 379.394C551.308 377.414 551.803 375.434 551.803 372.464C551.803 369.494 550.812 367.019 549.326 365.534C547.344 363.059 544.866 362.564 542.389 362.564Z" fill="#805EA3"/>
<path d="M338.747 436.815L329.333 449.189C322.396 443.25 311 439.29 299.109 439.29C280.281 439.29 272.849 450.179 272.849 460.574C272.849 467.009 275.822 473.443 281.272 477.898C286.227 482.353 294.65 484.828 301.586 486.808C311 489.778 321.405 492.748 330.324 500.667C337.756 507.102 344.197 518.487 344.197 530.861C344.197 550.66 329.829 571.45 299.109 571.45C283.254 571.45 267.894 566.005 256.002 555.61L265.912 543.731C274.831 552.145 287.218 556.105 299.109 556.105C320.415 556.105 328.342 542.741 328.342 530.861C328.342 523.931 324.874 516.507 318.928 511.557C312.982 506.607 304.559 504.132 294.65 501.162C286.722 498.687 278.794 496.212 269.876 488.788C262.939 482.848 256.993 472.453 256.993 461.069C256.993 440.28 272.849 423.945 298.613 423.945C314.469 423.945 328.838 428.895 338.747 436.815Z" fill="#4DB8A6"/>
<path d="M441.311 559.569C434.87 566.993 424.96 570.953 412.574 570.953C402.664 570.953 393.745 568.973 386.809 564.023C379.872 559.074 373.926 550.164 373.926 539.274C373.926 527.89 379.872 519.475 386.313 514.525C396.223 507.101 408.114 507.101 416.537 507.101H433.879C433.879 500.171 433.879 491.756 428.924 485.816C425.456 481.857 420.006 479.382 411.583 479.382C402.168 479.382 392.754 481.362 384.331 484.826L379.872 470.967C389.782 467.502 400.682 464.532 412.078 464.532C424.96 464.532 434.375 468.492 440.816 475.917C449.239 485.816 449.239 498.686 449.239 510.07V525.91C448.743 540.759 448.743 550.659 441.311 559.569ZM433.879 519.97H416.537C409.601 519.97 401.673 519.97 395.727 524.425C391.763 527.395 388.791 532.345 388.791 538.779C388.791 544.719 391.763 549.669 395.727 552.639C399.691 555.609 405.637 556.599 412.574 556.599C420.501 556.599 426.447 554.619 429.915 550.659C433.879 545.709 433.879 539.274 433.879 526.405V519.97Z" fill="#4DB8A6"/>
<path d="M497.796 466.016V521.453C497.796 534.818 497.796 544.223 503.742 550.162C507.21 553.627 512.661 556.597 519.597 556.597C526.534 556.597 531.984 554.122 535.452 550.162C541.398 543.728 541.398 534.818 541.398 521.453V466.016H556.263V521.453C556.263 536.798 556.263 549.172 546.353 560.062C541.398 565.507 531.984 570.951 519.102 570.951C506.219 570.951 497.301 565.507 491.85 560.062C481.941 549.667 481.941 536.798 481.941 521.453V466.016H497.796Z" fill="#4DB8A6"/>
<path d="M652.88 477.897V424.934H667.745V518.98C667.745 535.314 667.745 546.204 660.808 556.103C654.862 564.518 644.457 570.458 631.079 570.458C618.197 570.458 608.287 565.013 601.846 558.578C589.955 546.204 589.955 530.859 589.955 517.99C589.955 503.141 589.955 488.786 599.369 477.402C605.314 469.977 615.224 464.532 628.106 464.532C638.016 464.532 647.43 469.482 652.88 477.897ZM646.935 486.311C642.971 481.856 637.025 478.886 629.097 478.886C621.17 478.886 614.728 481.856 611.26 486.311C604.819 493.736 604.819 505.615 604.819 517.99C604.819 528.88 604.819 540.264 612.251 548.679C616.71 554.124 624.143 556.598 631.079 556.598C637.52 556.598 643.962 554.619 648.421 549.174C653.376 542.739 653.376 533.334 653.376 521.95C652.88 506.11 652.88 493.736 646.935 486.311Z" fill="#4DB8A6"/>
<path d="M722.247 438.794C722.247 444.734 717.788 449.189 712.337 449.189C706.887 449.189 702.428 445.229 702.428 438.794C702.428 432.854 706.887 428.399 712.337 428.399C718.283 428.894 722.247 432.854 722.247 438.794ZM704.905 466.018H719.769V569.469H704.905V466.018Z" fill="#4DB8A6"/>
<path d="M898.141 436.813C908.547 446.218 912.51 460.077 912.51 471.462C912.51 482.846 908.547 496.706 898.141 506.11C885.259 517.99 869.404 517.99 853.053 517.99H841.657V568.973H825.802V458.592C825.802 448.198 825.802 438.793 834.225 430.873C841.162 424.934 849.089 424.934 856.026 424.934C870.89 424.934 885.259 424.934 898.141 436.813ZM845.125 442.258C841.657 445.228 841.657 449.683 841.657 458.592V503.141H853.053C868.908 503.141 878.818 503.141 887.241 495.716C893.187 490.271 896.655 482.351 896.655 471.957C896.655 461.562 892.691 453.148 887.241 448.198C878.818 440.773 869.899 440.773 856.026 440.773C850.576 440.278 847.603 440.278 845.125 442.258Z" fill="#4DB8A6"/>
<path d="M963.545 424.934H948.681V569.468H963.545V424.934Z" fill="#4DB8A6"/>
<path d="M1015.07 466.016V521.453C1015.07 534.818 1015.07 544.223 1021.02 550.162C1024.49 553.627 1029.94 556.597 1036.88 556.597C1043.81 556.597 1049.26 554.122 1052.73 550.162C1058.68 543.728 1058.68 534.818 1058.68 521.453V466.016H1073.54V521.453C1073.54 536.798 1073.54 549.172 1063.63 560.062C1058.68 565.507 1049.26 570.951 1036.38 570.951C1023.5 570.951 1014.58 565.507 1009.13 560.062C999.219 549.667 999.219 536.798 999.219 521.453V466.016H1015.07Z" fill="#4DB8A6"/>
<path d="M1165.2 484.827C1157.28 480.867 1148.36 478.887 1139.93 478.887C1134.48 478.887 1131.02 479.877 1127.05 481.857C1123.58 483.837 1121.11 487.796 1121.11 492.746C1121.11 497.201 1123.58 501.161 1126.56 503.141C1131.02 506.606 1134.98 507.596 1142.91 509.576C1150.34 511.061 1157.28 513.04 1163.22 517.495C1169.66 522.445 1175.61 530.365 1175.61 541.254C1175.61 551.154 1170.65 559.074 1164.21 564.023C1157.77 568.973 1149.84 570.953 1139.93 570.953C1128.54 570.953 1116.65 568.478 1105.75 563.528L1111.69 550.659C1120.12 554.619 1130.03 557.094 1139.93 557.094C1145.88 557.094 1151.33 556.104 1155.29 553.134C1159.26 550.164 1160.74 545.709 1160.74 542.244C1160.74 537.295 1158.27 533.335 1154.8 530.365C1150.34 526.9 1144.89 525.415 1137.95 523.93C1131.02 522.445 1123.58 520.465 1117.14 515.515C1110.7 510.566 1105.75 502.646 1105.75 493.241C1105.75 483.342 1111.2 475.422 1117.14 471.462C1123.09 467.007 1130.52 465.027 1139.44 465.027C1150.34 465.027 1160.74 467.502 1170.16 471.957L1165.2 484.827Z" fill="#4DB8A6"/>
<path d="M267.468 92.8008H207.516V30.9282C207.516 14.0989 194.138 0.734375 177.787 0.734375H129.726C113.375 0.734375 99.9971 14.0989 99.9971 30.9282V179.422C99.9971 192.292 110.402 202.686 122.789 202.686H266.973C283.324 202.686 296.702 189.322 296.702 172.493V122.995C297.197 106.165 283.819 92.8008 267.468 92.8008ZM275.396 172.493C275.396 177.442 271.928 180.907 266.973 180.907H122.789C122.294 180.907 121.303 180.412 121.303 179.422V30.9282C121.303 25.9784 124.771 22.5135 129.726 22.5135H177.787C182.246 22.5135 185.715 26.4734 185.715 30.9282V95.2757C185.715 105.67 194.138 114.58 204.543 114.58H266.973C271.432 114.58 274.901 118.54 274.901 122.995V172.493H275.396Z" fill="#805EA3"/>
<path d="M188.688 180.91V130.917C188.688 120.522 180.265 111.612 169.86 111.612H25.6756C11.8022 111.612 0.40625 123.492 0.40625 137.846V187.344C0.40625 201.699 11.8022 213.578 25.6756 213.578H88.1058C89.0967 213.578 89.5922 214.073 89.5922 215.063V279.411C89.5922 293.765 100.988 305.645 114.862 305.645H162.923C176.796 305.645 188.192 293.765 188.192 279.411V202.689H175.31V279.411C175.31 286.34 169.86 292.28 162.923 292.28H114.862C107.925 292.28 102.475 286.34 102.475 279.411V215.063C102.475 206.649 96.0334 200.214 87.6103 200.214H25.6756C18.7389 200.214 13.2887 194.274 13.2887 187.344V137.846C13.2887 130.917 18.7389 124.977 25.6756 124.977H169.86C172.832 124.977 175.31 127.452 175.31 130.917V180.91H188.688Z" fill="#4DB8A6"/>
</g>
<defs>
<clipPath id="clip0_1013_7328">
<rect width="1182.7" height="570.218" fill="white" transform="translate(0.40625 0.734375)"/>
</clipPath>
</defs>
</svg>
